<mxfile host="Electron" agent="Mozilla/5.0 (Windows NT 10.0; Win64; x64) AppleWebKit/537.36 (KHTML, like Gecko) draw.io/24.7.17 Chrome/128.0.6613.36 Electron/32.0.1 Safari/537.36" version="24.7.17">
  <diagram name="第 1 页" id="GDtnWhyPpBhDvl0bbOI6">
    <mxGraphModel dx="1050" dy="1029" grid="0" gridSize="10" guides="1" tooltips="1" connect="1" arrows="1" fold="1" page="0" pageScale="1" pageWidth="1169" pageHeight="827" math="0" shadow="0">
      <root>
        <mxCell id="0" />
        <mxCell id="1" parent="0" />
        <mxCell id="y77ZhqmCZSWafk2qcw_b-1" value="" style="shape=image;verticalLabelPosition=bottom;labelBackgroundColor=default;verticalAlign=top;aspect=fixed;imageAspect=0;image=data:image/png,iVBORw0KGgoAAAANSUhEUgAABGQAAAMmCAIAAAA8IcB7AAAgAElEQVR4Aey9/Y8cx5nn6f9oyGnAPmMl6LDSCrDPwEnCHXn8QdLiZAhYwcBI+mH6CKwtzIL6xfYCpAgIoGFamnH3jUcUNEeux+ZiTHLAZQMDSzc+StCAMx6TemuSIkW9NEmpJdmuQ0RkRD7xllUVXVmRVfwQgjorXp7niU9EZMa3IjPrK6PSf38srUg9CEAAAhCAAAQgAAEIQGD+BFjAT8v8K9NWMOX/OBqp/+Bdho9aEIAABCAAAQhAAAIQmC+BP/5RL+Dn63TRvX3l+gcfJv+7dv3Gtes33r/2wdX3r199//qVq9c2L199b/PKu+9dfvud9956+92Ll97+3cW3tvkHAQhAAAIQgAAEIAABCAyewO8uvnXx0ttvvf3u2++89+57l9/bvLJ5+eqVq9fMav/9ax+Y9X9SGtyxiYilwY9rAoQABCAAAQhAAAIQgMCOCSCWCiTfVz648VHyP2PLbC6Z/aXLV943m0vvvLv59jvvXXrrnYuX3v6cfxCAAAQgAAEIQAACEIDA4AlcvPT2pbfeefud9955d9NsK12+8v7V96+/f+0Ds61k1v9JaXDHJn7lxocfJ/8zRK5/8KG7H+/K1WtGL7373uV33t186+13L731zhf8gwAEIAABCEAAAhCAAAQGT+DSW++89fa777y7+e57lzcvX7185f0rV6/Ju+/M+j8pDe7YRMTS4Mc1AUIAAhCAAAQgAAEIQGDHBBBLBZLvKx9+9EnyP2PrgxsfufvxzGseLl95X77m4Uv+QQACEIAABCAAAQhAAAKDJyBf7WC2la6+f/3a9Rvu7juz/k9Kgzs2EbE0+HFNgBCAAAQgAAEIQAACENgxAcRSgeT7ykcfbyX/M7ZufPixe3jJvObBvUPcvObh9/yDAAQgAAEIQAACEIAABAZPQL7awbwx/P1rH1z/4EP3qJJZ/yelwR2b+JWPP7mZ/M8Q+fCjT9z9eO5nl+RrHv7APwhAAAIQgAAEIAABCEBg8ATkqx3MS/CuXb/xwY2P3N13Zv2flAZ3bCJiafDjmgAhAAEIQAACEIAABCCwYwKIpQLJ95VPtm4l/zO2Pvp4y92PZ14j/v61D8w7xM1rHv7IPwhAAAIQgAAEIAABCEBg8ATefe/ye5tX5BvDr3/w4Y0PP3Z335n1f1Ia3LGJiKXBj2sChAAEIAABCEAAAhCAwI4JIJYKJB9iacfjDgMQgAAEIAABCEAAAhAYPAHEEmJp8IOUACEAgaUlcO0Xf/7gv9v1p3/y1f/lz/6fi7Nr5bk/3/Wnf5L47//6H7PzsQSW/sefO0r/x0/fm7pBn/x/h/7Pu/6nP9n1p/9uzw9+/cnU1akAAQhAYCEIIJZKxNLWzdvJ/4ytjz+56V6LZ36g9tr1G+bXaTcvX31v88qIfxCAAASWjcD21uaF02s/fPKRex5e25ywcdePP75r94r9b9/E9caa31htzTr7K7t27z83tuqdVODcqoNTAP/1A3e76iu7VjfuJHK0FQIQuIMIvLd5ZfPyVfPScPNbtB/c+OjDjz5xL8Ez6/+kNLhjE7+Sazli6Q6aOjQVAgtF4MKhb1lNohe4T53cnm38G/ud/T0Ti547Uyz13hcT9yxiaWJUFIQABO5cAoilnPDpSEcs3bkThpZDYDEJXDj0TbEJoHZdnv7lbNVSkVgaja7/cvWhu3av7Prat548fqkftptre13bh7Cz1H9fTMxxZ2JptHX+ucfu/vqu3St37f3hq1sTe6UgBCAAgYUigFjqEEW5LMTSQo1xgoUABDbX90S3pc34tqlCsTSHvhmYWJpDX0wMdYdiaWI/FIQABCCwwAQQSzlF1JGOWFrgEU/oELgDCWyu7WvukXvqh99/sNlmuevAa7NEgViajOY8+mKySEajEWJpYlQUhAAE7lwCiKUOUZTLQizduROGlkNgAQlcP/7tRiA9dvz6+QP3NMLp7mfPJxrTvhqh2Xraen3tKX2n3O6Vux58/PunN9vb94RAcg8spQ6Clwe0LvzCE9wjt33p3Nozjz14v7pzT/93130PPfaDExeut0FFbZpqZ2nrwvEfPvbgPV819r92zzce2b+2IZocWZ8yobe+COKYDJQQS+q2zO3NM9//9kN3fU2z/do9Dx84E7e8FXu2C0xHJB5Uu/7yw67M3vXkSz+uH3vUjYEnTwed2HdfBMj4CAEIQCBNALGUU0Qd6Yil9GAiFQIQGCKB7ZNPNmtWLVpahfOtQxfieFslo8TSxfWHzdLZrXp3r+xZsw8XtaYa6eIWvv7BbMTS9ZP77xVheC4ya3HdvInF0vWTq/elG/LVR9YvxqgKUvrrCxHM5KCEWNp/fOOZBN77nj3nS5gpxNJo+/RTjmcwBky41196xBa4+9lXRRNGc+gL6Y5jCEAAAnkCiKUOUZTLQizlBxQ5EIDAwAhsn3y60RXffE6Jo3a9vvKNhFqSYknKDLuoVXLl0Zeu60bOUSxddHcSJvXSzsXS1kZOKRl6d62e2fkrDHrsCzvqpgIlxJLsX+84GCTTiKXR9mk79pTGjvaWxNaT52UufWGB8RcCEIDAGAKIpZwi6khHLI0ZVWRDAALDIeAWxHcdeF1H1d4JtiuhMVqx9ORTeqV73zOn1U1uW6dX73ebOYmFrxBOidwsDqnH8rfheS9F+PoDB85c3DL7Hdtb1y+9euyHjz31crQSdy4ncbF9btXenbj7/ifWXjO39W1f3Ph++ya9ew54ex/O/hQHvffFlKBcPE3P3vedly4osFunxSbegy9kd9XGd/pr7W8xGa0uaIl78OQm55z6QgTCIQQgAIEuAoilDlGUy0IsdQ0p8iAAgSERaMWPe/2d+J2fx4+bPaI24ra8XkCLAnIh7my5iuPXza6oPJhEycj3EIibAKWZruMJXIgtjnsbSWktiqwd/+5qy9bxm21fSPHT3i1pmxL/leV33ff0L9vBMAG00Wg0QaeLBkpFNBqNhItHXm49C+B99kUMgxQIQAACaQKIpZwi6khHLKUHE6kQgMDgCJx/1r4LQfywUpu48lioltoF/a7w1imR5Rb7rsETrJtdWXEgVsy7cztLG991t95FuxPCVO5wvAvx27jBgt5f0yc24nJOU+kt9p76YmpQQizds3rau81QZOX6ZSKxNBLix7vXTmjvJ8UvJM+pL1L9QxoEIACBJAHEUocoymUhlpJjiUQIQGBwBNp33337RPvl/UjInqfEQlWFL7KCZ+67G9efWBKransnYXcoQe54sdRScqosfZCXDYHP1MfWS099MT0ooYjCFzCIrHyrJ+p08RYHoXXFs09Py9fgtZTSXeCep8pHlYJPGgQgAIFiAoilnCLqSEcsFY83KkIAAvMkcOHQN5vFpf8c0fYv29eUBYtOIZbi7aOO2CdaN8f1xyuZkdAAfitia8mU8S6EMHBr8eRBwCrpLpfYf19MD0o0vD+xJF/z4Dbu2k4Jfu9LhJTsApe4k77I9RHpEIAABBIEEEsdoiiXhVhKjCSSIACBwREQq2f3bob4wNdEgxZLPe0sTbpA73jVwdi+n0NfCBcTghIN71EsjUbtax6aO/HaUJ18agiKkJwuSh3spC/GdhYFIAABCAgCiKWcIupIRyyJEcQhBCAwVALiTqfUctPe5uQvrIcnlsS7zneJ+7gmpt5uYuzKPBZ18ScPWQ0ZaoaJvYwpOI++mB6UUCZhw0VWfg9n4u3E9jUPugdbGlGHzqEvxnQV2RCAAAR8AoilDlGUy0Is+YOITxCAwBAJiFeEW11kJYGvnbwFa7FYesYZ957jH0NmvJLxXpsmfxJ3jGWXPYGL9tULK3t+Yn9y1xmYwcF8+kK2dKLXBgpF1K9YGl147hvNIPzWoQttnA8fE0/SGc6998UMuhMTEIDAHUUAsZRTRB3piKU7ao7QWAgsJoHrJx6zGkm+bcw1RiyU5a1QpWKpvbFqZdfufYdeNb9U5LzlDtp1c27bR/3sj/tdXdWirz9w4MSFxvysfmepfaCosb/Z/JDTaHvr+uaFc8eee3Lv4/GvquZaFabPqy+mBSXGQM9iadS+5mHP6v49zcj0Xu1gofXcF9YNfyEAAQhMSACx1CGKclmIpQlHF8UgAIFqBLZbgSF+K0mEIwqsiBcnlIqlkVzj+jtXu72FeHsLltVybktKHHhVgs0lUcw68l/qXeBie+OZe7viUQqwWCwJ1H33hRSfFo5slw9qerEkhoc0Gxz7j8GZQbd9Wv/GsSz51Bnz08JiVKrDXvsi8MVHCEAAAmMJIJZyiqgjHbE0dlxRAAIQqEygXQf76+M2LLkX1L7MWqyGU0vetnp8dHHd7hgEy3RPZhQoGe3q0vEn7k/IJLP49ttY5mJr49kH5FI+PPZaEbe+I2W+fTEFqDawSAqKLPnMkhgeIR/R6cmRs33mSa/KPQdezTLrry+yLsmAAAQgkCGAWOoQRbksxFJmNJEMAQgMhUC7qM0/QST3gtyOR1txV3LJ293Arddf+t7jD9x3j69qPJlRpmSM260LZ9Y8+/fc+81Hnzzk7sprgit3sb15bu2Zxx683/6S78pX7/7WNx55+vtrZ+yNf93tT+a2SOfWFxOCEorI66PRaCSyZiSWRqNXD4iB4T0pl+LWS1+kHJEGAQhAoJMAYimniDrSEUudY4pMCEAAAhCAAAQgAAEILAUBxFKHKMplIZaWYuzTCAhAAAIQgAAEIAABCHQSQCzlFFFHOmKpc0yRCQEIQAACEIAABCAAgaUggFjqEEW5LMTSUox9GgEBCEAAAhCAAAQgAIFOAoilnCLqSEcsdY4pMiEAAQhAAAIQgAAEILAUBBBLHaIol4VYWoqxTyMgAAEIQAACEIAABCDQSQCxlFNEHemIpc4xRSYEIAABCEAAAhCAAASWggBiqUMU5bIQS0sx9mkEBCAAAQhAAAIQgAAEOgkglnKKqCMdsdQ5psiEAAQgAAEIQAACEIDAUhBALHWIolwWYmkpxj6NgAAEIAABCEAAAhCAQCcBxFJOEXWkI5Y6xxSZEIAABCAAAQhAAAIQWAoCiKUOUZTLQiwtxdinERCAAAQgAAEIQAACEOgkgFjKKaKOdMRS55giEwIQgAAEIAABCEAAAktBALHUIYpyWYilpRj7NAICEIAABCAAAQhAAAKdBBBLOUXUkY5Y6hxTZEIAAhCAAAQgAAEIQGApCCCWOkRRLguxtBRjn0ZAAAIQgAAEIAABCECgkwBiKaeIOtIRS51jikwIQAACEIAABCAAAQgsBQHEUocoymUhlpZi7NMICEAAAhCAAAQgAAEIdBJALOUUUUc6YqlzTJEJAQhAAAIQgAAEIACBpSCAWOoQRbksxNJSjH0aAQEIQAACEIAABCAAgU4CiKWcIupIRyx1jikyIQABCEAAAhCAAAQgsBQEEEsdoiiXhVhairFPIyAAAQhAAAIQgAAEINBJALGUU0Qd6YilzjFFJgQgAAEIQAACEIAABJaCAGKpQxTlshBLSzH2aQQEIAABCEAAAhCAAAQ6CSCWcoqoIx2x1DmmyIQABCAAAQhAAAIQgMBSEEAsdYiiXBZiaSnGPo2AAAQgAAEIQAACEIBAJwHEUk4RdaQjljrHFJkQgAAEIAABCEAAAhBYCgKIpQ5RlMtCLC3F2KcREIAABCAAAQhAAAIQ6CSAWMopoo50xFLnmCITAhCAAAQgAAEIQAACS0EAsdQhinJZiKWlGPs0AgIQgAAEIAABCEAAAp0EEEs5RdSRjljqHFNkQgACEIAABCAAAQhAYCkIIJY6RFEuC7G0FGOfRkAAAhBYIgKXz64fPHzk+eMXtpeoUTQFAhCAQHUCiKWcIupIRyxVH7cEAAEIQODNY4ePHHT/vfLmnU3k6qkXDY0T56cGAcmpkVEBAhC4cwggljpEUS4LsXTnTBBaCgEIRASunD3qJEp4sH7qSlQ+n/Du2Z/96Pm/m35xbyzOaIm/ffWffv6z5w8fOfji2ctxqJ9c+odX1g+bZj6/fuzspVtxmf5TJgFldpZ+9PPfTr+zNCOS/XPAAwQgAIH5E0As5RRRRzpiaf4DFY8QgMBgCMxOLJ1/5cjBwwU7IQEKvdYv2Fn6ZPPXx60QSoqlVEsP//y3gfs5fJwRqLGRlpIca5gCEIAABBaWAGKpQxTlshBLCzveCRwCEJgtgTdOHDx85NgbhUZnpAEKl/gXfv5jdRff8y+f+t0//iwplm69+bcvvvzf//mq3qv58sZvTugtpr/9p+n3bgoB2WozAmXNZf8WkszaIwMCEIDA4hNALOUUUUc6YmnxBz4tgAAEZkKgQyx9ef2ffv6zHz1vHqT58Y9+evL8h9alrtU+biTu5Tt6+qotNPry2oVTr6w/n7TgCqmD0iX+v/zqL4+/fu1LayF5G57naPvXf33k4OHpbjUc1woVvGr1l5u/tvf7Pf/SxrsqqtFoIlC6+Y5hbofNu5/wr352Onk/YQfJrX87/bdNbz7/V3/5c8NN0tn6t7MnjrrOeunsv30iczmGAAQgsKgEEEsdoiiXhVha1OFO3BCAwIwJZMWSe9+AeAeDkxkTaYCUhedPXkg0oGOJnyidStIWJhVLPzs3hQwY2wrl+vnjvzrWyIwG1+Hj+ma/iUDp4LvFUuJ+wqTky5G8ff4VvQvnvIQbcdtvHo8K5GRbqgNIgwAEIDBYAoilnCLqSEcsDXY8ExgEIDBfAhmx9O7f/9XBw0cO//XZCx/qLZLtq/90XKUcfOl1eQtb591lV//hlROn/nnzltlj2b7665fUcvxv/zluYG6JH5fMpWgLY8XSrd+sHT5y8Kf/eCNnJpE+thVW6jz/8ql/+Ui19ZPXf6aE09/Jt/t1gnJecxwawfaj46+/q2l+eWvzzb8/eS7xKo60he031P2Hh1/6jak+sr35s9+4ztQV/3rjhkn48va7/3xmLSlsXbAcQAACEFgQAoilDlGUy0IsLcjoJkwIQKBvAmmx9M4vjhw5+Pzf+btAm//9aPg6h8k0gG1D2pe9iW5H+xh6rT9GLN0+r9RackPGRjjJ37AV2vXzJ86Lt+zFWOKUlKu01Bm99avnldR5U3hI1VZpaQvKe9ibb6qnvI67Hv7tiefN019bOdOkQwACEFhQAoilnCLqSEcsLehoJ2wIQGDWBMKlv7GfXnPrFyp4YqNbA3x57fUTP/2r5rXd9gaw1Msk0u6maaq20CWWbp8//sLBwz8+9sbtacyqsuNaMVHw3aBsSGlT26+9PPFLOJIWUncSmu746T+6GxJv/cvJH5nE59fXTm5c0I+C2cD4CwEIQGCBCSCWOkRRLguxtMAjntAhAIFZEigQS9da/10aIPGYjXqep4ZY+kjfAfjjY29Mv20yvhVJfdIiMkddoNqyaVOfbPwsw62taY+SFiYSS8rClx9deu1Xay82Dy89f3ySvSzrmb8QgAAEhkoAsZRTRB3piKWhDmfiggAE5kwgLZbMTVnBbXjv/OLokYP+Gxq0Bki/L8G81/voyd/eMM8s2VfDzVssfbl56sUjZXtKo9FoglYk9UnYix2gRNGMqX/+u4OHj/zo5DuiZO4waUG/A/DIry7lKsXp2+/8w09/fPDwC794K84jBQIQgMCCEUAsdYiiXBZiacFGOeFCAAJ9EUiLpdEF/W40+UqAX7/0gnrlg/+LrpdOqsSjPxeKyAaq5cGPf/aafueBemHA2WPqkaf57izduvQLpZRe+Nvp774z7ZigFUl9YinYvx2gbJHsE0ej7dfV80WHf7x2+rfNCxi2r071gocbZ9Xe1I+O/+bSh+6NDsLtaDS6snHslbNvvrfVZH95+9Lfr2fexuFX5BMEIACBwRNALOUUUUc6Ymnw45oAIQCB+RDIiKXRrTeDd2GrV+Ed+Tv5GgMV4L+cDB5Jcr+z9MmGetIm/q/dWdKu4wLOwngAGQsH7cNLl0+rFX/iP1tgrIvxrci8UyG0nAeV+y0myeGWfp2d3xDx8FiGg7CQvhOv7Yvk3Yb+LmLYIj5DAAIQWBACiKUOUZTLQiwtyOgmTAhAoG8CObGkXoF96R/sr6weTP+MqQruxhsn//Jo+xM9YoF+W/wK6gtHj//m3d+dOSp3lsYv8cc1PmNhhmJpNBrXignFUgeoTCsEScXhk99tHHvxhUaaPr9+7Kz4UdpJLHg/MdwIyFYsjb689hvRj/nuHtcl5EMAAhAYHAHEUk4RdaQjlgY3jgkIAhCAAAQgAAEIQAACMyeAWOoQRbksxNLMxyEGIQABCEAAAhCAAAQgMDgCiKWcIupIRywNbhwTEAQgAAEIQAACEIAABGZOALHUIYpyWYilmY9DDEIAAhCAAAQgAAEIQGBwBBBLOUXUkY5YGtw4JiAIQAACEIAABCAAAQjMnABiqUMU5bIQSzMfhxiEAAQgAAEIQAACEIDA4AgglnKKqCMdsTS4cUxAEIAABCAAAQhAAAIQmDkBxFKHKMplIZZmPg4xCAEIQAACEIAABCAAgcERQCzlFFFHOmJpcOOYgCAAAQhAAAIQgAAEIDBzAoilDlGUy0IszXwcYhACEIAABCAAAQhAAAKDI4BYyimijnTE0uDGMQFBAAIQgAAEIAABCEBg5gQQSx2iKJeFWJr5OMQgBCAAAQhAAAIQgAAEBkcAsZRTRB3piKXBjWMCggAEIAABCEAAAhCAwMwJIJY6RFEuC7E083GIQQhAAAIQgAAEIAABCAyOAGIpp4g60hFLgxvHBAQBCEAAAhCAAAQgAIGZE0AsdYiiXBZiaebjEIMQgAAEIAABCEAAAhAYHAHEUk4RdaQjlgY3jgkIAhCAAAQgAAEIQAACMyeAWOoQRbksxNLMxyEGIQABCEAAAhCAAAQgMDgCiKWcIupIRywNbhwTEAQgAAEIQAACEIAABGZOALHUIYpyWYilmY9DDEIAAhCAAAQgAAEIQGBwBBBLOUXUkY5YGtw4JiAIQAACEIAABCAAAQjMnABiqUMU5bIQSzMfhxiEAAQgAAEIQAACEIDA4AgglnKKqCMdsTS4cUxAEIAABCAAAQhAAAIQmDkBxFKHKMplIZZmPg4xCAEIQAACEIAABCAAgcERQCzlFFFHOmJpcOOYgCAAAQhAAAIQgAAEIDBzAoilDlGUy0IszXwcYhACEIAABCAAAQhAAAKDI4BYyimijnTE0uDGMQFBAAIQgAAEIAABCEBg5gQQSx2iKJeFWJr5OMQgBCAAAQhAAAIQgAAEBkcAsZRTRB3piKXBjWMCggAEIAABCEAAAhCAwMwJIJY6RFEuC7E083GIQQhAAAIQgAAEIAABCAyOAGIpp4g60hFLgxvHBAQBCEAAAhCAAAQgAIGZE0AsdYiiXBZiaebjEIMQgAAEIAABCEAAAhAYHAHEUk4RdaQjlgY3jgkIAhCAAAQgAAEIQAACMyeAWOoQRbksxNLMxyEGIQABCEAAAhCAAAQgMDgCiKWcIupIRywNbhwTEAQgAAEIQAACEIAABGZOALHUIYpyWYilmY9DDEIAAhCAAAQgAAEIQGBwBBBLOUXUkY5YGtw4JiAIQAACEIAABCAAAQjMnABiqUMU5bIQSzMfhxiEAAQgAAEIQAACEIDA4AgglnKKqCMdsTS4cUxAEIAABCAAAQhAAAIQmDkBxFKHKMplIZZmPg4xCAEIQAACEIAABCAAgcERQCzlFFFHOmJpcOOYgCAAAQhAAAIQgAAEIDBzAoilDlGUy0IszXwcYhACEIAABCAAAQhAAAKDI4BYyimijnTE0uDGMQFBAAIQgAAEIAABCEBg5gQQSx2iKJeFWCofh7/819FfnBn9x1dG9/+l+v9/OTM6+dtya9SEAAQgAAEIQAACEIBAfwQQSzlF1JGOWCoZkB9+Ntr/96P/+SeJ//7zr0Zbn5fYpA4EIAABCEAAAhCAAAT6I4BY6hBFuSzE0tQD8v/dHD3wfydkktNO//vfjF6/OrVZKkAAAhCAAAQgAAEIQKA/AoilnCLqSEcsTT0g/+JMl1IykukvzkxtlgoQgAAEIAABCEAAAhDojwBiqUMU5bIQS9MNyFO/G6+UjF469bvpLGdKv3ns8JGDzX8nzvuFzr/istZPXRF5b5ywVY4cfOVNkSGtqbpHT7MFJvBwCAEIQAACEIAABJaXAGIpp4g60hFL002IP/vFpGLpz34xneVU6aunXmz1jJJGL569bMtppdTIp8un1w8etnrpytmj7nik1JFQROrjsTesCf5CAAIQgAAEIAABCNwxBBBLHaIol4VYmm5+7P2bScXS3r+ZzvL40mq/SCoiKXuUrPI3kRp7vsRCLI3HTAkIQAACEIAABCCwlAQQSzlF1JGOWJpuLvyHFycVS//hxeksjy8txZI6bu/K0ztL3r6Ts4ZYcig4gAAEIAABCEAAAncyAcRShyjKZSGWppsy/+m/TSqW/tN/m87y2NJS9ih11NySp/eUXjx7Xt2J18onay1xG177OJO4qc+W5y8EIAABCEAAAhCAwHISQCzlFFFHOmJpusnwXzcmFUv/dWM6y92lzd6Re9yoEUv6RQ4mURcIxJLWUQkFZVwpHWUVV7dzciEAAQhAAAIQgAAEFp4AYqlDFOWyEEvTjfsL10f//oXxeunfvzD61w+ms9xROlBKqqSWSVLqNPKptdKtlHQ5eV9fW5EjCEAAAhCAAAQgAIElJIBYyimijnTE0tQzYZLNpcP/OLXZXIWEUhqNRuqVd+ELHsRb7yZQSqNRajMqFwXpEIAABCAAAQhAAAKLTQCx1CGKclmIpakH/cefjf7X9a7Npf/tZ6NPv5zabLJCWinpotGrw909eBMpJSO3hL5K+icRAhCAAAQgAAEIQGBJCCCWcoqoIx2xVDL6tz4f/edfpfXS/r8f3fy8xGaqjn6sqP1RWv0TtOKtDFovmd+ldUrJ3qHn12pEkd6Psi94sG8hTzkmDQIQgAAEIAABCEBgyQggljpEUTLqK3kAACAASURBVC4LsVQ+C07+dvRfzoz+4yuj+/9S/f8vzox++a/l1iap+Uf+QQACEIAABCAAAQgsBYFJ1n6zLYNYyimijnTE0mwH4eytLcXZgEZAAAIQgAAEIAABCGQJzH4FmbKIWOoQRbksxFJqKA0gLTuZ/vjHP/APAhCAAAQgAAEIQGBhCXQs83pdhCKWcoqoIx2x1OuYLDGenD8dZ4Pf8w8CEIAABCAAAQhAYMAEOhZyyYVfyQpygjqIpQ5RlMtCLE0wsuZYJJgwwdQa8EmA0CAAAQhAAAIQgAAEpiAQLPOCRWAfy0/EUk4RdaQjlvoYiiU2gxki508w7b7kHwQgAAEIQAACEIDAwhIIlnZy1RcsCEvWlPk6iKUOUZTLQizlB9Qcc+TEkBPGzSV5Nvhign+f8w8CEIAABCAAAQhAYO4EJlimfSHXdW6xJ1eAcmU4wwUpYimniDrSEUszHIGFpuR8cPPEzRw3ndzci2f9Nv8gAAEIQAACEIAABAZJIF65uUWdW+a5hZ9bCsr1YeESM6qGWOoQRbksxFI0juae4CaDmx5mwpj546aTmWnBSeAz/kEAAhCAAAQgAAEIDJ5AsIQz6zq3zDOrPrMCdAtCt0Sc1eIUsZRTRB3piKVZDb9CO24amInhvleQSknKJHcq+DTz7zb/IAABCEAAAhCAAASqEsgs0z51CzmjnaRkknrp97//vVkZuoVi4ULTr4ZY6hBFuSzEkj+I5vvJTQD3FYLbUzLfNAQyyU08N/1v8Q8CEIAABCAAAQhAYPAE3OLNLec+++yzpGTqb38JsZRTRB3piKX5yiPfWyCWYqVkptBnn31m5pWZZu5scDP6t8U/CEAAAhCAAAQgAIEBEIiWaTfdEs6s6MzqTkom8135l19+KfWSWy76q8iST4ilDlGUy0IslQy1mdRxQ1/egPfll1+6PaXt7W2zV/vpp5/evn3bTDAz8dwZ4BP+QQACEIAABCAAAQgMnoBbvJm1nFnX3b59+9NPm3vztre3P//88171EmIpp4g60hFLMxE+JUZiseSeU/r888+NUvr0009v3rx1/cbHm1c/fO/KDf6DAAQgAAEIQAACEFgaAptXP7x24+ObN28ZyeT0knt+abZPLiGWOkRRLguxVKJzZlLHiKV4W8lXSrevvP/RZ9tf/P73f5iJU4xAAAIQgAAEIAABCAyEwO9//4ftz7+4/P6HN282W0xSL8U34+0wbMRSThF1pCOWdjjqCqsnt5WCG/Bu3rx1+f0PCx1QDQIQgAAEIAABCEBgQQhcUXrplnl+KbgZb4abS4ilDlGUy0Is1ZlDk2wrXfvg4+3Pv6gTH14hAAEIQAACEIAABOZF4LPtL6598HF8M95sN5cQSzlF1JGOWJrXJPD9BGIpeFrJvNFh8+qH3H3nY+MTBCAAAQhAAAIQWEICv//9Hzavfmje9yDvxDNvxpObSztpPGKpQxTlshBLOxly5XVjsfTFF1/Ip5Vu3br13pUb5Q6oCQEIQAACEIAABCCwOATeu3Lj1q3Emx6CH6jdSYMQSzlF1JGOWNrJkCusKx9Ykr+tZMSSe1E4YqmQL9UgAAEIQAACEIDAohEwYineXHJ34rkFZHHLEEsdoiiXhVgqHm/lFd1Y/8Mf/iDFkntd+O3bt2/evIlYKkdMTQhAAAIQgAAEILBQBN67cuPmzZvul5e2t7e/+OIL+QO1bgFZ3CzEUk4RdaQjlorHW3lFM9bdS8PND9EG9+Ahlsr5UhMCEIAABCAAAQgsGgEjlnq9Ew+x1CGKclmIpQozqVss3b59+9atW1tbW+wsVegbXEIAAhCAAAQgAIEaBN67cmNra+vWrVu3b9+W7xCf4TseEEs5RdSRjliqMBs6xJJ7YAmxVKFjcAkBCEAAAhCAAAQqEZBi6dNPP5XvxJvVOx4QSx2iKJeFWKowIcaKpZs3byKWKnQMLiEAAQhAAAIQgEAlAkYsuceWEEs59TLndMRShQmRE0ufffbZp59+euvWrZs3b37yySfchlehb3AJAQhAAAIQgAAEahB478qNTz755ObNm+6xpc8//9y942EmP7XEzlKB0EIsVZgNTiwlX4WHWKrQJbiEAAQgAAEIQAACVQnEYin3QrziMBFLiKXiwTPXioilueLGGQQgAAEIQAACEBg8AcRSgZKZQxV2lipMHcRSBei4hAAEIAABCEAAAgMmgFiag/IpcIFYqjBpxoqlra0tnlmq0DG4hAAEIAABCEAAApUIGLFk3h7+6aefmreHu2eWzAvxzBqyOEBuw0MsFQ+euVaMxVLwi7SIpbn2B84gAAEIQAACEIBAbQJJsfT555+b31lCLBXonJlUYWepwszoEEvuF2nZWarQMbiEAAQgAAEIQAAClQhIsSR/lxaxNBPNU2wEsVRhQiCWKkDHJQQgAAEIQAACEBgwAcRSsZ7ptSJiqcKkQSxVgI5LCEAAAhCAAAQgMGACiKVeNU+xccRShUmDWKoAHZcQgAAEIAABCEBgwAQQS8V6pteKiKUKkwaxVAE6LiEAAQhAAAIQgMCACSCWetU8xcYRSxUmDWKpAnRcQgACEIAABCAAgQETQCwV65leKyKWKkwaxFIF6LiEAAQgAAEIQAACAyaAWOpV8xQbRyxVmDSIpQrQcQkBCEAAAhCAAAQGTACxVKxneq2IWKowaRBLFaDjEgIQgAAEIAABCAyYAGKpV81TbByxVGHSIJYqQMclBCAAAQhAAAIQGDABxFKxnum1ImKpwqRBLFWAjksIQAACEIAABCAwYAKIpV41T7FxxFKFSYNYqgAdlxCAAAQgAAEIQGDABBBLxXqm14qIpQqTBrG0c+gX1x5/7NDrWzs3hIW5ENja2P/AUyevz8UXTiAAAQhAAAKLSACx1KvmKTaOWKowmxBLO4R+cW3frt0ru3avPHaM5XcBy41VTc8w1P/ft7ZZYGfiKhdfeEB7vPeJExcnrkRBCEAAAhCAwB1FALFUrGd6rYhYqjANK4ql7Ysba997/IG7v24Wynfd9+jq2mux4NjePHPoqUfv+poSJLu+ds8D3/7h6c1tn9T2xY317377oabM7nvufWT/2qu+pc31PeGiXBvcvbK64Rub5tPWxv57zco7t1Ox9fraE/ebBiYcbV+/cPy5Jx+5/y4Tm27d8YsD2KPavvTqMRXYY+OEy8Xj31EE7n786IWgUybkOHexNNo6f6jRt/eubgyA9YSgKAYBCEAAAhCYHwHEUq+ap9g4Yml+c8B5qiWWLhz6lpEQ4f/3rsvv+50a8YvdL1a5Fw59s5E9fpmVPWuXXDNHfYil6yceMyLHj9k63d483kgpE1golrZOPmkUYKjiZOussfn+3bTbZXvGiKXXDrgmhM2bNuLNtb2mH3veWVJxbZ1bNQq2PuppMVEeAhCAAAQgMAcCiKViPdNrRcTSHAZ/6KKWWBqNLq19+6EnDm1c3NI7EluvH2rWyisPu/vZnMK57+njF1Wx7QsvP3GfWVI/ftxtHV1cf+zB7xzauNRYOv+c3UR69CVXxpra6ZK+5bf1y6eiSGzu9uaZAw82O2ZOwsWutzaeeWDvs8cvXNcItjePP232qXbd/eyr1lSVvxOLpdHFtcfVtlj5zpJr3zzF0mi0vfFdM5Due+Zc2ZaYC5wDCEAAAhCAwNIRQCz1qnmKjSOWKky1emIpauyrzzZ3o62eMXmvHrhHK437D5wXhW2xbxy6IFK9Q1txZfW0TZ+5WLrw3Df0jlBy78Xum339gQNnzh16KL2zZEMTf6+/9IgRYA8dlftrosR8DicXS7OLZ75iaTTaPv206ZdWnM+uMViCAAQgAAEILDQBxFKxnum1ImKpwrQakFiyembX3nX9hL99muWbzwlVtPXqgUZ77PLSPXSJtb41Hm/veDUn/mD12NOnk/sSWydX9z5rnq1ywUzi+tyqEUsr353ySSr19NOhpx/+5j1fbW7qu+feBx///vFL8pkcG8nTv9weXT/97MPmabGv3fPw6gm9bzeyBZoY3J5Yc9D0i2Lk4nRlkqJRFd26cPwH3pNpB45fkFFZ5OPE0vbmad/O6rH4DYRb3jNgu9UTbmlvyqu9gTM/kGxs/IUABCAAAQjcWQQQS71qnmLjiKUK83BAYsnu1ez6nhYK9q1lzUfFZut086iJWc2rRX/yn93YEZJjxmLp9QN3qxjuOvBaMgCZ6BTIBGJp297aN+1zO05phDrn3u9tOEg2kodWV5s3HDips+upk1uj2YulrY1nmhsL/eeyUihcE1Jt37J3zfl2vvqIfMJt86VHwlsfdQNTBnUPWSDZArIfOYYABCAAAQjcOQQQS8V6pteKiKUKc3A4Ysnu1dxzwDyvs7HfLOXtlsWl4/q1cvc+ceJos/2SW+O+ZpSM9+SPFUtWHnz9rm8++uShM2ZHZWruVsg9edIpkawNuyKf4LV7119+2IiBR152D1tl7XoZmy899fj3j1/YNI9tjUbbF088GT3c5SLZtXvl3qf0btLWxmpUbCRUk4XvOZMfnM1EyZb5Q9893TxRpnbAfvD4ocS+WYdYun7820YE7jv0qn6+a/v6uQPNC0Lam+g2njGde9fqSfMQ2Gh7a/PCie9/+zvZt1RYfT5JP8pWcwwBCEAAAhBYbgKIpV41T7FxxFKFeTcQsdS+9c7d6yXF0valo/r1D/euntlq7wFLiiX3orMVb/neLtz9vZevPbpW8HRQE9tETxY5OZHaTpE9fsm+Du7+77a7QbLAdMf2TrlvuWe7XCS7xOv7bLF75INhrqTHMOW/o6RTv6unU7fdhdbyYslKGj+YM80PNH37RCMs7YC566kT4bvlQ1/uc2PkgZ+IFye6TA4gAAEIQAACdyoBxFKxnum1ImKpwowcgljavvhC8/66+/afc+tqu/bd84OXDzyoFM4DB14zmaezO0vbF38yyU/obG9tvuZ+/mjXE3a1PTF+qxCSai20Ygt37yy1dxh6bzwPjXV8No/rfMv+2FSrCZ1ImywS5cKV9PVJwnu+pH0iaPf+c4l6cVJWLF0//rjdD2wb1aY4de3e5K525+554Nv7Dx17rXnXYuytSbHPxTlG2ZJkQAACEIAABO4gAoilXjVPsXHEUoVJWF8sXbQ/F3vfd47LTZ7z9uV4+s60PYfc0/xuVb3fvevOgLtofx3o3idOSEsZrPZuvUlX860ZqxBmJZba3TAnCFtnkxxtvWb0ZCshxLM9TgjYsLtlm/LnSu5ALFkd4sTMmIa4bg2pumCSrbOvA1HWty++/OQ3w8eW7n1i/bxT4GEMNkjHKCzAZwhAAAIQgMCdSACxVKxneq2IWKowGyuLpesnm0dr7nv6l8FjOtsnn2xW/F9/WP68rEv3V+HXTzY/UnTvUycDSxmsbnU+4daHMNPserV3uIm88NCt9TML8q3zh5rdMCEIQyPdn90LLdSTSPaxJXt/XSuNxkXSOnEldyKWvtt034R4XXdkxVL7Ivg20sTR9talV4899+Re8955vRn11JnMs2WNWBrbzIQbkiAAAQhAAALLSwCx1KvmKTaOWKow52qKpfbtAvtSDw61j/XLB/SvH3vU7DC0T/aPRvKRpwn2lDTn7TONGCt4c7R9iuax9pdxs33nhEdSLLW7Yasb2f2PrO0mw+oiKTO2jj/R3LTm/HZH4jk5Hbxdw8uUH5zNSG+47lt5Ur1pb+y/rFgatW9umO5Zrq3T+5tf7tr9TPpWwGle1DG2ARSAAAQgAAEILA0BxFKxnum1ImKpwhSrJ5ba9xlkZcL5Z5sXTz/47Dn1grPt668+Z59ueuac2yxob+QTjzx1sdzeunjmwIPN/VqTCJ7ImL19K7tl0dZwcsKJFpdXovFcZXFw7nuNLtrzk0sak3gia3fJztLI3QO594f5e9hUBK51kVgabW84rbLDt+G9fqB5Zd/XH/7BRvMCQ/WmuzNrqw8dsC/W21z7zmPfWz8t3gh4wT7AJm/VE9hGVnhLkSnzOYYABCAAAQjcoQQQS71qnmLjiKUKE7KWWDr/g/vTj6Doe7ecrnAbL15h7xV2r3+/WUmnnv63zyO5Nb1nZ/fXH24fhZoOvt3MefSl5D1/9u0UvjsracxO2fUTT4gni8KS/k2GY4JzqlIYvPe+hrCD6SC4lLxZ93oGQbUNyWpF4a6Nv7UufkHYL9kW6QTVFru4/vDXRCTCmivjWtdG0hS7/7vpTbvrLz2ibbbtyvMgBwIQgAAEIHAnEUAsFeuZXisilirMwlpiyYqNMStg9Uu0519efeT+5n6qux967AcnLnh3dXUu3DNi6a77Hnrse+vnJn7DdKJjrD75hnsztyzUqQGaTZjc28zNEn/KFfzWxnOPPWie0vn6XQ8+fWhjc9vevRbLCZciQw6Pt15/afXRe/Vv7zbyow2pk7lvfUv90tFD1s7X73pQ/R5U24GdoDxLW+oHmh64u9kP/Ord33r4qeeOX2h+UUkHH74PUPfyy+aXmcLWjUajV5s3iBRtLSbskQQBCEAAAhBYGgKIpV41T7FxxFKFKVZLLFVo6oxdumdy9h2d9DGpGUeAuR0QsFtnBU+s7cArVSEAAQhAAAILQQCxVKxneq2IWKowfRBL5dDd1pD8eahyc9ScGwH3rvbZ/P7v3OLGEQQgAAEIQGA+BBBLvWqeYuOIpfmMf88LYsnDMeUH8YaGF5oXD0xpgeLzJ+AehCv9/d/5h4xHCEAAAhCAwFwJIJaK9UyvFRFLc50GxhliaYfQ3cr74WObOzRF9XkQuPCcecXivdmXMM4jCnxAAAIQgAAEhkwAsdSr5ik2jliqMGsQSzuGvn3xJ496P5u7Y4sY6JXA1uln9nzvTPuSiV6dYRwCEIAABCCwgAQQS8V6pteKiKUKkwmxVAE6LiEAAQhAAAIQgMCACSCWetU8xcYRSxUmDWKpAnRcQgACEIAABCAAgQETQCwV65leKyKWKkwaxFIF6LiEAAQgAAEIQAACAyaAWOpV8xQbRyxVmDSIpQrQcQkBCEAAAhCAAAQGTACxVKxneq2IWKowaRBLFaDjEgIQgAAEIAABCAyYAGKpV81TbByxVGHSIJYqQMclBCAAAQhAAAIQGDABxFKxnum1ImKpwqRBLFWAjksIQAACEIAABCAwYAKIpV41T7FxxFKFSYNYqgAdlxCAAAQgAAEIQGDABBBLxXqm14qIpQqTBrFUATouIQABCEAAAhCAwIAJIJZ61TzFxhFLFSYNYqkCdFxCAAIQgAAEIACBARNALBXrmV4rIpYqTBrEUgXouIQABCAAAQhAAAIDJoBY6lXzFBtHLFWYNIilCtBxCQEIQAACEIAABAZMALFUrGd6rYhYqjBpEEsVoOMSAhCAAAQgAAEIDJgAYqlXzVNsHLFUYdIglipAxyUEIAABCEAAAhAYMAHEUrGe6bUiYqnCpEEsVYCOSwhAAAIQgAAEIDBgAoilXjVPsXHEUoVJg1iqAB2XEIAABCAAAQhAYMAEEEvFeqbXioilCpMGsVQBOi4hAAEIQAACEIDAgAkglnrVPMXGEUsVJg1iqQJ0XEIAAhCAAAQgAIEBE0AsFeuZXisilipMGsRSBei4hAAEIAABCEAAAgMmgFjqVfMUG0csVZg0iKUK0HEJAQhAAAIQgAAEBkwAsVSsZ3qtiFiqMGkQSxWg4xICEIAABCAAAQgMmABiqVfNU2wcsVRh0iCWKkDHJQQgAAEIQAACEBgwAcRSsZ7ptSJiqcKkQSxVgI5LCEAAAhCAAAQgMGACiKVeNU+xccRShUmDWKoAHZcQgAAEIAABCEBgwAQQS8V6pteKiKUKkwaxVAE6LiEAAQhAAAIQgMCACSCWetU8xcYRSxUmDWKpAnRcQgACEIAABCAAgQETQCwV65leKyKWKkwaxFIF6LiEAAQgAAEIQAACAyaAWOpV8xQbRyxVmDSIpQrQcQkBCEAAAhCAAAQGTACxVKxneq2IWKowaRBLFaDjEgIQgAAEIAABCAyYAGKpV81TbByxVGHSIJYqQMclBCAAAQhAAAIQGDABxFKxnum1ImKpwqRBLFWAjksIQAACEIAABCAwYAKIpV41T7FxxFKFSYNYqgAdlxCAAAQgAAEIQGDABBBLxXqm14qIpQqTBrFUATouIQABCEAAAhCAwIAJIJZ61TzFxhFLFSYNYqkCdFxCAAIQgAAEIACBARNALBXrmV4rIpYqTJrFF0tXT7145OArb1Zgh8uGwOba3pVdu1f2rG0uLBLdhL3rQQM21/bt2r2yK0qfrJkbq7sVltWNyYpTCgIQgAAEIDAYAoilXjVPsXHEUoUpsvBi6crZo4fXT12pgG5YLjf2q2W9/W/GC/TN9T3ackYO9SmWrGvTtEwAO++K6cWSBt7JGbG0837BAgQgAAEI1CGAWCrWM71WRCxVmA9DF0tKCx05ePjIsTfScM6/cuTgi2cvu8w3ThzU5Zv/yyxd5vLp9bbAsuxHnVsNdjA21/buP+eY7PhAbbDsXV9bLd5jKYzAbOxIgXRudV8/21dpsdQV93ix1FWbPAhAAAIQgMCQCSCWetU8xcYRSxVmzbDFkr7FrkssvXns8JGjp69mwKlcKaWUsnLbUEaGLb5eMoqic4sjg2fSZCUk9qxtakc9aZVUKFqNSKWUKjSrNMTSrEhiBwIQgAAEloEAYqlYz/RaEbFUYXYNWiypbaL1U2+ozaXkzpLeJjpxPo/NK6DVkWfH2F/sW/imX+XncaVz1I1wWiPpO+J89dLcaWbukYsEm45NpYpiEz//o7fLxuyPGaFobz6UhZVHFaq4OzEdnr1xURkRsZnNusayV1O0RdaVj2x5tw4m5aUm46pH9sdF7sXg1dauVYpouN9l6U4mFQIQgAAEICAJIJZ61TzFxhFLcpTO6XjAYsnuGsUip2Ez/tUOUizJY22g2bbKb0zNqQt25Masy7318o7sxZW1IDE6xImfqFT6nrRWEjQBThGt1gNCvUQujXEnkMxHp0ycnGgKhNtiOhKhInT1hDttJ4k33WQvzNCpyQwgmI+t64ki3+VC0mG0DTHWlAyTDeclE16/8AECEIAABMYSQCwV65leKyKWxg7d2RcYrFhqH0bKiSWV3vlqB13RaaHWoKJolNibC/8mvWCtPPsBolWEXZoL4eR7SiuHQMCMRqOcJvGtqYL6lRLWb5Rtdk6cNDL5UtgYyeGkVGPQioo4jDgltulHkW6yVyYpltSeVSuNdHnPVHfko7i6lxJKr6DhXnh8gAAEIAABCOQIIJZ61TzFxhFLuRHbY/pAxZIUSPJYkPDFj8jQ5Zu3OIhHktry7d134/emhN1BHvYtlvTiu9UswUeHxFvuu9ScAnEF8gfjxJKnEKwZkSiFk87WBq1YUrn22FTOhRrZsb7MfW4tGZcuDlJiKXY9Mrcp2ngij2MiH3levMIiFA4hAAEIQAAC0xBALBXrmV4rIpamGcUzKjtIseRrmLRYUltD3gNIKSBKINndJyOWzqu34bnHnHxHKQtDTxsnKnYYf7SVFC3ljYOZiyXzmFOwA9M2Jq1tlFhqbj+L4pQqQh43NtMGm6etkpIo3eQ2RL2Ptm+XedzLJSdcN2LJ3lk3PnL7jFb7pvjWS9q+c88BBCAAAQhAYCICiKVeNU+xccTSRMN3toUGKJbCh4tSYiksk4ViH3wajXQV7+V49ma83Mv0skaHlKHX1llRscNItYRw7yFoD8TtbcZDWjnkFMgkURnXkSNbVWwi2STvHr/xksPu5JjquVAjO85buskuWx14ez5NjjLouw7ulIs8evonVV369ArLDI4hAAEIQAACUxBALBXrmV4rIpamGMSzKjo8sdS8d6H9NSTxu0l2K2nyHaFWLI1i0dXejzcrnBXs6O2UsU/w6yX47rHF/Pj1yjvcVkmKhGSip158yxN80koj0hW24jgdMl5y2J0cbVHHHz5KpHIiOzaA0tvwUqpMeXfPX0UePf2Tqu5Css96hWJMFuAYAhCAAAQgMAEBxFKvmqfYOGJpgsE76yLDE0tRC8tFjtFd7qa7kb4rz37UZt3rHyKvC5QQC6HoR2mNGNi94imEcU1MCZKMfuhBLDVvg/D3YcSP0ppWu62nYCeqW3L4ez4q+P2r8XsXFJ/ITgtNZ3Xu6aUBmr5wGlRrIdEvkUdPLNl3grvqbTz6KCgc5PIRAhCAAAQgMBkBxFKxnum1ImJpsvE701KLKJbaVzVEKJp77exmVKyFtF46Yrat4tzI3sIkmH0Y+zSL26Zw8esl+HQ7S9lNjPbRIKfB2jv0VsQmSdaCC2v8ge/C1whGINlHd7y8cZJjpF8rZ8LWgse/r6/BZXk2LqIdG6+Yy/X7woZn3+WtmmwEkoXmBR7Ls4T+8fyqIJ2JROHxjCkBAQhAAAIQCAgglnrVPMXGEUvBQJ3HxwUQSyGGiV7tEFbiMwQgAAEIQAACEIDAZAQQS8V6pteKiKXJxu9MSy2cWJr41Q4zxYQxCEAAAhCAAAQgcMcQQCz1qnmKjSOWKkzBhRNLFRjhEgIQgAAEIAABCNxJBBBLxXqm14qIpQqzELFUATouIQABCEAAAhCAwIAJIJZ61TzFxhFLFSYNYqkCdFxCAAIQgAAEIACBARNALBXrmV4rIpYqTBrEUgXouIQABCAAAQhAAAIDJoBY6lXzFBtHLFWYNIilCtBxCQEIQAACEIAABAZMALFUrGd6rYhYqjBpEEsVoOMSAhCAAAQgAAEIDJgAYqlXzVNsHLFUYdIglipAxyUEIAABCEAAAhAYMAHEUrGe6bUiYqnCpEEsVYCOSwhAAAIQgAAEIDBgAoilXjVPsXHEUoVJg1iqAB2XEIAABCAAAQhAYMAEEEvFeqbXioilCpMGsVQBOi4hAAEIQAACEIDAgAkglnrVPMXGEUsVJg1iqQJ0XEIAAhCAAAQgAIEBE0AsFeuZXisilipMGsRSBei4dWnFOgAAIABJREFUhAAEIAABCEAAAgMmgFjqVfMUG0csVZg0iKUK0HEJAQhAAAIQgAAEBkwAsVSsZ3qtiFiqMGkQSxWg4xICEIAABCAAAQgMmABiqVfNU2wcsVRh0iCWKkDHJQQgAAEIQAACEBgwAcRSsZ7ptSJiqcKkQSxVgI5LCEAAAhCAAAQgMGACiKVeNU+xccRShUmDWKoAHZcQgAAEIAABCEBgwAQQS8V6pteKiKUKkwaxVAE6LiEAAQhAAAIQgMCACSCWetU8xcYRSxUmDWKpAnRcQgACEIAABCAAgQETQCwV65leKyKWKkwaxFIF6LiEAAQgAAEIQAACAyaAWOpV8xQbRyxVmDSIpQrQcQkBCEAAAhCAAAQGTACxVKxneq2IWKowaRBLFaDjEgIQgAAEIAABCAyYAGKpV81TbByxVGHSIJYqQMclBCAAAQhAAAIQGDABxFKxnum1ImKpwqRBLFWAjksIQAACEIAABCAwYAKIpV41T7FxxFKFSYNYqgAdlxCAAAQgAAEIQGDABBBLxXqm14qIpQqTBrFUATouIQABCEAAAhCAwIAJIJZ61TzFxhFLFSYNYqkCdFxCAAIQgAAEIACBARNALBXrmV4rIpYqTBrEUgXouIQABCAAAQhAAAIDJoBY6lXzFBtHLFWYNIilCtBxCQEIQAACEIAABAZMALFUrGd6rYhYqjBpEEsVoOMSAhCAAAQgAAEIDJgAYqlXzVNsHLFUYdIglipAxyUEIAABCEAAAhAYMAHEUrGe6bUiYqnCpEEsVYCOSwhAAAIQgAAEIDBgAoilXjVPsXHEUoVJg1iqAB2XEIAABCAAAQhAYMAEEEvFeqbXioilCpMGsVQBOi4hAAEIQAACEIDAgAkglnrVPMXGEUsVJg1iqQJ0XEIAAhCAAAQgAIEBE0AsFeuZXisilipMGsRSBei4hAAEIAABCEAAAgMmgFjqVfMUG0csVZg0iKUK0HEJAQhAAAIQgAAEBkwAsVSsZ3qtiFiqMGkQSxWg4xICEIAABCAAAQgMmABiqVfNU2wcsVRh0iCWKkDHJQQgAAEIQAACEBgwAcRSsZ7ptSJiqcKkQSxVgI5LCEAAAhCAAAQgMGACiKVeNU+xccRShUmDWKoAHZcQgAAEIAABCEBgwAQQS8V6pteKiKUKkwaxVAE6LiEAAQhAAAIQgMCACSCWetU8xcYRSxUmzeKLpaunXjxy8JU3K7DD5bIT2Fzbt2v3yq6965t+S5v03SvJXL8snzIENtf37F7ZsxagzRQeQvLGftXdu/efG0IwxAABCECgZwKIpWI902tFxFLPAz9lfuHF0pWzRw+vn7qSatsdlaaXnrt2r6xuxM3eWDXLevN/r8Tm2l694rcFUotXWX1fanFrC3iW4zD6SPHjj1TNDl3mxJI1q72XObX9pdffC6UZbON3+ncasXRu1RulmXG+04jG1J+7WPI0uZ2hd+6AGdM9ZEMAAjMmgFjqVfMUG0cszXigT2Ju6GJJaaEjBw8fOfZGujXnXzly8MWzl13mGycO6vLN/2WWLnP59HpbYEn2o7RW2bt+Tm+DRIJF5QoJ1BROf5+vl4Oi8Ghk1vTWqFm92U8Wuqq1f015n++X7iY2qVU29nvB2wB7+1solgxGGeq51aQK7S3wIRieWiyJ0WV0i+z6IbSoxxgKR1qPEWEaAhBYdgKIpWI902tFxFKFmTdssaRvsesSS28eO3zk6OmrGXAqV0oppazcNpSRYQuvl9QqyqiXpJLRiWKVORrplNzSPFyTqW/0vSVpWGA0GqkyqxsjvX4NdVSmY2aR3Kn6ZuFgAhsJGuNrxYp0fJ1lLLETsTQamfEmBecyMnJtKhpprjYHEIAABKYngFjqVfMUG0csTT+Wd1xj0GJJbROtn3pDbS4ld5b0NtGJ83kIXgGtjjw7xv6y3MKXFEv6/iVPGo0XS63iCXal1BJV39EnDaoUXUNntXXzvTKTnEm0mdl/aO5fkjFrgadEoGmOvsXLj9y778vPEuGXLGG1ZU++CoP2cAeR2z6y960lgtdh29u6ptQbgthuLZJtyGYTcnXDqHHj3WOuCprNQOt6l7fn6QwlDlLQdCRWyasC6lg2zYfsu3atjr9NMO5luplZ5v43/7sDVda6FmRC5iLLtT0sk2i1SMqMNN0oZUkMGNc00RA7GCyu1rKomNoZ9iKfLuTWB0cQgMBCEkAsFeuZXisilipMpwGLJbtrFIuchtP4VztIsSSPtYFm2yq/MVWhO3bi0izpwgWNWQy1qd4SM3CnLYgFrq7bVlUrs31rG+q5/DZRlWmq2FVjYLWXj3r1LEKNnAQF9Mc2bPOxffTFrKTbVjlzGlci3RTILGFd7cRBF39TfGeRb6zKmyHD3rdyRSyap7kDsNO4UyPWuG5Iq1jC0aXLByv7BDCdFJjSaUYXNfZdh1qDPufN9T02KiXZ9A2rpmQYlY0g61HYMWWd62aYBO3yh5Z0bV1N8jcz0hxz2+nGvhuwOjY3TTxijkOmsB0qLlsJ0bY3JwmaMhCAwEITQCz1qnmKjSOWKkyrwYql9mGknFhS6Z2vdtAVnRZqDSrMRom9uUxv0gvWSW4wNYs5tegxqyW3eGqKuNVeKx5MjhRLalmmK/prQVXXLR+FcHLe+zkIl32hFx1ku8xT2d5y0zRZFtD04rXgrMWSWd1Kx0HoM4u8set1kNkGsQvrwHPBR8+4aZobDPZOuaatOtcqGe0qTslHoPsr7B2d2AxmfdyK4WbDJ9tSPRhMZGLQyjHgNa0JzBtCLtjItVdM25QzrntEOavBgWezzYuZS6r62BtrXoqKxOsRvdHapsjp37rkCAIQuFMIIJaK9UyvFRFLFWbgQMWSFEjyWBDyxY/I0OWbtziIR5La8u3dd+P3poTdoR/mxJKKW697xr/4OFh7udWSSrcLPl3GrqiC9VbwsT9ieu2YXQqbrYNwbR0uhYPqYtEs4u5e2maWsKJ+eGgIewtYr4gM0mXIRL0095uWjryp7ZefcQd5xr2Bob278dOMQDuETGhxedfg6MBzZHN1ohRLPhZbLPVXdJwOQ3eIGVRGcenjsJtELWE0is0rpvtONrx7RAm73qFns83pZCiHja0ivCeGje9FGw+/QLGG+AsBCCw9AcRSr5qn2DhiqcLUG6RY8jVMWiyprSHvAaQUPCWQ7O6TEUvn1dvw3GNOvqOUhQVK02sj78t1HbxeHllhYMqo9zHk/oUL3JXVNaGU7GMnjYFwveUvtnIu2nQTm32gIvyeuy0XH8mFciY3XDrLZWu0wG30ZARGLC5jN/5uVSI/kaQNyu0Xv0wiMP+dHIkCsss8YezAWhSda2s/kMwn7at5eqd5/CZvXAQm4Tempwkm0epmm7TxnirgNaEZ+e6Rofbns1SPaPGvbjJUL3VUg8AlSiPp4R259osZyWEHlgnDfpLGu499m65sJ0MdmBsD4kC7TwAxcLzBqYerhTZ92C5QDiAAgcUjgFgq1jO9VkQsVZhLAxRL4cNFKbEUlsmSsw8+jUa6ivdyPHszXu5lelmjw8xIrsOilVzzwEZ23aOXX02uWee5PSXdbO1Ffp0vFmHNokp+j94XqmRjnTOdaxfxNlWikMcmX7bL1lDKQ73QIg9L/UqVt7gUVdOHetVrtWtcZIeRGyx230+Z91raubaOgwlSpjber1jSXWPhe80M4m4gyO8RpPbQx+Z1js1LHfef0/0edbus1fqIXPvFQnlZNjt8m855Z4cmx5KrqnebJw+mUU1yaLWmOIIABJaRAGKpV81TbByxVGG2DU8sNe9daH8NSfxukt1KmnxHqBVLo1h0tffjVSA/c5dmLeuv8PQay1+ap4q1sehct4SKl2gyRa2fwsVT5+qtdbPzIyPk7Fo5tCeW6TZLR27pRAtc904zW7z5O3Ox5L1dIHCmPu4s8nS72gEguy/hvDtpjPG462Vb5LF2o61F4ycTQew6GMZxAWEpbrWXouqubpxbNWpK9Xi4m9rY8mo5+5Frr5jKzY1SZ2L8gWezLR4zb/OSY0lkd9cVBe1h91ywpfgLAQgsCwHEUrGe6bUiYqnCDBueWIoglIsco7vcTXcjfVee/ajNutc/RF4XLyFYPpoG6JWc2BsxGqNdPfvN1CtaT//4KypPSkXLX20rs6rz/czkk2mvtxJtf5RWhyH2xDQHJwL9/Rb7ejSrpGR03QvEssaa2DydIF5Jt6PITXfbhjSOvFdC616Te2XCtWx44niMcX+oqPreCPFYKVOr+xNiO+FWJWnX7VahiUQO1KCAbyZAqvu0vQ2vka/eSx3VHmnrzlrzmmATw9hSrxKJTbnaEx6kXZtXsUsOvrmg4X5mYsPNK7C5ts+z7PWmV5IPEIDAUhJALPWqeYqNI5YqTLdFFEvtqxoiYM29dnYzKtZCWi8dMdtWcW5kbwESGs1gnyuwz5O0wiAsIL/nbrSTu5UutarzyrQFcstTT1D1zs8ufE3zrUowbs2SOvnzOF5WYmXsm7Vs7drRrEEdNHvgex/TdCNarOWgqhee7C+7wLW9HK/pvdjsrx61vaaj8loXuO4Mu9P4GLFk72nUTdYkVRgWaafb8a2OFUtgUDZZTQ1F2IE1fZH72DwcZXvZdpkTnLqzJGFNyVkzd3K6WuZgGui6JYFN27qYuc1xf8PpL75BUGX8cRi8zsEbh0FF54ADCEBgSQkglor1TK8VEUsVJtwCiKWQykSvdggr8RkCgkC0wBV5wz5c3MiHzbWn6Iy8lFLK6pOp9VJPEWIWAhCAQJoAYqlXzVNsHLGUHq+9pi6cWJr41Q69YsP4YhNYXMmxuJEv9ogpi97syga6KJlYZp9aEIAABHojgFgq1jO9VkQs9Tbk84YXTizlm0IOBCYlsLiSY3Ejn7Rvlqqcuf3P21nSPShfzbdUDaYxEIDA0hBALPWqeYqNI5YqTDHEUgXouKxNYHElx+JGXrvPa/n3HvTSD5t52qlWWPiFAAQg0E0AsVSsZ3qtiFjqHre95CKWesGKUQhAAAIQgAAEILCwBBBLvWqeYuOIpQpTCrFUATouIQABCEAAAhCAwIAJIJaK9UyvFRFLFSYNYqkCdFxCAAIQgAAEIACBARNALPWqeYqNI5YqTBrEUgXouIQABCAAAQhAAAIDJoBYKtYzvVZELFWYNIilCtBxCQEIQAACEIAABAZMALHUq+YpNo5YqjBpEEsVoOMSAhCAAAQgAAEIDJgAYqlYz/RaEbFUYdIglipAxyUEIAABCEAAAhAYMAHEUq+ap9g4YqnCpEEsVYCOSwhAAAIQgAAEIDBgAoilYj3Ta0XEUoVJg1iqAB2XEIAABCAAAQhAYMAEEEu9ap5i44ilCpMGsVQBOi4hAAEIQAACEIDAgAkglor1TK8VEUsVJg1iqQJ0XEIAAhCAAAQgAIEBE0As9ap5io0jlipMGsRSBei4hAAEIAABCEAAAgMmgFgq1jO9VkQsVZg0iKUK0HEJAQhAAAIQgAAEBkwAsdSr5ik2jliqMGkQSxWg4xICEIAABCAAAQgMmABiqVjP9FoRsVRh0iCWKkDHJQQgAAEIQAACEBgwAcRSr5qn2DhiqcKkQSxVgI5LCEAAAhCAAAQgMGACiKViPdNrRcRShUmDWKoAHZcQgAAEIAABCEBgwAQQS71qnmLjiKUKkwaxVAE6LiEAAQhAAAIQgMCACSCWivVMrxURSxUmDWKpAnRcQgACEIAABCAAgQETQCz1qnmKjSOWKkwaxFIF6LiEAAQgAAEIQAACAyaAWCrWM71WRCxVmDSIpQrQcQkBCEAAAhCAAAQGTACx1KvmKTaOWKowaRBLFaDjEgIQgAAEIAABCAyYAGKpWM/0WhGxVGHSIJYqQMclBCAAAQhAAAIQGDABxFKvmqfYOGKpwqRBLFWAjksIQAACEIAABCAwYAKIpWI902tFxFKFSYNYqgAdlxCAAAQgAAEIQGDABBBLvWqeYuOIpQqTBrFUATouIQABCEAAAhCAwIAJIJaK9UyvFRFLFSYNYqkCdFxCAAIQgAAEIACBARNALPWqeYqNI5YqTBrEUgXouIQABCAAAQhAAAIDJoBYKtYzvVZELFWYNIilCtBxCQEIQAACEIAABAZMALHUq+YpNo5YqjBpEEsVoOMSAhCAAAQgAAEIDJgAYqlYz/RaEbFUYdIglipAxyUEIAABCEAAAhAYMAHEUq+ap9g4YqnCpEEsVYCOSwhAAAIQgAAEIDBgAoilYj3Ta0XEUoVJg1iqAB2XEIAABCAAAQhAYMAEEEu9ap5i44ilCpMGsVQBOi4hAAEIQAACEIDAgAkglor1TK8VEUsVJg1iqQJ0XEIAAhCAAAQgAIEBE0As9ap5io0jlipMGsRSBei4hAAEIAABCEAAAgMmgFgq1jO9VkQsVZg0iKUK0HEJAQhAAAIQgAAEBkwAsdSr5ik2jliqMGkQSxWg4xICEIAABCAAAQgMmABiqVjP9FoRsVRh0iCWKkDHJQQgAAEIQAACEBgwAcRSr5qn2DhiqcKkQSxVgI5LCEAAAhCAAAQgMGACiKViPdNrRcRShUmz+GLp6qkXjxx85c0K7HA5EwIb+3ftXtm1e/+5mVibqZHNtX0qtr3rmyVmN1ZVu1ZWN0oqU2cwBHQ/0ouD6Y+JAymagJvre3av7FkrmvETR9ZrwZ2dtXoNbT7GN9f2Fp+0iyPUTvUJfweXjGLvfVVELPWqeYqNI5b6GvEddhdeLF05e/Tw+qkrHU1c8qxzq2pFHv63QGu7+YslvR7y5Vl6XbWzZUfa5rjh2NQSHTpEGTmuFaX5TdcMarWqe2SBJlQp+3S9XI/Y9Haget8pxMN4/l8cdEzA/Hpat6tYLDVnDHFCLjaV7o4JUnd21prAQaJI3N0Vz1r5zo0jHzOM4wrJFKOUKjY5GdUMEhFLxXqm14qIpRkM7mlNDF0sKS105ODhI8feSLfs/CtHDr549rLLfOPEQV2++b/M0mUun15vCyzVftQ0VwiH6848sBfIdgHcCLYh7AIFS3NzGR5CYPMYK2qdt3d9bXX+Xwx3tC7okY6SS5iV7ZFQVJjl8r5wSyYsNhBE+bPlzgLWQkVAMCcWT0YOhMBswwjmiDlrCQ6z9TbGWr5z44pBd+uP/vdocZ0oJTAS5S9uAmKpV81TbByxVGFODVss6VvsusTSm8cOHzl6+moGnMqVUkopK7cNZWTY8uilaa4QGV53SrJawexfXV3ZZdXSudWVPav79wzilrlg2TEajXTK8q+3RqORGsN71jbDFWflcRn3SOWA5ug+3yPxAtEsNO2caoKMi80x+ryr/NlyZwHHQ1enLP2XHdEc0SoxGAv57phtTr5zYz9Rd8c9GFcKU2o2Noxltp8RS8V6pteKiKXZjvOJrA1aLKltovVTb6jNpeTOkt4mOnE+31CvgFZHnh1jf0lu4UtdIdSVYJ9afO5V98CoG0LMN50qUVPTl4rVjZG5ous7amyWoarKqxRRILjwN8abu3Hay6NJD+5M8BKlzfi5IJ27/5xeQDfGI8GQugUx8JgaHKpR+8+ptpvCG6vqQF3vXfieZZfaGFMlBczo/iJN1d6e5PNMheOnRcuOhoBtV3mPNH68pjX3CzXGVZaCLPvU+hVtt01r1aavc4wR3ZCpHv9ohutopAHG9y/lBoxuUchZJtp2NSGp+MM+bZzapklrtkdEt3q1d9Ij2mbXBFTYRdg+Tw1EhjrSrfa6LAfNH3WZTx09kugjHWcwSRPFnC+vXR5SVyRxoGrFY8NQatK101RXeucxW8Dcw2yhuYBVt5osj3AiIpEU94g55dqA9cxSTRVtD4i1flfMubcxrwLrPJmPTO+bmFMjXA0l16jkY6IiKnEyFO3LHeqKsgu1I5lgJrVFGvegPOfEuX7HBcRUUF515SVRJhW8626bKc8bTdoYaA1Vr7HW2ijolNSjudpjZ68Ja3M+RCz1qnmKjSOW5jwRlLsBiyW7axSLnIbT+Fc7SLEkj7WBZtsqvzFVoTt24FJfLYIrhF00NKuxvfu0PHAXbLFAtBXDS4W7TiQLGPvuKmE+2pJmleYyVdOiK5NubypydfXTL1doF0bB9dhcHb0lzqQXSNWoRoap8Db266Wzsm/XNK4fAqcmXSeqhVTjPbFCahq2z1vuOKtdB7FHv6U76BG7pMhCc5dty0EHYztUr/BsXbfwajrYBKmXaKqX9+3Zq5SnJiOqdDVcFtbWvKFjFoJi2bqx3wbZLFbaj8qLh9G1ywYbPsRvBpuwsLHqtXplz9592e7eSY+YKSPWdjpUQUwbbwMzviyZeOAF1fXHDLTOvjCZovuiHknM5WC0aBuJYm26kKyba3tFq7ti83q2LZhyFPOx5XVz2i62ye4ctVfdDmq+UAqQiqKJw4RHrwftNHFSxAwA26FBf+mP9hscU1JXVF7ik3kbThqRjs1aMy21flVVPxJf47WmM0eBx2gkbK7vsTyVK31ub0e1ma2iwLlVMWgbveFSDEMxWsKuz3duHH1Q159fLlTHyesgU1g8n+akoCzvjq1CFpE3mrlN2VzbJ8rH4c47BbFUrGd6rYhYmvdMGLJYah9Gyoklld75agdd0Wmh1qDCbJTYm0v0Jr3UFcJc//RFSFwpRUlRwA4+dZ1rL2PRxcNcRM0JXV05xBVOWdDl7ek+uIKaa6S75lmH5kvBwE7igup/ax5c5JoLanvVcdbjA41ClVQHqxvnVs0Cwm94Uy1sgk7WiVYpqZQoGFNbO4rb25jO/Ik9+ik76ZEoTn3tb6F5izMdX1AgiFkMALOC0Y01g0oPgmkIaAt26Lg+sh7FoLVJ4m+Uqyi15KN2BeV9wsKuPhzX3TvuEW8SeTPIY2Likkjlscn1+ytoZtiwcZ8972GPRGMpPQviYsar18xxgXj5MirVNc3JSjuyw6epEPOxlvJkzOiVp6NpQo09+inarxiZzfcXxl2iCSJOEZi2ac5aooBtW/BNgUv2x4ZLbg7EXM6mhHXaz2aO2O0R8UVSW8Q70mG73tJNay86Xsnm7OrKqkwPVEwgTgksio+GqhA8niMtZvzAxJBzZiYfIapke17yx4YzN6ADxFKvmqfYOGKpwiQZ6M6SFEjyWBDyxY/I0OWbtziIR5La8u3dd+P3poTdgR+mrhDiIiTOy6KkKGCbp3PdFaPrMpC6bPhXF//y7Fu2/rzlQpuYUFaetShyL1fYiQ81Cq0QmiulUQvZ5ojvv40xvTJwiOzF27+mqpKCeRxFLiUwrqFJYbaTHhkHbXKGJnpRPj2opiCgY2uhBh/d3SxyFSsQ+o5EMLqMiNPU8Qv4Kxhh1RwGPRJp45n2iPd1QwRBBSQS/VarzKCl+mP0jUbUwnSCcBT4dR/FmNeU4t7RRkQx60qnl71YXzXKONLkxXG7DDVuYj7Offbt0nHAXf1r7dm/oUddVzTfH3i2lvmr67bfXISJIjDhJWkwGrHalq7V7of7zlUVEafKFF78solPgUcdlds9S5QPwtbVowBMvRQW6S6OPDCecN8mCaqJzTTVfcGgShmffIR4JbWp9pTXBjWcI8RSsZ7ptSJiqcIcGaRY8jVMWiyprSHvAaQUPCWQ7O6TEUvn1dvw3GNOvqOUhcVJS53ExZVAXPlESVHAtlTkhjtFtoj5m6gb3v4kF3besWfJ92izRMBNkr8Q1LWcitDBRKrG2vL/iquvNtJcruKLbtScxo68VOukNIqpVhsuRG1cfNMZNsq73LpaHWHIaMdA8wn7xs0n7d3dbaIPzPJOdKKgEXdiyqhKE53SeFK/UuWvJHQZ++11uC4XzdQByKpRu0S04xeFwrIJTTRQJeykRwJTgbWkZVElxhu11IDNQTPtSf9/TI/oMORICJbajVERbeTGG+qyv6KSXoILbHNt35619VW9nHWJsmjMx+Z6A8Am6r9xwMle8Oq0H7RHS1vN4gmW2rZ23Hd2XmgjIjDRrmRDohFrXZixantNCLOoN22ZNv6oaaK6uZ3M68Iwhqi6VbxNbLoh9rwnx5LGIpHaY+NOYLGtTDKxmcFfv3rQBYmYTYTByadrhHiD3FC1nEJEQWhD+IhY6lXzFBtHLFWYHQMUS+HDRSmxFJbJkrMPPo1Guor3cjx7M17uZXpZo4PMSF0hxJUgfX0VBWyj/DP4uMuAvKopC6FBHZW+OKgAgmtM4zIVeWoJ61/JwotQGIltT/xX2UlE0oYqqvg0mowoMWx1U04wFybHHEbGg/I76pEx0HzCgeNm2S05i/KiEwWNiQno6napZBdquW/BnQCQy7V2U0U7TWfZJoloUyPNFjN/ox4RDVQldtIjganAms61SysblHAX4xU9Ysvbv7pwFqkt5f6O65E4cldVHkxUrBmWcmhJG+GxImBeddC88KB5g2I0qWM+1pQ3AGyi/hsHLIB7JVMf8h5N6bzfxPcFqkrboSIw4SVpMBqxcai6UULLqSqT8o+tJcSSF5huhXhcKnPrtTasK4ovSnRjvens+RdYbLrn2iZm/gbVg4/NSMvUdcm5EaKtedcar+QE3eRcVDpALBXrmV4rIpYqTIjhiaXmvQvtryGJ302yW0mT7wi1YmkUi672frwK5GftMnWFEKf+9PVVFGji0Snt+sw7uQchpzxGVxd7qeu4GKfspJaw7bqhWVO233oGkXV/VHaidZVyuDfcysjc/R9d5GKMOgLBvDsimRsZl5nBYjrISi5BZI/I47Cu+uwRjgrEuSJFdKKgMSmBYNQZ111jz+glfwA0RlQkwbJPxGlMi2gTCj9oedQjooGqaFecvqO2XTbywFRoLXLtL6kjvLq8224N2pGaU1ERmzC2R+LIbVXv74TFEqttz4z3Qdnct7bRvDNAQTC/zdWetpriER9nJtUvJjMOuKt/ncGxHhvr2dv/wq4X5U27RGCiXcmGJIZNGGjoLmknUSmTFHuUKbHxOEUa9nOamLQLAAAgAElEQVTH8JeOtBFdPnWGly7ssaBqkrxzRZRrq/l/cxHG6X6K58s3OZBPiKVeNU+xccRShQkyPLEUQSgXOUZ3uZvuRvquPPtRm3Wvf4i8LlyCf4Ex4Ytzffr6KgroGvrCI4WEf3IPoejc9l4pba392JRWNlfX3Hu6QxuNSpFOdRERcFPFu7R0BxY7ESnKTuRuKcRSs3BvuyDokXHQPMKCmDnUue7rYT3e1F6Q+dJXDD8xqOJOjKyqhEwxuQwyr3d3tYU7l2a0YhtSmxG1K6zuN00tJIO34bVIY3HVTbV7jghWTbi+NU1GaD+d20pBr7rG5TV/EmgtJXk0vkc817Kqf5wppu+gM2+b0+X9Vvsm4k+2pUJFND+N4JfNtEIVMmAjeRXvjXeLYd9fdiS7YuHAcxn6QOeKO/f0sEzoatGupEE5cZyHzbW91pROCydFMFBdvYkOQo++8aBdtvvcSbh5H6n1FI6ZoLotZv8KGqaz9G/oOeO2WPpv6KvpbjfFojNDykxu9PpIzZDzntPT3uXFyL0NzxTWYZjm69OsbzAVyozTEEvFeqbXioilGQ/0ScwtolhqX9UQtbC5185uRsVaSOulI2bbKs6N7C1AgjmbizuX9C3dYhlhzvviiiKur+ZkLW5/cheJpuW5y4AD41tILD7co/lhnrkG2BvQXQy2mAi4ceZfgM02SFA9f7eGC9jEk7iUCizme24Xkj2wcMKVQXDzobso+p0yUWyZvSwR/c56JDVa2sACwsKrOfS6zH8zuKAn1h9xJ0Y29cJ1b1K++jtd/kjz1IszmllMRO0S0QZ1m75umSR6RDRQ1d5JjwSmktZMo5rAvPWu8+6ehdDARfCTQHME2oMUH53bkowjb6trtWlnjZwFdnKrov5QjNrlWQs+NOPQWgs+urs0x5wc/HlqocXtGtu/IrpxAz4L1tnwsMjTlAhMeJEGrQjxyduzVtQp0njjPrJgEbvwMgdjK8oCqq9VM0UAfl+4b2Rab0EBcQOhKtNC0zYD462V+EhQtZlmONnxYKdkbhirWvkR4oWtzpjqRwt8qM3oNfZdZ5mK+qOIx5wK/Po27F7+IpZ61TzFxhFLvQz3bqMLIJbCBkz0aoewEp+TBBKXimS5wSWaa4l/1TDXY3GRG1zUlQNafmj5VUtl9LiHAAQgsGgEEEvFeqbXioilCjNp4cTSxK92qABz8VwuqlgSX7a10JOJbfYdf5Tkk0xcUFS6LeLr6gVtBmFDAAIQGAIBxFKvmqfYOGKpwuxYOLFUgdESu1xUsdTcd+HtLM39FoWFGxfmZpVlhaZbN9XdXAvXgQQMAQhAYH4EEEvFeqbXioil+c0B5wmx5FDciQcLK5bcI9pdt5LfiT06ps3ePfT62QZPO42pPcxs9zgEd2AOs4OICgIQWEgCiKVeNU+xccRShemEWKoAHZcQgAAEIAABCEBgwAQQS8V6pteKiKUKkwaxVAE6LiEAAQhAAAIQgMCACSCWetU8xcYRSxUmDWKpAnRcQgACEIAABCAAgQETQCwV65leKyKWKkwaxFIF6LiEAAQgAAEIQAACAyaAWOpV8xQbRyxVmDSIpQrQcQkBCEAAAhCAAAQGTACxVKxneq2IWKowaRBLFaDjEgIQgAAEIAABCAyYAGKpV81TbByxVGHSIJYqQMclBCAAAQhAAAIQGDABxFKxnum1ImKpwqRBLFWAjksIQAACEIAABCAwYAKIpV41T7FxxFKFSYNYqgAdlxCAAAQgAAEIQGDABBBLxXqm14qIpQqTBrFUATouIQABCEAAAhCAwIAJIJZ61TzFxhFLFSYNYqkCdFxCAAIQgAAEIACBARNALBXrmV4rIpYqTBrEUgXouIQABCAAAQhAAAIDJoBY6lXzFBtHLFWYNIilCtBxCQEIQAACEIAABAZMALFUrGd6rYhYqjBpEEsVoOMSAhCAAAQgAAEIDJgAYqlXzVNsHLFUYdIglipAxyUEIAABCEAAAhAYMAHEUrGe6bUiYqnCpEEsVYCOSwhAAAIQgAAEIDBgAoilXjVPsXHEUoVJg1iqAB2XEIAABCAAAQhAYMAEEEvFeqbXioilCpMGsVQBOi4hAAEIQAACEIDAgAkglnrVPMXGEUsVJg1iqQJ0XEIAAhCAAAQgAIEBE0AsFeuZXisilipMGsRSBei4hAAEIAABCEAAAgMmgFjqVfMUG0csVZg0iKUK0HEJAQhAAAIQgAAEBkwAsVSsZ3qtiFiqMGkQSxWg4xICEIAABCAAAQgMmABiqVfNU2wcsVRh0iCWKkDHJQQgAAEIQAACEBgwAcRSsZ7ptSJiqcKkQSxVgI5LCEAAAhCAAAQgMGACiKVeNU+xccRShUmDWKoAHZcQgAAEIAABCEBgwAQQS8V6pteKiKUKkwaxVAE6LiEAAQhAAAIQgMCACSCWetU8xcYRSxUmDWKpAnRcQgACEIAABCAAgQETQCwV65leKyKWKkwaxFIF6LiEAAQgAAEIQAACAyaAWOpV8xQbRyxVmDSIpQrQcQkBCEAAAhCAAAQGTACxVKxneq2IWKowaRBLFaDjEgIQgAAEIAABCAyYAGKpV81TbByxVGHSIJYqQMclBCAAAQhAAAIQGDABxFKxnum1ImKpwqRBLFWAjksIQAACEIAABCAwYAKIpV41T7FxxFKFSYNYqgAdlxCAAAQgAAEIQGDABBBLxXqm14qIpQqTBrFUATouIQABCEAAAhCAwIAJIJZ61TzFxhFLFSYNYqkCdFxCAAIQgAAEIACBARNALBXrmV4rIpYqTBrEUgXouIQABCAAAQhAAAIDJoBY6lXzFBtHLFWYNIilCtBxCQEIQAACEIAABAZMALFUrGd6rYhYqjBpEEsVoOMSAhCAAAQgAAEIDJgAYqlXzVNsHLFUYdIglipAxyUEIAABCEAAAhAYMAHEUrGe6bUiYqnCpEEsVYCOSwhAAAIQgAAEIDBgAoilXjVPsXHEUoVJs/hi6eqpF48cfOXNCuyW0uXG/l27V1Y3lq5tm+t7dq/sWdv0G7axuntlOdvrt5NPHQQ21/bt2r0vHBodFciCQN8E9Hl4lz47RSeozbW96qwVnc36jml+9s+truzavf/c/BziKU0AsVSsZ3qtiFhKj9deUxdeLF05e/Tw+qkrvUIasPGkBtiJ4NlJ3QJOc3OXBDWqIJb00lytddx/s1706LXU3vVAFxZ0TkEVvcpxTYuWO94SMNAnui92INN9sIHxrqYsu1hq1tbNeKs0MLo6IJ1XaRjrE4Wbm+pg/sT0NMmfFrrE0nIM5inEUtNf8lRT4ayeHsKLn4pY6lXzFBtHLFWYW0MXS0oLHTl4+MixN9Jwzr9y5OCLZy+7zDdOHNTlm//LLF3m8un1tsAS7EclNcBOFMhO6rpemPxgbu6SoCaPc3Ylw9WMJjDTBVmlVebIrOH8VYtYaBox49SQkVXu48gIV/F5KuTamhRIm2t7ZSRdxsIe6Sq7aHlmKSl6YbSxP78KH1TrKg3j8ERhVt6TjqWZEJxCKkT+lmMwT0HAjHB5N4Q5o8qUiBIJExJALBXrmV4rIpYmHMCzLDZssaRvsesSS28eO3zk6OmrGSIqV0oppazcNpSRYYuul8JLuyaxEwWyk7qZbuhKnpu7JKiuyPrKi1czgYrYseNKq8zurkzwD8TVDnaWEsanoBj3yBSVB11UI5VKadDRBsFVGsbRWJr78NhRw+cebdBrs/k4hVhSp539q6sru+z3LOdWV/as7t+DWJpFVyCWetU8xcYRS7MY3VPaGLRYUttE66feUJtLyZ0lvU104ny+yV4BrY48O8b+Qt/CF13aFQyxbNXXzv3nmm/99f1R8eJJl5d3ntjrjiHb3NVgCnhZ2rtKERaC7611APa+rNa1Z1O69qv7xaRv61rYlxsLOnJdJm3cy0pXXN0YdRgXWbZ1kz33oiv6HjU9r+GCZ+pxGg+Lo5IKycTmfS+uFyIuZq+AylJ9ZGSMl2Unmczynpow3l0wtnzzVzv1Wz1q8NoqulH2Q1B9zMcYYLKCR7Vl4nqkJdMOVGsoU1eP/P3nxP2cthda+82mmbvxMmqjraKBx65VCKbHpU0bWMdfHXPkza/gtcvrIDsYxGBL2MqOBx21egDS/ucF32Hco9FWjx5i8SL3jPstnPKTPjPIyeiGhzAkmPiLcl14zPnWa2CiuzvEUtbvyDuhOebqwOu0nqBpNF67/JNhR3c7qu3sazp9sj5VLdp/TjXflN9YVQcKlGi4x83JKuVac5vmVO/NER28b9wEL3x7WER3q/aubthLpxgzoq6DU+sAsVSsZ3qtiFiqMCMGLJbsrlEschpO41/tIMWSPNYGmm2r/MZUhe6Y2mV0aVcW9BXRnHLdmdpe/vWZXZyO9SVKXJZEXWXKXINdeZ1rTdlcdXloLBh3rrg2Lq4u8S1AgTuv/eayZ5N0yfY6ZwITTxQEDdGRCNdJUM16XRQz3sYZ99tlLpaCoQ05+TcMzPaXo+obH+mP4sIf9IgSNoHrjsWWWdra8sZUcP3WF3sbjG5aW8D/GERiobneF833/boMbziFI9OVmuDAdIEn3oJaCYw2UNMje/a66mEkXaPaDEu9NFQu9u7bo3ApC4KhBW77uh3GI9O/YgTGc8TV8tZ/QfsSH4OBFJcICgSIzMd2ta371zZKG0uMn7YhXdCaVoulfDCWlPmOYRzIbH0isr0ZN3O6lKCZcWBBijeG269XLKhwLPnM5bwwx57OaXRmOwFtU7TTZIsTpxdbKegRdW5PmrDlp/q7ubbPNtn2ndBL48ZSkpKYNR2hKBSN0lCt2divJ9fEE9D0Zud1pKNdwfXREBblg9ktu7s5sesvp3S0ezVA1Zx2EnW0ez5ZiKVeNU+xccTSfMa/52WwYql9GCknllR656sddEWnhVqDCoBRYm8u/Jv0gku76VtxKc2cvu11SJRshoWfoi5y/qXaSzFXGlnAi6druZN01yRm/oxxLSP3wtDm4hSTnHwTWtwuadx8zS/WGR0LlLgpcWEvRbsWtu3Kw0H2IonNR+VlkQiCXsTYwWCXsNK7LKDjbAtrT/ucTlZ+DLfou9VmY8Q1wYWk22LXFuGCyZWa7EBXN65jR1HDpU3dLqdtVI5stQneBmnqiaWYboIRP7qWWeh0tUUVayOcYI4on6Z1HnzZhNSxtzJLFBg30nRzhEqP1ItPKfAgEDU5Xkpk3MgM2cAuMp2ug0im/CjHcGo4Kddt9ynjMmXMWIqZxykR50QD8icB72Ti1+wRmu9IffLbpV1nx1IcWJwSezAp7qSkDlY3zq0aL95gC+oq464HTXe7j/aLCXkO9Kr77Ypo63nqKvuFlR2RIpjoWiaGfM96YczrA2KpWM/0WhGxNK8ZIPwMVCxJgSSPReS++BEZunzzFgfxSFJbvr37bvzelLA7yEN98vVXcvHOkvdNlbwOuStN2zbvZJ245HiXh6T31pb88kykykPPncxIHMvIzVXHa7g0pY69VifKaw9ec5zPuF3S+GzFkrbsGpLokWb7y64jdWzt9/0u5vYgv8qM2uUhDUVCa1EfabNuHWAyPSy2vI1QfS/elBerAVtK/fXa7q8zZLEpjrWRaI2bpOqsxmPAw6KC9MeSXM4KAqJWV1tEMRWC/ihWby6snR6MEUtJJjIxiDPa6lFtdOM2DLYbWnKkhVXyw7iZEe2Gduh9J5/DOWJGlBsAiVbL8SOPTRQSo8RrY4yHSlfDm1pi1Fk7zd84AFdAZ/UDzflwBz5GCUEXkW3Ux/6JJSrv7IYHLdLmtGPOk4lucjU9436cqkyercr1y0e0vd5sY3O+xbVDhCFqdXtv7czpCLHUq+YpNo5YmtMEkG4GKZZ8DZMWS2pryHsASbbKHiuBZHefjFg6r96G5x5z8h3ZWov01z93N5GLE250Nve+NRfna9toUddcGOwjB/L+ELt0SHq3lsxfHYCtK7/AM9nSnV9RfdK5fgCeZvDWasJU3OrgIudcJUpGV0QXibuga24Wgrn+xU1zPvwDD4ha1js7qlyiR5qloSymL65GEiRuzZILEd+3WeXbeyab/nWtyni3JjynslOEAVtW/dVhNOtpc2z7zpXSXWY7UawYXIHSA43RSbU0VWc7HgOyF6L+8gezGHWilt+WjmGsg/BcTDyQXPy5Ax2PHDZeQRFtmy5RRAX8cdU5970W2YGqxoxtXWQ8XqT67toY7ZFHNRpattTUf+N2yRR9LAe/PW44S4DGtWypPrbjR2LxptC4htsTo1fJtjMOwObovz1BU7bNHPdaZ6d2PAFlG/3JosOU0Lz4ow+6vab3tc0GirLpvBdfR7S3rnYFp1Az7F2/dHe3aKMgIM4nUVsrJCCWivVMrxURSxUmwwDFUvhwUUoshWWy5OyDT6ORruK9HM/ejJd7mV7W6IAy5IXchaVOuJNfvP11hney9i85zr47SHp3uf6BuZB4d22Nv+qLC16wlI9di8gTK4a4vA4vUXK8WIoun+7y6Dc5+Snt0RbVuX6PBA23JfVffZWVywKVKhciXml7N1e7oGnXE7qguH4HFa3ZaVoqVxLacrhw91GIFUPsfOoUba1jaS4M+mGoDI+DmE2ikj0Uo07UatuijeeHsTVj/prC4Rzxy0z+yVjL9ZjO7Rppojk2ur2t2sl9+9CE1w0tIKzr6HjkCOkYxj4D3QXujOfnTf8pcaJoezN1T6bnImqFN5aSzL366sMEDRejLqgeBxAUaD7OFlp8m6iPsXMsSbxNdFH5dCOCeyBFIc1QD30NJD8B/TiVBY+tjs19uxRfGhqM7owqB3B8Z6kI0JsCgoDn3Stf5QNiqVfNU2wcsVRhOgxPLDXvXWh/DUn8bpLdSpp8R6gVS6NYdLX341UgPyOX4jxrLcpLcnztlNehKFdfY9rNinGX7fhKY2NI/o3cBVcmr5KM02R4KbFreZmRx7qyrutdMo3NREjxFTG4gmrXuTWo14bUh7RHVzKKvFk8Zf3FAyDfa8q4dzl3bs2BRzjI867uUV4yQYNq7sTT7fK1mY7c6plGyGWbmXTQkegbT1Bt68Y94nGIR1pb1RvAolbbKSKxqRanSHtxMDpXG5SLNlknd2z4t4T9cgkm7RIzVIyqajCugo++8W5oqbGksHihdtr3vfkLXJtnmt854G1R8TeO3EsZE1XcfV53J5gL183hGBeqVN5OHEDsoElJGukFmqcYtXfZRnlsMtf3qG23UMknGxING1NK29QnE4+/zvRSvM7V2RJLnOunZLzbSKUpm+b+ijDa00VHz7qK8zxALBXrmV4rIpbmOQsaX8MTSxGEcpFjdJe76W6k78qzH7VZ9/qHyOvCJOiro3h2Vp+g3ao0vnaKc7S66q62D5aoC0z4CxXamn3yJGLiXzmibP91duFiyxTXAXiLpMaMjtO1S1/85BU0du1dmbwLsDK1ut+7McPGGvNROd3G41xrbZK/aY9tTdPSVtJoDu1H/61T6WVTOCSccQ+RS20P/LHRpjdHuuH+irYtYx+tdilBQ5oedGooaJc/FJ2RiQ5CJs1a3A0eu9CX62bxKrC4RwIO+qO0JqISSEWtdlr5dRsIYiE4yRxpernzQTURkjg0I8HrsvZte0EHmRVtO9JEc4xFXV5O1ejkcG41qJ6BFoml5IhNJupQNtf2to5Suk6XMuG15zfBpeMwnN3jWy2NjRtLIXNZ1x5HHm1G+1eMujbRHJlJ6qZZm907tHaYWfLuMjRmLMnmqPj3ra76b45pWxEeKctyTDb5mmErltw4NPyFEgu72z+jGpjO/vh2BeF1dbdg0p4unFgyg18DNEa0dDQBJDo38Duzj4ilXjVPsXHE0syG+OSGFlEsta9qiNrZ3GtnN6NiLaT10hGzbRXnRvYWJMGexPUN9N4yYtzFuxEG5s57dRLWlwf/bKxP5ck77OMrTQDMXGxcXd+uLevZd9fX5ptsW9f+FIb9ujF2La+4ynRrVttUH51xcymyzxu4mygmNZ6q7mG3TUv8jXskLqSvozYqd6m25bxcKQBsAS0O9onW2XZZFSGyxLohWsIKe+7QrTYS4fmBtY8Mucp+gTYqXaDtLxFeUMZZCg/CHomghUxEgbhHdJy+a2+KqbY3Y1mMOlFLt6Up4RELh7FV5m2Tu+aIH1LIIPfZB+vb93pEMEkpEN0Qv4ycZS0TF0gOWmIcppvmd6ss4zcqjMpEYMn7TXbRpQ+CU5Y4aYjyvnehxyYZS36jwqcWox086Vb+bpWdgPEZwG+CaL0f9gyh2c2uZhgry8qXO9+KqWGaE44lwUT1sv4ou1tA8A+V5URDpH07DPSlJJyAY68jcgxH7QrGf9N8QTw87agYmiuFYKL7xdSy5xMDRAM08WsaJhjfvs9jxp8QS8V6pteKiKUZD/RJzC2AWAqbMdGrHcJKfIbArAjoK5ZbB2ir5no2qV6aVSDT2jEXYP9Sa9ZPE61LpnWXKS9WBpkSJC89AbFS7LGtYsXZo5clMw20iTtUyBhXZ+56xnnu4wCx1KvmKTaOWOpjtI+xuXBiaeJXO4xpONkQKCOg13mhLkomltnvrVbq0m7ujZzs8YBZBeax2lzXv+I6K9vYWQwCcxFLWpYnth0WA1GlKIE2MXizg+d/+STfajOxoeEWRCwV65leKyKWKsyZhRNLFRjhEgKCQOKbV3PVHPyyTK9Q7f1jpkWVvgc1kZi7VoLFhiDN4dIS6Fksmf3S9jawpeU4y4YBbVqahpi3LZ84x05rdUjlEUu9ap5i44ilCrMEsVQBOi4XnYDRGPZ5ql3i7vyBt8wovfYJGffszcDjJrzlItCzWFouWLRmuATMdr17fsx7BHS4UU8cGWKpWM/0WhGxNPEQnl1BxNLsWGIJAhCAAAQgAAEILAMBxFKvmqfYOGKpwuxCLFWAjksIQAACEIAABCAwYAKIpWI902tFxFKFSYNYqgAdlxCAwP/f3tnsRnJrCfqVJNS7qKAnEeotCqhVLQx4Ia0MeOF9eWGUHsAo+A1GLk//THffuY3uRk8jBySD5DkkIzKTSuowpO/iwhk/5CH5kczgp4jIggAEIAABCExMAFka6jzdwZElg0mDLBlAp0gIQAACEIAABCAwMQFkqdtnhmZElgwmDbJkAJ0iIQABCEAAAhCAwMQEkKWhztMdHFkymDTIkgF0ioQABCAAAQhAAAITE0CWun1maEZkyWDSIEsG0CkSAhCAAAQgAAEITEwAWRrqPN3BkSWDSYMsGUCnSAhAAAIQgAAEIDAxAWSp22eGZkSWDCYNsmQAnSIhAAEIQAACEIDAxASQpaHO0x0cWTKYNMiSAXSKhAAEIAABCEAAAhMTQJa6fWZoRmTJYNIgSwbQKRICEIAABCAAAQhMTABZGuo83cGRJYNJgywZQKdICEAAAhCAAAQgMDEBZKnbZ4ZmRJYMJg2yZACdIiEAAQhAAAIQgMDEBJCloc7THRxZMpg0yJIBdIqEAAQgAAEIQAACExNAlrp9ZmhGZMlg0iBLBtApEgIQgAAEIAABCExMAFka6jzdwZElg0mDLBlAp0gIQAACEIAABCAwMQFkqdtnhmZElgwmDbJkAJ0iIQABCEAAAhCAwMQEkKWhztMdHFkymDTIkgF0ioQABCAAAQhAAAITE0CWun1maEZkyWDSIEsG0CkSAhCAAAQgAAEITEwAWRrqPN3BkSWDSYMsGUCnSAhAAAIQgAAEIDAxAWSp22eGZkSWDCYNsmQAnSIhAAEIQAACEIDAxASQpaHO0x0cWTKYNMiSAXSKhAAEIAABCEAAAhMTQJa6fWZoRmTJYNIgSwbQKRICEIAABCAAAQhMTABZGuo83cGRJYNJgywZQKdICEAAAhCAAAQgMDEBZKnbZ4ZmRJYMJg2yZACdIiEAAQhAAAIQgMDEBJCloc7THRxZMpg0yJIBdIqEAAQgAAEIQAACExNAlrp9ZmhGZMlg0iBLBtApEgIQgAAEIAABCExMAFka6jzdwZElg0mDLBlAp0gIQAACEIAABCAwMQFkqdtnhmZElgwmDbJkAJ0iIQABCEAAAhCAwMQEkKWhztMdHFkymDTIkgF0ioQABCAAAQhAAAITE0CWun1maEZkyWDSIEsG0CkSAhCAAAQgAAEITEwAWRrqPN3BkSWDSYMsGUCnSAhAAAIQgAAEIDAxAWSp22eGZkSWDCYNsmQAnSIhAAEIQAACEIDAxASQpaHO0x0cWTKYNMiSAXSKhAAEIAABCEAAAhMTQJa6fWZoRmTJYNIgSwbQKRICEIAABCAAAQhMTABZGuo83cGRJYNJgywZQKdICEAAAhCAAAQgMDEBZKnbZ4ZmRJYMJg2yZACdIiEAAQhAAAIQgMDEBJCloc7THRxZMpg0yJIBdIqEAAQgAAEIQAACExNAlrp9ZmhGZMlg0iBLBtApEgIQgAAEIAABCExMAFka6jzdwZElg0mDLBlAp0gIQAACEIAABCAwMQFkqdtnhmZElgwmzf5l6a8vP37++PMfBuxeRZFf795dXcf/3z2WbXp6uElnr2/vn8rz4/ef7t+76t1YlD2+dZQAAQhAAAIQmJEAsjTUebqDI0sGs2X3svT9tx8+PXz5boBuriIfP2TnuX5XW8+x2j7eXb+7Ws/2dH97NUKWfLXXiz0cDjaypBxy0UUTV9T9ptzVK+77h3MFdlRX6pqyBwEIQAACuyaALHX7zNCMyJLBtJpdlpwLff746fNP39pwfv/588cff/sznfz2y0effvmvPOXT/PnrQ07wWu5HhZW9UI6n+/cfviYmJ21MK0sn1f7iiRzS8z3k4tUoA3pZEjfZFpMUXV/mqPeRpZoJRyAAAQhAoCCALA11nu7gyFIxUF9id25Z8o/YbcnSHz99+vzDr3+tkHJnpUo5s0q3oYKG7d+X/Nq341ZSwQxZUkB2IkvpztsZbowsqZ5mBwIQgAAEWgSQpYXuLFMAACAASURBVG6fGZoRWWqN1sHHppYld5vo4cs3d3OpeWfJ3yb65fd1RCqBtyMVJ8Tf9yN8/t7CkXsgy/2H5Tm99m2IbllSwcVNj9QrzQS+uPw2VHxpSr2bpNKUtfb3WO4eD8EVfdPKx+TEqRS/TJNqWWwclyX13KMO6065I7ICS/1dtW/vnxYmDtcSR0coapN2yztL7kQoRfBR3PKjlT6vfFYzbYu8qs5DHrxMbWEDAhCAAAQmJoAsDXWe7uDIksGkmViW4l2jWnIWTsd/2kHKktz2AZbbVus3pgy64+wiwwpYrnaLEEWCsNuQqz5Z8rlStKIst5D3vw+REhwOX++0FRx/Z+kQdKJsYoh8nR+W888i5hssfjeVFfwhny0g1bvbsqSDH/yuuLmXPCo2PKeP1V407/3tzfWHr+G9rLKFdaUWnqWR+uLiwcc7FzD+L9RER/ZylcjElP7z6f42xkn3rNopVTZ2IAABCEDg1RFAlrp9ZmhGZMlgqk0rS/llpDVZcsc3f9rBZ0wulAM6zMHE/tj9L+mphXJj/DQW/T6LXj8fDoceWfLLbrE0X+5y5CNeEvJuo37tyuiEzTSVhmmnKpuzYQi6sGWvwS2l80VrgP5OUVSj5WaRTJGaIKot7gjp7KmgesNnFz7jU4SYsjiRsW7IGSgaLRWh2YQABCAAgddLAFka6jzdwZElgzk3qSxJQZLbgpCWH3HCp19+xUG8kpTT56fvjt+bEnGn3PSr8HL1nGvqnKE6u3owP7KVIyxbrRW2X+IXa/RkBS5fsyAdWqXXp9JeM02tDSrZJWSpeEowupBHURqgOqhqkprhN0S1BdLBsiTvNS1Ce9r9IlFb3Qz2IAABCEDglRNAlrp9ZmhGZMlg4k0pS9ph2rLkbg2pF5Ba8JwgxbtPQZZ+d7+Gl15z0gW1Isx+zC9nVyWnvdgtRcK3sXkwt16s7NNBn6UwCr+7CFS79JQ9FOt+8bwQLp1i6zE85YFaUfxNraQEvqrRdsr4rf36hkxK5SM3ZSkWp2uSMroNwUQgfZ4s+eIyCr+b3kfyG6q2olxVNb/ja6L7NEeuk3MEAhCAAAReKQFkaajzdAdHlgwm3ISyVL5c1JKlMs0qufji0+Hgs6gfx4sP4639mN5q0JlObGuAO1sudsV6XTTEx1m3ltYKu3VnSUSUYiAPq+0Nr0jpmmnqVqhk1aJ/vWmpHLmxIUsehdKPg3sX691VuoGjaiKjDpElX59FOMO27HFVMV+XVleGSvoxkFqh1U43gz0IQAACEHjlBJClbp8ZmhFZMph488nS8rsL+V9DEv9uUryVdPodoSxLh1q68vN4BuQvVaRfDa/dnGndsnBL+XgPJFeiQ5a0IeRQaatVejoZNja8IqVsptmWJX/2TD9K5bmNDVnSL0eFXNobmxVeErpfvAgyI6TlBFBV9nBgedks3jSr1ag+IsqNMdaC15B1DvYgAAEIQOC1EkCWhjpPd3BkyWDGzSdLFYR+yQnelR66O/in8uKuD5t+/qEqdUcHwg0B6UviH6X1C/f8nJ5f/ubd3MoeWap/7C7HC1tF6fWv4YUflohr/TK7CFKaT72Ol4pSn22HXj26JUvhx+uEcHohEf4pa1KUICompKVXlkJvintBviZpJPiw7pk6fR8s5CqBVj9dGPouql3RDnYhAAEIQOB1E0CWun1maEZkyWDe7VGW8k81VMCWZ+3izajahbwvfQ63reqzVbzdHPAr75V/TWhZUi9n9SJ5ES39ikt+ck+HTfHl4jutyOPZ0nxUEbr0gFclyI+QxcW6rlt0EmEdSydpRWnVPOY9oVc3ZcnlD1qy1K1osq6JKk1Uu1uWJJCMaylGdUf8d6hkf/l0a0NCMneNcl1TFaEaxA4EIAABCLxKAsjSUOfpDo4sGUy3HchSSeWkn3YoM7H/pgj4Rb9e5QeLOMOX3hQwGgsBCEAAAhCQBJClbp8ZmhFZkqP0hbZ3J0sn/7TDCwGkmAkJlM/F+So2D05YeaoEAQhAAAIQMCeALA11nu7gyJLB1NidLBkwosi9EQjP4Kk7S+HBs+J5ub21i/pCAAIQgAAEXoYAstTtM0MzIksvM/5VKciSwsHOqyEgX7/x/3CQcqdX00waAgEIQAACEBhAAFka6jzdwZGlAYP9WEhk6RghzkMAAhCAAAQgAIG3RQBZ6vaZoRmRJYN5iCwZQKdICEAAAhCAAAQgMDEBZGmo83QHR5YMJg2yZACdIiEAAQhAAAIQgMDEBJClbp8ZmhFZMpg0yJIBdIqEAAQgAAEIQAACExNAloY6T3dwZMlg0iBLBtApEgIQgAAEIAABCExMAFnq9pmhGZElg0mDLBlAp0gIQAACEIAABCAwMQFkaajzdAdHlgwmDbJkAJ0iIQABCEAAAhCAwMQEkKVunxmaEVkymDTIkgF0ioQABCAAAQhAAAITE0CWhjpPd3BkyWDSIEsG0CkSAhCAAAQgAAEITEwAWer2maEZkSWDSYMsGUCnSAhAAAIQgAAEIDAxAWRpqPN0B0eWDCYNsmQAnSIhAAEIQAACEIDAxASQpW6fGZoRWTKYNMiSAXSKhAAEIAABCEAAAhMTQJaGOk93cGTJYNIgSwbQKRICEIAABCAAAQhMTABZ6vaZoRmRJYNJgywZQKdICEAAAhCAAAQgMDEBZGmo83QHR5YMJg2yZACdIiEAAQhAAAIQgMDEBJClbp8ZmhFZMpg0yJIBdIqEAAQgAAEIQAACExNAloY6T3dwZMlg0iBLBtApEgIQgAAEIAABCExMAFnq9pmhGZElg0mDLBlAp0gIQAACEIAABCAwMQFkaajzdAdHlgwmDbJkAJ0iIQABCEAAAhCAwMQEkKVunxmaEVkymDTIkgF0ioQABCAAAQhAAAITE0CWhjpPd3BkyWDSIEsG0CkSAhCAAAQgAAEITEwAWer2maEZkSWDSYMsGUCnSAhAAAIQgAAEIDAxAWRpqPN0B0eWDCYNsmQAnSIhAAEIQAACEIDAxASQpW6fGZoRWTKYNMiSAXSKhAAEIAABCEAAAhMTQJaGOk93cGTJYNIgSwbQKRICEIAABCAAAQhMTABZ6vaZoRmRJYNJgywZQKdICEAAAhCAAAQgMDEBZGmo83QHR5YMJg2yZACdIiEAAQhAAAIQgMDEBJClbp8ZmhFZMpg0yJIBdIqEAAQgAAEIQAACExNAloY6T3dwZMlg0iBLBtApEgIQgAAEIAABCExMAFnq9pmhGZElg0mDLBlAp0gIQAACEIAABCAwMQFkaajzdAdHlgwmDbJkAJ0iIQABCEAAAhCAwMQEkKVunxmaEVkymDTIkgF0ioQABCAAAQhAAAITE0CWhjpPd3BkyWDSIEsG0CkSAhCAAAQgAAEITEwAWer2maEZkSWDSYMsGUCnSAhAAAIQgAAEIDAxAWRpqPN0B0eWDCYNsmQAnSIhAAEIQAACEIDAxASQpW6fGZoRWTKYNMiSAXSKhAAEIAABCEAAAhMTQJaGOk93cGTJYNIgSwbQKRICEIAABCAAAQhMTABZ6vaZoRmRJYNJgywZQKdICEAAAhCAAAQgMDEBZGmo83QHR5YMJg2yZACdIiEAAQhAAAIQgMDEBJClbp8ZmhFZMpg0yJIBdIqEAAQgAAEIQAACExNAloY6T3dwZMlg0uxflv768uPnjz//YcCOIhcCT/fv311dv7u5fwJJB4Gvd++urj987ci5mqWvRx7vrt9d3T2uRt3Hib6276Nt1BIC+yDw9HDzhq4IF/rOmQ8astTtM0MzIksGX4O7l6Xvv/3w6eHLdwN0cxX5+OHq2hlL+P9ZK96n+9ur69t10zm6hr7QpeJ8oF4zUqsr3/BMzkJxRhUuF/yFZWm9u4929CoeH/NdA7W//L+sgBmNxmdMwFWslzmxAFm+HN4/7ORPGr7aRrU98sXyvH5Zn4DPiztV7jPW/f5rJ165/CitvsmPN63/u2sz9ol1u9B3zhnQNmt9uZPI0lDn6Q6OLF1ujJ8caXZZci70+eOnzz99azfp958/f/zxtz/TyW+/fPTpl//KUz7Nn78+5ASv5H7U8k0tl6pf7zbkJ8FaNo5dvAddh8pqnLkfWi0vq493xdLqcj7TqNvlgg+QpUZ906H17n5GR69I0apEpdq8io2wthYT8On+vRyZdo0M/SLnxeOHndwBtpKlE75Yntef6xPweXGnyn3Gur/82gmz6cxRWga5EIwibBgbZ1xbz6vGGdDOC9ydGlnq9pmhGZGl7iHdn3FuWfKP2G3J0h8/ffr8w69/rbTfnZUq5cwq3YYKGrZ/X/KXlmd9fR+7eBcXjBXYL3z4FFc5JU13tS8X/DXI0qFeYh4O7YPdxCfNOLEQ+pkrTWlShM1qGcnS5eZ1s1V+VmzfyV/Lt6vjZ6z7G9eX8y9qjSCX4FWFHTo8zoB2icadEANZGuo83cGRpRMG76WTTC1L7jbRw5dv7uZS886Sv030y+/rTFQCb0cqToi/60f4/NfrscecwkJ2eVwt/8Uu5FXPP6in+MJf+NKjfXkjL7/8tSRGEH9Z913i4989HsJq0mcvpU6cSk/TlWma3bu5QlW1ytUunqHXzc9YXHmemGuPCLW0WhyJDQ9F6AgqWUnmcKjYnnQjwuXK8DMYcXy9XN1eiSVWz+d1HebeNwgJ4qlc1tpWo0dCnCVEDJ7y+7NnQUtZqw01wldqvk5mCReCnDT8RAV8rlanlGkiUj1bN0ZaCnC05iml3jhlYefTxMGg2h4HlSi9MRoUed2bh4MKrkb4RvDWd0IYjSrCRnBN4by9xjCWAXyLms0MB332D1+XPxP4aqexIaZVBN6YZbr5skdCR8gj8Wuk0S+y0idv6xrKZm61K4XX2U9+i9W3q2hCxdkNmDSDxBue+rhIk7C76okxfN5rmVXdfMVEZVVkcdxD8UC2r4DyyzY0UGJPaK02kKVunxmaEVkymBETy1K8a1RLzsLp+E87SFmS2z7Acttq/caUQXecXWT53V0H8N/m6coRrmf6S91fCNU1WEepLhj6tNtrViNdO2Pp/sKWVzx+N5Ubrjr5bF2IOhKD66aoJO1ahSRPDzexVvFvvfIHKvIScIlfc2s2OQWXl2SfUlwCS54FFt0GtbeSsrVeX6/eene7it28v02/NrGeUtVq2akQ6exlq8MqIWMpspfQWiWuHavbXgR3a9lqpIU0hVGvFZGOl5HTibhRJAi7eewdG2lF9nOw6PkV6yM+iwR+N794FnavruMRX5PcX27aeKnObTnIp39978e8y18H0mSPq3wdvKGRIrio+PL3lzz3nx5u8o5MeP52aFSqWBnAD2NdKw9qGU6h1cITqmHv/hKzemfp6f5WEA5jI0OLi/44dP1g0NDK6p6xv/mVeLRdZaPq0bJalQaiZWjFPv16lwdSCWEJ2wqST0Vi8VJ1MrQirN/VvR8Lce8Mx/rGpsaxlP7CJYdKvO6I/j0DWixi8CeyNNR5uoMjS4MHfiv8tLKUX0ZakyV3fPOnHXzG5EI5oOMQTOyPvf+SXriGld/RoqN9AnGpWC7V9RHxlS2y+83iglGedvv18rS1ltLJyrDl5bZVjjqWLkXSTGSKZq1kgrzt1yWZY71M8UfkZXI9uLsiypRhpRiPFNfLw7KOVD2S66W3ZG+KUorK+zzr1Vvn7HtE/NW29BldmWovQEsNKYiV3V0EF81ZAtdHqhJXDtRtr480sob6b0yERp4wpMUCt0zTaIWqTF2o4lZnr4+URS77IXLqjiqVnz55yLvzVdFq/afOHhu3rrs1FnXEtUIFDwoha1sWJxvgs8vE8uSztze/WKrpo9rlz6qG11WtIqxXuO4jP3j8Wt9PqPitsh6i+4znH8fHkXb5eqruro+sVsQ3JBYUU222zkEo5mkzSAymP0+eQdUtKXdra2XUqUkdywsDSfaRTFYjqo/ESFafyFK3zwzNiCwZzIhJZUkKktwWhLT8iBM+/fIrDuKVpJw+P313/N6UiDvjZriGxQuNv7wtzyqEa4m64C0NkN/X/tCxi/cJ16Eqpgtcf/WrZGXYY9VY4R8uSKHVEcRaS1dClMvEYtXYzqXaIpO4dql1g/pbcqNH6uWUDKe2XaGhZz09sV2UqL1UxVjnXPZIowdVpHJHjcay97eDb0MrCzqyX3dNHCTFADkS55TTvqwSfs7YaFf403jM4seDXE7lvMtaLaZcTqx3n8q5jOG1td0yJsuVnw++HKyGZVHVZtNiHfJAjUcaJqZLL7MUxaU4biOMtNWVq0rbuxPHjHs4So4bPbCL7ih2m0pZp1mtoi4rJIttX1+4r4Y764TiX9dZDY+y71pf/quFV98MLqU/uDYv/KSTfbKk14fWClQ1X0u0HC/q5ployY8JV+8sqfkra/4saEfqfanTyNJQ5+kOjixdaoSfEWdKWdIO05Yld2tIvYDUarQTpHj3KcjS7+7X8NJrTrqgVoTJj4ULZ3GNEBc2/12fH/XOj3TLLCJ9s7nFBaOVRl4D0vn6Sq+T+YtW+gPh5tUxxVzdWC5jq1emKmNAJ56Dl7eD1EKhyuoP6LbkNHKNpcgLyZH0z7mzFOzF5fbPzNzfeSvzJeqQK/f6fC3Xu7vq6LoHcztbW6HtvipVKZvBj0BrlbVxrN01vgKxR0pcG9G2T4kmNxK2AUoUmyPteVj0/Cpr11wyyl6rEuiqtpu2lNKYXIF8XP5WwesRq4srq7+kj/NXe1eduP+Ir4b+84eovD8rBpMEGMoUiZdK1GlE7ZbiYrvcN7b6TnNJlzSiWBHgGZuNXov9VddZtqs+e87fWeR0iLUvp5WavAGObn4rSAwW/nIkkZ6s2XXY+ogvpvmdU88Rkex50FLbxm4gS90+MzQjsjR23DejTyhL5ctFLVkq0zTb5g7GF58OB59F/TiePLsaYPIT5UXFVVd8C5fX8mZrRPrm+ZXLg0wrrgH58OalIl3y8zVMX/1ynBO3ahTNWvlo/kovHzH3oOLKYKlb3m3VYDW4w1Wtb1KEBky57EjpVjaW4OHdBtdx7x+eXMOTc8Z8q9WTwyMmXj6rutU9WOQod8MyLr7grgBuB1/aVcbr219vu4/na7LVR2eV6qOplsrsrXYpqsXAk3nbd5aKFBu7fl7LQa7S+rOlY8ihKLd9Tl1V1QoV2e24LqjGpEhVBa+HpS5O5C03fXdvF1dmOWvft1TdXEoDzJ+S31v1d+kJLU21CSNTdEoLcijixv074FuEU9ATN3w95WhR/LfbVZ99rix5wsu3aOAvp1jin9vm0cmeiKd83dQXct0jMW39WYdVWHKGRpVat9dEsudByyUP3UKWhjpPd3BkaeiwbwefT5aW313I/xqS+HeT4q2k0+8IZVk61NKVn8drw9nDUf/drR+2kd/Cp1wYZPpWk+sLRpVKXAPyufpKL5NV64ycsW8rXFPl9VIWp2LWF7ziSLGrMi87ZwSX2avIodq6B2UGve2y39w/3r/36ySX9/b+/kPjD6Wr1atXpamEqqN93dbFL2XMG2FpcvfoQumMZfCQMqapsOSQaiss6dTKVZ33O+ttj2nLyvjjvg7nL0CrVWYsxH222uWql5a5rQQ5wPbZnK69FYaWXGXKdA1Kvrg4g6qvjqIyxa4M3Vom6vNVcP+TD6qqm/F1tPZDp8vMSqiLPCfvhjgRi8+2gHJjWNW5Mbnqlq5+39bTrT7ie83PGj+GW98bYUAemSNl62va6khdZ9WuaiyFOsTZXRam9+vJ6ItOTauCt7q7DrIUourpj9VHdH3kXh22PuLT15V0s9/9AoqCIJPJ7VwxnV7WxWIbWer2maEZkSWD2TCfLFUQ+iUneFd66O7gn8qLuz5s+vmHqtT9HAjX8nRpUXeWlu/r4opeti1EUKsBlcRfXTbXHNX3vsu/famoz6oyj+zo30eKq9K8Bg3Z/YVNr2b8iXAxTi3yya7PfAxv46l6T2N1sSJZOQi3d3f5B+iONHt5Zi+9rhAaImseA8hS4rHlc7W7q3VARx+F4O6Zq4R3KVauUYIpqUeMtqEtMWJPidFeNM7tVm3XPzLWSOByxZqrxU0jen1oqZWYQOLX9op2lfDVkrQOHdqyOpYaGdShhbOcAvkfpS1mQfiFutxrsr980KqqRdPc4CyyyzsVqmJF8FBPAdAlbh6MNckFNd8LcslC9Yo3jlQtGjunfbEsdSt+oyLW+VjdyjEQqxGOp86K9c8DspmgoBYf0qsnYCym+VkMhjjRYmV8X2y0S40N17l3H6o/lzTLXW6fihEeihZl6WG2DOnqxSE/okSuWJo/nsZhaGb6/oyJVj99ZQThYtzmfL6SIqE/4/srd18ckzHZFrTQTJ831Nnfb9QocunDtpCloc7THRxZGjbk1wPvUZbyTzVU7VqetYs3o2oX8r70Ody2qs9W8XZzIFwS8iNt8SLnG5CuEPGdJXU2JMn/tE69AojLkSp7vJzncuUq+cilIi84RPbG1W6tD8omx0uQTh+v+v6VCXHdksddoS5axqIuYzqg3JNBir8IqlOugaJ66Xof7gj5XfHsjSyh2l7yxmjFbl4ghldElv9WVMOqK6aJwXyd444rue7Bqj7VgTjYMsyUJJ5avNQVJ3okLptirQpoIcrS6bKSKXzaaC1c9GipgLi8oXrNUyn06obo00oU27RDqFNG2tZYWq1QPqGza3QKi+4yf0oOy2ZVVXAdW+hK7NOUQJXrzsqCctU1VZlGlStmbs4bO1RNPXl6bbusW6q0yhAqIKvkTvsKqyFUYfRR1oaE/EZ13eFKWebIkqUOXjVwCaJSqrq3dyRSl9fVPA6JE9qVs/sKi5q3i0tHc8blQlABV8Mg/kNwVapg+9VFKtujOxX/1aOy41Jt9Maxusn+ioM8a2r9/Vl+NeX4BbTQZH8wfC/5Cofi6pbrSl9wD1nq9pmhGZGlCw7yU0PtQJbKppz00w5lJvZnI+C/95d1wFK3Z61WZ2sf9TEjUK5IzCpCwWsE2gqxlrr3uFhx9oZYzeeXuS+4bF2tSONEWIKf6AON/ByCQCCALA11nu7gyJLBDN2dLJ380w4GMCnydAJ+tVT+7bN58PSYpIRA86/7YJmNwIvIkneGeG/ksgTqOy2Xjf+caEERJ/W45zSMvC9OAFnq9pmhGZGlF58Kh8PuZMmAEUUOIND4o294zmTM4mZACwg5DYH8Hk589Yil4jSd06zIYFlanm7SN66bFek62Lgr3hXn0pnCl+raM42XLo14r58AsjTUebqDI0sGcw9ZMoBOkYFAeAI7P+odn86HDwTOJBCXie61hFFL5DOrRPINAoNlaaPkZ53y1V5efXlWIDJDYA8EkKVunxmaEVkymD3IkgF0ioQABCAAAQhAAAITE0CWhjpPd3BkyWDSIEsG0CkSAhCAAAQgAAEITEwAWer2maEZkSWDSYMsGUCnSAhAAAIQgAAEIDAxAWRpqPN0B0eWDCYNsmQAnSIhAAEIQAACEIDAxASQpW6fGZoRWTKYNMiSAXSKhAAEIAABCEAAAhMTQJaGOk93cGTJYNIgSwbQKRICEIAABCAAAQhMTABZ6vaZoRmRJYNJgywZQKdICEAAAhCAAAQgMDEBZGmo83QHR5YMJg2yZACdIiEAAQhAAAIQgMDEBJClbp8ZmhFZMpg0yJIBdIqEAAQgAAEIQAACExNAloY6T3dwZMlg0iBLBtApEgIQgAAEIAABCExMAFnq9pmhGZElg0mDLBlAp0gIQAACEIAABCAwMQFkaajzdAdHlgwmDbJkAJ0iIQABCEAAAhCAwMQEkKVunxmaEVkymDTIkgF0ioQABCAAAQhAAAITE0CWhjpPd3BkyWDSIEsG0CkSAhCAAAQgAAEITEwAWer2maEZkSWDSYMsGUCnSAhAAAIQgAAEIDAxAWRpqPN0B0eWDCYNsmQAnSIhAAEIQAACEIDAxASQpW6fGZoRWTKYNMiSAXSKhAAEIAABCEAAAhMTQJaGOk93cGTJYNIgSwbQKRICEIAABCAAAQhMTABZ6vaZoRmRJYNJgywZQKdICEAAAhCAAAQgMDEBZGmo83QHR5YMJg2yZACdIiEAAQhAAAIQgMDEBJClbp8ZmhFZMpg0yJIBdIqEAAQgAAEIQAACExNAloY6T3dwZMlg0iBLBtApEgIQgAAEIAABCExMAFnq9pmhGZElg0mDLBlAp0gIQAACEIAABCAwMQFkaajzdAdHlgwmDbJkAJ0iIQABCEAAAhCAwMQEkKVunxmaEVkymDTIkgF0ioQABCAAAQhAAAITE0CWhjpPd3BkyWDSIEsG0CkSAhCAAAQgAAEITEwAWer2maEZkSWDSYMsGUCnSAhAAAIQgAAEIDAxAWRpqPN0B0eWDCYNsmQAnSIhAAEIQAACEIDAxASQpW6fGZoRWTKYNMiSAXSKhAAEIAABCEAAAhMTQJaGOk93cGTJYNIgSwbQKRICEIAABCAAAQhMTABZ6vaZoRmRJYNJgywZQKdICEAAAhCAAAQgMDEBZGmo83QHR5YMJg2yZACdIiEAAQhAAAIQgMDEBJClbp8ZmhFZMpg0yJIBdIqEAAQgAAEIQAACExNAloY6T3dwZMlg0iBLBtApEgIQgAAEIAABCExMAFnq9pmhGZElg0mDLBlAp0gIQAACEIAABCAwMQFkaajzdAdHlgwmDbJkAJ0iIQABCEAAAhCAwMQEkKVunxmaEVkymDTIkgF0ioQABCAAAQhAAAITE0CWhjpPd3BkyWDSIEsG0CkSAhCAAAQgAAEITEwAWer2maEZkSWDSYMsGUCnSAhAAAIQgAAEIDAxAWRpqPN0B0eWDCYNsmQAnSIhAAEIQAACEIDAxASQpW6fGZoRWTKYNPuXpb++/Pj5489/GLCjyGcReLy7fnd19/isGK878+OHq+t36f8alad3/U4ffN04dOs8nLL5C7EPX3Va9iAAAQhA4FwCyNJQHorpqAAAIABJREFU5+kOjiydO5IvkH73svT9tx8+PXz5fgEUewzx9e7d1fuHp6rq+viysF6W3XqB+XR/e3V9e1+HiDF9grRkP2MZ6upwXaR/un+fKjxelprr6diu2T995W9WO2Z3sqQHoZPAYmyc2SHNzkWWzqRIcghAAAJrBJClbp8ZmhFZWhuxA4/PLkvOhT5//PT5p29tCL///Pnjj7/9KU7++evDR5/F/VefOhz++CmdWo8pgs2+2RISV+csS08PN8UNnMcPcgm+LUvubJaxsN49dY3bqhuydOqIatE7Ne+U6Qo3DmNpy9KPtKIpS0fycBoCEIAABE4lgCwNdZ7u4MjSqSP4gunmliX/iN2WLDn5+eHXvxIQZ0pZkLwa6d0kXcGp0m6KsK+NlSW1dxJ/B2klQW7ltizldGHryO0OlbxVNLKkEK3vSFDrqfZ0ppClw+GZtvPM7HtCR10hAAEIGBBAlrp9ZmhGZMlgMkwtS99++fjp4cs3d3OpaTVeeH75fR2bT7D2kJ5XqZ2/7ORVp77Vk2TJb2w+73SeLPn7VPLG1Dp7f3erLFo6QFw9h3tf/uUc+YRgXTFlXz7X3ePBJwtPCabbFOGuRXp0MG+kmqtQrg2yYhttUqd8kBhcVt2lUnVI5fqSbv0TaKFrfPZ87y7FX6+PwLXy/KQqWj17WXefVg7XIlcZUbdmD8Y3qWS7UtVXNmJ3x9Oh4zQ2VXN9ymfztU0vcV2JV7bEMEjPecaSls9jwYvk7EIAAhB42wSQpaHO0x0cWTKYlxPLUrxr5J/Ea8nS8Z92eBuytEhCXOkuS/+wkI2LyFqolsHmEyTNODYC/Wr1xCVyJSSFk7jF6837YA6u3GL1XFdMBUzOEE1DnQ3t0CYg21YlXpcTmS1vh5V3pvp0f5sX9wWlsMSPp2OPvIsYfajlrLSUqGHBTGIzUxVqPu5UwKLLigUtZ/Ouczr3GxIxefBbV25M4+uWi9a7uqxUsZUN2cxYzxw5HklVKRiGJ0uluemax0JX+rGs6tP9+9x3MS+fEIAABCCQCSBL3T4zNCOylMfoi21NK0v5ZaQ1WTrhpx1ckE8rt558WPkI34sxv2RBbskYVMcvRpdtt2SM61157yUvi1Md2mvudFpthKX8qWZVCUlDlvRb/j5+XC7XFVMBw/JXrrbr1XN9JDZHhXIHVxbZMX3xWddNJFCtCMdler+de2d5wUxqgMtzvD4yZiq9OthQlDQwXC6NyGNRg0SC8sGVY9RHUk2qjTA+swGqasi37GJOV3TqX13PuuYx0wq3OnvMwCcEIAABCDQJIEtDnac7OLLUHK5jD04qS1KQ5LaAkW1KHFSb7im+tV8VD29DrT2hp8JMveNWgd5enh5u3n+4ex9Wum5hWixG/bp2WapGH3Etq5bXq80NK+nTf+xbrrNjULmW1et4n0Kuj+uKqYBellQb6wVxfSTWQ4VyB2XFYqLVT59YQpQpfcXKk+LgkXYtoY7Xp47T6k0N+Ri0CotqmPslw6Jh64RlTr8tauKroUOtjdjFzH1jlacVmheLW+EWShT30GJ6PiEAAQhAoE0AWer2maEZkaX2eB16dEpZ0s/XtWXJPaTXejYv0gqmlH/dIR53n8vvRmxll8ln3o6r8Kf725v7J7emdMtZt/QslrVLI5ZVY7471Fxz1y32ycRf+usU1ZHWyluuZcXqOeaVWeqKybPheTMjWWrUPLagvFezHPfYQ22PtCtmEL+xnmPLrTqOOxv6N/Z96LW4d+JjeNpJcpG+1fFtpeaLQzltY0tBKyu/DMt83ynGXwaq6voQvO1pcoAVlVD1z0yKVOxCAAIQgIAngCwNdZ7u4MiSwQSdUJbKn21oyVKZpiDns6w9gOefzVO/oVfk3tOuX2XePbo1olv/ud0PXzdkabmVlFWqXLa2Gh/W3PmZqFaa+lhjgRtu4CwLVbV69tnVSreumAroGz6jLC09onmIlf2Rdi35FAodK6Vo/QNZvqBoGu/iI5oxwDFoinDMFD99lfolo+juxq7qzVhq+GxUTCAVaY9zS7+9sVGcCMgmBCAAgTdKAFnq9pmhGZElgwk5nywtt33yv5XU+JeR9K2nAtvbMaV4J+Hm7oN3pOVH2O7uH27W/53ZYD5p0Vuv3Quc4Xkn/XJRmaS534rslshxkVosl5fKx7P184E+fXq359i631WpvZ52Z8rFt492ug2W2VX763aFtix3bGosrWjHF/11HPXva6kqxZ0Kmi86m3OrJjFvDS2fOWWrxKLrf6S9OnF8bLJx+/RInFjRsjLxOJ8QgAAEILAQQJaGOk93cGTJYIrOJ0sVhPrOUvhJ8e9VysPh8KZMyQEICpFfJgnL33hL4fEu2UWgVVlBtQzVVJc7FWuPZunE5Z6vW3pHP9xWyvUpFqx+mZvPFs+MxWamBNW6v6VGRQVE/aRHBSbX5zxk2MKo/TM54eJs6xJYmZur5vFFf7Pjtm2nCBuHyqmytDzjlztU8Dy+WXR3+cTg4uQJYhlQZndw/B8Ics1j8ja38JBqTLNl0TkNWxCAAATeNgFkqdtnhmZElgzm5R5laeOnHcIjduVdqfDm0uJRn4uzO39zabGItBaPN4LSW0lLgvRoVrEc9Wvu8l2RGC0ITHk2mtgpw1VH0GWnxfpSN33WRV9UzVUg/pNKUdtOkiUhk/5lm9guF1s03LFylTlPA1TTZOSi5gWuWnJahtNe9Otqy36JWJI8y5eLFFgxHhzThxtxf6ZVk6KXVatdx50KTdrOEtMXlwZq2VkuuKx5ctpQYVXzqlah+SK7LysRk4UWDWQXAhCAAAQcAWRpqPN0B0eWDObnDmSppHLspx3K9OxD4I0QCM6QxMm3Ogin0IY3woJmQgACEIDAcwggS90+MzQjsvScUd2Zd3eydOSnHToxkA0C+ycQ7r0UXtQ8uP+20gIIQAACEBhKAFka6jzdwZGlocO+HXx3stRuBkchAIHlGTx1Zyk8flYIFKggAAEIQAAC2wSQpW6fGZoRWdoet0POIktDsBIUAjYE6rd3lDvZVIpSIQABCEBgbwSQpaHO0x0cWTKYSciSAXSKhAAEIAABCEAAAhMTQJa6fWZoRmTJYNIgSwbQKRICEIAABCAAAQhMTABZGuo83cGRJYNJgywZQKdICEAAAhCAAAQgMDEBZKnbZ4ZmRJYMJg2yZACdIiEAAQhAAAIQgMDEBJCloc7THRxZMpg0yJIBdIqEAAQgAAEIQAACExNAlrp9ZmhGZMlg0iBLBtApEgIQgAAEIAABCExMAFka6jzdwZElg0mDLBlAp0gIQAACEIAABCAwMQFkqdtnhmZElgwmDbJkAJ0iIQABCEAAAhCAwMQEkKWhztMdHFkymDTIkgF0ioQABCAAAQhAAAITE0CWun1maEZkyWDSIEsG0CkSAhCAAAQgAAEITEwAWRrqPN3BkSWDSYMsGUCnSAhAAAIQgAAEIDAxAWSp22eGZkSWDCYNsmQAnSIhAAEIQAACEIDAxASQpaHO0x0cWTKYNMiSAXSKhAAEIAABCEAAAhMTQJa6fWZoRmTJYNIgSwbQKRICEIAABCAAAQhMTABZGuo83cGRJYNJgywZQKdICEAAAhCAAAQgMDEBZKnbZ4ZmRJYMJg2yZACdIiEAAQhAAAIQgMDEBJCloc7THRxZMpg0yJIBdIqEAAQgAAEIQAACExNAlrp9ZmhGZMlg0iBLBtApEgIQgAAEIAABCExMAFka6jzdwZElg0mDLBlAp0gIQAACEIAABCAwMQFkqdtnhmZElgwmDbJkAJ0iIQABCEAAAhCAwMQEkKWhztMdHFkymDTIkgF0ioQABCAAAQhAAAITE0CWun1maEZkyWDSIEsG0CkSAhCAAAQgAAEITEwAWRrqPN3BkSWDSYMsGUCnSAhAAAIQgAAEIDAxAWSp22eGZkSWDCYNsmQAnSIhAAEIQAACEIDAxASQpaHO0x0cWTKYNMiSAXSKhAAEIAABCEAAAhMTQJa6fWZoRmTJYNIgSwbQKRICEIAABCAAAQhMTABZGuo83cGRJYNJgywZQKdICEAAAhCAAAQgMDEBZKnbZ4ZmRJYMJg2yZACdIiEAAQhAAAIQgMDEBJCloc7THRxZMpg0yJIBdIqEAAQgAAEIQAACExNAlrp9ZmhGZMlg0iBLBtApEgIQgAAEIAABCExMAFka6jzdwZElg0mDLBlAp0gIQAACEIAABCAwMQFkqdtnhmZElgwmDbJkAJ0iIQABCEAAAhCAwMQEkKWhztMdHFkymDTIkgF0ioQABCAAAQhAAAITE0CWun1maEZkyWDSIEsG0CkSAhCAAAQgAAEITEwAWRrqPN3BkSWDSYMsGUCnSAhAAAIQgAAEIDAxAWSp22eGZkSWDCYNsmQAnSIhAAEIQAACEIDAxASQpaHO0x0cWTKYNMiSAXSKhAAEIAABCEAAAhMTQJa6fWZoRmTJYNIgSwbQKRICEIAABCAAAQhMTABZGuo83cGRJYNJgywZQKdICEAAAhCAAAQgMDEBZKnbZ4ZmRJYMJg2yZACdIiEAAQhAAAIQgMDEBJCloc7THRxZMpg0+5elv778+Pnjz38YsKPIN07g8cPV9bur6w9fz+PweOdyLf+/ezwv88mpn+7f51Ku3j88nZyThF/vOroVbBCAAAReFQFkqdtnhmZElgym2e5l6ftvP3x6+PLdAN1cRS4L99FL8BdutF/xdy/0PZNhNnI4dMpSZDiwesGUzrW4WLHnfXrT2LdsIEvPGwLkhgAEXgMBZGmo83QHR5YMZtfssuRc6PPHT59/+taG8/vPnz/++Nuf4uSfvz589Fncf/Wpw+GPn9Kp9Zgi2D42w/JUWMHT/XubhfKlec0tS89s7ThZenq4uX53c29yM8ndN7u7dxUQA/KZpF46O7L00sQpDwIQmI8AstTtM0MzIksGc2VuWfKP2G3JkpOfH379K4FzppQFyauR3k3SFZwq7aYIu9t4ur+92vPCdBM4srSJZ+3kOA1bKzEdd0V/+Hrwjxru1paQpdSfbEAAAm+WALI01Hm6gyNLBlNyaln69svHTw9fvrmbS02r8cLzy+/r2HyCtYf0vErt/mWnU3QiPJQV32DJS1h3/Ob+KeiWf61leZ1muSkhF77ex5aU6i2dteCHg7+/cfd4iLneXV3fnni3Q2SJ1V5e8ol3zOqbJ9kQ1EtB6e2gq/Jmi0qm78P4RjlQIo14GlBVTxzPI9FXLxWtg8dUucLxSPr0p2L22OR09ujGRuSD7I7yYTknCa45sk/PK91F8AOs8g1H0nEQTcsjMbToODRZserWmYhcjLTYLtGbZdkHX2E52FTDVY+fPIyPdhQJIAABCExLAFnq9pmhGZElgykzsSzFu0b+SbyWLB3/aYfXL0thfVmt/PJIKhKE3WV9H5eeTmgebq5vb967R6f8utCvFJfVpzMcv9y8vXEZ46r3sOhQWBy7ElXwuHsd1t/ufLWAztVc2fI1XLcRJSG1IdRHUjH+VM4eWpoxRjLpll2BcYmzUr2nBw8qJXK3/nJZug65zHg8rMvz8aeHm7wTEzU/QyviT0dE13ICEAOEdiUNCLvZYJMwxNp6u2jyb1ZAjg1XmRxZaOdSum+mSHAUWjG63HDK2X3Ni93U6ixCCwcfKrbxsNQtMqoH6tP9rUhcQmuT4CgEIACBnRNAloY6T3dwZMlgYk0rS/llpDVZOuGnHVyQTyu3nnxY+QifAf3nF1ks+quAXnL0L6H5LH5lKJZ9QgbyKjYsvn1SsRj1C+h0sFhJ5+BRlmQCebaqauuAr6GMkBKV693l5xbEird1ZMnuw6qkQRHTaluQkVnKmqxXL9XTbTSKc4dXaHjUyWdUoFN3ViL7ElMbQ7Dcm1ESsmPEIydXxpWb4gup9q31vwEoQtU9qJpXQtvC4kOV/fm+sHTZLtVxdeT6iK7avt/IUm1hBwIQgMAKAWSp22eGZkSWVgbsyMOTypIUJLktUGSbEgfVpnuKb+1XxcPbUGtP6KkwU+/4ZbH4s3dR2WLBGs6mg2LJKFauhSyFNahYPqbldYojCxUHRcwlxdoiXgZQ26KG6vhiYqrhdfD6SAjSWFsvAeOCe71cVY3nJVupXrizdP4vkouarUR2nVj6XrhnuOi06GUR7eTNIr7eTcMmhquHRzzjPwu2YlypZG7HExMatuS/TQyrdsngfjt2fIhdpddFHqm5TsweBCAAgX0SQJaGOk93cGTJYD5NKUv6+bq2LLmH9FrP5kWGwZTyrzvE4+5z+d2Irewy+czbft2WH4Qrqtpe1aVlq1gyipSnypLIIopNwU/zGZGztSlqWJyuS68NoT4SgjSPq4Dr5apqrCaLwiPegaksZe3OkivB1zA+R1dqgKpCc6fZwHCDq6qGFAO53Qy8ebD0mTyQXDYxMEIUBdwd2oJWJZY1aVZbll4lkB1XVazxvKhPr59vVKIua8M2BCAAgVdBAFnq9pmhGZElg+k1oSyVP9vQkqUyTUHOZ1l7AM8/m6d+Q6/Ivatdv9SrVsCxCeX61R3P606xZMwHxQNpYs0tlptpcbkdXBaUquP+FVf9R/x4qv0palgkEBVezojarh4JJ3zeshoq+3q5qhrtZJ6VbGY72ZYspVJ8rcSzbenE5oZqS07pKlYOFVU30cs516lbS1WFH3q7iFKRhk2Mp3vwCDSdOIZYPr0XlUop2yK3fR7Z6qpipSz5BPJHTTYrU9SNXQhAAAI7JYAsDXWe7uDIksGEmk+Wlts++d9KavzLSPrWU4HtDZmSa3m1ypQ45KIwHneL2vBiiTgr1n/5T/JizS2Wm2lxKbLH2OqtGBFzOS8CphybG60iQoYqeIPDanGpCblwveBeLzfniC8jbeqHT74SbbV6qoyTnErnWMuSezandyiiz3T8AkcO5PhvoaiYqx6sERVHit1crttqkPTpoxCL0Rsyymhy25/1FUuP8Ik/LsRCVc3jQT4hAAEIvC4CyFK3zwzNiCwZzLP5ZKmCUN9ZCj8p/r1KeTgc3pgpeQR+Garu2Ih/lNavI/NzemEhuCwixTJRrP/yklqsQcVyU6x6t4Jf5M7S8mhWXPTKHheVj8ZY3bbyVS1X8C6Ib2OWhLDaTs6w/CRDK6OswUoyXzH9Owfugbo6msArwj7dv0+/keAOC/Ii1fZmO3J8Fi7fJAlVzfdkespaaiJGhahbHktHHsM7AVox2ByZBKrIHqClszVDnz71iMTlJsLt3V1+36n8jcdQDWGYorlsQgACEHg9BJCloc7THRxZMphje5SljZ92CI/YlXelwptLi0d9Ls6+hjeX4uo/vuWSl4luSAVBim9cCPEQS8Y+WdoKfhlZSmITm5ZX9uLXqP2/7eObIFoXZtNikiG70KHivSBNbOX1njg/w9K8fN4sG2kQgwW4i+wkRC/NY3NSEFkBVeecMRZ//FOu/svUuvKaV78srZWYx1VlU/lUqKJsdQVtaYVMIx90dKd95SPPRNtnrNolRr5PEOTZd4obYH5XjLQoSC6Bi+yqocbSUj0+IAABCLweAshSt88MzYgsGcyxHchSSeXYTzuU6dmHAAQgAAEIQAACEDiDALI01Hm6gyNLZwziSyXdnSwd+WmHS3EhDgQgAAEIQAACEHirBJClbp8ZmhFZMpiRu5MlA0YUCQEIQAACEIAABN4SAWRpqPN0B0eWDGYhsmQAnSIhAAEIQAACEIDAxASQpW6fGZoRWTKYNMiSAXSKhAAEIAABCEAAAhMTQJaGOk93cGTJYNIgSwbQKRICEIAABCAAAQhMTABZ6vaZoRmRJYNJgywZQKdICEAAAhCAAAQgMDEBZGmo83QHR5YMJg2yZACdIiEAAQhAAAIQgMDEBJClbp8ZmhFZMpg0yJIBdIqEAAQgAAEIQAACExNAloY6T3dwZMlg0iBLBtApEgIQgAAEIAABCExMAFnq9pmhGZElg0mDLBlAp0gIQAACEIAABCAwMQFkaajzdAdHlgwmDbJkAJ0iIQABCEAAAhCAwMQEkKVunxmaEVkymDTIkgF0ioQABCAAAQhAAAITE0CWhjpPd3BkyWDSIEsG0CkSAhCAAAQgAAEITEwAWer2maEZkSWDSYMsGUCnSAhAAAIQgAAEIDAxAWRpqPN0B0eWDCYNsmQAnSIhAAEIQAACEIDAxASQpW6fGZoRWTKYNMiSAXSKhAAEIAABCEAAAhMTQJaGOk93cGTJYNIgSwbQKRICEIAABCAAAQhMTABZ6vaZoRmRJYNJgywZQKdICEAAAhCAAAQgMDEBZGmo83QHR5YMJg2yZACdIiEAAQhAAAIQgMDEBJClbp8ZmhFZMpg0yJIBdIqEAAQgAAEIQAACExNAloY6T3dwZMlg0iBLBtApEgIQgAAEIAABCExMAFnq9pmhGZElg0mDLBlAp0gIQAACEIAABCAwMQFkaajzdAdHlgwmDbJkAJ0iIQABCEAAAhCAwMQEkKVunxmaEVkymDTIkgF0ioQABCAAAQhAAAITE0CWhjpPd3BkyWDSIEsG0CkSAhCAAAQgAAEITEwAWer2maEZkSWDSYMsGUCnSAhAAAIQgAAEIDAxAWRpqPN0B0eWDCYNsmQAnSIhAAEIQAACEIDAxASQpW6fGZoRWTKYNMiSAXSKhAAEIAABCEAAAhMTQJaGOk93cGTJYNIgSwbQKRICEIAABCAAAQhMTABZ6vaZoRmRJYNJgywZQKdICEAAAhCAAAQgMDEBZGmo83QHR5YMJg2yZACdIiEAAQhAAAIQgMDEBJClbp8ZmhFZMpg0yJIBdIqEAAQgAAEIQAACExNAloY6T3dwZMlg0iBLBtApEgIQgAAEIAABCExMAFnq9pmhGZElg0mDLBlAp0gIQAACEIAABCAwMQFkaajzdAdHlgwmDbJkAJ0iIQABCEAAAhCAwMQEkKVunxmaEVkymDTIkgF0ioQABCAAAQhAAAITE0CWhjpPd3BkyWDSIEsG0CkSAhCAAAQgAAEITEwAWer2maEZkSWDSYMsGUCnSAhAAAIQgAAEIDAxAWRpqPN0B0eWDCYNsmQAnSIhAAEIQAACEIDAxASQpW6fGZoRWTKYNMiSAXSKhAAEIAABCEAAAhMTQJaGOk93cGTJYNIgSwbQKRICEIAABCAAAQhMTABZ6vaZoRmRJYNJgywZQKdICEAAAhCAAAQgMDEBZGmo83QHR5YMJg2yZACdIiEAAQhAAAIQgMDEBJClbp8ZmhFZMpg0+5elv778+Pnjz38YsKPIcwk8fri6fnf3eG62Z6T3JV5df/j6jBhkhQAEIAABCLw1AsjSUOfpDo4sGczE3cvS999++PTw5bsBukmK/Hr37uq6+v85RvJ0f3t1fXv/NL5Bl5al4zU3k6XHu+t3V+f0won06+7OhSyNrQbDUhNfpXqouCNBJtsJcvwTq0gyCEAAAhDYPwFkqdtnhmZElgzm1uyy5Fzo88dPn3/61obz+8+fP/7425/i5J+/Pnz0Wdx/9anD4Y+f0qn1mCLYjjaf7t+/u3r/0KE8x5XjUhheXpYuVfOz4wyVpXyjLLjTTWW6/nhOVlZ/uyOeHm6u39UxyyDsQwACEIDA6yWALA11nu7gyJLBnJtblvwjdluy5OTnh1//SuCcKWVB8mqkd5N0BadKuynCbjeQpam67oVk6XBoF4QsTTUaqAwEIACB3RFAlrp9ZmhGZMlgKk0tS99++fjp4cs3d3OpaTVeeH75fR2bT7D2kJ5XqdfzslNblvxdow9fD/5seAQr3X3yNxAaj/DJ14rcLQj3hJ6PszzfpZ/LEpGbD55Vz4bF7NUqv3lDQ1UyPiuoDqqnzmJwVeGVG26+AvGxNHUjxce/e5RBYtHrgy2cqR+TWwgn7C7dMWjrpZQWFFCkZseMZbJ4fPnkzlIBhF0IQAACENAEkKWhztMdHFnS4/RF9iaWpXjXyD+J15Kl4z/tgCwlyYkyUCmKW7mvv7OUVCeu9f0qPJpDsVIPuzHl4XAol+xqjV7VxGeP9XSjP1ReHHm8E8FjgliZ9nxpO+TB1yRHDs1MyhEacp0faywb0i5LHq1al04eg5YSNjd0TYJ0NQjoZFUk1RHV2aojqhQcgAAEIACBV04AWer2maEZkSWDiTetLOWXkdZk6YSfdnBBPq3cevJh5SN8BvQvWWTbCirfqATmFFlKFnE4BM0IB9yKXNuLPKu2Q0vVGr3SiXKNXiWocG1p3pK4icUflI0qIASfkU1TNa/q0TiwWvkj0Bqh1CFvQeJmmqykSIgsCRhsQgACEIDA2QSQpaHO0x0cWTp7KD8/w6SyJAVJbosGZ5sSB9Wme4pv7VfFw9tQa0/oqTA72WlaQeOuUb2M3lKOLUlwPpBvziyY8kEfVv/GgIpW6UQhSy5x456J7I6tmi/pWlh8QdqVDgd5sKiJVkRZgfXtqnVL0sxH5G0eFOfFpug+37SVX0UXyUTmtKk6Ih2NG3Xz4xk+IQABCEDgjRBAlrp9ZmhGZMlgAk4pS/r5urYsuYf0Ws/mRYbBlPKvO8Tj7nP53Yit7DL5PrZbVlDcMPENqZfRW8qxsapuL6mzJNQF6XtNOeUCWAfcqlXskRPStLA0GyVLl9uhrGaWWI3WZ9W6kKiO7I6vJG7FVVTb0Vw2layOs92c9bB1JI5AAAIQgMCrJIAsDXWe7uDIksF0m1CWyp9taMlSmaYg57OsPYDnn81Tv6FX5N7nbssKhsqSX+KXd5bEOruxXldr9MoQRN7T3kdq3Der+q6FxRdU3lmSddM1cTHl2aqM1oGqdUsid3wDWiuUOlZQLXZT0rXjsRab/zpw3fwUlw0IQAACEHgbBJClbp8ZmhFZMph/88nSctsn/1tJjX8ZSd96KrC9RVOKP7BWvcFS33upl9F1mkx0SxJaHuLSL8/OVWF9+vxTe6VO+PRCJE5YsldF5IrHrVYlW3dyfKg8oriLAAAak0lEQVT40GBd9BaHWJT6LFsXT7bqI6DFZKufZffVVfVZy2RFvO3mrMQsYrALAQhAAAKvmACyNNR5uoMjSwaTbj5ZqiDUd5bCT4p/r1IeDoc3akrPkqXwus5VeavF491eVfuzOaNfZOdd5SROEm7uPtxkWVKPigVTutJ3XfyK/52oV/lreFs1X0ZHS06WG25CzHxD8g2f2ha2ObRGoq98652rI9BascSxyoJ8A6s3l6pkIsTRG2V183Vu9iAAAQhA4NUTQJa6fWZoRmTJYOrtUZY2ftohPGJX3pUKby4tHvW5OLv3N5eCUZT/XFI0jPreS3sZHTwn/qNDMfcJj5+tZQxjWZx1Mf1uDi7/uSF3T6z1iFpQi6Vi8c6PnCiiiKtsYkEhxK/GhQii7PBkXeSmrcbHzO501C5kfcS26hp5069dZ5FzfbPRfYXp+byNZDJm2/383bA4BiIZKasyBNsQgAAEIPCaCSBLQ52nOziyZDDrdiBLJZVjP+1QpmcfAhCAAAQgAAEIQOAMAshSt88MzYgsnTGIL5V0d7J05KcdLsWFOBCAAAQgAAEIQOCtEkCWhjpPd3BkyWBG7k6WDBhRJAQgAAEIQAACEHhLBJClbp8ZmhFZMpiFyJIBdIqEAAQgAAEIQAACExNAloY6T3dwZMlg0iBLBtApEgIQgAAEIAABCExMAFnq9pmhGZElg0mDLBlAp0gIQAACEIAABCAwMQFkaajzdAdHlgwmDbJkAJ0iIQABCEAAAhCAwMQEkKVunxmaEVkymDTIkgF0ioQABCAAAQhAAAITE0CWhjpPd3BkyWDSIEsG0CkSAhCAAAQgAAEITEwAWer2maEZkSWDSYMsGUCnSAhAAAIQgAAEIDAxAWRpqPN0B0eWDCYNsmQAnSIhAAEIQAACEIDAxASQpW6fGZoRWTKYNMiSAXSKhAAEIAABCEAAAhMTQJaGOk93cGTJYNIgSwbQKRICEIAABCAAAQhMTABZ6vaZoRmRJYNJgywZQKdICEAAAhCAAAQgMDEBZGmo83QHR5YMJg2yZACdIiEAAQhAAAIQgMDEBJClbp8ZmhFZMpg0yJIBdIqEAAQgAAEIQAACExNAloY6T3dwZMlg0iBLBtApEgIQgAAEIAABCExMAFnq9pmhGZElg0mDLBlAp0gIQAACEIAABCAwMQFkaajzdAdHlgwmDbJkAJ0iIQABCEAAAhCAwMQEkKVunxmaEVkymDTIkgF0ioQABCAAAQhAAAITE0CWhjpPd3BkyWDSIEsG0CkSAhCAAAQgAAEITEwAWer2maEZkSWDSYMsGUCnSAhAAAIQgAAEIDAxAWRpqPN0B0eWDCYNsmQAnSIhAAEIQAACEIDAxASQpW6fGZoRWTKYNMiSAXSKhAAEIAABCEAAAhMTQJaGOk93cGTJYNIgSwbQKRICEIAABCAAAQhMTABZ6vaZoRmRJYNJgywZQKdICEAAAhCAAAQgMDEBZGmo83QHR5YMJg2yZACdIiEAAQhAAAIQgMDEBJClbp8ZmhFZMpg0yJIBdIqEAAQgAAEIQAACExNAloY6T3dwZMlg0iBLBtApEgIQgAAEIAABCExMAFnq9pmhGZElg0mDLBlAp0gIQAACEIAABCAwMQFkaajzdAdHlgwmDbJkAJ0iIQABCEAAAhCAwMQEkKVunxmaEVkymDTIkgF0ioQABCAAAQhAAAITE0CWhjpPd3BkyWDSIEsG0CkSAhCAAAQgAAEITEwAWer2maEZkSWDSYMsGUCnSAhAAAIQgAAEIDAxAWRpqPN0B0eWDCYNsmQAnSIhAAEIQAACEIDAxASQpW6fGZoRWTKYNMiSAXSKhAAEIAABCEAAAhMTQJaGOk93cGTJYNIgSwbQKRICEIAABCAAAQhMTABZ6vaZoRmRJYNJgywZQKdICEAAAhCAAAQgMDEBZGmo83QHR5YMJg2yZACdIiEAAQhAAAIQgMDEBJClbp8ZmhFZMpg0yJIBdIqEAAQgAAEIQAACExNAloY6T3dwZMlg0iBLBtApEgIQgAAEIAABCExMAFnq9pmhGZElg0mDLBlAp0gIQAACEIAABCAwMQFkaajzdAdHlgwmDbJkAJ0iIQABCEAAAhCAwMQEkKVunxmaEVkymDTIkgF0ioQABCAAAQhAAAITE0CWhjpPd3BkyWDS7F+W/vry4+ePP/9hwG5PRT7dv393df3u5v7porV+vLt2YcP/7x4vGntosKeHm1jtq+vbC1MZWvNLBH+6v3Vd9v7hsqPhElU7HA5qUF3taVT1A5i7R9rt+nqX537dTUuLwizrHGmDvrXazdn9Uf+ddsY3/Lnpdw/oGQ14/OCvcR++PiPGHrMiS90+MzQjsmQwm3YvS99/++HTw5fvBugmKlIt/ZtGNHjZ4a8ll13WqsVWEpvOVddqX/lS5pOlZ/H0fb0JauKluTelzcq3+lL7lRstO1vWGPaIcp4ebh7+6uQ/PhpbHRqOjfzWOv6duV6vZ5wZ+IVzrvycm36z1XoU7fDPZ5utOyBLf//7v//7v//Hf/zHf/7nf/7Xf/3Xf//3f/8//7//+Z//CWvIbX4bZ//X0/enP//6/tc//PW///Ef/vGf//Gf/s8//fO//J9/+bd/+de//cu//u1f/+3//tvf/v5vf/v7UPfYXXBkaWNEjTo1uyw5F/r88dPnn761Cfz+8+ePP/72pzj5568PH30W91996nD446d0aj2mCLaHTf89Lv+g+HR/u7p0GdSgZy3uj9TJX4ZHrX0Hrl2ONGvz9LN4Pmd5ulmrFzjZ2fBivR7caT4HfgGA5xURQInJ9fRwc/Z3RwG/qMGMozGoqfzO/Hr3QqNl4BfOufJzbvqiY/Xu0G9pXRR7L0eAO0tzehSy9HJzIJU0tyz5R+y2ZMnJzw+//pWa40wpC5JXI72bpCs4VdpNEfa2McdapHONexLsoZfhgWuXkxq3kuhZPOcYEist2z7c2x3Vev1ZALfr+GrO+nHScyupIFDBV+fnG41+bEhTUvUdvNM7wk+o1rnyc276zSoM/ZbeLJmTAwkgS8jSwOG1r9BTy9K3Xz5+evjyzd1calqNF55ffl8n7hOsPaTnVWr3Lzv5lcrWY0s+QXyMTf/V2K1jbu6f/PU7vMGyJE4rCXcJdMFFEB1iYb++Nl2CP+PVhdZl+GjNXYVdK3zFNl6p2li7rNXc1efuMUb+8PUQFp3+YB6Kgtj1O8nMhxW51LtDKleodvhv6hFXgl/lpLPplKpw7HGfLN868DDjqyayWqnmgljxNtdmzVP+zY314CGbL6Ljb/yem2hOQCEOlK9C6VO+cEVV1qEMHvgn7H4kuPSSv44fR4jvlJzRF7vVIx5XkT4MPHFwK/hWZ5yyVlZMms/3RrC6waJcX72tLyiRNm+qiVDFdmcdATGcqjQ5VrHV+j4pkvhd3/aNsC7O2e0Kg0SOrrJoOYrUBHT1uXXf1unt06X5MVrq0IwlnkqF6A4t32LVZ8UYS/lXN7aoLmHzt9AhfmeGInyT174S3feda7LrCTEqSvLilP6+9TU+MkcUcx1541RkoYKrl/d8w+8e5TdD1SMxypyfyBKyNOfINKjVxLIU7xr5J/FasnT8px3egCwdlsWW/opvjCR/BdXX/vgt777O3ZX45r1b1sdLl4uxBE+Xn3DZ01FcukbwlD1dHkJx8pLZqGZ9qHUZPlrzdO1cigvXvLri/niqYS7cF5qOq5oL4H7R9v42rtti+oKSh5NWHunqG4/4qhY1W+Hp6vf0cCP6OkSLoUL9fW1FmtyqvNUqdOnu2IrY+6lqJ9U8F1FuaaTL0ArBU+RkgHEjV6YMp/Z1cwJ/SWCzR/xyzP3ihcD4eJez6+BRVnNi31muwjGLbqnPHk/5OdVsVFWKa2CZN07JNIl0gqKZClG5E5inzi1PnzTSQqZmzVO8U0ZjSlxttCeCL9GZp5zdTapVwBbSOpE74mFu8HG9LLq1HaQ66rGvVvXp3n+ZLLnC105MHDrXfxW7IO9vb1zzfZplFrkfrbl5f5tqpcdh5Wk+YB7Gx79YqsaIA76sNCzFibAZKh9xhbGXig67YgLqUR3N6mrtMhSCp67S37f1JCoeuSwoHR4/pIqJZqwM46Jo3cwwhKpvhnVKorxJNpElZGmSoWhfjWllKb+MtCZLJ/y0gwvyaeXWkw8rH+Gz74zeGviv+3C7IF5Z61CNZYe4GIsvfXk5D5HTZSguK6uv+0bw1mrDlyKj1dWsj7Quw0drHpZTsp5iVSHKkI3Nh+t6iiOCibioCwIuQVwWhJjySLFQqJa/PoeIlmvV3qrb5Y/oClRZfc2LnhBtjOlVqJNqHnOWn8eCh/Tt7ihj1fuhu+MdM6U9LrHkHzLrIy0auZDqrG9LXlH5zlJ/UZbdVyTOYYutqhR/vgKikvmzcpCrv3QUBRS7jsB5vwNZj7QQUlWpKGW5LXBkNFaZ0gFJMh1c7jCIhp8KOd6VLUZ+jiy2GiNWnG0NKnV6Zafq0JV04bCsg98OXyw+SLhfLWaoSBCDuq5ZBqo/mwdttEF1JGbzn2vdrRKlHT+c8gT0f+wQHeTGQfx7RKin6IJ8KoVz/Z6uZb4meddfhd7n71g9l10IdaRueCrFbQiA6nix006mCgo55Iite0SeLUqYchdZQpamHJgWlZpUlqQgyW2BKNuUOKg23VN8a78qHt6GWntCT4XZy464XKXLjKh742taXADEFUVezn1Mdc1LDx2J0O07Sz6OzhtWOeIyqYKs7DTqIK9w7Zo3FnCNC9tyCS9xbddc1EeUkvGKBUpskUQqt8N5ETBmyNHikdVP0YlLmvpInVnUPJ5stVotvk+qeYxWfB4NHtLXRRRxVnZFc8ICRY2xIz3SHtK5JBF8qaX/E376vfkjneWzpzVrDltsVaWslpWGq+9o1dL2TCxKCrt+1KVQzSTFwbVxtVLzJfdariL4ym6bbVWi+BJYCRQPN4ZHPFV8+pQFXZmk+X0iEzS3zxvhsl1iWwQReEWCWLQYIY6k7u5G+pjPfYrI8vDKduNLrErp03ih0vIsmhPz+LpF+Ns1cYOhUD4d0I+WKk0sKT49oauUzsaNZh0aRYcbWauC2h7PsZD5PpElZGm+UWlUoyllST9f15Yl95Be69m8yDGYUv51h3jcfS6/G7GVXSbf17b/Ok4PqOS6N76mxQVAXDjllaZxCWzEaS/R8qVRvT9TvNuTK7i21aiDvJC3a14tp5aHygp5qx5N8ZXYrrmojyglYfH1iU+RyT+1LisViTc0WQSMDFK0eEB++ggycv4jq08mulVmU9ui5vF4oxpaJk+qeYxWfB4NHtLXRRRxVnZVc8og5/eILkUFd6fEkHO7m53lQ/keibOgWNjFsqpS4gmHLq7k5LZ6hSMGDwMvrjJjiNZnGEXbKUMaNZhjTUTI1Zr7NKeMRhGs2GyzrUoseqQIonZ93kYrQiLVU6rh4ZE/Xx99fJmJK92qyvYKcltKi0rSqEC98hYjXOBtQMhnRZZYXpX+tO6O2fVnc4LrJPGx0sLZ9JfMkkXVLbeiChhvFerx7ztImqGiWveUanh7bLTqoCqZqiYGZ52gPZ5T3uk2kCVkabpBaVWhCWWp/NmGliyVaQp8PsvaA3j+2Tz1G3pF7r3v+uuWvFT4BjW+psUFQHyty8tqfQmUZzOoRnB1UyKnPH+rroP6q2e75uKKtZQoGivq0GyOP1hqVcok6iNKyQTcwfp6nLLXJYqAMVWOFo/ET59Y/mJE3a76SMycP0XN48Fmq2XdTqp5jFZ8Hg0e0tdFFHFWdovmNHbP6hFdShGtQ5ZSPN81182/F1SlpExuMITp7NIIvfHRxH7KcdKGH2MbWE4YaaGc9Zq786eMxvX6tidCVaL4EliPFc6ELlid3Tm7j7lB1/FpL6xzjHprc4T7dsUXsVxe2S6xLYIIvCJBLDeDElniSZ3+5O6O2fWn/KLQZ/KeT+PejC3+lteom+p30cYcLG25Nm4M45TOb4Teb05Ad97XpKxezlh2d6toSVVuh3qodoVDU/8XWUKWph6gL1m5+WRpue2T/62kxr+MpG89FbzetinFd2BGyVJ7idC8BjQPFp11wm7rMiwun+KCJC66eZUQS2hd2Jp/1Dx2r0DUR5SSGyvqFsuWn6KSy2ERMCbM0eKR5bMOfsqRIkj8E2+xEmwU6oPHZCfVvC4qHDkWPKSqi1iLp4+LjvAndJwakc4thpA+EfaawcX6rNG0Vpjl2FplylJECHcq/mqlWuU3Ro7IdmzTlyiX5ipDXc/6SMiwUfMJZWlZEB9fXvtREce+QhN2HPxy9dxIVhzSI1OfrMehPCK2RRDRKSLBEtcfWZpQjVI/eNIwFnFiZvcbdCc38OhQ9HX2qu9rJSOL5qSyb4VQ1XWT3LbPypRh+0j6ujI+WzNX66DjHC++dY9UvVDXb6ojyBKyNNWAtKzMfLJU0ajvLIWfFP9epTwcDm/NlPRPGDki/utYvW4eODW+psV3vfhal1eL4hKYL3gF+0bwuE5KV44iy8m7RR18vqM1LxZwPn1rXSgbK2oU0sdrnjgRXTSsWUUpksBaFyxVL5/DaTXQR26sVIqK+WTid9hCTVe7KTdE1DwfLIKHp/kzhJpVq+Y5nN46EjwkrovQQdb2quaEBVla6m72SOxTedNG/hpe4LBYSmArfrnr2GN4jx/UZBQTTTemaoI47Qp9/3B/l5a28VxoZmOcxATbnwGLnBf5H6Ut+qs90nz4rZrPd2cpfS8pmMUvpLl2ebZpBNUg3eA/n/zWCC96c+mdWE8xckQQ302hGiJB7pdcQ5EyPJN890Hckzm9u2sS7siRrwI9AcMkSr4qmhMq/kHNr6M3J3Xwsn5HJuDjnRz/q2UpermIoujQg2nQlD1y7Lsix5VKH7rGf/8UxYn0gzaRJWRp0NDaX9g9ytLGTzuER+zKu1LhzaXFoz4XZ3f/5lL4gs4PbefVrRuO4es1nw1P2Ic04gIgvtblpctfAuXrMeoP25vBl7kQroviKX9dvfUZU2X01Viu/UdrHtd2qeHpAuZLbAdXV830SEZq/lJzsSwQy0TPWRSyWgGJN7ReBJQ4VIS0sNBvqrgquex5SbRE0A1MvaZipk4RwcOiJzZZhz255rIValsNJx08pKuLUPlXd0RHxDS+LDnYqraL3nKZ1ExJxEK4sF5JI9CFytDKro81iJ+6L6SSxVt8aZTGjRx8Kd/9pET+i3WM7D9F3UL2FliVQ+3o7CqvJFaPNHk2DpiMRYeN7VLeqKqhd1RfpOCpN33RsvvE15cOtL6ni5DBljw+ZuN4DNmcd/Hk6mcxGMIczN0ta+X6Qow00UYxTTznpddK5jnsUp3cZf6UCO4S5LNhpJ3VQDW1Y3cv9JZGyTm1VDXUsGKSOjrUW7ZxDaysvB8woueK+OKMj+bBpi9DPURLpEsyGUJnl2fUU5Sh4h6FSrPSoFBnzyfUwdMLJE/JvxL23MPIErJ07ph5tel3IEsl+2M/7VCmZ7+fgL8Eyotcf6iXzemvnS94UXnZ1lEaBCAAgVdCQLjfK2nRq2kGsoQsvZrB/NyG7E6Wjvy0w3N5kF8RQJYUDnYgAAEIQOCiBJCli+K8ZDBkCVm65HjadazdydKuae+u8sjS7rqMCkMAAhDYEQFkadrOQpaQpWkH50tXDFl6aeK7Kg9Z2lV3UVkIQAACOyOALE3bYcgSsjTt4HzpiiFLL02c8iAAAQhAAAIQgMDcBJAlZGnuEfqCtUOWXhA2RUEAAhCAAAQgAIEdEECWkKUdDNOXqSKy9DKcKQUCEIAABCAAAQjshQCyhCztZawOryeyNBwxBUAAAhCAAAQgAIFdEUCWkKVdDdiRlUWWRtIlNgQgAAEIQAACENgfAWQJWdrfqB1UY2RpEFjCQgACEIAABCAAgZ0SQJaQpZ0O3ctXG1m6PFMiQgACEIAABCAAgT0TQJaQpT2P34vWHVm6KE6CQQACEIAABCAAgd0TQJaQpd0P4ks1AFm6FEniQAACEIAABCAAgddBAFlCll7HSL5AK5ClC0AkBAQgAAEIQAACEHhFBJAlZOkVDefnNQVZeh4/ckMAAhCAAAQgAIHXRgBZQpZe25jubg+y1I2OjBCAAAQgAAEIQOBVEkCWkKVXObB7GoUs9VAjDwQgAAEIQAACEHi9BJAlZOn1ju4zW4YsnQmM5BCAAAQgAAEIQOCVE0CWkKVXPsRPbx6ydDorUkIAAhCAAAQgAIG3QABZQpbewjg/qY3I0kmYSAQBCEAAAhCAAATeDAFkCVl6M4P9WEORpWOEOA8BCEAAAhCAAATeFgFkCVl6WyN+o7XI0gYcTkEAAhCAAAQgAIE3SABZQpbe4LBvNxlZanPhKAQgAAEIQAACEHirBJAlZOmtjv2q3chShYQDEIAABCAAAQhA4E0TQJaQpTc9AWTjkSVJg20IQAACEIAABCAAAWQJWWIWLASQJYYCBCAAAQhAAAIQgIAkgCwhS3I8vOltZOlNdz+NhwAEIAABCEAAAhUBZAlZqgbFWz2ALL3VnqfdEIAABCAAAQhAoE0AWUKW2iPjDR5Flt5gp9NkCEAAAhCAAAQgsEEAWUKWNobH2zqFLL2t/qa1EIAABCAAAQhA4BgBZAlZOjZG3sx5ZOnNdDUNhQAEIAABCEAAAicRQJaQpZMGyltIhCy9hV6mjRCAAAQgAAEIQOB0AsgSsnT6aHnlKZGlV97BNA8CEIAABCAAAQicSQBZQpbOHDKvNzmy9Hr7lpZBAAIQgAAEIACBHgLIErLUM25eZR5k6VV2K42CAAQgAAEIQAAC3QSQJWSpe/C8tozI0mvrUdoDAQhAAAIQgAAEnkcAWUKWnjeCXlFuZOkVdSZNgQAEIAABCEAAAhcggCwhSxcYRq8jBLL0OvqRVkAAAhCAAAQgAIFLEUCWkKVLjaXdx0GWdt+FNAACEIAABCAAAQhclACyhCxddEDtORiytOfeo+4QgAAEIAABCEDg8gSQJWTp8qNqpxGRpZ12HNWGAAQgAAEIQAACgwggS8jSoKG1v7DI0v76jBpDAAIQgAAEIACBkQSQpTll6f8DEi1KlND1rnEAAAAASUVORK5CYII=;" vertex="1" parent="1">
          <mxGeometry y="-20" width="474.14" height="340" as="geometry" />
        </mxCell>
        <mxCell id="y77ZhqmCZSWafk2qcw_b-3" value="" style="shape=image;verticalLabelPosition=bottom;labelBackgroundColor=default;verticalAlign=top;aspect=fixed;imageAspect=0;image=data:image/png,iVBORw0KGgoAAAANSUhEUgAABhsAAALCCAIAAABIrfWPAAAgAElEQVR4Aezd/28d1YH38f4ZqELqD5X6Q6USorTbXTUIFRBqqu7TUrnpRtB01aB2QU/zQATJpnoC0tY8KizLhiSgpm2ggOlDoQSCsiXs05rdytkuXxbk8GWTUhxI7Njxta99v9i+3+x5NOfMnHvm652ZO/f6euZtRXB978yZOa8zx77+3HPOfMLozddab4qlVAQQQAABBBBAAAEEEEAAAQQQQACBKAI9DWc+EeUM4m6zZhjmv56eeNxzYnsEEEAAAQQQQAABBBBAAAEEEEAgNwJrayKc6Vl9P1GYKyb4N1uYny3MX56dm7lcmLlcmJ6Znbo0Mzk1fXHy0scXJj/6+OLE+Y8/nPioxhcCCCCAAAIIIIAAAggggAACCCCAQN8FPpz4aOL8xx99fPHjC5MXJy9NTk1PXZqZnpmVSc7l2TmZ7SQIheQuJEp9b1IOiAACCCCAAAIIIIAAAggggAACCPRYoOeJ0tz8QoJ/Mo6Sw5TkSKVL05flMKULF6c+vjB5/qMLE+c/rvOFAAIIIIAAAggggAACCCCAAAIIINB3gYnzH5//6MLHFyYvXJySA5QuTV+euVy4PDsnByjJbCdBKCR3+cR8cTHBP7lzYa6opr9Nz8zKUOni5KULF6c++vji+Y8uNPhCAAEEEEAAAQQQQAABBBBAAAEEEOi7wPmPLnz08cULF6cuTl6aujRzafry9MysPtlNZjsJQiG5C4lS35uUAyKAAAIIIIAAAggggAACCCCAAAI9Fuh5olRcKCX4J+OoufkFNf1Nrs99afqyvj53ky8EEEAAAQQQQAABBBBAAAEEEEAAgb4L6GtyywFKM5cLs4V5NdlNZjsJQiG5yyeS7Umi1PcrgQMigAACCCCAAAIIIIAAAggggAACUQV6nigtLJYT/JM51HxxUS2oJNfnnp6Z1dfnbvGFAAIIIIAAAggggAACCCCAAAIIINB3AX1N7umZWbkmd2GuqJZPktlOglBI7vKJxVIlwT+5c3GhpAYryfu+zVwu6Otzr/KFAAIIIIAAAggggAACCCCAAAIIINB3AX1NbhknzRbm5+YX1GQ3me0kCIXkLiRKfW9SDogAAggggAACCCCAAAIIIIAAAgj0WKDniVKpXE3wT8ZRC4tlNf2tMFeUw5SmZ2bV+txrfCGAAAIIIIAAAggggAACCCCAAAII9F3g4uSlyalpuSb35dk5uSb3fHFRTXaT2U6CUEju8olke5Io9f1K4IAIIIAAAggggAACCCCAAAIIIIBAVAESpahSbIcAAggggAACCCCAAAIIIIAAAgggIAVIlLgSEEAAAQQQQAABBBBAAAEEEEAAAQTiCfQ8USpXlhL8k3PlFksVddO3ufkFuZTSzOXC9Mzs1KWZyalpgy8EEEAAAQQQQAABBBBAAAEEEEAAgb4LTE5NT12amZ6ZnblckIsozc0vFBdK6hZvMttJEArJXT6RbE8Spb5fCRwQAQQQQAABBBBAAAEEEEAAAQQQiCpAohRViu0QQAABBBBAAAEEEEAAAQQQQAABBKQAiRJXAgIIIIAAAggggAACCCCAAAIIIIBAPAESpXhebI0AAggggAACCCCAAAIIIIAAAgggQKLENYAAAggggAACCCCAAAIIIIAAAgggEE+ARCmeF1sjgAACCCCAAAL9EZga2XH15i3ef9tHpvpzArGOMrZPner+sVh7sjECCCCAAAIIbEwBEqWN2W6cNQIIIIAAAghkXYBEKestTP0QQAABBBDY2AIkShu7/Th7BBBAAAEEsi0QlKp4R+5c/e2nB3Hojl/zlM++OnLP979xw7WqFltv+Oaue54em6jpmwfVnTFKuhKPEUAAAQQQQGC9BEiU1kue4yKAAAIIIIBAZ4GgVEVlMe0HGyJRKp95eOdftc/ZPakteL7Y6f1qLxKlztcNWyCAAAIIIIBA7wVIlHpvzBEQQAABBBBAIKlAphKl8ul9N6jFhnwfkCglvVDYDwEEEEAAAQT6LkCi1HdyDogAAggggAACiQWmnt5uj+sZzKE6wTWbGvm2liJ98ZvDJ84WrFlutXLh/BvPHbrj2/cFrmnNGKVgWV5BAAEEEEAAgXURIFFaF3YOigACCCCAAAKJBKImSrXC2VdH/nHPd75641Y7gbr6i9duu+n7B557085xPCdQmxobuXfXTdf+hdrF/SB4DJGnMNcTtdE9atra1TfsHy27Xu/0bYxEqTZx+ul9O7+29YtWgGUt0jTlWKTJPJ6GefW+044z0A7nekVsViucfenhO7+77Rp7Bt81N6rDXb05uZLjHPgGAQQQQAABBAZbgERpsNuHs0MAAQQQQAABXUALQcLGKGmBSDvHUfHQDfvHvIHOxEu3d5iStqWLrKTw7M72AKU7TnkPr1fS77FWo7CKl08P39Q+kLPuf/Wdh884DqxhxkiUOiwF1Y2SX8V5DgEEEEAAAQQGVYBEaVBbhvNCAAEEEEAAAa+AFoKEBSta/uJMVey05daXCo7Czwx3jpO6yEoKL+1SeVayITxajQIr3nmdpi3bR863661hRk2UaqcjQDFGqW3MIwQQQAABBDIsQKKU4calaggggAACCGROQAtBAoMVwzBO3/eNW+8dOfXmRKFsz/WqFd54WhuF9P0TWqSkT0nb/rA1La5WPn9i341WIHXDvWN2QUlMT9/bDrbuPJWkpM6JUm1s37XqKNff/vQbcnZfrfDGyP+8vp1n7XlZjVPSMCMmSuPDNsjmLVff8D9HrGMYtfLUs7fbaV2yyCwJK/sggAACCCCAwHoKkCitpz7HRgABBBBAAIF4AloIEpYoBRRaO6UWM7p2eLy90dmHv2ZlMTt/owVNhmG8us/OYvyWE2qXEP6ocOL7KutxZzfhe6pXOyZK+jCobz8+oXYUD9oV3Lxll8rSNEz3WWmHa1e89uodtsbVm7VkShxibB+JkhOd7xBAAAEEEMi6AIlS1luY+iGAAAIIIJAlAS0ESZAoGb5BiWGMD9uje9yz4dJJlKZGdvQ6UdLCsi13eEdBaW7t8Mj3SXm1+EJpI622PXzWdVmRKLlA+BYBBBBAAIHMC5AoZb6JqSACCCCAAAIZEtBCkE6Jkn0/sq/637utPfTGMLQxRDfePqLNertTTfL6midCiaHah0Rp4rFv2qHVN4+5RiiZZ3paDba6+ttPT8lz1zDbMZN8yS9R0mtxwHlrOMMwSJRiXBBsigACCCCAQCYESJQy0YxUAgEEEEAAgZwIaCFIWKJUPv3ATfaN7dsTtdS0LPOBnigZRqeVud1jl2Jyj+63454tV/dmHSUt0NkxYiVG+kmmmyj5HEI7AVbm1uV5jAACCCCAQGYFSJQy27RUDAEEEEAAgQwKREqUOsVDImNyJkqGNsbHETyZSdAN946p1ayTmZ49tE0FW9fcp63gFLk4bdCQb5SmrZTUhzFKPocgUYrclmyIAAIIIIBARgRIlDLSkFQDAQQQQACBXAhESJT0G7ddfdO9oxPqdm9G0DpKhkp8bvjurp03brXSn2uvv+n7D5w422WaJNpFGyK0+dp9p+Pf7a1ToqRPSfNZR0lVcPOWrcNnrEtFw3TNetNLU9GbNjdwy75R1+V2/ti3VRLHGCUXDt8igAACCCCQTQESpWy2K7VCAAEEEEAgmwJaCOI7VMcwDC0NcS9+VHjuu2r2mQpKDKM2eqeVhtx+Io34yI/+DbX4tznoaX/sQU+dEqV2KLZ5y9Wee72ND6sFobTpfhrm1fteVWddm3h8uxpRpU8PdMRSb6rtDaM8tq9d/tWbSZQ0Gx4igAACCCCQXQESpey2LTVDAAEEEEAgewJaCBIhUdqybfh0QYwHqk2cfvh2PfXQghVjakSNrzHHNBXElzayKRVG7czFTLrvPjB63j5GrTx1duy5B3fddN9Y0LE6JkrG2Ye/qkYJbbn+9qffsGpeeOPh7/6FSoi+eki7SdvpA+r5zTuOTdQMo1Y4fd832k+aBWrR25nha9QhbrzjxJRJWzt/whEnbSFRCmpDnkcAAQQQQCBjAiRKGWtQqoMAAggggECmBbRcJihRcozWcYYjaoCSMyhpj1HSN7Af/9XWm75/4Lkz3Q9eKp/ef33w+YjD6aN79IlyKsfxPNDyHmP8vk7l7xhx3AYuvOLWsfQj6BPfbB/PKTFGKdNdkMohgAACCCCgBEiUFAUPEEAAAQQQQGDgBaIkSkZtTJvkpQcf199+376bfIISo3z6wA3eZMT5TPfrcxtG+fSD3/iis1hHxtRdomSW7x5h1K7+F7/78LgnFiu8dLvP+dy479Sbal0kPVHyTHCz63LTfW+cUPez02sx8FcUJ4gAAggggAACSQVIlJLKsR8CCCCAAAII9F8gUqJkzsWaGn1w103XWnnKNTd+585DYont9gQ3R1BSOLWvY6JkrmmtLx6UtPK1wtkTh+7Y+bXr1QyyL1677abvHxh59aycp2YVHH+Mktyxdn704T3f+eq19kw3c33xAyOnxRQ1v3Munxm585tbZa50zY3f2ff0mLlpAJRZgMN2q1q8fPw+e0VzEiU/Z55DAAEEEEAgcwIkSplrUiqEAAIIIIAAArEEau0BStff+ZIzeakV3jjUXqb6209PxSqZjRFAAAEEEEAAgewKkChlt22pGQIIIIAAAghEENDWBvrmMccyQ3JnbcVrEqUInmyCAAIIIIAAAjkRIFHKSUNTTQQQQAABBBDwF5ga2aEWG7r+zt+cnbLvwGbUys47xG0dPuNfBM8igAACCCCAAAL5EyBRyl+bU2MEEEAAAQQQ0AU63yJNrD99w/4xz8LWejE8RgABBBBAAAEEciVAopSr5qayCCCAAAIIIOAjMDHyXXsda/vmZY5bsG35i5vuGy347MhTCCCAAAIIIIBAbgVIlHLb9FQcAQQQQAABBNoC5h3YHt6/66avWXc9E4nS1hu+Jm4S57gHW3sfHiGAAAIIIIAAAjkWIFHKceNTdQQQQAABBBBAAAEEEEAAAQQQQCCRAIlSIjZ2QgABBBBAAAEEEEAAAQQQQAABBHIsQKKU48an6ggggAACCCCAAAIIIIAAAggggEAiARKlRGzshAACCCCAAAIIIIAAAggggAACCORYgEQpx41P1RFAAAEEEEAAAQQQQAABBBBAAIFEAiRKidjYCQEEEEAAAQQQQAABBBBAAAEEEMixAIlSjhufqiOAAAIIIIAAAggggAACCCCAAAKJBEiUErGxEwIIIIAAAggggAACCCCAAAIIIJBjARKlHDc+VUcAAQQQQAABBBBAAAEEEEAAAQQSCZAoJWJjJwQQQAABBBBAAAEEEEAAAQQQQCDHAiRKOW58qo4AAggggAACCCCAAAIIIIAAAggkEiBRSsTGTggggAACCCCAAAIIIIAAAggggECOBUiUctz4VB0BBBBAAAEEEEAAAQQQQAABBBBIJECilIiNnRBAAAEEEEAAAQQQQAABBBBAAIEcC5Ao5bjxqToCCCCAAAIIIIAAAggggAACCCCQSIBEKREbOyGAAAIIIIAAAggggAACCCCAAAI5FiBRynHjU3UEEEAAAQQQQAABBBBAAAEEEEAgkQCJUiI2dkIAAQQQQAABBBBAAAEEEEAAAQRyLECilOPGp+oIIIAAAggggAACCCCAAAIIIIBAIgESpURs7IQAAggggAACCCCAAAIIIIAAAgjkWIBEKceNT9URQAABBBBAAAEEEEAAAQQQQACBRAIkSonY2AkBBBBAAAEEEEAAAQQQQAABBBDIsQCJUo4bn6ojgAACCCCAAAIIIIAAAggggAACiQRIlBKxsRMCCCCAAAIIIIAAAggggAACCCCQYwESpRw3PlVHAAEEEEAAAQQQQAABBBBAAAEEEgmQKCViYycEEEAAAQQQQAABBBBAAAEEEEAgxwIkSjlufKqOAAIIIIAAAt0JXBp9+uDho/a/p38/3V1x7I0AAggggAACCGwcARKljdNWnCkCCCCAAAII2ALjx1WO43lw/D17qwj/L5194ZePPzE6E2FTn026TZTeeclOo9y1eO4dn8MFPtVdLQKL5QUEEEAAAQQQQCBYgEQp2IZXEEAAAQQQQGBQBVJLlKb/cOzw0WNJEyXFI6Kl+GOU0kqUUqqFqg4PEEAAAQQQQACBjgIkSh2J2AABBBBAAAEEBllg5ve/PHrwl3+4lOwcU8piEiZKPue8MPbU0YOPvjRe83kt8KmUahFYPi8ggAACCCCAAAIeARIlDwlPIIAAAggggMBGEghLlEofnn7ul7+QM8sOH336uT+cr1pVE3u1l0DSJ529NN6ufvnim6eeOOZbQnsjwzBSS5TOnTp8+OjP/t+Uo/TAb1KrRenDPzxjV7M9EU+bP9icPfPSU08elmKPPv3C24Vm4FnxAgIIIIAAAgjkQoBEKRfNTCURQAABBBDIrkBgolR95yUrAdGSo8PH3xOhUrQsxm9W2hOnF7yYKSVKYoDS4RfeijpAKZ1a1N7/Fy+UmSupREmMgWonTaZn/Cl+XjWeQQABBBBAAIGNLECitJFbj3NHAAEEEEAAASMgUaqdecYMPp584e0Zkc8058/9YeRR85lXJjW18Pli7//uiZNvny/KgKc5f+53xw6bM+xmtQLkw3QSpXgDlLST6KoWZXOe3eHHX3hnwRx21Fw4e8q8gZ0enInaPf7S+0tyXFKteOH1Ey/9Gze201qAhwgggAACCORQgEQph41OlRFAAAEEEMiSgH+iVHvzN2Ys8gfHeKLa2y8cdK3DHZ7FuJ38j5XSrDc5QOk3r9sT89wHD/m+q1qcfUHEZNpCVO89pw9QMozS6WcOHj76sxNnZpnqFtIKvIQAAggggEDOBEiUctbgVBcBBBBAAIGsCfinPP6Dhkr/+YQzKzE6ZDHlP//hpWNHrXWUrGlffquA+x8uFrUcoHTqQqydrI27qkXBXNr88NMvnXOMUXrUcSYzY//XQnj0qX/5/dtTpSRnyT4IIIAAAgggkCkBEqVMNSeVQQABBBBAIH8C8ROlE2fbSmFZzNL4cWeWJNdj6kmiJAcoPTNWbJ9ajEfd1aL2zguedZR8zqQ2ffb3J575mTlzkHWUYjQOmyKAAAIIIJBVARKlrLYs9UIAAQQQQCAnAv6Jkpyo5Zr1VpVT4U6X2zQiizl88oP2M+qRHND06AuvT6uFsv2PlcKsNzFAyf801PmEPOiqFiLMevTJY9a93n7xs6dOjYcFW835d/7l0cNHD/7ft5VLyKnxEgIIIIAAAghkVYBEKastS70QQAABBBDIiUBAylM8bU5wO/z0b88t2Ctzv2quq33YOfqm9vbI4aMHH/3NWDs2st1ETHPwl6+eF/uby1GffMZMUtIfo2QNUPq3sBzHPivf/3dTi9k/HDt89GenzpdK5WrAMknvnXrmpTcvzNov14pvP/Oo/wrlvmfHkwgggAACCCCQSQESpUw2K5VCAAEEEEAgPwIBiZJhiLWN5BSt9n+Pjc44aWSa097g4OGXxq0tzr9kzfDSX9UTJXFoORXO8V9VgvNQQd/JAUon/MZJBe3ifr6LWlg3xXPW8dEnnxk9r5YIHz/ufFVUVr8ZnPt0+B4BBBBAAAEEciBAopSDRqaKCCCAAAIIZFkgMFEyjObs26eesCZzHT38y5f+7UNtvpsyqZ7/t+NPawsJaXlQ8b0XfmktpXT42AuvvF9463jqiVLXA5RkRZLXwo7eHn38UWeC1k7fSiaR/eovHg2SVKQ8QAABBBBAAIEcCJAo5aCRqSICCCCAAAIIIBAkIEZIHft/U/qMt9q5U3J+32zQXjyPAAIIIIAAArkXIFHK/SUAAAIIIIAAAgjkWEDODTx28gO1TFKzWjh76umDh48mXyk8x55UHQEEEEAAgfwIkCjlp62pKQIIIIAAAggg4Baovf8v2ow/bb2kR194K/FK4e6D8D0CCCCAAAIIZFCARCmDjUqVEEAAAQQQQACB6AKlD08/98vH27nSo08+cfLti6XoBbAlAggggAACCORRgEQpj61OnRFAAAEEEEAAAQQQQAABBBBAAIFuBEiUutFjXwQQQAABBBBAAAEEEEAAAQQQQCCPAiRKeWx16owAAggggAACCCCAAAIIIIAAAgh0I0Ci1I0e+yKAAAIIIIAAAggggAACCCCAAAJ5FCBRymOrU2cEEEAAAQQQQAABBBBAAAEEEECgGwESpW702BcBBBBAAAEEEEAAAQQQQAABBBDIowCJUh5bnTojgAACCCCAAAIIIIAAAggggAAC3QiQKHWjx74IIIAAAggggAACCCCAAAIIIIBAHgVIlPLY6tQZAQQQQAABBBBAAAEEEEAAAQQQ6EaARKkbPfZFAAEEEEAAAQQQQAABBBBAAAEE8ihAopTHVqfOCCCAAAIIIIAAAggggAACCCCAQDcCJErd6LEvAggggAACCCCAAAIIIIAAAgggkEcBEqU8tjp1RgABBBBAAAEEEEAAAQQQQAABBLoRIFHqRo99EUAAAQQQQAABBBBAAAEEEEAAgTwKkCjlsdWpMwIIIIAAAggggAACCCCAAAIIINCNAIlSN3rsiwACCCCAAAIIIIAAAggggAACCORRgEQpj61OnRFAAAEEEEAAAQQQQAABBBBAAIFuBEiUutFjXwQQQAABBBBAAAEEEEAAAQQQQCCPAiRKeWx16owAAggggAACCCCAAAIIIIAAAgh0I0Ci1I0e+yKAAAIIIIAAAggggAACCCCAAAJ5FCBRymOrU2cEEEAAAQQQQAABBBBAAAEEEECgGwESpW702BcBBBBAAAEEEEAAAQQQQAABBBDIowCJUh5bnTojgAACCCCAAAIIIIAAAggggAAC3QiQKHWjx74IIIAAAggggAACCCCAAAIIIIBAHgVIlPLY6tQZAQQQQAABBBBAAAEEEEAAAQQQ6EaARKkbvfa+a3whgAACCCCAAAIIIIAAAggggAACvRRoxxAD8IhEKXkj9PIioWwEEEAAAQQQQAABBBBAAAEEEEAgUCB5nJHSniRKsSEDG3NtbZUvBBBAAAEEEEAAAQQQQAABBBBAIG2BkCwidq6R0g4kSjEgve0XfoW0+EIAAQQQQAABBBBAAAEEEEAAAQTiC4QHDt6AIka6kdKmJEqRIL1N5Wra+NcGeyCAAAIIIIAAAggggAACCCCAAAIxBFxZhDesiJRxpLQRiVJnSL2FXI3navYmXwgggAACCCCAAAIIIIAAAggggEDaAq78wZVO6MFF55gjpS1IlMIg9SZZ05ZJ0htSv0gakb/qfCGAAAIIIIAAAggggAACCCCAQL4FIqcIDT180EMJFS25EoywsCOl10iUAiH1xlAtpJpNtaXe/N6OUOMLAQQQQAABBBBAAAEEEEAAAQQQiCPgjRf08EElEiqjUKmFHmUE5h0pvUCi5A+pt4FqGNlUquVkc6pmdl0bK3whgAACCCCAAAIIIIAAAggggAACSQVcOYPKH2QcodIJGVao7EIPNPwjj5SeJVHyh1QNIJtExX6ywfQsSTawfnksB3wt8YUAAggggAACCCCAAAIIIIAAAgj4CQRkCct64CAjCBkt6bmSSi1kiKEyDf/II6VnSZR8IBW9N04KypJkw+uXRJUvBBBAAAEEEEAAAQQQQAABBBBAIKmAHjLI2EGmS765Uv9DJRIld6LkGye5hiapcUl6kKSukIrfV5kvBBBAAAEEEEAAAQQQQAABBBBAIFjAL06oqLRBBkwqWlK5knewUn9GKpEoRU2UGo2GHFdWq9VkKLi8vLy0tCSbVrW6ujBKfCGAAAIIIIAAAggggAACCCCAAAJJBVTCoDIHGUEsLS0tL1uz4Wq1mpoE12w29TWV1IgZd/CR0vckSg5Ixa3Pd2s2m644SWZJS0tLsuWazeba2pqjIL5BAAEEEEAAAQQQQAABBBBAAAEE0hNYW1trNpv1er1Wq6nxSisrK+sVKpEoOdpWT5RksCfjJJkoydFJMk5aXl5utVqOnfkGAQQQQAABBBBAAAEEEEAAAQQQ6L1Aq9VS6YQKldT0NzVSSaUcvTgjEqW2qoJWA5TU8kkyAlxZWZENVq/XGZTUhuMRAggggAACCCCAAAIIIIAAAgj0V2Btba1er6sZcHKkUqPRkFFGq9Xq9WpKJErtBtcTJX2AkitOqtVq7X14hAACCCCAAAIIIIAAAggggAACCKyTgJwBJ5dV0kOlPgxTIlFqt7lMlEIGKMnkj9FJbTIeIYAAAggggAACCCCAAAIIIIDA+gmsra3J2VT63DffYUqpnyOJkkWqD1BaXV1ttVpqQW59+STWTkr9EqRABBBAAAEEEEAAAQQQQAABBBBILNBqtXznvvV64huJktVkrgFKrkRJrXeVuIHZEQEEEEAAAQQQQAABBBBAAAEEEOiFgEotfCe+ra6uytAj3UOTKFmerkTJO0CpWq2yglK6Fx+lIYAAAggggAACCCCAAAIIIIBA9wK1Wq1arfqupqSvz939gfQSSJQsjfBEaWlpqVqtNptN3Y7HCCCAAAIIIIAAAggggAACCCCAwLoLNJvNarW6tLTkWk3JNfEt3fMkUbI8VaLkvcubHDxWqVRYkzvdi4/SEEAAAQQQQAABBBBAAAEEEECge4G1tbVKpSJXU/Kd+Mast+JsYX7mcmF6Znbq0szk1HT36LIEKbu2tibX5FaLKKk1uavVaqVSSetwlIMAAggggAACCCCAAAIIIIAAAgikKFCpVPSJb41Go9lsykEzah2ldAfKMEbJbD41QMn3Lm9yyhuJUooXOkUhgAACCCCAAAIIIIAAAggggECKAjJR6ufENxIls/miJErlcjnFlqYoBBBAAAEEEEAAAQQQQAABBBBAIC2Bcrnc56WUSJTMtgtJlNQiSiRKaV3llIMAAggggAACCCCAAAIIIIAAAukKlMvloKWUenS7NxIlswVJlNK9jikNAQQQQAABBBBAAMsRbD0AACAASURBVAEEEEAAAQT6KUCitFSumP9K5WqpXF0sVRYWywuL5eJCaW5+oTDX25W5ZWinluWu1+srKyvLy8tyWe5SqdTPS4FjIYAAAggggAACCCCAAAIIIIAAAhEFSqWSvjh3vV5Xi3MzRqkfiZJcBb3ZbDYaDRKliFctmyGAAAIIIIAAAggggAACCCCAwPoKhCRKrVZL3e4txZNk1puJqWa96YlSrVZjjFKKlxpFIYAAAggggAACCCCAAAIIIIBAjwRciVKtVlNjlEiU+j1GiUSpR1c5xSKAAAIIIIAAAggggAACCCCAQLoCJErrvI5S0BilcrnMOkrpXuuUhgACCCCAAAIIIIAAAggggAACaQmUSqVyuVytVpeXl1dWVhij1O+VuUmU0rqUKQcBBBBAAAEEEEAAAQQQQAABBPomQKI0KGOU6vW6nPW2tLRUrVYZo9S3PsCBEEAAAQQQQAABBBBAAAEEEEAgroBKlJaWluQYpXq93mw25dAZVuYuzhbmZy4Xpmdmpy7NTE5Nx/UN2t67MjeJUpAVzyOAAAIIIIAAAggggAACCCCAwKAJkCgxRmnQrknOBwEEEEAAAQQQQAABBBBAAAEEBl2ARIlEadCvUc4PAQQQQAABBBBAAAEEEEAAAQQGTYBEiURp0K5JzgcBBBBAAAEEEEAAAQQQQAABBAZdgESJRGnQr1HODwEEEEAAAQQQQAABBBBAAAEEBk2ARIlEadCuSc4HAQQQQAABBBBAAAEEEEAAAQQGXYBEiURp0K9Rzg8BBBBAAAEEEEAAAQQQQAABBAZNgESJRGnQrknOBwEEEEAAAQQQQAABBBBAAAEEBl2ARIlEadCvUc4PAQQQQAABBBBAAAEEEEAAAQQGTYBEiURp0K5JzgcBBBBAAAEEEEAAAQQQQAABBAZdgESJRGnQr1HODwEEEEAAAQQQQAABBBBAAAEEBk2ARIlEadCuSc4HAQQQQAABBBBAAAEEEEAAAQQGXYBEiURp0K9Rzg8BBBBAAAEEEEAAAQQQQAABBAZNgESJRGnQrknOBwEEEEAAAQQQQAABBBBAAAEEBl2ARIlEadCvUc4PAQQQQAABBBBAAAEEEEAAAQQGTYBEiURp0K5JzgcBBBBAAAEEEEAAAQQQQAABBAZdgESJRGnQr1HODwEEEEAAAQQQQAABBBBAAAEEBk2ARIlEadCuSc4HAQQQQAABBBBAAAEEEEAAAQQGXYBEiURp0K9Rzg8BBBBAAAEEEEAAAQQQQAABBAZNgESJRGnQrknOBwEEEEAAAQQQQAABBBBAAAEEBl2ARIlEadCvUc4PAQQQQAABBBBAAAEEEEAAAQQGTYBEiURp0K5JzgcBBBBAAAEEEEAAAQQQQAABBAZdgESJRGnQr1HODwEEEEAAAQQQQAABBBBAAAEEBk2ARIlEadCuSc4HAQQQQAABBBBAAAEEEEAAAQQGXYBEiURp0K9Rzg8BBBBAAAEEEEAAAQQQQAABBAZNgESJRGnQrknOBwEEEEAAAQQQQAABBBBAAAEEBl2ARIlEadCvUc4PAQQQQAABBBBAAAEEEEAAAQQGTYBEiURp0K5JzgcBBBBAAAEE/AVOnzS+Our/Utxnf/u88YMzcXdiewQQQAABBBBAoC1AokSi1L4aeIQAAggggAACAytw+qRxxSHz3xOz3Z7j4htWUYRK3VKyPwIIIIAAAjkWIFEiUcrx5U/VEUAAgYQCjXKxXku476DuVl86dtfcyGSrm/OrTSzu2r840U0R7Bsg8KdRKwM6Oh2whf70OeMzInu64pCxNWBMkyqQUEmX4zECCCCAAAIIRBcgUSJRin61sGWOBNaKpxr7/75VTVTl6n809t/ZLCbal53yKjD2UGHTkP5vbmRyUC3q5QM7zVP9wj2lQlfnWN5rVrk41lUhae28PHKXWanrHip3kZQtP7tfyNxFqJRWu1jlrLxvJUQR05/hX1jxU0iiZBjG6PNis0eM3yb7aZ9yLSkOAQQQQAABBDaYAIkSidIGu2Q3/uleaO6+sjF0bXNg/1o2DKP6amPnlY2hzY23VhKAr751Z2PoysbO25v8iZKAL6+7nH2leOCI/De3zcxZBjhReqtoh19hYVBtYvHA/rmtR8rBTTo4iVJdJnrXPVT2Od368tjx4q7dhS/IyG9H4ZbhhdHLzYB6tZMpn6IC9uHpDgI1Y/cjZvTzmZMdNpQvv/OyyIl+YXxeDFMKGqMkN7ayp18Zi5HKZiMEEEAAAQQQQKAtQKJEotS+GniUjkD9v5r3DzX2/zxg6sjgJ0oXmndd2Rj6bOM1v78v6heaR25s7LjSzIx2fLZx/5Mtv7FIreM3mhvcFYSQjnSmS2lNPvXeT56aj1lHc68HY+8V8yA931zmLAOcKBnLI2Ikztcfq4QM55k6PmcGTw+F5CqDkigVXhGnetvCWb/GtSoyVLju1sK2W+1caaiw97W63+aGUS3tFWO4Ajfw341nAwWshOgRYzTkglN7TxtbRZB09znjBxESJcOeHxdx9JM6zjo/qBm7f2oGZ09EmQO4zudq/Gk0yXrqyfZa77pyfAQ2lkBj7Ig5tPaWk8tJz7v7EpIeOav7TS7ekmCk8yST7tftgiBRIlFat4svswee/LkZpuwOClMGPVFqnRRh0EOvrnpaaG3y12LskoiThuz/+o9FWmze/2nT4eQFTzE80Vlgeezcj64a/8mxuUbnbfUtqh/883t7rhqPH0Xphaz748FPlCIRbZhEqVq6Qww+OjjhH4NPjS2eOLfSjjLqyyeGzfffm3YW3wiQKL82v1VsMBYQOgXs1/unS8YzJ42tIokwl7h+xLj+eWPUucr1Bblc0fPmyazMGgeeshckesS46WX3QJ5YGyesXs34WxEM3XQ6UgFHH2+PZoqUKBnGC78SY5oeNwbh57VFKqp8xSEjcNGoM+Kcg1eJioTVl40Wz5iX0PX/asQd9PumGGt2fcAyWH05dw6CQBIBMeh1kD8W0isl33IUNu1enNKfjvG4+xJiHCz7m1bL5odSdy1OxHz/UD63sH1I7Jh9o4GrIYkSidLAXZQb/oQ2dKJUfdGMgXbe3vT5Ob7YvEekSA+daolXV1XAdOQ/1rzNJosaujkvc99qC6/f//69Xxrfc9X4ns+f+fH3Pnh9MmYcpAwnPvzJVeM/unvK7/Oyxvzr54/+D/MoR/1X36m+dfeZPVe9dzIgHVAHGeAHJEr9bJzW+FEzHtoaa/mk4uItHWYmrpwQw7i2jSz1szLhx/rTaeNzdk4h75hm/deZpFiJxq+NP522syR9ry42Dj+9oFcv/7uITh4xogRKl09bG8vRTBETJeOc8SlRx7vPBZ1F/56PmijJMUqPGM8M+BilaeP6Q8ZnnndnkRL08jnjB2LFq6ABYnKhq8BYrX/N4jnS7M9+OPbJf/rQ83yaT4z+09gnf/juIOScfrX68O++OfZ3/+n3it9zF57/40DURWQ9fvO1Jxe3myNP/c494Lna5dID++e27hAfMOyY23W0NGW/dUwpUaqNHZm7bn+yoKcklil0pFpnR8SpupMja4TRbaN+77kC6u58OnkJcr65PY++8IWdJuPZov+nO86DZvU7MXF+Z3HMb92MWrHy7P1z5gT8gNHf5deK1w0Vth9P3JRZVe15vUiUSJR6fpHl7gAbOVFqjfylGFh02bfV1iZ/3jj+gR4erY7ebG5/6//x/e1nlTbygW9pGXty5ql3zCzJ8e/9f0+ybvPCyW+N7/nyuTPtMSGSqjEz9udHvtI+RECiZBili0e/NL7nWx8OxlJdjYl3Fw8Oz20T06DM1azFG6YJv/cK9iXRMVFqTo1py/rIxX3s/zrfEDenxhbuuMueqLWj8PX9Re8CQNp739r4yeIt8lR3zO0aqThnrNmfQ9rH8vtIc3lkt3jPqrZxP9Df4MoCi2NGq/zu4l77PLfe5TpJc7Ovjywbk4t33GYWft095rrX5XeL28Vb+e1HXedpQ0b5f10NUIqytdqmYxsZxrtFOUwpaByTKqs/D+Q4ETNC+oXxzEfWaJGVqvGn940fPO8Ym+NKNHa/bSw2DaNpnJaLEx0y/karUqyNk9VUjjn61IsR9p43bhLBkIonoiZKhnG3WKfpcy9HOEq/NpG2gximxBEwm89vuuKF942/VWPlDhmqydxlV40fPGJc8bjxJ/cL6/19zETpP9/+5Df/+LOL8c56gBMlUf14aZeZQPU6g+vsG5goTSxsi5EotSZembvO/dut/Ze89lu18ykFbyF+n7oDoODN9VdEQLbJES4sHRS/QP1+cet79vWxK1GyoqWd8y/7LSjR1zNbp4PJwd0H3nJ/Ilu7XD44bL+XC06UDKM+er+5EOex7u5au06138CHJVEiUdrAl29Kpy6moZmZyEpr7M7GrWKu1tCnG0eskTiGYVjJiM9InP8Qs8D+2ryv2Wu3m9lK0L/2JDg56+3mZl0czlwAWyxIdOSUN5RpvfXzxl2ftcrcsdm9aJGMrkY+MKr/1bzfXtto542N1y7roU8cJVmd7/kNUAooRp7D0O3+i/QWnzRPfuffe6sWUNwGfnrm2bOPvTg7XxN1rS2+9Q9mwPSTp/zWogqt5fLvz+65avyRlz2JS+GjB0Vcde//vvjWMbPwwETJMOZffN8s5Pdx51iEnlmyF1+zF7HeYS7Bs+1WO20J+ABKHCQ8rbDWkDbfKQ4XDxyZl6nKpqHCtv3mwt4n2jeuXz5xj3W4reLQZsAh/t32iuPzK/mWbu9r1pLSm8Spyi2vO1rR6l15QJRjVkSmTj7vdJefvceq6XXWJ7fWt7L6226df7Yd2Mqazh87KT5zEwsVWZ/3Ds2daL+hFJvdv2C+G95RkBv8eHRxlxnPFWSlDrZrrZ1vhIe10XmzpvsX44Wf1pv1+VH7E2m/Q1V+bK2mNAA/AGriz/JDkf4yb4dEnvEvTzwlRgA9Zag2jLWxn1Kn52rG3zhDopAd5OS1T/26PRwmeqL021+LqjlHYIUcqw8vZSBRWnnbVNUjSMutZMjs7/MvGqP/am4TmCgZhhx39rdv94E8ziFynSiZUdc33/ZORxTPj33ym+a/a553Tqc1DOPiu9f4Ph/HvdttJ0bm/G98Yf6ynjsW8ZMoO6+5baQ8URc/4esrZ0eLe+2liAYjUZq7Y1j77WZGZvPmMz6/uLtVTby/E6pZnigfFO9bth7R33skLn6j7Sg/4houOT/MMwyjJkc9b7qtOPqamNoWMEbJrHDRfHe0abjk/lh2o2FsrPMlUSJR2lhXbC/O1op4Gg/Z2Y1Khfb/2lpLSCYjntxkdex7ZmIy/KK5WcxEqXFUjAZSxxq6suFYumix+dBmK0vSt9nx1+2bxFmDoYY8axt9uvFaoijh3b9vVyea9JqsdeAK3Jeb+69sDH268W604nqyVeu//+HMnqvOPDnuLP2//3zvVeN7/+GSeHbq6FXmoJ6Z9iZioNBV595qP2M0Ji8+dvOZvSLW+dHNZ383Hvr7fuLDH181/uCLodtohdsPy7+7eXzPlz74b/t77f+Vf7/7/ZPioHI8VEiiZBiXnvzS+J6bz8dd2Vs7XEoPzy0+MFotyHecosja5dIdImgIng8VmijJkS9Dc89eVjlFbfQhERU5YhFrMtemnfMn2nclq40/Jpagdt5ITv+Q8LaTS/JdiBw7vWlo/mXf0EQmZaFvTCOvo2SevDnsyDrQ8jExymnbYypVlCDmukXmOPDXzAxoq1xlwDDOPmbuvuuVhO+dZN3NAVAxvqx1lDoOLJeFb3WkcjEOk+Km1lywQ8ZwhDESKiTyjo5R5bxge8faOEmNPrJm6nlPxlXa4hlr5toL6sIxoq3MLQpSFfH+lew6UN++DUqU1KnKSYteGTNHe9FcA2u3WFLqikPG9S+2Q0BDsjizMzkQzKq7XKrcOSxIJm4huY8vixlBBkxXfOZ54+ifzZ1kdcJLNkeQaTmm77H6/WSOEyURDHnmuwkQFTOZY7J8QiVz7lv8sVpptq34xaQPlbULF4nSiEqU6sujR6wZbV/YObf3pD4StjEqltIL+RUgg5ITxdrYyNw28eHK1t3F0fZvbfOz2vKEPmmucMv9i+P2zy7rt6f9IZA1ckd86xyGbJ+89/9m5jU38pr5X/nxzNmRwtYjFfPdwq32PSjsXEyW762OqEVxTKNw16JTCd7zcj0jodrsIhAxJ5WrdxfiEGati5WD+61BOu6ByWIumD390CFpHa5YGRmeUx+q2Z725MfOhwhrLMO6cqw7lmw7Uq5VKw+ItzFxFzsvnDTfof34XfXurq1VGC3edlxchNI8JFEyWm+YS63PPdv+WK5dDo96JECiRKLUo0trAxUrEyUxVuien7eKZhazOnFEpDkqCllpDosNxvSkRj6ptrGrHGnWm364ldUxOb7pZjU4yMqqhv6yMfaBTLVWJ19tmLdgu7Kx/0kr57LGB4n7sh3/j9W6YdQvN2UuJkMu+4wi/r91/Fqz/FfUp+8d91u0WE4G7tIaEWWu7/rcr3+w1wyPHCf50T+/Y8ZMr8vfWxESJbG2kXNS25mjvvO8jVajcOnk353Z8+Vzb5U6Gjo3EAORXKfq3ML8LkKiZIgcLdm0O+8BU35GfEYaOA3eMMISJbmvO6QQw/U3Ddlvj9SHVEMFz2rT9ZfFW2G9BBl8bBoq3OFYRqF6UIyoOqDHikoi1UTpuoccn8h5xg1ZidIdckSQPLRZNfNs5Dtv71thdaahD6w5ehHeoy+dOGIOATtwv/XngYreQsq3biHnSPpCNu/hS9YAnF9EmjpkBRbOxME6OXu9IZVixNo4SQ3t9ad/G75zzdgtpq25hsNEH6Nk2Ac66hlYEX7k3r0qbRW1OpBlbi9u5d3ArPVPjc/bG8jg6fP/qgoQQZuzfR2JkmH8SYwb2mrvItO6oLWQ2uW6HomBSJ866XrW/a2sTnii9OZJcxzTM3F/obgP1f33+hgccySOvo6SyFDk8Bxt/I7MWaxhO/arY85URUwHE+N6Pulcmcia9SYSHLmvM8dxFO4eE6TtpZ2PbaC/Gm/ymmGdlV2S9X/PtD4RHnnHMa333DfxY9kaiyR+11ifmojHamysPWJXy3Sue6hsjxwRv5KC78xgGIYMSm65yxoXbEUYjtuJ2p+UaIdQo2VTSJTeModcjUyav+PEJy7mlLcfv9sSbyHstwqd8iD53uDrcq6cOk+9Fp1KcF0k3m8DEyX1e1Mc4rajYmCOOgfzznT23yNyHWvtJVNbHwZeLx+Qo6pd26i3TB0PYb0rc7amOkORKO0SKyeKhhZDw6xj2dTemvs8IwYi7Sy6Pv91byjNwxIla9J94k/a3Efk+wgCJEokShEuk4xvYidKj/2XldSI+lrxymPW6BrHcCQJUheLWN/mWUIoYqL00CntcB80d1/ZGLrWHn9kD+15zTlnqv6qGI5kb2YlSp9t6JtNiiysPckuRuM1HxKJVeR1Ga1FlMIntclBTA+9GuM80t907rmvuAb+iGe+8uePrGN1TJTkkKX3nnt9Ucztbsy//uHBL4/vaZcgCho7pyKnvd/685mSz8csHSonSjj6+w47RkmUll82J76FjmPqcC49fFlmIoFvCMISJTkkR8+DzPP0JEpWKKM+5dMq431Jvmvc5h5KE5q2pJkozbtHhbgLFyDqY1X5qj2iu7tEKYxaMzPsmK/9hnLr7uKz53yHb2n7uSuivdTfhzIvuELcvq3jkcNComljq8gp1ArWsTbueGifDeygx32RODeViYN3GEuSRGlgFrqWtt7ASFU9aANZ6ysesQYBrXwkWk3LE80NQhMlwzDkNXNo2jDkSka/MN5RB474QLRdeFQUcYzSyhsdZsZFPKOuNhPxTTt8Ed+qROniu9eox4YMepxhiidwsc9l9mc/bG8pUpj2ctciu/njNfagHtcAn9F/0hZmco0JEoFRO2NynJ5hiI3tcMpVL/u8Av9vRkLtku3NPDGTFZPZR7G3M0QgpYYytZ/u2yPxY1l8itCSv/vuGDXf14hfJdbf/9avlccqcnxxrVgZEVOxrOnV8k96+3eQ74nLkjcNFW4ZqRTMzzurx8xBK/qsuvLB/UV1F9FasXLQjJ/mRhyf/XWxjpJZTXMolrka93CpNrm4XURgejXbZy5q5P1gRtXCGh3jUwu7jIAS7JcD/y8OoYaMmbPeHhAxXDswktpDBXPCl7jfS23CuqOZuDOdNV7s6w+V5PRD1VhqGLj8aGfbkbLZEEaz8K7YXeVBhmF0OIT5BiCsseQvenMRrrr1eaHZ0E05UMgx/CqQQb4g3pDc3yk4l2cb+AZSFCVnz4Vv0+FkeDmeAIkSiVK8KyaLW8tEyY5pVA3futMcsNOOQrQlk8Q2qyf/2tzguOcuJJESJffhRJqjnnzVLNkvqXGEPv4HEvsmT5TUOSgI/wer1iy/G+0UzH8zazJgmzFgsx4/Pf/se46Jb2LK24PP2p+3GZ0SpUkxha29vXm6k+ZiRu+dVEPEzU/l2omSGS3FH6MkoqJ3Xui0Jk6URMkQdfzxUws9po1SfKNwrvzycTHCRY5zkcsbBf6yD405rPWe50fbN0OxZ71pb3DlG2L/u4FMLn7d/PSs/dGZfNfofTcZVrcIWUnYOVhFy5q2z8R62l242EylY/JVW89665/wziah1P71b9WqS2Mj1pqse18LDZXcFfEvsQ/Ppp4omUGD+IqSKKmNk9TUTpTUPDufQuQsrUOGN3xJkCgNwEAYq4pBgZESCNpA1lrXcA1BipIoGXKZ88eNQ2KFKb00dQLhD+TpdWx9uVmH4ElMftwaHiuGn03Xr7ojIWei5CreEdmI19y7u3ZQ3zqG8JgxjR0niS0cr6p9xANnMBR2OM+Zi/jJG/04y7e/8y/ZWaZVoH/2JPIsLQuzC+7X/8WPZZEoVX68c277bmu8sBa1iBxHTxxE6PD1ocJ2uUxShD/pvb9V5a+qkPGwYgOVrUiNFBIl8YFTcWRkTq5MpFVTAxc18r4HiFGLgBK0Y/g/lIewp6FZn9l84S7z5hvWl9TWnzE0FhmduBpLPmm/ZxCHcMCKZ7Q3HuGHsE9E/7+jseQverH4kWxluQClYxt956DH4jQ6z8GXZ2u/BQooTIwxtwUCtuHpNAVIlEiU0ryeNmZZAYmSzGu0KMR5HzQ5jEisye2qtn/QozbyP5wjUQouwRo5JYcR+W/Wj0RpVa64NHRj85xzFJWqpXowEGOUDKNw/kFt4puY8vbe79prEXdKlFxRUfuGbp7lmUTFG6X51/+3uPXb9z6KtZKRTJQcKZWS1B5ESpRECrbuiVL53MItcoFq93DrhLPeDPleSpTmWJlbH+NtzwXzT5Q8A5q87xo17ICHEbIS+dbK/xysUjdiomSdulU7ffy/lyqCknenXjzzjGdF7ZCjyL/wXWNYrO3fN4eKXHHIUFPDYm0cctDAl+x5diHBhHUOzkle8jxd/w2JJFQh65paOBjkKYVEOUEbdAyMOm4gz0MtTXV9IpSg03NUMto6SoYYHBfSfK4ye/CtZwyOM0NxHdGb0fgHMa7dDEOOb7KHO/kftD1OyrG7Y2NxAs40yt7Ye25GQPRj76H/P2AuW1tD2yCgWJ8T0I/Q68fiM5W9r7XMkSk7i2Oj85vEPCNz/O9uGWTIX0ztEakq77BGB8s/6UPHknhTDPkrQ0uUrDucOhf3cQQf1q/7RLmAnMQnBshYt3iTq/NYMYdjJJQ1SCcgUXKckqcWdmsJE28J9suB/5dvP9rCu+ceGK2qTzvN3cJL9n9VrmNtjzgTixNtPyoGi6kxSmrUc8dDmCcR2ljtjNKahi9b2aLWP3YNZBAv+NfFs4/YLPSdldHNleM5Hk9EEiBRIlGKdKFkeiP/iMdac1pLlAy5Prec5ibTHN/livyDHkXofzhHomScWr8xSlc2Os16W31NjN6KEiepBct1RiXR1wcrr/8vNfFNTHn7Xxe1tYhTTpREzaqn/258j3Nt7441FlHRmef81uXW942UKImlwdc5UZIflA0Vth8tT1S1+wHKoCHwI6awgTO1t4rXmetYF/feZS1R+YWdc7uOlqacY2VCVvCxZr3dtShGjJuuOU6UrFXAtXf5+oUW+tgz1Mu7dUgreDfu6TPvvGwlQWEjfewzsLIV56wo+aJVzk/bE6BibWwfIc7/7ZuCuRZI0ouwzqG7RGn0RUHkV2v9WP183DGRCdqgY2DUcQNZzT+NWpfN519OUm95esP25OqgIuRmHcYobYBESYwncqyX5Bj1E5IomS85dlTLMzlCIgHoeMaKjbR9HWGTGNBkldyeWCenvLmP6DeRzbfFtMBIf91KlBynFxRUrXuitH2osP34svnz+f6SvDHWwQnxe9DKbjolSvI3e+h6Nx0TJfveF67cyhHfdJMLiDjDmlEuJsvb8cpxv1vdBWQZHWvRvgQCSmhvEPDIewj3huEl+7/qSJSMemmv54O9Xa/YyzBFSJQ6NFaqiZJ2TxK3hPW9qHLHRMmcZZkoiww4Kk93ECBRIlHqcInk4GXfiGexef+nzVjHsUy1XIr7L5sThhiv5FmTW2JZidKRgLVwfA9nOBOld5u3+t0irXpKrKM01JT3L/CPrpKPUYqyinZ7slvH0UlCo3XyRpNxfVfmlu1ijjMSQ4rM6WBqTW75midRmjj/4Je0PEjMIHvkZe0XsNwv7L+t1+/WSgjbUntNDIbqeKBIidLvz67/OkoyOdI/ChN1rY2JO9YnSZTk+yR9LQZNT39oDURyvT01DGNF3oNW/yyxV4mS+GAw9Ba26z5GqTV6v/mGvvM4c91WPC6Pirvmhb5jGz9qFt75DaKn8PSfuGit0xxlcWX5F77PGCW5ns4hQx8qEmvjZPWKNWXPdQgzOnGesGsD9e3wT80tP5coOlGFpPtA2vZjjNK0cZNY19wxFGnauP6Qc0Ix4wAAIABJREFU8ZkXjVGxKnaHxMe35mLGYkgUKHeKlChFW5LJ9yxSetKZlfgNJtKnp3lDk6BEScRJ2rJE7cE+hlxyyBESaa/KOMkezeS3sV1zK7GyQyXvudkbRvl/QKIkV0dyLlUedKCg56McPoVtxL3Vtx+vvjwsl6w2p1Bte6xq/h60Jk+JGUPaLHLPQcWsK/NeFs5PcrTtvEGJc3SP/FVu3g3Dvm2mHN7i+pUtDhQaXWnHdDwUh9Mmdtkv+g+c8c9lrPXF9ZWAnLWwC40QymibOh56oRwvdyxZtKbdcPau1dIdQ6o1DfnRztfvsu71tvW2uQde0z5R7XgIo1NjpZUoyfW/wy48UcFIiVJp71DIQHgbiv+nJ0CiRKKU3tW0UUuSEc/mxmsXzNulGcZa9YPmQ38pRgndqW6+Jiu3Jmd7PfR/Grde2fCuyS03kit2D326MSLuv+ZmiZIoGdbsth1/3Xz3sn2vt1ON28TK2Q+96rjXm3vJpOSJkiGXjvIdeCVqETdOMgyZwW1utmeEuzn6+P2lJ79k3vHNjGO+9IFzGJBcePudX41XDKNVGherbptT287Zt/ky993z5fefG5tvv/0JPvVGaeG/n3r/R1eN73GMhAreQb1i3evtknrC90GURGkg7vVm3mxF3MNV3TNY3IX3C3IGXJJEyXoju+tkx3awkqNNtxXHimp4VG3sqMhBdhbHtHfCPUqUDLnkk7lcpXrP7GrPdU+UrPeaMT/Ka0yMFcVaVOZKnK4qad9aN8vzvROwtlmfHo4+b403+dyvjNGLhhUP14w/vW/84HlDXw/PCol+aoxqc1ZX5o27fyFKeMR4UzvlWBtr+8V4KO87dsUhI8oAK1e5URMle27d8EVXAev5be8SJRnSHfizWbvFP1tx0hWHjHaiJO+d94gxWjUM/XEsD3mvtxc77BMlURqAe725kxQZ01iBjhgNpIU7hjc08T4jXMygyrFMtZYZeRMlUYiMn8T5OFYj8mReGrwjzwqYjKZtHvbQUZS2oed5t5ja1rOleqU/D8TvnXvmdomFqw3DMIfw7Cz++H71F7i8+XrhthHn4GLt7Mqj4mOhocJtx63Vu436ytnR4l650JJ9r7fgLEb+Kp87NiFudiL23WXeXNWVKDXkvVnveKXjb3zt5MTDoERJxCueD6U2bqJkrDwrbrK2XVtGXaxxXrBHIYnb9u1eGC/WCvpQcR0soPr2Jp0aK7VESURXofcQNE8pSqIk3n1xrze7BfvxfxIlEqV+XGeDfQwZ8YiwZkj/r+8iQR80ZaxjjrtxzcNWtVxpPvRZM5DS/7Vzn0iJkmF80LzLWYIs7ba/b1XtA6U9RskwRBo19D1XjmYfT77qd1aOJcztzQ3DkOGa3xLj2kb9e2gun/SV9x/51vi9/zznOqpYWWlc3altz1Xv3PsVPVEylsfOmQmR69+3PpyxCpKZlHOD+CtzG0b5dzer2Xmuc/Q7hDgfvxu6iQjs5vPaX8Su0vrzbeXH9j1rt95a2Ga+XzT/XbdbfFbmSJQqD4gNton/yshJ7mI+c097htqUHPgjM6mhwnXWXnO77l9Qd42x6qbdUlcWZa3XsGNuZNIxgjBqovRWUZ6e+V+7XvYJFG57xfmhn3kSdqo1VNi0w6y++Df/bPsnx/onSoY9M9G6iY/PdeFoGtWIm4Z8q6ztb62hXnxDe259Hz7zKytUcq0u5BqOZIVEchLZI8bnfmp8TgxgMff6qfFb541oYm2csPrzxlfFyXz132MXEDFRekEsPu29VVzs46WxgzUmyzOJT8U9HTfoOKlNhXTqSvi8GKKlDiHzRzUuyVpQKf6UwCeeMq54xDjtxxJUC3VQfae7HzHWvXW0NEcERn+85odqSI6IgVQwZCYm5kw0x6w3MQXsk44BR2YNReyitrTnqdnhlDMkEkdRJYij2IOb5AmMqfIvPP9H/eiu3Mp5UB06yuOgQMrn9PRzUEW7TkY937cH8vdOYZMaPmx/+NGeSaT99lRL/Djjnrr8vam9av5yV4N/vUNvXKN75AhW1+7OQ5gg1tRp+zf+JvMTmkhQ4gR8xigZnvjDcw7tQ3SshaxUSAkdz9V7CPcuHeIeO2HRiDYNFbS1va2bwTlOckfh68OL4+2/JhblREj3oe3vOzSWhzThOkqGURBv8Hw/hQqibl+09tkahoxE556V8znaz/OohwIkSiRKPby8NkjRnkRpx+bG/U+2An4SWbd4G7KnnvlXcrF18vbGrWLenEyCYidK5kenjkJuvbFx8r+s0UnyoOknSkbriDhn7w3szCPGTpSskVYjH/gj9f9ZMXltz1Xv+C19vfj6P7y3VwQ0P7r53OuTjY/++Yw2RslcmLA0fv7ozWfkNla0FJAo/eh/vP/Ys5edf3hGre2ymK324IuOlRnFzjESpeWX399z1fgjv481TS/qGcbbrlh59v65rfYc/uvuKj777op5H1/3gGT7Pa7zXZH1HkifWnW5tFckU1ZIZJcst7zuSNkxHKi+PHa8eIudZMkVl+QddvVaiLd07bfC+kuOx+Jtk+NtmXa26p20Yxdj+Q3tBMS++mewA5AoWe+9xP2Vnaduf+dumut2zx04XjrbvteevaHj/3X52XIAi2PTfn5z4X1j91PthOhTPzVuetEYnXWcggqJPqWFGp973Bh+w/DeiSDWxo7DxPlGDlG54hHjt+pvgGi7R0qUPrKmBN59LlqhPd4qKGpRcU/HDTomSoZh/PZFQ7bvZx43fjtryBWy5CFkm37q147m/q0I3eIu0b3ythli3uQXKQXVwpsoLb5hFvK3b/fYPULxdlQkRxWZyYgd/RgyMJKLFv3w3Qu+I5LEk/YCRu3hRSJhkWsh/fFnF0Uuo4ptH1FsoJ4XJyuDIZVemeWovEmOb1LLM2nPW/V0lazisAgMrgNpe9jBlk+gprYKCqTUBj1/YA31tZbZNg9nffbj+HEtfndf5/gNq//yMu9DPzVW3LXbf0FDb1DiSpQMY3n0iPXe4As75+4YKU+NFb2JkmHUx08Wb7E/wiFR8r06apdLD+y3JrV9Yefc3pMVxztI+Y5LfKzleAOj3ll1DK3CGyu9RMn6iMt16zpR5xiJkpz013H2nC8lTyYVIFEiUUp67WRnP/9BQ0H1sxKl4KlhQTtujOeLvxbT/W5vxvy7xad21qpPQSOefPbgKSEw/8K3xvd86ezryRIpwzBqU499eXzPt87b46ey5Or3xtccDbfyxmNiOtvQ3ImALDhLCinXRS7EMFTw/WAw2bHkAuryFkLJSljHvayQKNqAlFgbJ6+UvYRTlHWg4h7l0ONmYOEKUOIWwvZBAiZv/CiwXZqccxftamzvxaNeCujDtWIeJ3AqXMxy2ByBiALiXdPuhQl9hnrdHHps5nftEdMRS+v1Zq2JEfO9XOiE+vBzaHjTzPAdeDUVARIlEqVULqQNXUicRKn6opjLZi7OndUva31utVpTwnouWlP/HEubJywrd7uJ27TtvVu/G110g+pbd5/Zc9V7JyccE7ui7z/QW8qFmXzX6ayWbjNHDLk+RB3o2gzOyVlzCXcWx7qPkg3DsGdMdPGmcD1tYoVEsTbuplaLZ4zPiDFT3jEs3RRrLS8lFwzqpiD2DRIQt2lLHNjJBgpZnjzosDzfSwExrqo9zCrqobqIoqIegu0QcAjIAUq7i29crlsjuOv1qXcXzHHivm+lHDuvyzfiFrQ758017OJ/ydvSOUbbxS+EPRIIkCiRKCW4bDK2S9REaXXy1+aC3GLNIMfss4x5qCWcjn+wlrRqrePiFm9ZHcmVlCXyfq3Jp97bc9X4T/551rs2T2ghjY+OvbfnqjNH0wkGQg+1Li/aS30fcy6EZA6Ml2OUbls4uy4ntuEPai+Kcddi12m5WAd0qHDd0coGVYkVEsXauEsQdTP73We6LMnaXRVIYJEOaEAp0vn6lx3T6AK2dTwt13tKN0N0HIBvEgvICW72/eMiFSNWiXJO3Iu0HxshkFygXj6gzRnUZ73dMTYACyP4VkymYHcttFd68t3M82RtwlxR4bqHyo5Jf57NeKIXAiRKJEq9uK42VpkdEyW5gb0i9V0/z+LYD2eTVV9t7LyyMfTZxltJft+synvG7Uxj6pzzvPL0nRkqPfhU3JW1zb1+EnuvDeRqpRWbhgpbd8/tPVI8cKR4YHjOWuvBs+T2BqrYAJyqnQQdqTjWoop3ZrXR+8Xi68OlQrwdB2jrWCFRrI27r6S6Y90LiT6/1U+gR4Oe9EPwWAn8adT4qloISj3b6UGyvTqVyuspCZgJke/a277lm/PdvMs5+W7KkwikKSCWxFK3E9m0o/D1/cUTE138nk/z5ALKmlzctT/+51uTi7ek8KlYwCnxdKgAiRKJUugFkosXIydKO69tHD2V/ThJNPra5K8b9xxp6fOuo18M1Vcbu4mTonuxZSyB2tnRhTvuKqjVvuXN4w4cL08lu1xjHTzbG1crB/e7b4QXt8bld4u77on/RjDuYXq5fayQKNbGqZz16IvG3/it9Jyg8Bd+baQ13CnB0dkFAQQQQAABBDIgQKJEopSBy5gqIIAAAggggAACCCCAAAIIIIBAXwVIlEiU+nrBcTAEEEAAAQQQQAABBBBAAAEEEMiAAIkSiVIGLmOqgAACCCCAAAIIIIAAAggggAACfRUgUSJR6usFx8EQQAABBBBAAAEEEEAAAQQQQCADAiRKJEoZuIypAgIIIIAAAggggAACCCCAAAII9FWARIlEqa8XHAdDAAEEEEAAAQQQQAABBBBAAIEMCJAokShl4DKmCggggAACCCCAAAIIIIAAAggg0FcBEiUSpb5ecBwMAQQQQAABBBBAAAEEEEAAAQQyIECiRKKUgcuYKiCAAAIIIIAAAggggAACCCCAQF8FSJRIlPp6wXEwBBBAAAEEEEAAAQQQQAABBBDIgACJEolSBi5jqoAAAggggAACCCCAAAIIIIAAAn0VIFEiUerrBcfBEEAAAQQQQAABBBBAAAEEEEAgAwIkSiRKGbiMqQICCCCAAAIIIIAAAggggAACCPRVgESJRKmvFxwHQwABBBBAAAEEEEAAAQQQQACBDAiQKJEoZeAypgoIIIAAAggggAACCCCAAAIIINBXARIlEqW+XnAcDAEEEEAAAQQQQAABBBBAAAEEMiBAokSilIHLmCoggAACCCCAAAIIIIAAAggggEBfBUiUSJT6esFxMAQQQAABBBBAAAEEEEAAAQQQyIAAiRKJUgYuY6qAAAIIIIAAAggggAACCCCAAAJ9FSBRIlHq6wXHwRBAAAEEEEAAAQQQQAABBBBAIAMCJEokShm4jKkCAggggAACCCCAAAIIIIAAAgj0VYBEiUSprxccB0MAAQQQQAABBBBAAAEEEEAAgQwIkCiRKGXgMqYKCCCAAAIIIIAAAggggAACCCDQVwESJRKlvl5wHAwBBBBAAAEEEEAAAQQQQAABBDIgQKI0KIlSo9Go1WorKyvLy8vVarVcLpdKpQxcYVQBAQQQQAABBBBAAAEEEEAAAQSyJ6ASpeXl5ZWVlVqt1mg0ms1mS3ytrq6uia8UKz45NT11aWZ6ZnbmcmG2MF+YK87NLxQXSguL5YXF8mKpUipXS+VquWJFPXEffCLuDnJ7edTFUkWeR3GhNDe/UJgrzhbmZy4Xpmdmpy7NTE5NpwUhWVdXVyV0s9kkUUrLlnIQQAABBBBAAAEEEEAAAQQQQKDXAiRKAzpGqVKpMEap11c/5SOAAAIIIIAAAggggAACCCCAQDKBUqlUqVSq1SpjlMyRUYMzRolEKdkFzV4IIIAAAggggAACCCCAAAIIINAHARIlxij14TLjEAgggAACCCCAAAIIIIAAAgggkCkBEqV1TpTkUkpyHaV6va5W5maMUqb6GZVBAAEEEEAAAQQQQAABBBBAIFsCrkSpXq+rlblXxRcrc/d2ZW5XolSr1ZaXl5eWliqVSrlcztbFRm0QQAABBBBAAAEEEEAAAQQQQCAjAuVyuVKpLC0tLS8v12o1EqV+3+uNRCkjPYlqIIAAAggggAACCCCAAAIIIJAnARKlwZr1VqvVVlZWlpaWqtUqY5Ty1BOpKwIIIIAAAggggAACCCCAAAIbSaBcLler1aWlpZWVFcYorcO93rxjlFSiVKlUNtKlxLkigAACCCCAAAIIIIAAAggggEBuBCqVComSOUypVK6Wyv1OlNbW1mSi1Gq1ms1mvV6XY5SWl5er1SqJUm66IRVFAAEEEEAAAQQQQAABBBBAYIMJyERpeXlZjlFSy3K3Wq3V1VW5LPfa2lqKtZqcmp66NDM9MztzuTBbmC/MFefmF4oLpYXF8sJiebFUkdlOuWJNR4v74BNxd5Db9zlRMgxD4uqJUqPRULd7k4tzp0ufYitSFAIIIIAAAggggAACCCCAAAII5FZgbW1NLcu9srKiL8utJ0rp+pAoWZ4qUQqZ+NZqtdLVpzQEEEAAAQQQQAABBBBAAAEEEECgS4FWq9XnKW+GYZAoWa0WnijJiW/1er3LNmZ3BBBAAAEEEEAAAQQQQAABBBBAIF2Ber1erVbVlDd9jNKq+JKhR7oHJVGyPF2JklxKSU58q9Vqy8vLS0tLtVotXX1KQwABBBBAAAEEEEAAAQQQQAABBLoUqNVqS0tLy8vLrru8ySlvah2lLo/i2p1EyQKRiZJcnNt34psMlVZXV12CfIsAAggggAACCCCAAAIIIIAAAgisl8Dq6qqMk+Sa3EEDlFJfG5pEqd3irmFKTfGlhimtrKzIFmrvwCMEEEAAAQQQQAABBBBAAAEEEEBgXQXkCBhXnNRsNns6QIl1lBxtrg9TaomvZrOpJ0qykVhNyaHGNwgggAACCCCAAAIIIIAAAgggsE4C9Xo9aICSfpe31AcokSg5GlxPlNTEt6BQqReN4TgbvkEAAQQQQAABBBBAAAEEEEAAAQQCBNbW1tTySR0HKPUixGDWm6NlXBPf1Prc3pFKy8vLrVbLsTPfIIAAAggggAACCCCAAAIIIIAAAr0XaLVaS+LLdX+3RqMh57v1esobY5TcjewdpqRCpbr4qtVqKysrcvqbWke90WiwYrebku8RQAABBBBAAAEEEEAAAQQQQCA9gdXV1Uajoe5H75rspi/I7YqTejFAiUTJp2EjhkoqV6qKr4r9Vba/SnwhgAACCCCAAAIIIIAAAggggAACSQXsgKFsRw4VGUGoLElNdut/nESiFCNRkgsqqelvarCSGq8k27VaraqW1h+o64AHCCCAAAIIIIAAAggggAACCCCAgFdAjxHUY5U2qGluaqZbrVaTWZKc7OY7361HA5RIlHwSJcMwfIcpqelvMlSq1+s18bUivpbFl2xd+V/V5DxAAAEEEEAAAQQQQAABBBBAAAEE4groIYOMHWQEIeMIuThPQ3ypLKk/891kmMLK3LFDJX2wksqV5JAlPV2Sje36r3418BgBBBBAAAEEEEAAAQQQQAABBBCQs9hcAYL6VkYNcoKbb5a0LnESY5T84yR9mNLa2tqq/dUSX037SwaBMhTUoyV97JJqeB4ggAACCCCAAAIIIIAAAggggAAC0QVkvKD+q/IHNS5J5hMyrLCji1U176p3890YoxQYJ8kX9DZQDSPbSc6Aky0nG9KVLqlmVg3PAwQQQAABBBBAAAEEEEAAAQQQQCCKgEoV1AM9fLAHujRVRqFSCz3K6JB6dP0ys97CCPWW8A5Wki2nGlLNhtObOeixuiZ4gAACCCCAAAIIIIAAAggggAAC+RQICg28z+vhgwqS1KpJq6uOoUm9Hp0kkxQSpbBESb6m50oq9pMP9FbUBy7pLc1jBBBAAAEEEEAAAQQQQAABBBBAoBsBV/7gSif04KJzzJHSFiRKkSD1tpGPXY3nalq+RQABBBBAAAEEEEAAAQQQQAABBNIVcGUR3rAiUsaR0kYkSjEgvU2lT4Vztav8Nt1Lh9IQQAABBBBAAAEEEEAAAQQQQCDzAr4Jg3rSN52IkW6ktCmJUmxI35aTT6rW5QECCCCAAAIIIIAAAggggAACCCCQlkBIFhE710hpBxKl5JAhzclLCCCAAAIIIIAAAggggAACCCCAQO8EkscZKe1JopQOZO8uEUpGAAEEEEAAAQQQQAABBBBAAAEE+nMHt+gpCYlSdCu2RAABBBBAAAEEEEAAAQQQQAABBBAwBUiUuA4QQAABBBBAAAEEEEAAAQQQQAABBOIJkCjF82JrBBBAAAEEEEAAAQQQQAABBBBAAAESJa4BBBBAAAEEEEAAAQQQQAABBBBAAIF4AiRK8bzYGgEEEEAAAQQQQAABBBBAAAEEEECARIlrAAEEEEAAAQQQQAABBBBAAAEEEEAgngCJUjwvtkYAAQQQQAABBBBAAAEEEEAAAQQQIFHiGkAAAQQQQAABBBBAAAEEEEAAAQQQiCdAohTPi60RQAABBBBAAAEEEEAAAQQQQAABBEiUuAYQQAABBBBAAAEEEEAAAQQQQAABBOIJkCjF82JrBBBAAAEEEEAAAQQQQAABBBBAAAESJa4BBBBAAAEEEEAAAQQQQAABBBBAAIF4AiRK8bzYGgEEEEAAAQQQQAABBBBAAAEEEECARIlrAAEEEEAAAQQQQAABBBBAAAEEEEAgngCJUjwvtkYAAQQQQAABBBBAAAEEEEAAAQQQIFHiGkAAAQQQQAABBBBAAAEEEEAAAQQQiCdAohTPi60RQAABBBBAAAEEEEAAAQQQQAABBEiUuAYQQAABBBBAAAEEEEAAAQQQQAABBOIJkCjF82JrBBBAAAEEEEAAAQQQQAABBBBAAAESJa4BBBBAAAEEEEAAAQQQQAABBBBAAIF4AiRK8bzYGgEEEEAAAQQQQAABBBBAAAEEEECARIlrAAEEEEAAAQQQQAABBBBAAAEEEEAgngCJUjwvtkYAAQQQQAABBBBAAAEEEEAAAQQQIFHiGkAAAQQQQAABBBBAAAEEEEAAAQQQiCdAohTPi60RQAABBBBAAAEEEEAAAQQQQAABBEiUuAYQQAABBBBAAAEEEEAAAQQQQAABBOIJkCjF82JrBBBAAAEEEEAAAQQQQAABBBBAAAESJa4BBBBAAAEEEEAAAQQQQAABBBBAAIF4AiRK8bzYGgEEEEAAAQQQQAABBBBAAAEEEECARIlrAAEEEEAAAQQQQAABBBBAAAEEEEAgngCJUjwvtkYAAQQQQAABBBBAAAEEEEAAAQQQIFHiGkAAAQQQQAABBBBAAAEEEEAAAQQQiCdAohTPi60RQAABBBBAAAEEEEAAAQQQQAABBEiUuAYQQAABBBBAAAEEEEAAAQQQQAABBOIJkCjF82JrBBBAAAEEEEAAAQQQQAABBBBAAAESJa4BBBBAAAEEEEAAAQQQQAABBBBAAIF4AiRK8bzYGgEEEEAAAQQQQAABBBBAAAEEEECARCnGNVAoLvEPAQQQQAABBBBAAAEEEEAAAQQQGDSBGOlGSpuSKKUESTEIIIAAAggggAACCCCAAAIIIIBAbgRIlHLT1FQUAQQQQAABBBBAAAEEEEAAAQQQSEmARCklSIpBAAEEEEAAAQQQQAABBBBAAAEEciNAopSbpqaiCCCAAAIIIIAAAggggAACCCCAQEoCJEopQVIMAggggAACCCCAAAIIIIAAAgggkBsBEqXcNDUVRQABBBBAAAEEEEAAAQQQQAABBFISIFFKCZJiEEAAAQQQQAABBBBAAAEEEEAAgdwIkCjlpqmpKAIIIIAAAggggAACCCCAAAIIIJCSAIlSSpAUgwACCCCAAAIIIIAAAggggAACCORGgEQpN01NRRFAAAEEEEAAAQQQQAABBBBAAIGUBEiUUoKkGAQQQAABBBBAAAEEEEAAAQQQQCA3AiRKuWlqKooAAggggAACCCCAAAIIIIAAAgikJECi1BXkGl8I5E+gqz4Tf+f8AVNjBNbid5Su9kAcgRwKdNVn4u+cQ2GqjED8jtLVHoAjkEOBrvpMSjuTKMWGzOGVSpURCBKI3X+i7RB0OJ5HIIcC0TpN7K1yKEmVEQgSiN1/ou0QdDieRyCHAtE6TeytcihJlREIEojdf1LagUQpKmRQy62tra3yhUA+BEJ6QdSOFLpdSPn5AKaWCKyG9ILQ3hP1xZDy0UcgJwIhvSBqRwrdLqT8nAhTTQRCekFo74n6Ykj54COQE4GQXhC1I6W0HYlSZ0jf1gq5Ult8IZAVgZDr3LdfdO5OAVv4lhZy9KwAUw8EWiHXuW+/COhDnZ/2LS3k6LQNApkRCLnOfftF5+4UsIVvaSFHz4wwFUEg5Dr37RcBfajz076lhRydpkEgMwIh17lvv+jcnVLagkSpA6SreVwNmZkLlIogEF3A1QtcfaRDj/J72VWCq/zoJ8aWCGRGwNULXH3Erxt1eM5Vgqv8zLhREQSiC7h6gauPdOhRfi+7SnCVH/3E2BKBzAi4eoGrj/h1ow7PuUpwlZ8ZNyqCQHQBVy9w9ZEOPSqll0mUAiFd7aG3lquNm3whkA8B15WvdwpXfwnsV84XXHvpBbqOlQ9gaolA03Xl653C1V+cnSnwO9deeoGuY6GPQE4EXFe+3ilc/SWwXzlfcO2lF+g6Vk6EqSYCritf7xSu/uLsTIHfufbSC3QdC3wEciLguvL1TuHqL4H9KqUXSJT8IfVm0JtHtZx+pTYifNX5QmCwBSJcxQ39sld9Qe8gesfx71ras/rGeiGqZP1wUU5vsIE5OwTqUS5j/bJXfUHvIHrH0fqT/0N9Y70QVbJ+uCinRysiMOACUS5j/bJXfUHvIHrH8e9a2rP6xnohqmT9cFFOb8CFOT0EolzG+mWv+oLeQfSOo/Un/4f6xnohqmT9cFFOj0ZEYMAFolzG+mWv+oLeQfSO49+1UnqWRMkHUtdXraLaSTWeamnvFVnjC4GNL+C9sNU1r3pgwvApAAAgAElEQVSB6heqp+jdx6d32U/pm6l9VWmqfHVE78lsfGBqgEDNe2Gra171AtUvVE/Ru4/dpXz+r2+m9lWlqfLVEb0nQwshkAEB74WtrnnVC1S/UD1F7z4+vct+St9M7atKU+WrI3pPJgPCVAEB74WtrnnVC1S/UD1F7z52l/L5v76Z2leVpspXR/SeDA2EQAYEvBe2uuZVL1D9QvUUvfv49K6UniJR8oFU9KoxZPPI1lKNJ9vVdYGu8IVAtgRcV7i87FUvkJ1CdhDVX1QP8uld9lNqG7UXvSxbFw61iSFAL4uBxaYIJBKglyViYycEYgjQy2JgsSkCiQR61Mvsv88S/p9EyQ3n+kNXRX16nKRnSepiWA74WuILgY0jEHAVL6vrXP4g03MlPVRqtawbV6l+5O5g4nv1qoyT6GUb5wLhTFMQoJelgEgRCIQK0MtCeXgRgRQE6GUpIFIEAqEC/ellvn+sxXqSRMnB5fpDd3V1VY2bkIMyXFmSamZ1MVT5QiBbAuraVlf7ysqKb64kO4sac6R6k6OPGYZ6Xm1JL8vWJUNtYgvQy2KTsQMCMQXoZTHB2ByB2AL0sthk7IBATIHUe5nrz7Rk35IoOdxcf+t6/9CVf0ivrKzIv65lo6oroeL5KvOFwEYT8FzFFXWFywteXvx6riTz1mbTuk2VjIpUb3L0MU+iRC/baBcI55uCAL0sBUSKQCBUgF4WysOLCKQgQC9LAZEiEAgV6HUvc/2ZluxbEqW2m/oDWJ+J02w21eikWq0m5/4sLy8vLS3JP7NlM6srocQXAtkSUNe2vNTlZb+0tLS8bE2Fq9XM1YUjhkr0smxdHdQmHQF6WTqOlIJAsAC9LNiGVxBIR4Belo4jpSAQLJBuL2vnIN09IlFq+3n/1lVrJ9XrdRknLS8vVyrVwvzi1ExxcnqefwjkU2Bqpjg7v1ipVGWupEIltaZS0DAlelk+LxhqnUCAXpYAjV0QiCVAL4vFxcYIJBCglyVAYxcEYgkk7mXtHKS7RyRKbT/5t653gJIzTlqavrywUmu0WqvtPXmEQM4EWq3VWr1x6XKxUrEGK+mhkr6gkuxWiodepih4gEC4AL0s3IdXEehegF7WvSElIBAuQC8L9+FVBLoXSNzLuj+0LIFEyZL0HTrhmu9WqVQvXS6mRU85CGRAYNoMlapyTSXX3DfvMCV6WQZanCr0X4Be1n9zjpg3AXpZ3lqc+vZfgF7Wf3OOmDeBWL0sRRwSJQszytCJ2bnFWr2Roj5FIbDRBVZqjdm5Re/cN99hSvSyjd7cnP+6CNDL1oWdg+ZKgF6Wq+amsusiQC9bF3YOmiuBWL0sRRkSJQvT9beuawUluRT31EyRyW4pXnwUlQGBVmt1aqYoF+rWJ77J+77pw5QM+y5vamIpvSwDFwBV6IMAvawPyBwi5wL0spxfAFS/DwL0sj4gc4icC8TqZSlakShZmN5EqdFo6CsoVavVyen5FOkpCoFsCExOz1erPkt0t1qtjokSvSwb1wC16LUAvazXwpSPAL2MawCBXgvQy3otTPkIRO9lKVqRKJmYMk5aW1tbXV2Vs3Wazab6W1cOUCJRSvGyo6gsCcifXN5hSmrim4pr1QN6WZYuAOrSBwF6WR+QOUTOBehlOb8AqH4fBOhlfUDmEDkXiNjL1tbWUoQiUTIxgxKlWq22srIiE6VKpcIYpRSvPIrKjMDk9HylUpGJklyiu9FoyFlvcpiSCpLUAz1Ropdl5kqgIr0ToJf1zpaSEZAC9DKuBAR6LUAv67Uw5SMQsZeRKBWmZ2anLs1MTk2nddGoP3TlGCV9gJJMlKrVKolSWtqUkzEB+ZOr48S31dVVOQyQXpaxC4Dq9EGAXtYHZA6RcwF6Wc4vAKrfBwF6WR+QOUTOBSL2MhKlfidKS0tL1Wq1XC4zRinnXZTq+wpMTs+Xy+Vqtbq0tCTHKNXrdTVMSS2lFJ4o0ct8bXkSASlAL+NKQKDXAvSyXgtTPgL0Mq4BBHotELGXkSj1NVFSiyiRKPW6A1D+BhXQf3ItLy/rd3zTF+cOSZToZRu06TntvgnQy/pGzYFyK0Avy23TU/G+CdDL+kbNgXIrELGXkSitQ6JUqVRIlHLbM6l4uID8yaWWUkqcKNHLwp15Nc8C9LI8tz51748Avaw/zhwlzwL0sjy3PnXvj0DEXkai1L9ESV9EqVQqMeutPz2Bo2wsgcnp+VKpVKlU1FJKsWa90cs2VnNztusiQC9bF3YOmisBelmumpvKrosAvWxd2DlorgQi9jISpR4mSr63oJLLcpMo5ao3UtnoAt6fXLVaTa2jpG73pma90cui27IlAlKAXsaVgECvBehlvRamfAToZVwDCPRaIGIvI1EiUer1pUj5CMQQiPiTi0QphimbIuAUoJc5PfgOgfQF6GXpm1IiAk4BepnTg+8QSF8gYi8jUSJRSv/io0QEEgtE/MlFopRYmB0RoJdxDSDQawF6Wa+FKR8BehnXAAK9FojYy0iU1iFRKpfLzHrrdQeg/A0qIH9ylctltY5Ssllv9LINegFw2n0QoJf1AZlD5FyAXpbzC4Dq90GAXtYHZA6Rc4GIvYxEqR+JUr1er9Vqas1g/tbNeeek+iECvj+56vV6s9mUSyap0Ulra2urq6tqHSV6WYgqLyGgC9DLdA0eI9ALAXpZL1QpEwFdgF6ma/AYgV4IROxlJEp9TZSWlpaq1SqJUi+ueMrMhoD+k2tpaWllZaVWq8VKlOhl2bgSqEXvBOhlvbOlZASkAL2MKwGBXgvQy3otTPkIROxlJEokSnQWBAZIIOJPLjVSyTtGiURpgJqTUxlIAXrZQDYLJ5UpAXpZppqTygykAL1sIJuFk8qUQMReRqJEopSp657KbHSBiD+5SJQ2ekNz/usoQC9bR3wOnRMBellOGppqrqMAvWwd8Tl0TgQi9jISJRKlnPQIqrkxBCL+5CJR2hjNyVkOpAC9bCCbhZPKlAC9LFPNSWUGUoBeNpDNwkllSiBiLyNRIlHK1HVPZTa6QMSfXCRKG72hOf91FKCXrSM+h86JAL0sJw1NNddRgF62jvgcOicCEXsZiRKJUk56BNXcGAIRf3KRKG2M5uQsB1KAXjaQzcJJZUqAXpap5qQyAylALxvIZuGkMiUQsZeRKJEoZeq6pzIbXSDiTy4SpY3e0Jz/OgrQy9YRn0PnRIBelpOGpprrKEAvW0d8Dp0TgYi9jESJRCknPYJqbgyBiD+5SJQ2RnNylgMpQC8byGbhpDIlQC/LVHNSmYEUoJcNZLNwUpkSiNjLSJRIlDJ13VOZjS4Q8ScXidJGb2jOfx0F6GXriM+hcyJAL8tJQ1PNdRSgl60jPofOiUDEXkaiRKKUkx5BNTeGQMSfXCRKG6M5OcuBFKCXDWSzcFKZEqCXZao5qcxACtDLBrJZOKlMCUTsZSRKJEqZuu6pzEYXiPiTi0Rpozc057+OAvSydcTn0DkRoJflpKGp5joK0MvWEZ9D50QgYi8jUSJRykmPoJobQyDiTy4SpY3RnJzlQArQywayWXp+UlPPffcvNm+5fvh0reeH4gAGvYyLAIFeC9DLei3ci/L5TdQL1d6VGbGXkSiRKPXuItxYJZ/et3nL1d9+empjnXXmzjbiTy4Spcy1PBXqnwC9rH/WhvjNsnnL1fLfvtN9PLTrUFMj35ansX/M9Uqnb6dGdly9ect6nnunMxzA1+llA9gonFLGBOhlg9SgEX/ZJf9NNEiVzdG5ROxlJEokSjnqFUbh9PDOG3eN+KZGJEoDcSVE/MlFojQQrdWLk6hNjf7j979xjfjT94vXfuPWB0enGFGRMjS9LGXQsOIivskOKyKt1+Qnw9/4xzO+Persc9//xjX3+YZNJEoJmoBelgCNXRCIJUAvi8XV442j/rIL/03U45Ok+NgCEXsZiRKJUuxrawPvMPX09s1btpMoDXATRvzJRaI0wG3Y1anJv12tAR3WyI7vnyh0VSY7uwToZS6Qvnwr3m0P8DifsX1brt7sP3yJRCnBFUIvS4DGLgjEEqCXxeLq18aD/suuXw4ZOU7EXkaiRKKUkSs+UjVIlCIxredGEX9ykSitZyP18thTz+0fPnG2IAdR1Apjw1+7OjAF7uV5ZLpsetl6NO+gv8kmUUr3qqCXpetJaQh4BehlXpMBeGbQf9kNANFGOoWIvYxEiURpQ1zW9o+nwqvDO6/9C3PkwrXbh19VAxfeGL726s3XDo8763L20LbNW7YOv2kYatauvZiFWtWi/ZGsOMStLxXKpx++9WveQ8iiy+O/2WedwJatN3x333Nnyu1jihLuOV2b8j/J9oY8ChaI+JOLRCmYsFevdOplhiGXjHEsRia7nmPgg9ZB/mrrzv3Pjmt9yHvuE49/Y/OWXQxS8sp08Qy9rAs89661qdMj+757vT5PU/1mcmxr/xb7/+3dv48b17034PdPkiAgQQAJKmwYSJBCdmHDhe3Chgsjhe1moSJOIzc3KWKnSpF7U8iNbVxAbuLmykBgVU4jBwFUyY1Xv1Zaabm/uFpJfDFzyOFwOCTPcEnuzPBZCDaXHM6cec75kpzPnhmO3Jn+0t28fuWd878svD29OZxNO34q6MgmkjUnc2+7P13bePN88u72q19/9PXt4blt6aazd73CPKkbl0enBA6bkc3nTecoXbxys3v72uXX0z39xW8+vppVbvqnmo0bne+vJG+d59/7erP307UPXjlz9txLn9yYWt7jFu25R5U1ry87P365MajEC699eHX4AS8tgTevbnZuXv04nJQ9UgLJp8w3z5ydtkDzNJrQYlVWy16a9GY39Z0ooohKZsum71+Dt6qta+8lh4cb13NvO7f/5/XkIrn/c7uWUo1oVGSVSZQkSo0Yz+nL0BtvJq8LuX8vfTL4zpqbn57vh0fD3bn12W/PnP3tZ7d6FRKlN955a/Rj/a/T54eVdm5cfim39dCSlzayT8xpI3/z2qXRZfJrGDbOrQkCka9cEqUJfsu8+4dQZT/mt5FW2cUrP4T7Qp3mL28/lijdTs48zVfxmbOvDGsov+per7v1r6sfvHLm5cvf5z4ejC7it3kEVNk8auXPKftzxcufFv66kT41rY5CmpM8ULaGpEayROmnwRW184Xz5tXhB+Rkzb/+5PONl/MLhL+mhEanm87qrtCG2ETpt6+/nYREuX8fXw+hVZoovfXe+4OHXvvwo2RqYfov24tyvhbfq8oa1rm3vyh8/MvVYAiMfvv6G4USGA7v9Fh32gIN02hIc1VZLTtq0pvd1HeifqJ08dKrhSobvNH0Fxj9joiRRKnX63y3ceHcmQuXB5nST39Lvo8i/3ZZS7B6NyqyyiRKEqV6D+R+6wYvQy//7uoPyQkx3c1vPkw+PX/8j/6fYW999ptzZy582j+wTZ6V3vP21yN/yp151tvZc2d++c5nYRO30mD71UGw3f3uw+Qj8mu/v/5Tus3u1g9ffJC0IYRWgwkaZ8+defl34Y+33cIaGiF92o2MfOWSKJ1GR/WrLHe0nN7zm8+T2Db5Set02hylcPD8ZiixJDIKRTRcQ1jNcNLEL9740w/ipKC7uP+qssVZbn65cfnqjZ864Z2o+9O1j5JPw78v+Uq3CR+yw59D3vviVnhfuZ2+teUyqTS0PffSB1+k70u9Xven65+8loQ1H33Xf/fLvk5u8P7Y/1R99g9jl9me0IaUY+ZZb8mco41vkqlP3a1/bFxMvv3tevrM9I01PTv1p+71ULzJX4m3vnpnnb8hTpUtrspWsKZ+sHvpk+9up8Xc7fz0/Wd/ujb4HpcwOeLM2XPJAknhdW5+lnwBYvYnw5kLrGAf1nATqqyWnT7tjSZtcPkC+SJKvpGl8EYTkyj1euFv/+c3vuv0erf/OynSD7/1IfJEwySyyiRKEqUTjbNVPTl99Rmmzslmw0tP9sG9+OE1PeXtw/6fUAfNnJ0o5ZPs8Amjf8JO99uPz5w999ZXIwlV93py52C+ZdrIkSx8ZA2DRvj/NIHIVy6J0jTEpT2WVlnu9NK0ynJFkZbAlEQpzGUYLaLb//1a/k/BSdsLkyZe/oM5SovtUlW2WM+RtaWjtzANKF1g2mfo/PLpW1s292H8jyWDv5cUTtkenco3IR4qb0No/4SnJA+Gd9vchNx+kfbf+0KiFHLhULzvfZO8U06kGAFr6y+qrEk9Gy6SkB6FljY7lMDr//1T7tGR97uZC+Se6ObCBFTZwigXuaJpbzTpdsoXmPFGM3gnyr9dhneZwVFYfx9uXnklOfftv//0evJXkOw8kkXu4VqtK7LKJEoSpUbUxcg7d7/FhU+rYQ7R4JXm5pWLo1OW0ifNTJQmHwynr3TZp/wB2tY37549d6a/0fFGSpQGUNH/j3zlkihFiy50wa2v30pOL+2f+JbOnnjny2HKOqsEwtHmyIkz4dSYXEqVa2+3M5iOEQ5Qcw+5eRIBVXYSvcJzu5vf/dd7rxWugjR4I8ovW/4ZunfjD2fOnjv/UTr3p9frhjlKw+m35c9K3uCGp8WVL5Pf9uD2tCVnJkojO5XWcj5R6t/O3194jx40Yk3+r8oa1NHhT4YjI3y09eFYd3SB9APe4EPjzAVG1+e3xQiossU4Lngt095o0k2VL1BSRPk3lOhEqdcLJ7udO/PyH74fTOVd8C6u0+oiq0yiJFFqRFmkrz6Dd+5+i4ufVrvXP0rOg0unJf3ryoXhbOThHi4pUfoknOEw3kiJ0tA+8lbkK5dEKdJz0YulVXYhXCYmnT0xPPUm4qy3tGYHF1jJX5ClPFFKG9+59sHELzVf9N6ty/pU2cJ6uuS6YMnAHj3yDFsr/wydfPZ9NV8Lye2XBqFt/0zSsdVJlBbWg0tbkSpbGu3iV7x1LbkK2FidDTdUcqwbroA2+Fw6c4HhutxanIAqW5zlAtc06c0u20T5AiVFNF+i1LkxuKrgx/9wxlumPu+NyCqTKEmU5h1iK33eeFjTS795KruGUdqa9MrByZluyY381IlBW9NEKZthMbg3/H98EyN5UPjAkTvBJ3lWJz0VbvBFVDPWMLo5v5ULRL5ySZTK+VZwb/IGnwZAyWkC2TW5w4bHSuD21+8m3ww1+K63cC7qt9X+ZnR9I7eGFezgGmxClS2qk9Nk59zrn/0rubxf+Cn+qWNwf7ja0fgx681PXzp77tIb/W+Y+sWFwleI/ngluc5o/hKBg7Pe+sHuIMkdX3O25eGNtEInLJnOUXq/9GsVZ3zQz/+pJn8AMJFi2KAW31JlTercdKpgdlGk8ZaXlEA6Y/fMR/33s5kLjK/TPScXUGUnN1zCGqa90aSbK1+gpIjybyglc5Q6P1xJvgVi9Ky3zvcbryRzeH9ITyJ544vhl1gsYVfXYZWRVSZRkig1ohzSV59XP78ZLn/a3frh6u+Sr10rXNC3fzXuL77cyF+1NLeD3W+Tq2tf+Pha7nuVBw+nmxj8uSm9cyRR6oVPD2fzFxX+PP1mkOwj+Kw1DLbk/1MEIl+5JEpTDJf8UDIB8PyVH5P3/uKBbiiZN/8r/Vrxzs1w6fp8HpQ898zLv/ssu5Lx1LZ2O5v9Sh+ZCTX1OR6MEFBlEUhRi6QpzMWNb9NAqdu5feOLjVd/NWGyQ/ln6O8/OXfmlx//Y3Nrq39x7+J207+dnHvpo2/CBYN73Z+uJR+XZ89jKq4o+b28DWHJcAnw1/+YS8cGq5jxQV+iNIDK/1+V5TXqfrv/1SuvfHB1MP67JVfm/vDbwSX4b3/3+3RqYXaxzlAjUxaou0Az26fKatlv095o0gaXLzDjjWZwbb7zH32TXrd7s/8lFaOJUljJ61eTS57lb9cSqhmNiqwyiZJEqREDOn31KV5+JX8V7f5ehJePCR/oe73e1rX3CucXDGZPzP6aqt7tq8m3Boz++9Vb6ctWuvm0kVMyqUZIn3YjI1+5JEqn2FHJkedvPv7wjZITS8NBaa5GXrv0m3yi1P8ajtwCaUENqyZkUqNV5srci+5sVbYo0a1rvysO5vQ9YjgNKP0T6/gy2d9Ux0rm3JmzF196+9Pr2eXJhhP4c3UxUhTln86H+zirDf0l09lS+aZmjZzxQV+iNLQe3lJlQ4sm3ApfEZUf/7lLlfUPTUcfHbnob/bhM7+MqwIvu+dV2bKFK6x/5hvNrAVmvNH0er1+8jt8K3zp1dfO5xOlcB76G4Mv6e5fUOmV39/IZhFX2CGLBoHIKpMoSZQaUTKjidIvL15670/Xk4x67CfMJCpOncgt1vnxy43++QXpG3+FRKnX625e/9O7rybfmnzm7K/Ov335y3QuxmDtEqWBxAn+H/nKJVE6gfGJn5qevJb/tJ1b49b1K2+e7xfIp9c3u+kBc1ZlyYKdm19vvP1KuszgY0F5ovSr86++//uvfnQWfI53MTdV2WIcw3C++vGl5NTOc2cuvPLWlW9u3fyf1/MXZJn1GbrXvbHxyzRF+s3FX+T/YnHh8vCSovm3rQuvvfvH70bf/RaUKPV6W8M3uGSPJEonGSeq7CR6p/Lc/HtT4fzTQmB0/uXC2anFyGl8gVPZo9ZvVJXVqItnvtnNWmB2opR8gPziw98kE4HPXHjtw6s/djrJqSf9t6rujd+/fO7M2Tf/lj/P7Xbyjnxm9LtQa4TWhKZEVplESaLUhOFcMoFoQrPTY90pJ8NPeJq76yIQ+colUapLh2lHAwVUWW06LZ02e+Hy9Xxu2t36Mrka/bnfh698qE1bNaSSgCqrxFXzhUuOdUdbPHOB0cX9thgBVbYYR2shMFkgssokShKlyYOoRo+MT/8Zb1x364f0wkaFT+fjC7qnxgKRr1wSpRr3oabVXUCV1aaH0re25NJ+2VWUup3b33yY/KE1u0JfbRqrIVUEVFkVrbovOzMwmrlA3fewme1TZc3sN61ukkBklUmUJEqNGNbTE6X8tVde2biR/2tvI/ZOI4cCka9cEqUhmVsEKgqosopgy1s8/+Y1OAk0Pfft0me3lrdVa16BgCpbAfLKNjEzMJq5wMqaulYbUmVr1d129lQEIqtMoiRROpXxWXWjMYnSr86/+vHVkQsbVd2K5U9fIPKVS6J0+l2lBY0VUGU16rru5vU/vn/p5XB5vnBZ7stXb4xeKKlGzdWUWAFVFivVhOVmBkYzF2jCXjavjaqseX2mxU0TiKwyiZJEqWlDW3tbLRD5yiVRavUosHPLFVBly/W1dgK9niozCggsW0CVLVvY+glEVplESaKkWAjUSCDylUuiVKM+05SmCaiypvWY9jZPQJU1r8+0uGkCqqxpPaa9zROIrDKJkkSpeYNbi1ssEPnKJVFq8Riwa8sWUGXLFrZ+AqrMGCCwbAFVtmxh6ycQWWUSJYmSYiFQI4HIVy6JUo36TFOaJqDKmtZj2ts8AVXWvD7T4qYJqLKm9Zj2Nk8gssokShKl5g1uLW6xQOQrl0SpxWPAri1bQJUtW9j6CagyY4DAsgVU2bKFrZ9AZJVJlCRKioVAjQQiX7kkSjXqM01pmoAqa1qPaW/zBFRZ8/pMi5smoMqa1mPa2zyByCqTKEmUmje4tbjFApGvXBKlFo8Bu7ZsAVW2bGHrJ6DKjAECyxZQZcsWtn4CkVUmUZIoKRYCNRKIfOWSKNWozzSlaQKqrGk9pr3NE1BlzeszLW6agCprWo9pb/MEIqtMoiRRat7g1uIWC0S+ckmUWjwG7NqyBVTZsoWtn4AqMwYILFtAlS1b2PoJRFaZREmipFgI1Egg8pVLolSjPtOUpgmosqb1mPY2T0CVNa/PtLhpAqqsaT2mvc0TiKwyiZJEqXmDW4tbLBD5yiVRavEYsGvLFlBlyxa2fgKqzBggsGwBVbZsYesnEFllEiWJkmIhUCOByFcuiVKN+kxTmiagyprWY9rbPAFV1rw+0+KmCaiypvWY9jZPILLKJEoSpeYNbi1usUDkK5dEqcVjwK4tW0CVLVvY+gmoMmOAwLIFVNmyha2fQGSVSZQkSoqFQI0EIl+5JEo16jNNaZqAKmtaj2lv8wRUWfP6TIubJqDKmtZj2ts8gcgqkyhJlJo3uJfa4pv/+9c//+Wvf7t+r8JW/v3Nn/+SPCv597//qfBEi44JRL5ySZTG5Jp0hyo73d5SZafrv5qtq7LVOE/aiiqbJNOm+1XZ6famKjtd/9VsXZWtxnnSViKrTKIkUZo0hNp6/3++mhoYzfPK1ae6939/lyiddNhEvnJJlE4Kvdznq7Ll+p5w7arshID1eLoqq0c/TGiFKpsA06y7VVmt+0uV1bp7YhunymKlTmW5yCqTKEmUTmV8ho0mLyLZ7J6v/r2alsx45TpBIyRKJ8AbPDXylUuiNACL+n/ISVc4gU6VRfXLaS2kyhYqn77yey9bqGkLVqbKltSJd65/kX5u/ObmkjYwslrvZSMcdftFlS2jR3xiXIZqc9cZWWUSJYnSaQ3y5H06S5HCR4Ts12W2yeeDZeqeeN2Rr1wSpVjp9JTMr/6dDHuJUixa25dTZcvrYe9ly7Nt1ppV2VL66+4//9ZPbyVKSwFu1kpV2YL7yyfGBYO2YXWRVSZRkijVZLhXPOLNX7roL/kPFoPAKLdACKoGf9cazooK06OySyb1U/n0w0p5tpVbZ9nB+cQ5SvlNZ5sbuKc73v+E9MX/3R3cva7/j3zlkihFDZDkw3eojor1FdaeH/CqLEq8GQupsmX20+A9KHIbqiwSqmmLqbJl9FjyOe3v/7yZTFPKf/CbtSlVNkuooY+rskV2nE+MfU3HZSPDKrLKJEoSpZFxc3q/VDnivfvPvw0vgB3OOMg+W2QvBP170jQnn9TM+rif/gVsPFEKedPw/n9/M7zdVytPlNInDpqXrjwXKhX2+j9f/f2fd06vD+qw5chXLolSxc4qjLSIZ6uyCKSGLqLKltlxs95i8ttWZXmNdt1WZYvvzyQYSj7OpZ/rBh+rZrLNxOIAACAASURBVG5Glc0kauwCqmw5XecTY/YlS47LepFVJlGSKC3n5ajqWotRS5Xnp399GuQ76etgPpcpJkSzPu4Xl09bUnpnsY1lidLYE0c+CY09Wlzl+v0e+colUao4NKp/PihsQJUVQJr8qypbXu+N/Amh6mZUWVWxGi+vyhbdOcMPbyOfo6puRpVVFavx8qpsOZ3jE+NyXJu51sgqkyhJlOowwMM8o/xMoiqtGsllZr4ODj+UlG9jZG39ReI+vpQkSiVPTD7NZHuatjZ3PanyJq3TvZGvXBKlioNiZl3MWt9IXcxcmyqb5Xmqj6uyhfOHSazpmdTZy3v1jaiy6ma1fYYqW2zX5D9N5W9X3ooqq0xW3yeosuX0zczPeLM2q8pmCTXo8cgqkyhJlE59VIc4aXiV7pgG5T6+96+LNDJHaXhO3PjK5jnWTTaXn/c0vtbknpJEabydY4cc/d0fu798G62/N/KVS6JUcSTM8/lgfPSqsorsNV1clS2xY9JP0mUX2ivfpiord2n+vapskX04coBa8ay3Xk+VLbIv6rQuVbac3vCJMbvk7gn+RLScvln9WiOrTKIkUVr94BzZYninz11aaOTR0l/Sp+SKfOSjxszXwXkSpbg/iJUkSnFPTPcyHIcMpy+V7nr774x85ZIoVRwKM+uiuD5VVhRp0e+qbKmdGf+yr8qW2hGnu3JVtjj/4oer+BLr9eMknxgX1xt1WpMqW05v+MSYujouSxkiq0yiJFFazstR3FrniJN6vbFXumqJUvGjSbGlI2sbPDhy4v3gzuL/y9Y8co5b8QnF30s3XVyo5b9HvnJJlCqOg7GqmfH8seVHBufYo8W1ldVCfpmRtQ0eUGUDiWX/X5UtVTj6cHesjkbqYuzRYqNVWVGkVr+rsoV1R1oX4ct5x/478/rcY3WkyhbWMae/IlW2nD4Yq5oZmxlbXpXNEGvSw5FVJlGSKJ3asJ4rThqcXJZ9cWx6FPrn4aWIxl7Xxvav+GfhwgIjr4PZY+ln9/wEotjvegtPnPCh59/f5Cdnpcchub+kZRtfpxuRr1wSpYqDYnZdjK5wdNyqslGdpv+mypbYg2mx5F/YJ29LlU22af4jqmx5fRgd2vrEuLxOqMWaVdlyusEnxr6r47Jez3e97e53Bv92Ons7nb0nO7uPn3QeP+lsP955+Ojx1sPtB1uP7t2XKC3n5WjmWif80WlwoZbpz09f7P6Snub693/eGcmAYl4Hw+f4/lmyg4/+uXWGNSf/HUmCQgTW/xNZ7lJNI/cPnpvfkeICueemr1bZ+bojm5tO0NZHfT5YaM+WjurIa5blnqvKFtorp74yVbbQLshVyti7xqwN5Z6rymZhNetxVba8/qqSKPX6E9vDZzNVtrxeOY01q7KFqufejwbHMrk/2E/fVO65qmw6VdMejawyc5QkSk0b2trbaoHIVy5zlFo9CuzccgVU2XJ9rZ1A9N91vZcZLATmFvBeNjedJxKIFIisMomSRClyRFmMwCoEIl+5fApfRWfYRksFVFlLO9Zu1UhAldWoMzSlpQKqrKUda7dqJBBZZRIliVKNRq2mEIh85ZIoGSoE5hZQZXPTeSKBSAFVFgllMQJzC6iyuek8kUCkQGSVSZQkSpEjymIEViEQ+colUVpFZ9hGSwVUWUs71m7VSECV1agzNKWlAqqspR1rt2okEFllEiWJUo1GraYQiHzlkigZKgTmFlBlc9N5IoFIAVUWCWUxAnMLqLK56TyRQKRAZJVJlCRKkSPKYgRWIRD5yiVRWkVn2EZLBVRZSzvWbtVIQJXVqDM0paUCqqylHWu3aiQQWWUSJYlSjUatphCIfOWSKBkqBOYWUGVz03kigUgBVRYJZTECcwuosrnpPJFApEBklUmUJEqRI8piBFYhEPnKJVFaRWfYRksFVFlLO9Zu1UhAldWoMzSlpQKqrKUda7dqJBBZZRIliVKNRq2mEIh85ZIoGSoE5hZQZXPTeSKBSAFVFgllMQJzC6iyuek8kUCkQGSVSZQkSpEjymIEViEQ+colUVpFZ9hGSwVUWUs71m7VSECV1agzNKWlAqqspR1rt2okEFllEiWJUo1GraYQiHzlkigZKgTmFlBlc9N5IoFIAVUWCWUxAnMLqLK56TyRQKRAZJVJlCRKkSPKYgRWIRD5yiVRWkVn2EZLBVRZSzvWbtVIQJXVqDM0paUCqqylHWu3aiQQWWUSpZUmSgcHB3t7e51OZ2dn5+e7j2o0XjSFQD0E8q9cBwcHh4eH3W736Ojo+Pj4WfqTZUkvXrx4/vx5uPP4+Pjo6Kjb7R4eHqqyevSkVtRXQJXVt2+0rC0CqqwtPWk/6iugyurbN1rWFoHIKpMorSJRevr0qWPdtlSW/ViuQOkr19OnT2cmSqpsuR1j7S0SUGUt6ky7UlMBVVbTjtGsFgmoshZ1pl2pqUBklUmUTiFR2t3dNUeppnWjWactEF65dnd39/b2sjlKcyRKquy0e9L26yugyurbN1rWFgFV1paetB/1FVBl9e0bLWuLQGSVSZQkSm0Z8vajFQKRr1zZuW/ZWW+FOUoSpVYMBzuxFAFVthRWKyWQE1BlOQw3CSxFQJUthdVKCeQEIqtMorSiROno6Ci7wotj3dxAdZPAiMD4K9fR0VHkHCVVNkLpFwITBFTZBBh3E1iYgCpbGKUVEZggoMomwLibwMIEIqtMorTERClcNvj4+Pjp06eOdRc2tK2o1QLTX7mepz/hmtzhv6qs1cPBzi1FQJUthdVKCeQEVFkOw00CSxFQZUthtVICOYHIKpMorS5R6na7BwcH+/v7u7u7nU7Hd73lhqubBPoCP9991Ol0dnd39/f3Dw4Owhe9ZXOUZiZKqsxIIjBTQJXNJLIAgRMKqLITAno6gZkCqmwmkQUInFAgssokSqeQKO3t7UmUTji+Pb2tAuGVa29v74SJkipr6wixXycXUGUnN7QGAtMFVNl0H48SOLmAKju5oTUQmC4QWWUSpZUmSoeHh/v7+451p49dj66zQP6V6/DwcI45SqpsncePfY8RUGUxSpYhcBIBVXYSPc8lECOgymKULEPgJAKRVSZRWnWidHBwsLe3t7u766y3k4xvz22rwM93H+3u7u7t7R0cHMydKKmytg4P+7UQAVW2EEYrITBFQJVNwfEQgYUIqLKFMFoJgSkCkVUmUVpWohQuG1z61ebhUkoSpSnD10NrKxBeucIpbyFRyi6i9OzZs+fPn79If/I3VNnajhY7Pp+AKpvPzbMIxAuosngrSxKYT0CVzefmWQTiBSKrTKK0ukTp6Ogou2zw3t6eRCl+NFtyfQR+vvto0kWUYhIlVbY+Q8Wezi2gyuam80QCkQKqLBLKYgTmFlBlc9N5IoFIgcgqkygtPlHq9XrZNIrCV5t3u93Dw8NwSo5EKXIoW2ytBMIr1/RT3sLLlipbq4FhZxcooMoWiGlVBEoFVFkpizsJLFBAlS0Q06oIlArEV1np0+e78+fNu5t37t299+De/a0HW4+2Hm4/fPR4+/HO4yedx086T3Z2dzp7O529zu7+fP/+33xPC1t9srMb2rH9eOfho8dbD7cfbD26d39FidLx8fHTp0/zEyg2720/e/Z8PmjPItBKgWfPnm/e2x7/lrfj4+MwQSk72a00t1VlrRwVdmqxAqpssZ7WRmBcQJWNm7iHwGIFVNliPa2NwLhApSobf/rc90iU+nRh9sT4pZRCohSmKT14+OSw+3Rua08k0D6Bw+7TBw+flE5Qyp/ylp+jpMraNwzs0VIFVNlSea2cQK/XU2WGAYFlC6iyZQtbP4FKVbZALolSHzOfKOVPfMumKR0eHu7u7t29v71Afasi0HSBO/e2d/f28l/xll2W+3n6k1VWNkcpJEqqrOldr/0rE1BlK6O2obUVUGVr2/V2fGUCqmxl1Da0tgKVqmyBShKlIWbhIi/Pnj3Ln5JzmP7s7u7fub/d7T51+tsQzq31E3j27Plh9+md+9u7u/uhNLrd7tHRURYnjZ/yFpBU2foNFns8p4AqmxPO0whEC6iyaCoLEphTQJXNCedpBKIF5q6y6C3MWFCiNATKJlOEuRUhUSoLlfa2Hj25c2/757uP/COwngJ37m1vPXoSZiflJygdpz+FOCn/bQKqbD0HjL2eQ0CVzYHmKQQqCaiySlwWJjCHgCqbA81TCFQSmLvKhjnIyW5JlIZ+48e62TSl/Llv4ZpK++nP3t7ebvrTGfzs+CHQLoHB0O6Eob63txcGf7h2Uj5OmjRBaXqipMraNV7szTwCqmweNc8hUEVAlVXRsiyBeQRU2TxqnkOgisBiq2yYg5zslkRpxC8mVOp2uyFUOjg4yHKlvfQnHHLn/5v1uhsEmiKQH8BZihRGeJYlZZfizk52i4mTQrGpsqaMBO1cnoAqW56tNRMIAqrMSCCwbAFVtmxh6yew7CobiULm/UWiNCJXONYNFw8uzKEI3/4WcqVCtFQImMJBuP8SaK5AGNKFICnMSwpZUrh20nic9Pz586yaRmqs18vuD6eXqrLmDg8tX4iAKlsIo5UQmCKgyqbgeIjAQgRU2UIYrYTAFIFlVFnhMG2+XyVKRbcph7vhmkrhDLhCrpRFSwdjP/m+d5tAzQXGxm//jnD57UlZ0vHx8bP0JwuJsjoqFlj6e/Zotnx4ergM09P05yj96aY/2dYnNa/mqppHIC8waRhn4zwM+1ACoRyyK5RlFymbEtqGolNleXO3101Ala1bj9vf1QuostWb2+K6CaymykoP1irdKVEq4Yr5IF7IlcIBQDZxKTswcINA0wWysT1+lBumJlWNk+IPd1VZ0weP9kcKqLJIKIsRmFtAlc1N54kEIgVUWSSUxQjMLbCkKisJRKrcJVEq0coSpRcvXhTmUGRfAJfNV8oOesPfk/MTKwpd7lcCzRLID+n8dIksSMqypNJ5E/kLco+XmSpr1mDQ2iUJqLIlwVotgUxAlWUUbhBYkoAqWxKs1RLIBJZaZeNHapXukSiVc5Ue7mYXfMnnSvloKZyeUPrf8UHgHgK1Eigdt4U7w6k3+RNw8llS/jSc6XFSqDpVVqsBoDErECgUVOmvqmwFHWETLRYoLavCnaqsxQPArq1AoFBQpb+qshV0hE20WKC0rAp3LrbKyjORuHslShOd8oe7+clK+Vwpf/GXfKe6TaCVAmHAZ//NZvAVsqSYOGk8VFJlrRwzdqqqQFZf4YYqqwpoeQIzBVTZTCILEDihgCo7IaCnE5gpsPAqmxiLzHpAojRDaEquNB4tFfrVrwRaKZA/xJ07S8oXnipr5TixUycRUGUn0fNcAjECqixGyTIETiKgyk6i57kEYgQWXmX5Y7TI2xKl2VCFw93wa6Hz8r/G9L1lCDRCID+wC7dL62J2OU1YonRthS3mf22EnkYSiBHID+zC7dK6mFBDs+8uXVthi/lfYxpvGQKNEMgP7MLt0rqYXU4TlihdW2GL+V8boaeRBGIE8gO7cLu0LibU0Oy7S9dW2GL+15jGW4ZAIwTyA7twu7QuZpfTgpaQKMVClvZTuLPQo34l0FaBKVUQW0hTl5uy/raS2i8CBYEpVTC1emIfnLL+Qkv8SqCtAlOqILaQpi43Zf1tJbVfBAoCU6pgavXEPjhl/YWW+JVAWwWmVEFsIS1oOYlSZcgpnechAusmULl+4p6wboz2l8AUgbiiqbzUlC16iMC6CVSun7gnrBuj/SUwRSCuaCovNWWLHiKwbgKV62dBT5AonQiyrZGn/SIwReBENVP9yVNa4iECbRWoXignesa6feSyvwTiv0HiRKWVezJzAmsokKuAVdxcQ2G7TGAVpTVrGxKlWUJjjxu4BAhkAmP1sZg7svW7QYDAYorKWggQIECAAAECBAgsWkCiFCs65aimrX8kt18ECgJTqiC2kKYuN2X9hZb4lUBbBaZUwdTq8SABAgQIECBAgACBVQtIlGaLl36+n3Iw04hrxWskgRiBKeO8tC5ml9OEJUrXNmXrMY23DIFGCEwZ56V1MaGG3E2AAAECBAgQIEBg1QISpRnihQ/0hY/+jThc0UgCixUoVEGhRmZUVNnDhTUU1r/YxlsbgUYIFKqgUCNlZeQ+AgQIECBAgAABAqsWkChNFC98gs9/vi8ckBz7IbAeAoWRny+KQr1MrKvRBwrPyq+wsK31ALaXBI4LIz9fFIV6GS0mvxEgQIAAAQIECBBYtYBEqVw8/8E9/4E++6yfP+55GvFz5IdAvQUiRvHT/LDPaiFfIPnCKS+t3L35hfMrydac31xM8+oNrHUEjmKGcX7YZ7WQL5B84eTqyU0CBAgQIECAAAECqxaQKJWI5z+vZ5/js0/22cf97Nhg/Dip64dA8wXGB3Y25rMqyOoiq5R8+ZRU1+Cu/GLZc7O1ZevPtjjemOYD2wMC3fGBnY35rAqyusgqJV8+g5LyfwIECBAgQIAAAQKrFpAolYhnH9azj+/hA334fJ993A9HAoVDokM/BNolUBjhYdhnVRCKIhRIVi9ZBZVU1+CubJnsWaqsXQPH3lQQWFKVDarN/wkQIECAAAECBAgsRUCiVGQtHOhmfxzOx0n5LCk7aDiY8LPvh0BzBCaM4oNsnIdD33yulA+Vnj17FhKirI6KBZb+nj0aFlZlzRkgWroAgdVUWWnpuZMAAQIECBAgQIDAAgUkSiOYhQPd58+fZ/MmwqSMQpaUHRhkBxl7fgi0SyAb29loPzw8LM2VQrFkc46yahqpsV4vuz9bUpW1a8jYm8oCC6+yQtH5lQABAgQIECBAgMAyBCRKI6qFY93xA91wIH14eBiOrsNhQHb0sDv20/FDoGkCY6N4NxvhYcCHwZ/PlULeenzc/5qq6dOUVFnTRoT2Ll5g2VU28sbmFwIECBAgQIAAAQLLEZAoDV1jDnTDuT8HBwf7+/vhMDscGGQHHDt+CLRLIBvbYaiHYb+/v39w0D8VrttNri4cGSqpsnaNDnuzGIHFVtnwXc0tAgQIECBAgAABAssUkCgNdcePdbNrJx0dHXW73TA1aXd3b+vRk8172z/ffeQfgfUU2Ly3/eDRk93dvZArZaFSdk2lSdOUVNl6Dhh7PYfA3FU2fFdziwABAgQIECBAgMAyBSRKQ91wrBuOhPPnu43GSft37z8+7D599uz58JluEVgzgWfPnnePnt65v72725+slA+V8hdUCmWV8aiyjMINAtMF5q6y6av1KAECBAgQIECAAIFFCUiU+pKlUyeyq3GHCUq7u3t37m8vit56CLRA4G4SKu2FayoVzn0bn6akylrQ43Zh9QKVqmz1zbNFAgQIECBAgACBtRWQKPW7PmbqxIOHT7pHT9d2rNhxAuMCh92nDx4+GT/3rXSakiobB3QPgZkClaps5tosQIAAAQIECBAgQGBRAhKlvmThWLdwBaVwKe7Ne9tOdlvUyLOedgg8e/Z88952uFB3/sS38L1v+WlKvV5PlbWj0+3FigUqVdmK22ZzBAgQIECAAAEC6ywgUer3/vix7tOnT/NXUNrb2/v57qN1Hiv2nUCpwM93H+3tlVyi+9mzZzMTJVVWSupOAgWB+CorPNGvBAgQIECAAAECBJYnIFFKbEOc9OLFi+fPn49fkztMUJIoLW8UWnOjBcKx7vg0pezEtyyuzW6oskb3uMavXiCyyl68eLH6ttkiAQIECBAgQIDA2gpIlJKun5QohQtyh0Rpd3fXHKW1rRM7PkXg57uPdnd3Q6IULtH99OnTcNZbmKaUBUnZjXyipMqm2HqIQBCIrDKJkgFDgAABAgQIECCwSgGJUqKdHeiGOUrHx8fjJ+NIlFY5Lm2rQQLhWHfmiW/Pnz8P0wBVWYM6V1NrIhBZZRKlmvSXZhAgQIAAAQIE1kRAopR09PREaX9/f29vr9PpmKO0JlVhNysJ/Hz3UafT2dvb29/fD3OUjo6OsmlK2aWUpidKqqySuYXXTSCyyiRK6zYw7C8BAgQIECBA4HQFJEqJ/5REKbuIkkTpdEeqrddWIH+se3BwkP/Gt/zFuackSqqstp2rYTURiKwyiVJN+kszCBAgQIAAAQJrIiBRSjp6ZqK0u7srUVqTkrCbVQXCsW52KaW5EyVVVlXe8usjEFllEqX1GRL2lAABAgQIECBQBwGJUtILkxKlw8PDg4ODvb293d3dnZ0dZ73VYchqQ90Efr77aGdnZ3d3N7uUUqWz3lRZ3TpUe2ooEFllEqUa9p0mESBAgAABAgRaLCBRSjo3S5RKv4JKotTiArBrJxcYP9btdrvZdZSyr3vLznpTZSc3t4Z1E4isMonSug0M+0uAAAECBAgQOF0BiVLiL1E63VFo640WiDzWlSg1upc1/nQFIqtMonS63WTrBAgQIECAAIF1E5AoJT0uUVq3cW9/FygQeawrUVqguVWtm0BklUmU1m1g2F8CBAgQIECAwOkKSJQS/5mJUqfTcR2l0x2ptl5bgXCs2+l0susozXfWmyqrbRdr2KkLRFaZROnUe0oDCBAgQIAAAQJrJSBRSrp7PFE6OjrqdrvZNYMd665VVdjZSgKlx7pHR0fHx8fhkknZ7KQXL148f/48u46SKqvkbOF1FoisMonSOg8S+06AAAECBAgQWL2ARCkxn5Io7e/v7+3tSZRWPzRtsSkC+WPd/f39w8PDbrdbKVFSZU3pa+08LYHIKpMonVYH2S4BAgQIECBAYD0FJEpJv0uU1nP02+uFCEQe62YzlcbnKEmUFtIRVtJigcgqkyi1eAzYNQIECBAgQIBADQUkSkmnSJRqODQ1qSkCkce6EqWmdKh21lAgssokSjXsO00iQIAAAQIECLRYQKKUdK5EqcVD3K4tWyDyWFeitOyOsP4WC0RWmUSpxWPArhEgQIAAAQIEaiggUUo6RaJUw6GpSU0RiDzWlSg1pUO1s4YCkVUmUaph32kSAQIECBAgQKDFAhKlpHMlSi0e4nZt2QKRx7oSpWV3hPW3WCCyyiRKLR4Ddo0AAQIECBAgUEMBiVLSKRKlGg5NTWqKQOSxrkSpKR2qnTUUiKwyiVIN+06TCBAgQIAAAQItFpAoJZ0rUWrxELdryxaIPNaVKC27I6y/xQKRVSZRavEYsGsECBAgQIAAgRoKSJSSTpEo1XBoalJTBCKPdSVKTelQ7ayhQGSVSZRq2HeaRIAAAQIECBBosYBEKelciVKLh7hdW7ZA5LGuRGnZHWH9LRaIrDKJUovHgF0jQIAAAQIECNRQQKKUdIpEqYZDU5OaIhB5rCtRakqHamcNBSKrTKJUw77TJAIECBAgQIBAiwUkSknnSpRaPMTt2rIFIo91JUrL7ohK69/86p1fnD330pUb3UpPyy188jXkVubmDIHIKpMozXD0MAECBAgQIECAwEIFJEoJp0RpEYNq8+ob58688cXmItYVt44bG2dXvMW4dq3ZUpHHuq1PlDavvnnm7LmNG43o/rRaz547c/by93O29+RrmHPD6/m0yCqTKK3n8LDXBAgQIECAAIHTEpAoJfISpUWMv7kSpa0bV95+5d2r88VQEqVF9NuJ1xF5rHuKiVKa9bxZNsqSIfR62QMTVTo/frnxzksXzp05e+7MLy++tfH1zU5/2UUlSre+ev/ShU/nCnp++turScPyqVb3+sdJU8eSozDD6NIffzzhHKU51hCg0laljBdeeWvji+83527IxL5q0wORVSZRalOn2xcCBAgQIECAQP0FJEpJH0mUFjFS50qUNr94veoh/bCtEqWhxSneijzWrWOi1P32wyrDr/PDp5eSdGb03yC/WVSi9P1GSQAU179pRZw9d2bQpF6ve/2j0Nq55yLFbbnKUsVEqe/52me3qqxlzZaNrDKJ0pqNC7tLgAABAgQIEDhlAYlS0gESpUUMQ4nSIhQbuI7IY91TTJR61y8XZu70mdNAc+N6HHrnu410atKlT765tZVOqOl2bt/4/IPP+ue51SRR+vCjj89c+PSHsE/d7z48+9sPP3pzfI5S3D4vZakCVHfr1rVPXktyure/3lrKBtuw0sgqkyi1obPtAwECBAgQIECgOQISpaSvJErzjdju5nf/9d5r53+ZToL45cXzxasadW5d+9O7r178RToH4fzL72x89ePwDKE3Rid6DOd95CdTTFlDr9dLZ2RsfNfdSpuRrOHi61e+Gz0onb6GZL/7e5E24BcX3rlyvXj6TXfzuytvh7341fm3L3+ZneY0n1rrnhV5rHuaidKNqYnS8MpHnZtXP74Uzmi78Nq7f/wuPxRuffbbM2fPvbRxYzCGix2ZBiUXr9zs3r52+fV0Jb/4zcdXR0dLd/PG1dxJc5fe+9P1bLymjSxOgEqHZfR5eUlFbFy/sXH24pWb6di+/vGZt7/+IbnA08f/6J9VNpjHFCpuOJupvzvpXrx5dXNIMbYXM9ZQdBn7vZAopY//60oiltV+solkr7s/Xdt4M3lhOfurX3/09e38iXHdzet/fL/fWb+8OCIZttjdvH7lnf6rU9jZ5L/ZyY+zNzGts0IWeaPz/ZXf/uLsufPvfb3Z++naB68kI+STiSNkTKLCHZFVJlGqYGpRAgQIECBAgACBEwtIlBJCidI8A+nW5yVnAOWvzF12hPzutXAAnV3WdzxXyo4qe71paxgkSm/87oOXR1by0ie5r6+asYZeLz0yHD2Mz445U5XbyXl5owu8MjlVmAey6c+JPNY9zUTp5qfnk6gllb71+a/P/rZ/glVyux++9Hqd7zeSRGDk3xtf3O53Txix73yZBUBj3ZYGJb99/e3CSj6+PsxByob9y5+m4U/5aA+NiU2U+jFH7/uNc+ev/BhOeXvrq610ilY2qmfkQSEXu/TqlL2YsYYxmOIdExOlCwOKNCz+9Sefb4yW9vkr/xqs66fkewAKnXX2zauD3ur1yqjHEqWpmyhbQ9ZZKfVb770/aMNrH36UBI7p8esAaQAAIABJREFUv4x60NhF/D+yyiRKi8C2DgIECBAgQIAAgVgBiVIiJVGKHS/D5W599ptzZ86+snHtp07/BKAfP3t19JvXbnz+7h8H5wf1uls/fJ5EM/nIqdcPdCYeMM9Yw+DI9uXfXf0hOQ2pu/nNh8khaDYdo9ebsYZeSAH+64ewE73kBJwrl78cXig8HFW++Vm6/l6yF18kAdZvPnfJl2wsRB7rnmailB7/h2EW4oxfh0gpCRz7x//dG5fPnz330kff3O4P6J+up6difdgPhNLBNrXfw5rTeUzfJLNpulv/2LiYnG03PKtu88uNy1dv9EsmmYDzURLc/H44SSpBnf86SoNEKbkad9LUGxtn0wgst5tZrw2m+I1uO0likm+sO3P23KVP0ilaJXuRrSM1GZvllD086UbYRPa87tatL1OHXGBULO1e/5TDP4QLlvfni33wxaAu+5115qPv+vFdmiGef++LW+HV6Xb6ypDlQUnLZmyi15vaWSn1mWQi1U/d9JzKM2cvblzvbH31Tvn5lZMsou+PrDKJUrSoBQkQIECAAAECBBYgIFFKECVKlYdSesDWPyzvPzkNXwqB0ch6yxbIHeqPLFv+S2EN6THhhcvXc6chhYPVwiF6bmWFNfS2riWzDPoHz7nl+jfT5iWzPHI/t//7tSyGyN29vjcjj3XrkShtXXvv3OtvvNlPNnNRS5LjZJcf6nfmdxtnz535JGQu6WCbNrz7WczIaXHpFLmJgWkSa5ScjnfyRKmXXD7pzb9dvdy/MlFuN3PDNN2jLNcZPBAqKG4vytcwWNPE/2eh1WBSTzq15+U/fD8s5HTNL1/O3ZMP2tI4u9hZIePuz3AshFZJdp0kZfnZQ9M3Udb4fGeFRCkkjOn9Z977JnmZyC9Tto6574usMonS3MKeSIAAAQIECBAgMIeARClBkyhVHTrdb5OvJB89Gi2GNb1e5+ZXl996OZmmMfxXOCafkShNX0N6TFhYYfGIbvoaer3B1U+SC7W894er128Nj2oHx4fDxg93JDtVqqpcC5ePPNY9zUSpl2RDl/77p3RmyvvXbnz+67PvX9vqpcP4cjqFKB29w/7NjdiQFIQpLa/+z/C0qrGeHE8xQr6QT5RGLj022NxoHeWjk7FtTL8jOYkvVGX/K976YWhaFGMxa3keFLMXg1aUr2Hw6MT/h01kZZVcYe3qjfwlqybNnxqssXy7N69cHGZGN/5w5uy58x+lk8V6vW6Yo5SfvRg6tEA/2ED4/7TOyr9wpbz9Xi6+/oyu8QS/RVaZROkExp5KgAABAgQIECBQWUCilJBJlKoOnJLDznDhkmG+U3ZVmmpnvc1cw8xEaeYa+vvdvX3j6ifZVX7fGV6NJT0+zA59czckSsMhE3mse6qJ0iCDuPnp+SQV+vHKhXMffttNh3GY1TIzUQpTYJIcatJPSVHks4Zer1dyTa4kuirEGvPPUUo299rf0tArDcsGU3LKY46Byej+zN6L4fLlaxg+PuFWySaKS05fc/mjI4lS76e/vZqLBdPw7qXk2lLZT/lKsodndJZEaSjlFgECBAgQIECAwPoKSJSSvpcoVa6A9Bh1cJnt9NnhaDlLlLa+effsuTMvf3xt+P1M45OY+tdRSq8iPNaE2WtIjwmzLaYr+CGZpzC47vLsNRQ22t268emvz54789G3/auxpJM+Phz8Vljar0GgCYlSEiGd2bhx67PfhsGWpDYffXvr6ptn+leD7v7joxmXx0qDnnOjZ3qODIGSoGQ0UUojj3Ovf/av5KJf4acs60k3NC26Gjx57P/J2gYpUv7Bsq1Mmgc0cy9yK54VyuQWzd8s2UT+4eT29DWnvVl61lt2be+bn7509tylN/rf9faLC/kvmgwbm76J3ozOkigVu8zvBAgQIECAAAEC6yggUUp6XaJUeez3w5rL19MrYt++/of+975l+U56xHXmjf/pXxl369a1P77/0vgcpe63H549d+ZCPngatGX2GtJjwlc/vzm4Nvjtax8nm8gunzx7Db3vP3v/v67d2uxfmLvX3fp240L+8uHpl5q//LvPsqspD1rn/5lAExKlkGb+7oML/QlB6RSe969cGVxQqdcL11S+9El2Lfls/wY30njxzNlfXbry3eDq3Z3bNz7/4LP+xa1LgpLRRCmNii5ufJsGSt3O7RtfbLz6q/E5SuGy06//MRc8DZow4/+TEqX8V90NV1Eeqczci+EKZuQ+uQVHb5ZsYnSBWYlSLw2ORy6jfi39nr5sFtL3n5w788uP/7G5tTUo7eIWZjV+RmdJlMZA3UGAAAECBAgQILCGAhKlpNMlStWHfvf7T0a/X/zVP135KJ/F/Phfo9/83T9lLIuc+ptMrpScO5vs3Jmz/Wvr9noz15AeEg8uRjNYSf4bxGeuIVyzptCAc/m5V50bl5OUqvCvuBfV/Vr0jMYkSkknDr4HMESiIxFn6RfSj5ySdnvwPWgj42Fw0lpJUDKaKG1d+93IEweDarCCwZhI59fkl8xfiWmwUMn/0waUzVEaiz/yKw+3s03M3Itwcagpayhp2ehdJZsYXWBmotTr3NgYf3nJXds7pHKjjbz40tufXh+etFgeqGUNmdFZY6Suo5TRuUGAAAECBAgQILA+AhKlpK8lSnON+J/+sfHm+eSo+OLrG1/f7KTpTD5q2fruytsXf5Es8Kvzr3782Y3N6xv5yGmwzc6PX270T05JjwCzRKnXm7GGrR+u/uHdV397/pdp4vPLi5fe+1PuiDFd/4w19Hrp1l+6EDKjiy+9ffnLmyPX5u4lFxj/euPtV9I9HURL+d0c7Mfa/r8JidIgOuxfZrvX6w2izHyc0928/sf3L11I5g1l//KPFwfDhVfeSkd+6PqSoGQ0UUqG0tWPL4XBduGVt658c+vm/7w+dh2lpHHX//Tuq8NL2mdxz/QxtkaJUtITudeNC6+9+8fvRq7t3b2xkbwsXHzpN+ElaNChFy5/3z/lcEaiNKOzJErTx6JHCRAgQIAAAQIE1kNAopT0s0RpPUa7vVyKQCMSpaXsuZXWVCCNCy9cvp4Ph7tbX36Q5Epj33lX030oNCuyynzXW8HNrwQIECBAgAABAksVkCglvBKlpQ4yK2+3QOSx7ql+11u7e8DeFQTS+UfJ1dmyqyh1O7e/+TA5UW6uS54XVn8av0ZWmUTpNDrHNgkQIECAAAEC6ysgUUr6XqK0vhVgz08sEHmsK1E6sbQVRAqkF2LPnbqYncN46bNbkauo22KRVSZRqlvHaQ8BAgQIECBAoN0CEqWkfyVK7R7l9m6pApHHuhKlpfaClY8IhEtivZxdiyq5RNrVGyOXWhpZvva/RFaZRKn2PamBBAgQIECAAIFWCUiUku6UKLVqUNuZ1QpEHutKlFbbLbbWKoHIKpMotarX7QwBAgQIECBAoPYCEqWkiyRKtR+oGlhfgchjXYlSfbtQy2ovEFllEqXa96QGEiBAgAABAgRaJSBRSrpTotSqQW1nVisQeawrUVptt9haqwQiq0yi1KpetzMECBAgQIAAgdoLSJSSLpIo1X6gamB9BSKPdSVK9e1CLau9QGSVSZRq35MaSIAAAQIECBBolYBEKelOiVKrBrWdWa1A5LGuRGm13WJrrRKIrDKJUqt63c4QIECAAAECBGovIFFKukiiVPuBqoH1FYg81pUo1bcLtaz2ApFVJlGqfU9qIAECBAgQIECgVQISpaQ7JUqtGtR2ZrUCkce6EqXVdouttUogssokSq3qdTtDgAABAgQIEKi9gEQp6SKJUu0HqgbWVyDyWFeiVN8u1LLaC0RWmUSp9j2pgQQIECBAgACBVglIlJLulCi1alDbmdUKRB7rSpRW2y221iqByCqTKLWq1+0MAQIECBAgQKD2AhKlpIskSrUfqBpYX4HIY12JUn27UMtqLxBZZRKl2vekBhIgQIAAAQIEWiUgUUq6U6LUqkFtZ1YrEHmsK1FabbfYWqsEIqtMotSqXrczBAgQIECAAIHaC0iUki6SKNV+oGpgfQUij3UlSvXtQi2rvUBklUmUat+TGkiAAAECBAgQaJWARCnpTolSqwa1nVmtQOSxrkRptd1ia60SiKwyiVKret3OECBAgAABAgRqLyBRSrpIolT7gaqB9RWIPNaVKNW3C7Ws9gKRVSZRqn1PaiABAgQIECBAoFUCEqWkOyVKjR7UN//3r3/+y1//dv1ehb349zd//kvyrOTf//6nwhMtOiYQeawrURqTa9Idqux0eyuyyiRKp9tNtk6AAAECBAgQWDcBiVLS4xKleo/7/3w1NTCa51i3v8P3/u/vEqWTdn7ksa5E6aTQy32+Kluu7wnXHlllEqUTOns6AQIECBAgQIBAJQGJUsIlUYofNHeuf7Hy2T0zjnXjGz+2pERpjKT6HZHHuhKlSrQhJ13hBDpVVql/Vr1wZJVJlFbdMbZHgAABAgQIEFhvAYlS0v8SpcgqSI9yv/i/u+nid//5txWdMuZYN7J/TmexyGNdiVJs96SnZH7172TYS5Ri0dq+XGSVSZTaPhDsHwECBAgQIECgXgISpaQ/JEpRozKNkL76d27Z5NB3EDDl7i6/mb900V++uTlcaBAY5RYIWxmZD5Vd9ih3Blx/Hkf60EjDspXn1ll2cD5xjlJ+02NXaEoP9fvtid79rEmtuxF5rCtRiur5pMpCdcyVKOUHvCqLEm/GQpFVJlFqRndqJQECBAgQIECgLQISpaQnJUox4zkNWfJJUBrH5PKdaSu5+8+/DS+AHZ6YrSoLaPr3pBvKJzWDyGnSBsajrnTJkDcNk6Z/fzO83V9VeaKUPnHQvHTluVCpcJz/n6/+/s87kxq2HvdHHutKlCoOh8JIi3i2KotAaugikVUmUWpo/2o2AQIECBAgQKChAhKlpOMkSjHDN8lZhulJSHn+M+eVrdOZFIN8Jz1yHq651ysmRGFbk7/Krbh8ujeldxb3syxRGnviSJQ29mhxlev3e+SxrkSp4tConigVNqDKCiBN/jWyyiRKTe5kbSdAgAABAgQINE9AopT0mUQpZuQOE6XkSDXMISpLZGLWNZLLzDxynidRGomBJjappP0lTxzub6/XS1v7l78O4rCJq16fByKPdSVKFYfEzLqYtT5VNkuoQY9HVplEqUF9qqkECBAgQIAAgRYISJSSTpQoxQzlkCjdTL7rbXBGWK8kkZm0qvRUsr8OvyduGMrMPHKeJ1Ea5l+TGpTcX9L+8Xambc6fhZc+y3WUBrCRx7oSpQFY5P9n1kXJesZH7yD6nLk2VVbiWZ+7IqtMolSfLtMSAgQIECBAgMA6CEiUkl6WKMWM9XTyTv7Et/6Endw1hiauJj3QzYUyzZo9MWm30r0YTNeatFD774881pUoVRwKMzOg4vpUWVGkRb9HVplEqUV9blcIECBAgAABAg0QkCglnSRRihqqIzFQ+oyR08GmrGPs2HhkVWOPFtdUMpNoZJGRtQ0eGbmIzODO4v/L1hy7U+m6Sjdd3ErLf4881pUoVRwHM+uisL6x5UcG59ijhWeXzdcbWWRkbYNHVNlAYtn/j6wyidKyO8L6CRAgQIAAAQIE8gISpURDopQfE1Nup5MgBqe8pUeYMROU+ieXZefKpUehf65w1luvOPmi0MTSY91whNy/3lP6hNjvegsntQ12s7Ctf3+T3+V03lZu7lVh4fX4NfJYV6JUcTjMzIAK6xsdt6qswNPwXyOrTKLU8H7WfAIECBAgQIBAwwQkSkmHSZTih20a7vQvh5TPVmatIT08Dtce+vs/74xkQDFHzuFoubDd3Dr7VzX6a+4aT0mL8q398//+J2vkyP2D5w6uODP2xL/8Nf/c/tl//WdNCJ6yLa3BjchjXYlS3FgoHdWRV4LPPVeVxXE3ZanIKpMoNaVDtZMAAQIECBAg0A4BiVLSjxKldoxme3EqApHHuhKlU+kdG22HQGSVSZTa0d32ggABAgQIECDQFAGJUtJTEqWmjFftrKFA5LGuRKmGfadJTRGIrDKJUlM6VDsJECBAgAABAu0QkCgl/ShRasdothenIhB5rCtROpXesdF2CERWmUSpHd1tLwgQIECAAAECTRGQKCU9JVFqynjVzhoKRB7rSpRq2Hea1BSByCqTKDWlQ7WTAAECBAgQINAOAYlS0o8SpXaMZntxKgKRx7oSpVPpHRtth0BklUmU2tHd9oIAAQIECBAg0BQBiVLSUxKlpoxX7ayhQOSxrkSphn2nSU0RiKwyiVJTOlQ7CRAgQIAAAQLtEJAoJf0oUWrHaLYXpyIQeawrUTqV3rHRdghEVplEqR3dbS8IECBAgAABAk0RkCglPSVRasp41c4aCkQe60qUath3mtQUgcgqkyg1pUO1kwABAgQIECDQDgGJUtKPEqV2jGZ7cSoCkce6EqVT6R0bbYdAZJVJlNrR3faCAAECBAgQINAUAYlS0lMSpaaMV+2soUDksa5EqYZ9p0lNEYisMolSUzpUOwkQIECAAAEC7RCQKCX9KFFqx2i2F6ciEHmsK1E6ld6x0XYIRFaZRKkd3W0vCBAgQIAAAQJNEZAoJT0lUWrKeNXOGgpEHutKlGrYd5rUFIHIKpMoNaVDtZMAAQIECBAg0A4BiVLSj1MSpYODg729vU6ns7Oz8/PdR+3odXtBYIEC+WPdg4ODw8PDbrd7dHR0fHz8LP3JsqQXL148f/483Hl8fHx0dNTtdg8PD1XZArvDqlopEFllEqVW9r6dIkCAAAECBAjUVkCilHTNeKL09OlTx7q1HbUaViuB0mPdp0+fzkyUVFmt+lFj6iwQWWUSpTp3orYRIECAAAECBNonIFFK+nRmorS7u2uOUvtGvz1aiEA41t3d3d3b28vmKM2RKKmyhXSHlbRSILLKJEqt7H07RYAAAQIECBCorYBEKekaiVJtB6iG1V8g8lg3O/ctO+utMEdJolT/vtbC0xKIrDKJ0ml1kO0SIECAAAECBNZTQKKU9HtponR0dJRd4cWx7nqWh72OERg/1j06Ooqco6TKYoQtQyCyyiRKhgoBAgQIECBAgMAqBSRKiXaWKIXLBh8fHz99+tSx7ioHom01V2D6se7z9Cdckzv8V5U1t6+1/LQEIqtMonRaHWS7BAgQIECAAIH1FJAoJf0+KVHqdrsHBwf7+/u7u7udTsd3va1nkdjr6QI/333U6XR2d3f39/cPDg7CF71lc5RmJkqqbDqvRwn0er3IKpMoGS0ECBAgQIAAAQKrFJAoJdozE6W9vT2J0irHpW01SCAc6+7t7Z0wUVJlDep0TV2xQGSVSZRW3C82R4AAAQIECBBYcwGJUjIApiRKh4eH+/v7jnXXvE7s/hSB/LHu4eHhHHOUVNkUXg8RyOYohdx2SpVJlIwWAgQIECBAgACBVQpIlBLt6YnSwcHB3t7e7u6us95WOTRtqykCP999tLu7u7e3d3BwMOVYN/uut8J1lLrdbv4S+KqsKf2unasUiKwyidIqO8W2CBAgQIAAAQIEJErJGAiJUrhscOlXm4dLKTnWVTAExgXCsW445S0kStlFlJ49exaCpOzK3KpsHNA9BGYKRFaZRGmmpAUIECBAgAABAgQWKCBRSjAnJUpHR0fZZYP39vYkSgsceVbVGoGf7z6adBGlmERJlbVmJNiR5QlEVplEaXldYM0ECBAgQIAAAQLjAhKlvknMiW8SpfEB5B4C4Vh3+ilv4UBXlRktBOYTiK+y+dbvWQQIECBAgAABAgTmEJAo9dHGj3WPj4+fPn2an0CxeW/72bPncyh7CoG2Cjx79nzz3vb4t7wdHx+HCUrZWW/ZZMDn6c+zZ8+O0x9V1taxYb8WJVCpyha1UeshQIAAAQIECBAgMFNAotQnmn7iW7hy8IOHTw67T2eaWoDA+ggcdp8+ePikdIJS/pS3/Byl8UsphdxWla3PsLGnlQQqVVmlNVuYAAECBAgQIECAwEkEJEp9vXyilP8uqmwCxeHh4e7u3t372yfh9lwCLRO4c297d28v/xVv2WW5w1ykrLKyOUohUVJlLRsJdmd5ApWqbHnNsGYCBAgQIECAAAECBQGJ0hCkcOJbOCsnnyilodL+nfvb3e5Tp78N4dxaP4Fnz54fdp/eub+9u7t/mP50u92jo6MsTho/5S0gqbL1Gyz2eE6Buatszu15GgECBAgQIECAAIGKAhKlIVg2mWLSdV7CkfPu7t7Woyd37m3/fPeRfwTWU+DOve2tR0/C7KT8BKVwaaRCnJT//ilVtp4Dxl7PITB3lQ3f1dwiQIAAAQIECBAgsEwBidJQd/xYN5umVJipdHBwsJ/+7O3t7aY/ncHPjh8C7RIYDO1OGOp7e3th8IdrJ+XjpEkTlKYnSqqsXePF3swjsNgqG76ruUWAAAECBAgQIEBgmQISpRHdmFCp2+2GSwjnc6W99Ccccuf/mx0nuEGgKQL5AZylSGGEZ1lSdinu7GS3mDgpFJsqa8pI0M7lCSy7ykbe2PxCgAABAgQIECBAYDkCEqUR18Kxbrh4cGEORfheqpArFaKlbOJSOPz2XwJNFwhDuhAkhXlJIUsK104aj5OeP3+eVdNIjfV62f3h9FJV1vRBov0nFFhGlRWKzq8ECBAgQIAAAQIEliEgUSqqTjncPT4+fpr+HKU/3fQnXFwpi5YOxn7yRwtuE6i5wNj47d+RjfMw7EMJhHLIrp2UXT5pSpwU6k2V1XwYaN5SBVZTZcX3Nr8TIECAAAECBAgQWLSARKlENOZwN1xZKZuvFA6zs4lL2eG3GwSaLpCN7fEsKUxNOj4+fpb+ZHOOsgoqqa7BXdky2bPCSkI+FbIqVdb0waP9kQJLqrJBtfk/AQIECBAgQIAAgaUISJRKWLNj3RcvXhQOd8MZcKUHvWHWRn76UuEgwa8EmiWQH9L5SUlZkJRlSaWzk/IX5B4vM1XWrMGgtUsSWGqVjdedewgQIECAAAECBAgsUECiVI5ZeribXfAlnytlp8JlsypKb4wfNriHQK0ESsdt4c6QpeZPc8tnSfmT3abHSaHqVFmtBoDGrECgUFClvy62ysrf4dxLgAABAgQIECBAYBECEqWJivnD3fxkpXyulD9PJ38Y4DaBVgqEAZ/9N5vBV8iSYuKkUHiqrJXjxE6dRCCrr3Dj5FU28U3OAwQIECBAgAABAgROJiBRmuE35Yh3PFoqHAn4lUArBfKHuHNnSfnCU2WtHCd26iQCC6+yfMW5TYAAAQIECBAgQGAhAhKl2YyFw93wa+Hjfv7XkxxFeC6BWgnkB3bhdmldzC6nCUuUrq2wxfyvtVLSGAInEcgP7MLt0rqYUEPuJkCAAAECBAgQILBqAYlSrHjpJ/twZ+EYwK8E2iowpQpiC2nqclPW31ZS+0WgIDClCqZWjwcJECBAgAABAgQIrFpAolRZfMrHfQ8RWDeByvUT94R1Y7S/BKYIxBWNpQgQIECAAAECBAisWkCidCLxKccAHiLQVoET1Uz1J7eV0X4RmCJQvVA8gwABAgQIECBAgMCqBSRKqxa3PQIECBAgQIAAAQIECBAgQIBA0wUkSk3vQe0nQIAAAQIECBAgQIAAAQIECKxaQKK0anHbI0CAAAECBAgQIECAAAECBAg0XUCi1PQe1H4CBAgQIECAAAECBAgQIECAwKoFGpMoPdp+svVw+8HWo/sPHt6992Dzzr2fN++uWsv2CBAgQIAAAQIECBAgQIAAAQIEer0sUbr/4OGDrUdbD7cfbT/Zfrzz+Enn8ZPOk53dnc7eTmevs7s/37//N9/Twlaf7OyGdmw/3pEoGa4ECBAgQIAAAQIECBAgQIAAgZoINDVRunP3vjlKNRlDmkGAAAECBAgQIECAAAECBAism8DPm3fv3L1/996Dhs1Rkiit20i1vwQIECBAgAABAgQIECBAgEB9BCRK9ekLLSFAgAABAgQIECBAgAABAgQINEOg7olSuJRSuI7Sw0ePsytzm6PUjPGllQQIECBAgAABAgQIECBAgEAbBQqJ0sNHj7Mrcz/Z2T39K3MXEqWth9v3Hzy8d3/rzt37m3futbFH7BMBAgQIECBAgAABAgQIECBAoO4Cm3fu3bl7/979rfsPHm493JYo1b3DtI8AAQIECBAgQIAAAQIECBAgcOoCzUuUHmw9und/6+69B+Yonfro0QACBAgQIECAAAECBAgQIEBgPQU279y7e+/BvftbD7YeNWOOUpYo3bl7fz37zF4TIECAAAECBAgQIECAAAECBE5X4M7d+/VNlHY6e+E6So+fdLYf7zx89Hjr4Xb+4tyna2frBAgQIECAAAECBAgQIECAAIH1FAiJ0v0HD8Mcpeyy3I+fdLLLcu909jq7+/P9+3/zPa2zu7/T2SskSo+2n2Rf9xYuzv38+fP17DZ7TYAAAQIECBAgQIAAAQIECBA4LYHnz59nl+V+sPUof1nufKI0dyjU2d1fQKI0/nVv2Ylv3e7RadnZLgECBAgQIECAAAECBAgQIEBgPQW63aOlnvK2xETp/oOHd+892N3bX8+es9cECBAgQIAAAQIECBAgQIAAgdMS2N3bv3vvQXbKW36O0pOd3eyst1rMUQqXUgonvm093L7/4OG9+1uPn+yclp3tEiBAgAABAgQIECBAgAABAgTWU+Dxk51797fuP3hY+Ja3cMpbLRKlcCml0hPf7j94eP/Bw6fHx+vZefaaAAECBAgQIECAAAECBAgQILB6gePj45DJhGtyT5qgdJLLcp/orLf8xbmzRGn78U42TSlcTWnr4faLFy9Wz2eLBAgQIECAAAECBAgQIECAAIF1E3jx4sXWw+1797cKcdL2450FTlBaTKJU+o1vWw+3H2w9Cue+7XR2163/7C8BAgQIECBAgAABAgQIECBAYPUCO53dcL5bIVF6/KST/5a3E05QWmSiNGmaUhYqmam0+mFkiwQIECBAgAAJdgt8AAANKUlEQVQBAgQIECBAgMCaCDx//uLJTqc0ThqfoHTKidL4iW/Z9bnz576FUOnB1qOjo6M16UW7SYAAAQIECBAgQIAAAQIECBBYmcDR0dGD9EvSCt/v9mj7SYiTFnvK20nnKGWJUv763Fmo9PDR44ePHudPf7t3f2vr4aMnO52Dg8Nnz56tjNWGCBAgQIAAAQIECBAgQIAAAQItE3j27NnBweGTnc7Ww0f37m8VZiflL8hdiJNOPkFpAYlSfKiUXVbp7r0Hd+89uHP3fvi3eede+Pfz5l3/CBAgQIAAAQIECBAgQIAAAQIESgWyCCULVULGkmVJ2bWTlh0nLTdRCt/7lp3+lk1WCifB3bu/FXY7ny5lInfu3s+Y3CBAgAABAgQIECBAgAABAgQIrKFAPifJbmdxSjYvKTvTbevhdsiSwslupee7LWSC0mISpUnTlLLT30KoFM6AC7lSmK+URUuBIBNxgwABAgQIECBAgAABAgQIECBAoCAQ8pNCkBTmJYUsKR8nhS93W8b5bp3d/YUlStNDpfxkpSxXyqKlLF26/+Dh+L88ltsECBAgQIAAAQIECBAgQIAAgXUQGE9IsnsebD0K/7Yebod/4UrWj7afFKYmLS9OWkqilF2l+8nObsjDth/vhH9h38J+5qOlsP+ZiBsECBAgQIAAAQIECBAgQIAAAQIFgSxCygdJ+XlJIX4JacyTnd3wb6ezl/0L04sW8t//t5C1hJVk7RsPlcIZcPlcqZAuTYqZClh+JUCAAAECBAgQIECAAAECBAism0AWm2Q3Qq6Sn5eUXTUpm5r0ZGc3n9UsMAJa5Byl8VCpNFfKR0vZ2XB5hUm3MzI3CBAgQIAAAQIECBAgQIAAAQKtFJiUiozfn50Qlg+SJmVJi7oadz6TWuQcpWy9+QAsm2QVbmTXhSqcEJeHcJsAAQIECBAgQIAAAQIECBAgQGCKQCFgKcQv+WQmi2sWe2MpiVL+Qt3ZPhT2rbDnfiVAgAABAgQIECBAgAABAgQIEKgkUAhbshAmu7HYFCm/tmUlSmEb2Q7kbxT2tvBrJTgLEyBAgAABAgQIECBAgAABAgRaL1AITwq/5lOX7HY+/VnG7eUmSlNypbCHBQK/EiBAgAABAgQIECBAgAABAgQIzBTIkqPxG8vIj8bXuYpEKdvq+E66hwABAgQIECBAgAABAgQIECBA4OQCWfyymhsrTZTyu3RyKWsgQIAAAQIECBAgQIAAAQIECKyzQD5pWfHtU0uUVryfNkeAAAECBAgQIECAAAECBAgQILAoAYnS/qIorYcAAQIECBAgQIAAAQIECBAgsCYCEiWJEgECBAgQIECAAAECBAgQIECAQDUBiVI1rzUJGu0mAQIECBAgQIAAAQIECBAgQGCKgERJokSAAAECBAgQIECAAAECBAgQIFBNQKJUzWtKOOchAgQIECBAgAABAgQIECBAgMCaCEiUJEoECBAgQIAAAQIECBAgQIAAAQLVBCRK1bzWJGi0mwQIECBAgAABAgQIECBAgACBKQISJYkSAQIECBAgQIAAAQIECBAgQIBANQGJUjWvKeGchwgQIECAAAECBAgQIECAAAECayIgUZIoESBAgAABAgQIECBAgAABAgQIVBOQKFXzWpOg0W4SIECAAAECBAgQIECAAAECBKYISJQkSgQIECBAgAABAgQIECBAgAABAtUEJErVvKaEcx4iQIAAAQIECBAgQIAAAQIECKyJgERJokSAAAECBAgQIECAAAECBAgQIFBNQKJUzWtNgka7SYAAAQIECBAgQIAAAQIECBCYIiBRkigRIECAAAECBAgQIECAAAECBAhUE5AoVfOaEs55iAABAgQIECBAgAABAgQIECCwJgISJYkSAQIECBAgQIAAAQIECBAgQIBANQGJUjWvNQka7SYBAgQIECBAgAABAgQIECBAYIqAREmiRIAAAQIECBAgQIAAAQIECBAgUE1AolTNa0o45yECBAgQIECAAAECBAgQIECAwJoISJQkSgQIECBAgAABAgQIECBAgAABAtUEJErVvNYkaLSbBAgQIECAAAECBAgQIECAAIEpAhIliRIBAgQIECBAgAABAgQIECBAgEA1AYlSNa8p4ZyHCBAgQIAAAQIECBAgQIAAAQJrIiBRkigRIECAAAECBAgQIECAAAECBAhUE5AoVfNak6DRbhIgQIAAAQIECBAgQIAAAQIEpghIlCRKBAgQIECAAAECBAgQIECAAAEC1QQkStW8poRzHiJAgAABAgQIECBAgAABAgQIrImAREmiRIAAAQIECBAgQIAAAQIECBAgUE1AolTNa02CRrtJgAABAgQIECBAgAABAgQIEJgiIFGSKBEgQIAAAQIECBAgQIAAAQIECFQTkChV85oSznmIAAECBAgQIECAAAECBAgQILAmAhIliRIBAgQIECBAgAABAgQIECBAgEA1AYlSNa81CRrtJgECBAgQIECAAAECBAgQIEBgioBESaJEgAABAgQIECBAgAABAgQIECBQTUCiVM1rSjjnIQIECBAgQIAAAQIECBAgQIDAmghIlCRKBAgQIECAAAECBAgQIECAAAEC1QQkStW81iRotJsECBAgQIAAAQIECBAgQIAAgSkCEiWJEgECBAgQIECAAAECBAgQIECAQDUBiVI1rynhnIcIECBAgAABAgQIECBAgAABAmsiIFGSKBEgQIAAAQIECBAgQIAAAQIECFQTkChV81qToNFuEiBAgAABAgQIECBAgAABAgSmCEiUJEoECBAgQIAAAQIECBAgQIAAAQLVBCRK1bymhHMeIkCAAAECBAgQIECAAAECBAisiYBESaJEgAABAgQIECBAgAABAgQIECBQTUCiVM1rTYJGu0mAAAECBAgQIECAAAECBAgQmCIgUZIoESBAgAABAgQIECBAgAABAgQIVBOQKFXzmhLOeYgAAQIECBAgQIAAAQIECBAgsCYCEiWJEgECBAgQIECAAAECBAgQIECAQDUBiVI1rzUJGu0mAQIECBAgQIAAAQIECBAgQGCKgERJokSAAAECBAgQIECAAAECBAgQIFBNQKJUzWtKOOchAgQIECBAgAABAgQIECBAgMCaCEiUJEoECBAgQIAAAQIECBAgQIAAAQLVBCRK1bzWJGi0mwQIECBAgAABAgQIECBAgACBKQISJYkSAQIECBAgQIAAAQIECBAgQIBANQGJUjWvKeGchwgQIECAAAECBAgQIECAAAECayIgUZIoESBAgAABAgQIECBAgAABAgQIVBOQKFXzWpOg0W4SIECAAAECBAgQIECAAAECBKYISJQkSgQIECBAgAABAgQIECBAgAABAtUEJErVvKaEcx4iQIAAAQIECBAgQIAAAQIECKyJgERJokSAAAECBAgQIECAAAECBAgQIFBNQKJUzWtNgka7SYAAAQIECBAgQIAAAQIECBCYIiBRkigRIECAAAECBAgQIECAAAECBAhUE5AoVfOaEs55iAABAgQIECBAgAABAgQIECCwJgISJYkSAQIECBAgQIAAAQIECBAgQIBANQGJUjWvNQka7SYBAgQIECBAgAABAgQIECBAYIqAREmiRIAAAQIECBAgQIAAAQIECBAgUE1AolTNa0o45yECBAgQIECAAAECBAgQIECAwJoISJQkSgQIECBAgAABAgQIECBAgAABAtUEJErVvNYkaLSbBAgQIECAAAECBAgQIECAAIEpAhIliRIBAgQIECBAgAABAgQIECBAgEA1AYlSNa8p4ZyHCBAgQIAAAQIECBAgQIAAAQJrIiBRkigRIECAAAECBAgQIECAAAECBAhUE5AoVfNak6DRbhIgQIAAAQIECBAgQIAAAQIEpghIlCRKBAgQIECAAAECBAgQIECAAAEC1QQkStW8poRzHiJAgAABAgQIECBAgAABAgQIrImAREmiRIAAAQIECBAgQIAAAQIECBAgUE1AolTNa02CRrtJgAABAgQIECBAgAABAgQIEJgiIFGSKBEgQIAAAQIECBAgQIAAAQIECFQTkChV85oSznmIAAECBAgQIECAAAECBAgQILAmAhIliRIBAgQIECBAgAABAgQIECBAgEA1AYlSNa81CRrtJgECBAgQIECAAAECBAgQIEBgioBESaJEgAABAgQIECBAgAABAgQIECBQTUCiVM1rSjjnIQIECBAgQIAAAQIECBAgQIDAmghIlCRKBAgQIECAAAECBAgQIECAAAEC1QQkStW81iRotJsECBAgQIAAAQIECBAgQIAAgSkCEiWJEgECBAgQIECAAAECBAgQIECAQDUBiVI1rynhnIcIECBAgAABAgQIECBAgAABAmsiIFGSKBEgQIAAAQIECBAgQIAAAQIECFQTkChV81qToNFuEiBAgAABAgQIECBAgAABAgSmCEiUJEoECBAgQIAAAQIECBAgQIAAAQLVBCRK1bymhHMeIkCAAAECBAgQIECAAAECBAisicD/B9CCYzx5Wzm+AAAAAElFTkSuQmCC;" vertex="1" parent="1">
          <mxGeometry x="410" y="-90" width="664.17" height="300" as="geometry" />
        </mxCell>
        <mxCell id="y77ZhqmCZSWafk2qcw_b-2" value="" style="shape=image;verticalLabelPosition=bottom;labelBackgroundColor=default;verticalAlign=top;aspect=fixed;imageAspect=0;image=data:image/png,iVBORw0KGgoAAAANSUhEUgAABCEAAAKBCAIAAADm3CZ9AAAgAElEQVR4Aezdz28UV7r4//mTbFkiQjJiYYRExAJYgFhAFiAWaBbAxmIBbMyGsMAgITG6DJm5bd0IUCJbMzdc3RtzFbmlrwZ0IxNl5NH9XHsmwQbTwQ7NjNKxnamvqurUqXOqq3+5nzpdVf2OoqS7XfXUOa86T/V5uqq6f+UJ/fPPf3r/9Dz/v/8UikgYBBBAAAEEEEAAAQQQyFIgnL2H03jB7fxqe2enh3+3d7aDf7e2t/1/t7a3trZ+3tr6+eetxs8/Nxo//9Ro/PRTQ7B9hEIAAQQQQAABBBBAAIGMBH76qfFTo9Fo/Nz4+eeff/Yn9sE/wVR/ezuc+fv/7alk2Nn51bv6++7//fFd/cd39c0f65ub7zY3321s/vjD280fftio/fB2/c0P6+u1V6/X116t++3hHwQQQAABBBBAAAEEEMi3wNqr9Vev19fXa+tvfqj98PaHHzZ+eLu5sfljONvf/NGf/P/4rt59vRAu+au3Gz92/69fUbzdrP2w8ab29k3NrytevX6z9mp9de319y/Xvvt+9a9/+37lr9+p+of/IYAAAggggAACCCCAQI4FVv763V//9v13369+/3Jtde11UHK8WX/zQzjbrwUlxw9vN7uvF8IlqTFyvM9pGgIIIIAAAggggAACWQpkVWNs+Jc8dftvWJeEpzLCsxmv/euj/FMZL1dfff9y7W/fvfzr377P9xkhWocAAggggAACCCCAAAK+wF//9v3fvnv5/cu1l6uvwpMYr9drb2pva/7dEP51U+H8v/t6IVzyV/7NFV3/G67zdiO4DSO4aGr9zQ9hmbG69vrl6qvvvl/923cvd/gHAQQQQAABBBBAAAEEci/wt+9efvf96svVV6trr1+9fvNa3ZjhVxdhgRHO/7uvF8IlqTFyv+dpIAIIIIAAAggggAAC2QhkVWP8+O599/+GdcnG5jt90VR45/fr9Zp55/cv/IMAAggggAACCCCAAAK5FzDv9g5PYrypvTUvkQrn/93XC+GSv+ppBWqM3I8TGogAAggggAACCCCAQLcCWdUY7+p/7/7fsCDZ/LGub8wI7/zWX2Ib3vn9T/5BAAEEEEAAAQQQQACB3AuYd3uHX1lb+2Hj7caP+jaMcP7ffb0QLvmrnlagxsj9OKGBCCCAAAIIIIAAAgh0K5BVjVF//4/u/w0Lkh/fvdcXTemf5DO/XSqjnzonLAIIIIAAAggggAACCAgKmN8oFX5lbfA73+/0bRjh/L/7eiFc8lc9rUCNIbhHCYUAAggggAACCCCAwGAFqDEG68/WEUAAAQQQQAABBBAomwA1Rtn2KP1BAAEEEEAAAQQQQGCwAtQYg/Vn6wgggAACORFYmb14bHx0bGR0//GPq/WcNIpmIIAAAsUUoMYo5n6j1QgggEBPAo368rPH05PnjpydWe1pxaFZeHHq4IhfYKh/j1dwGpp9T0cRQCADAWqMDFAJiQACCLQXaKwsVG5eOH14/IN4Ujt+4PCpizcr1ZV6o/3KPf919dFHeuo8coIaIxVwtXIi3hc+12Q1dTleRAABBBDoRoAaoxsllkEAAQSEBBqr81PH9kQflsdTf+MV8U/QVysn4w1RY7TYk4nzGIeml1osyMsIIIAAAp0FqDE6G7EEAgggICNQr145YH9YbpQWugygxpDR7jnKyheTJ7kfo2c2VkAAAQTSBKgx0lR4DQEEEJAXWElejZNWYIyMjlFjyNsTEQEEEEDArQA1hltvtoYAAsMqkLgUZ2R075HJmYVlffNFo15bXao+nr740ZlHwncbc63UsA46+o0AAggMTIAaY2D0bBgBBIZIoDZ3xjprcXByvvsvR23Ul59/Ubk5efbYoQ/3G/dy7B3/8NiZqzMLy003ia/OHLc21+ECrdZnThq1pbkbZ49N7Isi7Dt45Oy1SnW1aZP2zmysLlSunTl6MLj0KFq3uUlp91XXl+amL3506MD+6OKxveMffnRhem6p1mKbZmfV3SaN1fmbZ45GVvuOnfl4bjnFuzrZ3KTolbSm2X0MnjVqS7MfnzsSt3b/xNFzV7oAqi3N+V/zZe7QfQcPnb50o/K0ZU9Tts9LCCCAQE4FqDFyumNoFgIIlEnAOpMwOtbb/cTVy9Fsu+VkfWLySc30Mqfd0aS5TZD0GqNevXF0b6u19hy9uZAya/cbUa/ePGJ8X1arCP7riYl82y36Z35Sf7bC7KxfY6xUTqc1+8Dlpgb3WWPUFz5uffv+B8dutPqNjdrTqdawAdflBXNv8hgBBBAooAA1RgF3Gk1GAIGCCdRmz5rlwaUvWnwin96tLmqMkdGxiakX8ermtHt3NUa9Otnx9vSUWbvnLV6f6GKLqvAwa4zlufMdtzg6NjHZNHM3O3v05o2LJrX9+OycVYl5/dQY9YVJ6/c00kqpg82N9bqBHaXGiMcyjxBAoKAC1BgF3XE0GwEECiRgz2WTM91OHemuxhgZNUoXc9rdxYy/6TxG049FtAgycbVql0u1h6fjaf3E+Zln6gKnxnL15qn45MbJph+4W7mf+HmKFlscGR07M2tXCj10NrFde7/YWzTLn+Y9lDgxlVZgBA4Hri3YQEvTh1suHDeAGqOZnFcQQKBgAtQYBdthNBcBBIonkJgEX+3xx92q18f9y/SfLCyt1vQt4l6jvvq8ct76KP1Ki8DWhLiL38dozF8y58FmqVBbemyf3zhnTfjNnn54O/EDE2bYcfOsi+fVZs+ZWxw5em02uimhUV9J/qJIIrK50WiafuTq0+B2+kZt/rJ5XiVZn1iDySo52tUYjacXog35zT7w64qupWpLD+3zG/YWreJt4upT8x6T8K7/h9OXTu27zrVS1p7hCQIIFFCAGqOAO40mI4BAsQTsSXDTSYN+OvN8St+NPTrWalrcY41hX9l18Unytov6E3OGfeGJ8UG92dPm1rT8q3X2YyTtEqzl3xo/Izh62Pp9PDNsMPU/XlkxTBtfGFdPtcXvtsawK6JLXzQBmVscuWgBWd9ffODSbKeb542O8BABBBAokgA1RpH2Fm1FAIFCCtiT4LbT3F77Z30u3jyrD8P1WGM8Nb5taf/UYnOTrI1a96+bPT392L6kyas/MU6PmCdzGlbRcupRYr2gAfYy1skBc6NpN2wsTMaXbyXvMrc6122NMW8ETJyQSQG3z7o0Xys1fuJyZX5pNT5DZbWJJwgggEBBBagxCrrjaDYCCBRHwJ4Ep85KO3fG/5LU2/7X18Zfk2pMnYPP72VqDLu11iVM5gVC+rG11aXpD+NWRRcseV6jvjx/7YheZXTswnyLsx+jx+4vp2Ks3D8aR7bqNLvBVnNSI7V8scsawyqxOvskbuBufc/3nn3BV/Qmz4q0bC5/QAABBPIsQI2R571D2xBAoBQCiR/H6PWeb6++WPm1eVNBq3ltq+l1b+cx7Cl7q23Fr9tbbVSvdW7qiRmrjrC2mLgtWw8Aa2Zf4BrD/3LfF4kbaWJMvwxr8RW9WoIHCCCAQBEEqDGKsJdoIwIIFFvghXnXxMjoJfND/E496+Y7UtUH/PZsPw6caY1x5LfmzQ+eZxUM8ZkHPY3ec/r2YuKjemuVVucxrDMkRaoxjj6wCqpotzRqS/P+zxTqnxq0rJq+sCtajf8jgAACBRGgxijIjqKZCCBQYAHrtuOR0TFrity+X8+uGz+VvffI1Jx95b716X4GNUarGX+rRsftmTh/7crZY+PR99Xu2Xf41MXb+tuirPWtGmPMuolcL1d7fMq41GpyXv8hWdW0QjBWaPVwN9dKJUusVrHbvO5XGzOTyV/lM76JuM26/AkBBBDIqwA1Rl73DO1CAIESCZhf2xp8on9yOvlhfnpvrVuEm792tl69Ytz/0Gp6bZ3HMH9GI32b1lmXlN+8S18reDX+KY9WlzylrmxtccS+STpYIXEyp/UX5rb+cq3UDdsvdlljeItTxsmHtG/BssN2+axhf3dWT4BdboLFEEAAAXcC1BjurNkSAggMscCLqeSPWO89MvX4WfAjDgFLo15befZk5srZY2eMH6hbuGpeQnNy2vgdhtmPzyXufGhVY9jftTo2cXEu2myjvro0+/G5C49WzV3zzJxDj47tOXr94bOV+HuPGvVabeXZ/OPpix+NT1k/yWFWRBPnby8s18J/4nXNzRiPrVn76Jj1+xi1pdmrx/SlVv6Di0+NG8bdn8fwPOvk0tjIB8emHj2PSD3/DvdabfnZ07RfulitnD12ZvL2w/nnyzXjx078dVaffWx+Py81hjE+eIgAAgUUoMYo4E6jyQggUECBrm6GDi4HMq+kSpQH1lTbuHYofL1VjeEtmhdcmUWLemxu0adN3KTetKG4GfYmzRojXsZaff/E6UvTs0uJOzJ62OJo0+TbvtTKblG7gWKf3klhMbtgh7V/QsTqYCJO4he742vJzOApj/ddf9au7fwNAQQQyLsANUbe9xDtQwCB0ggsz3b19VDWjL/76X67y4SsG6abZ7TWFgPuetX6eezmVdQr9tS74w3fcZwD1+btOmO1K5yDk1V7NW/35zH6qDE8r/VX0MZ99GuP3dUYad0sTRrQEQQQGA4Baozh2M/0EgEE8iFQX5w5n7xoKvHJd/KO8DbT/T1Hby7MXtaT2sSE3+rx8lyb7TbXGP43rC7ePhXdsa03kXzQtMl69fqhdp/rG51tur2kNn/9SJstfnDsRnOBMagaI/gK2unTe5Mgyb73XmN8cGxqPu1XCK3dyRMEEEAg7wLUGHnfQ7QPAQRKJ9CoLc1NT5478uH+PXpK+sH+Q0fPTX48M79Us242CDrfWK1WJj+a2Kcm6NZ3NC0/0L9t1zTht+Uaqwv+l6Uetr/r6WalatxrYa/heY3lqn+LyKF98WR6z77Dh05fuvLxzBfmTRpqxZXZ8wc7Tbt1mZH2I+KN1WePbl84HTdyZN/BQ6mXV+mmDuBaKb1tH6hytWlXfvjRhas3K0/MmzSiVYJvkbrh732jj6Nje/YdPnL2WiV190er8n8EEECgQALUGAXaWTQVAQQQyLOA/e1PJx4s29VSo76yYN3WnDxjk+e+0TYEEEAAgZ4EqDF64mJhBBBAAIEWAtb5hI8epl/vY30/bPpPYbQIz8sIIIAAAgUSoMYo0M6iqQgggECOBeIfxxgbafUrHMsPjuvLw0YPTy/luDs0DQEEEECgDwFqjD7wWBUBBBBAQAss3Tbv9g5/H0P/MkbwSxw3T5n3u5+dSz/VoQPyAAEEEECgsALUGIXddTQcAQQQyJdA1z/+MDo2Ivbz2PkioDUIIIAAAqEANQYjAQEEEEBASKD+otL5e6X2Hro4s9j0KxdCLSAMAggggEAuBKgxcrEbaAQCCCBQGoHG8vOH05fPHD2sv2zX/zbb4Ctob1Sepn03b2m6TkcQQAABBJQANQZDAQEEEEAAAQQQQAABBCQFqDEkNYmFAAIIIIAAAggggAAC1BiMAQQQQAABBBBAAAEEEJAUoMaQ1CQWAggggAACCCCAAAIIUGMwBhBAAAEEEEAAAQQQQEBSgBpDUpNYCCCAAAIIIIAAAgggQI3BGEAAAQQQQAABBBBAAAFJAWoMSU1iIYAAAggggAACCCCAADUGYwABBBBAAAEEEEAAAQQkBagxJDWJhQACCCCAAAIIIIAAAtQYjAEEEEAAAQQQQAABBBCQFKDGkNQkFgIIIIAAAggggAACCFBjMAYQQAABBBBAAAEEEEBAUoAaQ1KTWAgggAACCCCAAAIIIECNwRhAAAEEEEAAAQQQQAABSQFqDElNYiGAAAIIIIAAAggggAA1BmMAAQQQQAABBBBAAAEEJAWoMSQ1iYUAAggggAACCCCAAALUGIwBBBBAAAEEEEAAAQQQkBSgxpDUJBYCCCCAAAIIIIAAAghQYzAGEEAAAQQQQAABBBBAQFKAGkNSk1gIIIAAAggggAACCCBAjcEYQAABBBBAAAEEEEAAAUkBagxJTWIhgAACCCCAAAIIIIAANQZjAAEEEEAAAQQQQAABBCQFqDEkNYmFAAIIIDDsAo2lz+/du3Vn5r9fDbsE/UcAgWEWoMYY5r1P3xFAoPwCa/Mzt+7ci/6d+ZKJb9b7/Ju5UPv+/OusN0V8BBBAILcC1Bi53TU0DAEEii2w+Jme2Tc9+OzbHvr2bunzTx78brcTVokaY/vN109+d/9fVKFy98H92Rdvtnvogcyi/TnItKGbKOF5jLuPFyjnuuFiGQQQKKkANUZJdyzdQgCBQQuI1Rivvrp/517/H4oHxcZuzmPYVUpUL33y1ZpjYSEHx61mcwgggMBwClBjDOd+p9cIIOBS4PWXn9y7tetJudDcerc1xv/O3b136+7nf3r5j/DURWPjf//9E/9+A9eXXQk5uNzxbAsBBBAYWgFqjKHd9XQcAQScCbSrMd79X/XRJ+oypDv3Zh59tfJ31a5grfhWiugEgv/K3GLc9vr3z+MLmewI8UKe5+22xlj6/M69W/9afWsE+39/eHDrzqcL74yXOj+0Lri688kfFzfMddr0oksHb/vNi8+15Cdz//1/dXMDnue9+7+vPtVXfGlY47q11vvCjxQA+vLv/vxfv/Pv6r536+7M3J/jrdgnfNJrsI6N3H7zYu5ff38nbN7dmc+/rrm/Ki3hxlMEEEBgFwLUGLtAYxUEEECgJ4GWNcbfv5lTs0k95b1z785n3wZlRndz6+gO4+iubn/u+7vqZnP7dltjeEt/8EugO588+Z+X/2g0Xn/7n4/v3Ll3Z3ap0byNlq/8Y3H2gdlC/7Exuffa9aI7h+Ash72Jf3n0zT90ixp//mMztdmMtvvCDxMAPp57Yt5Df+/WnU//OyqWOtcYnRrppSyQXqvofvEAAQQQyKcANUY+9wutQgCBMgm0qDEaLz71S4vff/7162C+vv32L19V7vqv/MdLo/vtrxH683/97g9fr2yEE/7tt3/5r/t3/Ouy3hgBwoe7rjE87x9Lf/i9MX1/UJlf6ekcRiMspe4+/vIvm0FDG2//+vXn/7kUt7GbXrRzCOuQmX9X8SPJ+0+/V9uoL/zrvVt3Hnz+zaZ/WmB7cykoFeJirIt9oUuI38y+WPO7sf39f/r1xv35WtyR4FEL6o6NDMuYB3N/1pelffen2Tm+AzfBy1MEECiEADVGIXYTjUQAgUILpNcYjeeP/XMOX1nnHBpffx5MW42vPW03t25mSd9W9DH8Lj8Uf/vNH39jnGm5+/DrXr5XqvGnf/Pv3/iPHr5nKa0XbRyCPyUk1/7z9/5NI6rYCq74sm6J+faRcS6lm30R1hjWzfctmpReY3RupPeu+umtO/d+M5Cv7WoeSryCAAII9CFAjdEHHqsigAACXQmkzZhb3SDx7v/7nTH39cO3mMhGW67/v6/m7t+Lvlg2rASsybRaMH3iG0Vp8/9wbn3r3ud/etN4939fVcJbEdI20SLId/9+r+Mt7130oo1D2qVWwYmXf5n7S9iomn/b/Z2Zub9Y5zHuPvku/HM6jr0v0pdJ63P6kp0b6Xne64V/U7vy7r/+8cuvV3s6X5TWFl5DAAEEBiNAjTEYd7aKAALDJNB7jTFrXEfUZm7t/WPxM7u6EK8xwnn23c8Xo1vRve2Vufv3bt3R0/eOezL4Zqp2NUl3vWjj0MX0vfHN5033Y3y6YN1K0XSSJ+x7tC/SK4e03qcv2UUjw2CNV0tfzn76G/+quUF8f1daj3gNAQQQ6FWAGqNXMZZHAAEEehVIrzHCC2MSV/j8PbyAqhp/W1F4HuPOH/43ZatRAfCnV+H9GP4H4a2+Jzd94psS1H4pmBknth6E6v4nO8JzCI//pKsUewtel70IaoxES1Skv/7X3Tv3Ks81QmIDnudt+vdj3P39ffW9Uv/ym399Yn6xVTf7onvA9CU7NzLR7O233/zx7p17t/7t6zYdS6zDUwQQQCAnAtQYOdkRNAMBBEos0GLev1H1L4u6Y96p/NS/Y/tO/Pm6j9L4uuJ/TerjhbiQiKyCafetT56uBJPQxsZ3f/rDp/6sNO2kQfrEN4rU8v/BzPjWvbn/Sf4+RvfnMbzv/Vsj7t26/8coyLZ1z3eXvWjj4P3v5/6PeDz+jz+v/j31q17f+L9j+JsnK+/e1dMX6GJfdA/YYslOjfS8b598Ovf8uzdRExsbX396N/0O/pb7iz8ggAAC+RCgxsjHfqAVCCBQZoEWNYa6JcP84Qv/sXVXsc8SfAYfXgSl/qt/H2PF/4E860/B07jGCDbdvID1Cxvt6Zu3nthE+9XDv6Y1I/7u2o69CIM0t0Q7eKnfPBvXWupro2yru7//dF7/Gkn4nU72Ava+aFE56O6n9dGX77qRnpf62/Dxl1/pTfEAAQQQyL0ANUbudxENRACBwgu0rDE8L/HLdCm/HOf3/u8r//3ZjHE7QTxt9Ta+jX947v7n//Hn2v98Zp7H6Dzx7UI3uCE7KmbCn/nr+V7k7dr//EHfY5C8VKlTL6I2tnHwf2Kv+uiTB4aS6RCVEHcf3I06EtZmRkXXYV/0X2MEvwPYrpHeO39HRy38l7tpvyQYWfB/BBBAINcC1Bi53j00DgEEEEBAQOAvT+7cuXf/P1fNC6kaf3kSXlfW/FsiAlskBAIIIDDcAtQYw73/6T0CCCAwBALBKYh79//wv/pWh+2/18Kf4Uu/iXwITOgiAgggkKkANUamvARHAAEEEBi8QOPPf7SuodI3qNz9/H+ir68dfCtpAQIIIFAiAWqMEu1MuoIAAggg0EIgebfG3d//7g9ff9/zbSUtovMyAggggIAtQI1he/AMAQQQQAABBBBAAAEE+hOgxujPj7URQAABBBBAAAEEEEDAFqDGsD14hgACCCCAAAIIIIAAAv0JUGP058faCCCAAAIIIIAAAgggYAtQY9gePEMAAQQQQAABBBBAAIH+BKgx+vNjbQQQQAABBBBAAAEEELAFqDFsD54hgAACCCCAAAIIIIBAfwLUGP35sTYCCCCAAAIIIIAAAgjYAtQYtgfPEEAAAQQQQAABBBBAoD8Baoz+/FgbAQQQQAABBBBAAAEEbAFqDNuDZwgggAACCCCAAAIIINCfADVGf36sjQACCCCAAAIIIIAAArYANYbtwTMEEEAAAQQQQAABBBDoT4Aaoz8/1kYAAQQQQAABBBBAAAFbgBrD9uAZAggggAACCCCAAAII9CdAjdGfH2sjgAACCCCAAAIIIICALUCNYXvwDAEEEEAAAQQQQAABBPoToMboz4+1EUAAAQQQQAABBBBAwBagxrA9eIYAAggggAACCCCAAAL9CVBj9OfH2ggggAACCCCAAAIIIGALUGPYHjxDAAEEEEAAAQQQQACB/gSoMfrzY20EEEAAAQQQQAABBBCwBagxbA+eIYAAAggggAACCCCAQH8C1Bj9+bE2AggggAACCCCAAAII2ALUGLYHzxBAAAEEEEAAAQQQQKA/AWqM/vxYGwEEEEAAAQQQQAABBGwBagzbg2cIIIAAAggggAACCCDQnwA1Rn9+rI0AAggggAACCCCAAAK2ADWG7cEzBBBAAAEEEEAAAQQQ6E+AGqM/P9ZGAAEEEEAAAQQQQAABW4Aaw/bgGQIIIIAAAggggAACCPQnQI3Rnx9rI4AAAggggAACCCCAgC1AjWF78AwBBBBAAAEEEEAAAQT6E6DG6M+PtRFAAAEEEEAAAQQQQMAWoMawPXiGAAIIIIAAAggggAAC/QlQY/Tnx9oIIIAAAggggAACCCBgC1Bj2B48QwABBBBAAAEEEEAAgf4EqDH682NtBBBAAAEEEEAAAQQQsAWoMWwPniGAAAIIIIAAAggggEB/AtQY/fmxNgIIIIAAAggggAACCNgC1Bi2B88QQAABBBBAAAEEEECgPwFqjP78WBsBBBBAAAEEEEAAAQRsAWoM24NnCCCAAAIIIIAAAggg0J8ANUZ/fqyNAAIIIIAAAggggAACtgA1hu3BMwQQQAABBBBAAAEEEOhPgBqjPz/WRgABBBBAAAEEEEAAAVuAGkN51Db+wb8IIIAAAggggAACCAyDgF0RyD+jxpA3JSICCCCAAAIIIIAAAsMsQI0xzHufviOAAAIIIIAAAgggIC9AjSFvSkQEEEAAAQQQQAABBIZZgBpjmPc+fUcAAQQQQAABBBBAQF6AGkPelIgIIIAAAggggAACCAyzADXGMO99+o4AAggggAACCCCAgLwANYa8KRERQAABBBBAAAEEEBhmAWqMYd779B0BBBBAAAEEEEAAAXkBagx5UyIigAACCCCAAAIIIDDMAtQYw7z36TsCCCCAAAIIIIAAAvIC1BjypkREAAEEEEAAAQQQQGCYBagxhnnv03cEEEAAAQQQQAABBOQFqDHkTYmIAAIIIIAAAggggMAwC1BjDPPep+8IIIAAAggggAACCMgLUGPImxIRAQQQQAABBBBAAIFhFqDGGOa9T98RQAABBBBAAAEEEJAXoMaQNyUiAggggAACCCCAAALDLECNMcx7n74jgAACCCCAAAIIICAvQI0hb0pEBBBAAAEEEEAAAQSGWYAaY5j3Pn1HAAEEEEAAAQQQQEBegBpD3pSICCCAAAIIIIAAAggMswA1xjDvffqOAAIIIIAAAggggIC8ADWGvCkREUAAAQQQQAABBBAYZgFqjGHe+/QdAQQQQAABBBBAAAF5AWoMeVMiIoAAAggggAACCCAwzALUGMO89+k7AggggAACCCCAAALyAtQY8qZERAABBBBAAAEEEEBgmAWoMYZ579N3BBBAAAEEEEAAAQTkBagx5E2JiAACCCCAAAIIIIDAMAtQYwzz3qfvCCCAAAIIIIAAAgjIC1BjyJsSEQEEEEAAAQQQQACBYRagxhjmvU/fEUAAAQQQQAABBBCQF6DGkDclIgIIIIAAAggggAACwyxAjTHMe5++I4AAAggggAACCCAgL0CNIW9KRAQQQAABBBBAABFLzYkAACAASURBVAEEhlmAGmOY9z59RwABBBBAAAEEEEBAXoAaQ96UiAgggAACCCCAAAIIDLMANcYw7336jgACCCCAAAIIIICAvAA1hrwpERFAAAEEEEAAAQQQGGYBaoxh3vv0HQEEEEAAAQQQQAABeQFqDHlTIiKAAAIIIIAAAgggMMwC1BjDvPfpOwIIIIAAAggggAAC8gLUGPKmREQAAQQQQAABBBBAYJgFqDGGee/TdwQQQAABBBBAAAEE5AWoMeRNiYgAAggggAACCCCAwDALUGMM896n7wgggAACCCCAAAIIyAtQY8ibEhEBBBBAAAEEEEAAgWEWoMYY5r1P3xFAAAEEEEAAAQQQkBegxpA3JSICCCCAAAIIIIAAAsMsQI0xzHufviOAAAIIIIAAAgggIC9AjWGZbm3vvN18v7a+8fLVW/5FAAFxgbX1jY3N99vbO1biyT0hhcV3GQER0ALkr6bgAQJFFMg6hRNv5tQYMcjPW9uv3mz+1Nja2fklfpVHCCAgJ7Cz80vj56219Y2t7W25qCoSKSxOSkAETAHy19TgMQKFE8g0hZs1qDGUydb2zqv1jWYgXkEAgSwEXq1vyp7NIIWz2E3ERCBVgPxNZeFFBIoiIJ7CqR2nxlAsbzffN37eSjXiRQQQEBf4qbG1sfleMCwpLIhJKATaC5C/7X34KwI5FxBP4dT+UmMolrX1DS6RSh0ivIhAFgI7O7+siZ45JIWz2E3ERCBVgPxNZeFFBIoiIJ7CqR2nxlAsL1+9TQXiRQQQyEhANulko2XUZcIiUBoB2YyTjVYaZDqCQHYCDpKOGkPtPgfW2Q0UIiNQRAHZpJONVkRP2oyASwHZjJON5tKBbSFQUAEHSUeNocaGA+uCjkKajUBGArJJJxstoy4TFoHSCMhmnGy00iDTEQSyE3CQdNQYavc5sM5uoBAZgSIKyCadbLQietJmBFwKyGacbDSXDmwLgYIKOEg6agw1NhxYF3QU0mwEMhKQTTrZaBl1mbAIlEZANuNko5UGmY4gkJ2Ag6SjxlC7z4F1dgOFyAgUUUA26WSjFdGTNiPgUkA242SjuXRgWwgUVMBB0lFjqLHhwLqgo5BmI5CRgGzSyUbLqMuERaA0ArIZJxutNMh0BIHsBBwkHTWG2n0OrLMbKERGoIgCskknG62InrQZAZcCshknG82lA9tCoKACDpKOGkONDQfWBR2FNBuBjARkk042WkZdJiwCpRGQzTjZaKVBpiMIZCfgIOmoMdTuc2Cd3UAhMgJFFJBNOtloRfSkzQi4FJDNONloLh3YFgIFFXCQdNQYamw4sC7oKKTZCGQkIJt0stEy6jJhESiNgGzGyUYrDTIdQSA7AQdJR42hdp8D6+wGCpERKKKAbNLJRiuiJ21GwKWAbMbJRnPpwLYQKKiAg6SjxlBjw4F1QUchzUYgIwHZpJONllGXCYtAaQRkM042WmmQ6QgC2Qk4SDpqDLX7HFhnN1CIjEARBWSTTjZaET1pMwIuBWQzTjaaSwe2hUBBBRwkHTWGGhsOrAs6Cmk2AhkJyCadbLSMukxYBEojIJtxstFKg0xHEMhOwEHSUWOo3efAOruBQmQEiiggm3Sy0YroSZsRcCkgm3Gy0Vw6sC0ECirgIOmoMdTYcGBd0FFIsxHISEA26WSjZdRlwiJQGgHZjJONVhpkOoJAdgIOko4aQ+0+B9bZDRQiI1BEAdmkk41WRE/ajIBLAdmMk43m0oFtIVBQAQdJR42hxoYD64KOQpqNQEYCskknGy2jLhMWgdIIyGacbLTSINMRBLITcJB01Bhq9zmwzm6gEBmBIgrIJp1stCJ60mYEXArIZpxsNJcObAuBggo4SDpqDDU2HFgXdBTSbAQyEpBNOtloGXWZsAiURkA242SjlQaZjiCQnYCDpKPGULvPgXV2A4XICBRRQDbpZKMV0ZM2I+BSQDbjZKO5dGBbCBRUwEHSUWOoseHAuqCjkGYjkJGAbNLJRsuoy4RFoDQCshknG600yHQEgewEHCQdNYbafQ6ssxsoREagiAKySScbrYietBkBlwKyGScbzaUD20KgoAIOko4aQ40NB9YFHYU0G4GMBGSTTjZaRl0mLAKlEZDNONlopUGmIwhkJ+Ag6agx1O5zYJ3dQCEyAkUUkE062WhF9KTNCLgUkM042WguHdgWAgUVcJB01BhqbDiwLugoLESzFybHRkb9fyerhWgvjfQFZJNONhp7CAEE2gvIZpxstPYtH76/Nlbnb545enA8eJcM3itPVlZ9htXKyfCtM/4vb6JDMz4cJB01hhpNDqyHZtxm0dFGbelp5eq5I/uuL6SFp8ZIU8n7a7JJJxst73ZD2r7GanXmytlj4x+EnynsHT967sqjF/Uh1Rhwt2UzTjbagGnytfnGwtTBuIRQZcZAa4zGyrNHty+cPngmLHRacq3MnvdbPn72wVKj5UL8YdcCDpKOGkPtHQfWux4HrOh51Ul1ZLxMjVGa8SCbdLLRSoNcqo6szhyPP4hVpy79ydOJmeVS9bMYnZHNONloxRB008ql24fCrDlwaXa59VS9elnVIdmfx9AnT463rzGeXd8T5Xv2jXKzM/K1FQdJR42hdrkD63wNroK1hhqjYDusm+bKJp1stG7azzKuBVYfT07OzC/VwolSo/Z8+oSqNC7Mt548uW7lsGxPNuNkow3LPuiin7XZc2Hx0GFCn8Maw1upnN3PeYwudvIuF3GQdNQYat84sN7lKGA1X6DbGuMK92MUZ8DIJp1stOIoDndL59WHrx3mT8ONlFHvZTNONlpGXS5iWH3SoMOpgDzWGEX0LlKbHSQdNYYaEA6sizT0+m2rKgnGp154tac3zh4LbzUbP3qpsqiunV6aPtzqw5Xo5oqDU4u6tDCui4hOnpp3eEernKws1xcrl47sC5bfd+xCJXmtdn3x8eRpfevb/onTlx9GTQo63bnl/dqwfiQgm3Sy0aI28v9WAo35iyorm+YutYenwz999LAW31RqlgFRwia+pKG++OjyqQP+J5cjo2N79h078/HT1bbnJ2qPPgoXvvCk7XKtOsHrfQjIZpxstD66NeBVo5Lg0hcNrzZ//dS+vf4I/2D/qcm5xIVO1nvZB/uPnL05n5YtUcBErjV1s1ON0VgN3srVrVDNb50qYGO1Wpn8aCJ8Cx7dO3700nRVNUu3JMzZ5H9PzAR3oZsfKaojzMiounsk2ejG6vzH546ERGlHDHWc2Xd90asFSwYB0yYGycjD8dxB0lFjqKHkwHo4Bm3Yy6g2OHGy6frpg1eqwWyg9vhUWC18eHvJpGk8vRC+fvpxLT59oY811gM9uYmmLIePn0je3GbMbOoLV5N/DQ9zxysrURPatLzFYS5ak//3KiCbdLLReu3LMC7/7Lr6mpqLT60Jvr5rInhdTyyMTPSihDXnPSuV08F0yvgQwU/PA9cW0u/pbtSe3T4VzngOXFuwWjCMe8N9n2UzTjaaew2pLUb5cmxysukbny4+0amwXPlI36tgTNYPXqmqRXSKGX813j31e6dud9sao169NpFITP/p3lPxW6cfqEWrWt9fbsbstcZYnlHpbwbxjxiX9REjQjh5PLqoUmuYhyNtMGwPHCQdNYYaVA6sh2n4RjN1P/mPTVX966fr85fVQcovHjzP05+DHp42igx98ah9gbUO2OGe75HRsSPh9paj20P9zzD8f3TkifMz4amLxvLchQPhYffgVLiQVdWoli9H3+7nn5bhHzkB2aSTjSbXyxJHWpr+MEyfS+bdENEpyv1Tz/y+R3OmMfNNPXrvj2uMRfXVNwcvzK4E9UJjqXJOnf+cem4grlbs6YJOZ2MZHroQkM042Wgu+p/NNnS+jIyOTVwMzl3Uq5PqfercbPDe6S1eD99M1QKe11iaOaPO3l8P0i4u4/Ws2nrQU41RmzsTzuNP3H4W3AzVqFWnVO775yrDfxq6Djnw60q4nNeoL1crk5cfRmcowiV1H81jQhqnTvbmD/heTCmTY1fC0zeN2rPpqCo7Oxc2Sh9n2kwM0rY7LK85SDpqDDWYHFgPy7D1+6lLgoOT0ccq/iT/bDgjiY4X0eegh+IiI7rKYp86UEZoOmCHGmMi3p4+PF2e96PE86Ev9GdBnudFbRi5Gt7JoTdktFx/Ljv5NGoP/xcQkE062WgC3RuCEPGlSnGRESVadH4ydT6h3/vVVEefvbSmPiv3jwZHjOhjgkBU53V4MPH/u+foTf3J5RCo56WLshknGy0vRr23Q+eL+W1pUb7sDz4L0x/PWe+Gy789FlQR4TLxhnVAK7fiv0ePWp/HiD41iN64wzWiW6HOqLoneu8ePXm/07e86SbtusZozF8KSyZj8uB/kBhdpamaGrmNtZ4YRN0fyv87SDpqDDWyHFgP0xjWM3XrILg4pa60ju7MTk5HvOhb9uwDh1m0WAE1qT6UGIdRPRcJDjf6k5joEw61buOJujRLnahNa7muMeKTuXrLPNi9gGzSyUbbfa+Gak1dG1yM7oeIUvjUI/XxZup8Ipmwi9FlV4nLHtTT9Kxv1JZmr4bzKv/ra+2PSodqNwyms7IZJxttMCISW9X5YryXJeK+mFJ3O8RltnmOIrFiFwGD+C1rDP3hYPrmVJ2QfCdNtNl6qpu06xojmkskC6qoHFInSJPHGb8V9sTAatfQPXGQdNQYalQ5sB6m8Zs2U/e86IOW+AKJ6HNQdaSIDhDx6dcILT1g9Nf4vLBxeLUPJbpOMJYIVo8iU2NoTVcPZJNONporg8Jv55n64MC/RTU4XRh+l0N89VTqfCL53q/nN73UGIFdffZ8OPU51vHT08Jb56wDshknGy1nVD00R+dL8p0qjhG9Z6UnS/z2Gq7RRcBgQZ2DyQ3rd9K2NUbLd9i43fqRbtKua4zoAGKfWjGuzAw7ES1mmujuJNfVzRueBw6SjhpDDScH1sMzcI1rpawPIOcnw4OUcQNG9DnouH/J9XP18UziFlIfTh9VrYCatPOhRB8BOY+h1Qb9QDbpZKMN2qY4249OXASXTKhPWIN0Vl1InU8kEzaa3xz5rf72hW4FolDJTzS7XZ/ldisgm3Gy0Xbbp8Gvp/MlOdWPmxa9Gx590OmiJH+dLgIGoaMcHEluWE/Kw6uO43ZYj/Q7bBdnFHWTdl9jXA3nEsmsjz6mHAuvlYgODtQY1r7STxwkHTWG0nZgrffrEDyIDoKjRknQqE6qM7zGi54Xfw46H14vYVQgsVR0ZbYZMP5rF+cxPH1+Of6ENbjxPHFZZ1rLezl6Go3iYQcB2aSTjdah6fw5FoiugT47V1OXPFkpnDKfiO9hjd77d59i0fWWo9HtsHHDeJStgGzGyUbLtudZRtf5kpzqxxvVk/6uPonvImAQumWN4S1EE/rJ8Dsh45aYj/Q7rJX+5hLx4+hejl3XGPobXOzLqvXRQL3LU2PE5mmPHCQdNYaCd2CdtovL+pqeqV/6ou5fQtGoPa+cV98bax8UPH0PhrqiVH3rVEJGXxK6/8JsyneAd3Mo0Z9wTJyfUV+OsfT4fOL7OlJPmOx+ApToBU8tAdmkk41mNZQnbQWi+y8vTU4GN1wlUljfa3HW/0K5xupc9CU5/ieR0URKJ/jYxORj/UPe9eXnDz8+d76ibrVYmDo59ej5cnBI8bxGfTU+qoy3nf60bT5/3KWAbMbJRttll3KwWjclgZ5hjxy4/DDOlpVnj26eOZ+8MambgH6/W9cY+musRj746EY1/No3P/2W5mcmj15fiND0hkY6fa+Up48JJ25aP08VhYr+37qaiq6AGBk9dmU+aFKjtjCl7s6aiL4BspuJQbStYfy/g6SjxlADy4H1MA1hXWMkr+CcOD/XdHo3+hw0uLrU/sra2Kz+RJ1wSL25rbtDyUriWy+jUPF3iqdflEWNEe8HyUeySScbTbKf5Y8VXeWYnsL6w8X4aHD8hPqWyajG8Lx69Yoq+OPFwgzVH3bqNI8yVy255/TttjOV8u+AgfRQNuNkow0ERGSjeqYep0ZK3Ja/9dT85QdtA+pJfDLp/BQzrnpq8cMXYyPWlQUrs9EniXaGNp9vSTkmxJvT1U7aDSeapV6Nvg3fXmzP6Rk9x9BHDL0W93ybo8lB0lFjKHAH1uauLftjXWPs3RP/LOil6dSfIfV/KSOqH5JfWWs51eZvnjm63/zhIX3g6PpQUl98dC0Osu/gqcmZBeu8iG65cUEXNYa1H8SeyCadbDSxTg5HIH2ScCQ1hesvKhePqR+7OHpp+llNf2iqU9h3aqwuVOLf+R7Zd/DI2WuV6HNTf4H60qz1s76HT128PRt9jjsc0jnqpWzGyUbLEVOPTWlbEpixGqvVmcnTB9XvYI7unzh67kqlmvgt8E73Y3RbYwTJN3fj7LFx9Ya+d/zDjy5MzzUlX9iqw9Fi/s+BV6Lf+TZb79VfPIx/DjyocHRJ012NERwwnk5fNH9T/NyN2SXzq+m7nhhYTRueJw6SjhpDDScH1sMzcNPPBrTuv64x9Pddtl6Wv5RHQDbpZKOVR5meIJCNgGzGyUbLpsdERaBUAg6SjhpDjRgH1qUamx06k3Y2oOUqK/fDH+7dd3kh+PrLlgvyh3IJyCadbLRySdMbBOQFZDNONpp8b4mIQOkEHCQdNYYaNQ6sSzc+23So6xqjsTp7Ud0LHv1caJuw/KlUArJJJxutVNB0BoEMBGQzTjZaBt0lJAJlE3CQdNQYatA4sC7b8GzXny5qDPuay4mrVfMyynax+VtZBGSTTjZaWYzpBwJZCchmnGy0rPpMXARKJOAg6agx1HhxYF2ikdmxKz3UGONHz91ocS94x82wQKEFZJNONlqhYWk8Ag4EZDNONpqD7rMJBIou4CDpqDHUIHFgXfThSPsRkBWQTTrZaLI9JRoC5ROQzTjZaOXTpkcIiAs4SDpqDLXXHFiLjw8CIlBoAdmkk41WaFgaj4ADAdmMk43moPtsAoGiCzhIOmoMNUgcWBd9ONJ+BGQFZJNONppsT4mGQPkEZDNONlr5tOkRAuICDpKOGkPtNQfW4uODgAgUWkA26WSjFRqWxiPgQEA242SjOeg+m0Cg6AIOko4aQw0SB9ZFH460HwFZAdmkk40m21OiIVA+AdmMk41WPm16hIC4gIOko8ZQe82Btfj4ICAChRaQTTrZaIWGpfEIOBCQzTjZaA66zyYQKLqAg6SjxlCDxIF10Ycj7UdAVkA26WSjyfaUaAiUT0A242SjlU+bHiEgLuAg6agx1F5zYC0+PgiIQKEFZJNONlqhYWk8Ag4EZDNONpqD7rMJBIou4CDpqDHUIHFgXfThSPsRkBWQTTrZaLI9JRoC5ROQzTjZaOXTpkcIiAs4SDpqDLXXHFiLjw8CIlBoAdmkk41WaFgaj4ADAdmMk43moPtsAoGiCzhIOmoMNUgcWBd9ONJ+BGQFZJNONppsT4mGQPkEZDNONlr5tOkRAuICDpKOGkPtNQfW4uODgAgUWkA26WSjFRqWxiPgQEA242SjOeg+m0Cg6AIOko4aQw0SB9ZFH460HwFZAdmkk40m21OiIVA+AdmMk41WPm16hIC4gIOko8ZQe82Btfj4ICAChRaQTTrZaIWGpfEIOBCQzTjZaA66zyYQKLqAg6SjxlCDxIF10YdjAdr/zdytO/duffLVWvdtffXV/Tv3/LV6XbH7TbBkCwHZpJON1qLJvJytwOJnfiben3/dw2bCrA9T+LNve1iRRfsTkM042Wj99Yy1dy3w+stP/BR+9E0PEcKsD9+Fe1qxh22waJqAg6SjxlDwDqzTdjGv9STw7aP2849d1BjR9v3DXE/FSbQi/9+1gGzSyUbbdadYsZ1AUNK3mUbspsZQ2wsmN9QY7fSF/yabcbLRhLtKOC3QIYV3U2Oo2B0i6xbwQEzAQdJRY6i95cBabFzkIpA/3Vcf//f4oUUfze9UY/QRmhqjD7xdriqbdLLRdtmlIq02iBTOcBpBjeF68MlmnGw01xYD256a0/d26q+f1maXwtlF7qe/pV7XQdJRY6gR5MC6RGPVn53oDyPX5md6PTe6WwpqjN3K5XI92aSTjZZLMMFGDSiFM5xGUGMIDo+uQslmnGy0rjpQ8IWCd96ZL7/xL/elxij4zhxM8x0kHTWG2rUOrAcziFxsNfhAtPurFMzrp+/MLcYtjGYJwUQkPEkSHjrDMkafNtEP4gOrGTO9JUEj1bkXc6Nq8y3PY7SNHF7aYTY17g2POgnIJp1stE5tL9nfe0thc9jfstLNj+NnpZE14YcR1ippp0DNBfTnF5ayEdPeaLhUdPSw1vGfmEeP+IihFjMPCzNfvmpamRdaC8hmnGy01q0uy1++mVMX9wZvl00Du0M3zXSzssnPMj8RjAXU26XxSnwJg/HxojqjErwbtkil9inc+gOIdilszBZuWdOJDgL82fM8B0lHjaFGmgPr8o7pXiYor766H09KwqOSnvHrg1R0hAoOScaEI5rBtKRsMc8ID23xdr99FD9WsfwDaNP9GOqDIjXzSHYzOObqxnuLn0XNbtk8/mAJyCadbDSroeV/khzbbXq8Nj8Tp2T4Bh9nUxDHLyFUXtgZ5HmtpxFqiy0WCOc38Xa/mYsfqzXTc99K0iC4MRtL9PrbR01HgDYO/Ek242SjDdHeSY7qzl1vl8K6DFBJHaSVmRctMjTeqh8h5a2wcwq3iNwuhRN9t2YXcYt41ErAQdJRYyh8B9atdnPhX0/keU/9saqIsMaIZ+2e508CEnMC42nzllLnGakvJtf1D2TmkdT/e2LrXvDprD56dhU2uRmeGwKySScbzWjmEDzsI4WtGUCQMlYeJeYNiafNtKkLpL6YXDctH5tWDGqe6AjT9NdkSJ63FZDNONlobRterj8Gw7jt22KH/lopHLwjm9GslPG6+JggtcboJtdSl2l60WpP6rY6dJc/xwIOko4aQ3E7sI53bKkeBW/taZ9bdNVL6wgShEpO9M0wTZN+84/+467mGcmVgucpNUbz8ctqbXQ2Of4QNzUwL7YUkE062WgtG13CP/SVwtZbflhjtMkIO4NSLNMWsDeRslLwUkrup6xoJXVwHsO4taxVaF5PFZDNONloqQ0u54tByphVQa/dtNLET5D4ZsuUUGkZai1mpZj6i7UJa2njSVrklBXN+MEqqadNjLg8bCngIOmoMZS+A+uW+7nAfwhnJ20PSU29Cz41aX1Bp3iNYR6SmhqjX2iuMYKjm9XO8L4L8yINc5l+jvK6GUP1QDbpZKMNzY7YRQqrqbm+LUpfGRWe+rMu7044pk0jrEXSFmjOTWsV9SSlxmg+1DRdLK663/R62hZ4zRaQzTjZaHZLS/0sSJke331ap3A2NUZXKdwq943bt6Jjjr6aQF1uEL0enaIs9Q4X7JyDpKPGUPvLgbXgyMhJqPAtvKejW7CKcYCwDivB+714jWFtoqVcykGwu+IkiKhmKj1RtGzK0PxBNulkow3JTug9hYPZiZGk9geNwV/zfB6j1X4NjhJ8INqKJ/V12YyTjZba4HK+GAzdXt562qZwNjWGfZRosR/S3qm7WjGMF7Tc+LyjxVZ42RBwkHTUGMrbgbWxZ8vwsPfZSfSRgzkFsQ4rHWuMYAFz9SRk6gKd5j1BkJQaw2pbcktNz1M33bQULxgCskknG81oZmkf7iaFm6Yg9iSgY675C7SbD6UmXdNG03ZJWgL6KxqfaKStFr+Wuun4zzxKCshmnGy0ZFtL/DwYt+1yKtH3pmyyUrjpr4m1U25TTCyRmnSdw7a40yM1WmKL+mlPC+u1hviBg6SjxlDjy4F1mUbybmYnfv+DeUD0nTP6Cy6jq4+CvxofkTaLBdttM2lIm2dEX15pHIW7/V6ptpuzv4Wm1wN9c9+G7xXZpJONVvq9scsUDsa5vhoqDGJ8dtixxrCPAM3K6RP9cC0j8bv9Xqm2m/tmzjgmhF9xa2yiuW28YgvIZpxsNLulpX7W61tP+xTuXAy0zSkv8c0oWr6LFG6X++kXQVlfkOWFd0imL6nbwQNTwEHSUWMocAfW5q4t9uPwINV0lWRUKrTvXDALCdf95Ks167ASHIba1hhRlaJuk9BThGiuY90+YbUnOHQ2X7UZfIRjrXXL/pw1uYDZPNvB2lx7A/4aCMgmnWy0ku8ie+hGedHdjVVGKt2ff219CNrxnm+f1TgCxHeXWi9G7bGmC1aOGyczrdejg5KZjMkFjHXt7LY2V/IBINE92YyTjSbRv3zHSE/h7orkNincucZokcKp7THfLlUNEL3bxmnYY+7fuac/4/ASMe3N5Xv/5aJ1DpKOGkPtaQfWuRhTNAKB3AjIJp1stNwg0RAEciogm3Gy0XJKRrMQyJOAg6SjxlA73IF1noYWbUFg8AKySScbbfA6tACBfAvIZpxstHzL0ToEciHgIOmoMdSedmCdizFFIxDIjYBs0slGyw0SDUEgpwKyGScbLadkNAuBPAk4SDpqDLXDHVjnaWjRFgQGLyCbdLLRBq9DCxDIt4BsxslGy7ccrUMgFwIOko4aQ+1pB9a5GFM0AoHcCMgmnWy03CDREARyKiCbcbLRckpGsxDIk4CDpKPGUDvcgXWehhZtQWDwArJJJxtt8Dq0AIF8C8hmnGy0fMvROgRyIeAg6agx1J52YJ2LMUUjEMiNgGzSyUbLDRINQSCnArIZJxstp2Q0C4E8CThIOmoMtcMdWOdpaNEWBAYvIJt0stEGr0MLEMi3gGzGyUbLtxytQyAXAg6SjhpD7WkH1rkYUzQCgdwIyCadbLTcINEQBHIqIJtxstFySkazEMiTgIOko8ZQO9yBdZ6GFm1BYPACskknG23wOrQAgXwLyGacbLR8y9E6BHIh4CDpqDHUnnZgnYsxRSMQyI2AbNLJRssNEg1BIKcCshknGy2nZDQLgTwJOEg6agy1wx1Y52lo0RYEBi8gm3Sy7AXI8wAAIABJREFU0QavQwsQyLeAbMbJRsu3HK1DIBcCDpKOGkPtaQfWuRhTNAKB3AjIJp1stNwg0RAEciogm3Gy0XJKRrMQyJOAg6SjxlA73IF1noYWbUFg8AKySScbbfA6tACBfAvIZpxstHzL0ToEciHgIOmoMdSedmCdizFFIxDIjYBs0slGyw0SDUEgpwKyGScbLadkNAuBPAk4SDpqDLXDHVjnaWjRFgQGLyCbdLLRBq9DCxDIt4BsxslGy7ccrUMgFwIOko4aQ+1pB9a5GFM0AoHcCMgmnWy03CDREARyKiCbcbLRckpGsxDIk4CDpKPGUDvcgXWehhZtQWDwArJJJxtt8Dq0AIF8C8hmnGy0fMvROgRyIeAg6agx1J52YJ2LMUUjEMiNgGzSyUbLDRINQSCnArIZJxstp2Q0C4E8CThIOmoMtcMdWOdpaNEWBAYvIJt0stEGr0MLEMi3gGzGyUbLtxytQyAXAg6SjhpD7WkH1rkYUzQCgdwIyCadbLTcINEQBHIqIJtxstFySkazEMiTgIOko8ZQO9yBdZ6GFm1BYPACskknG23wOrQAgXwLyGacbLR8y9E6BHIh4CDpqDHUnnZgnYsxRSMQyI2AbNLJRssNEg1BIKcCshknGy2nZDQLgTwJOEg6agy1wx1Y52lo0RYEBi8gm3Sy0QavQwsQyLeAbMbJRsu3HK1DIBcCDpKOGkPtaQfWuRhTNAKB3AjIJp1stNwg0RAEciogm3Gy0XJKRrMQyJOAg6SjxlA7fG19Y2fnlzztfdqCQJkFdnZ+WVvfEOwhKSyISSgE2guQv+19+CsCORcQT+HU/lJjKJa3m+9/amylGvEiAgiIC/zU2NrYfC8YlhQWxCQUAu0FyN/2PvwVgZwLiKdwan+pMRTL9vbOq/XNVCNeRAABcYG19Y3tnR3BsKSwICahEGgvQP629+GvCORcQDyFU/tLjRGzbG1vr61vNBpbXDQVo/AIAVGBnZ1ffmpsvVrf3NreFg3sByOFxUkJiIApQP6aGjxGoHACmaZwswY1hmWyvb2zsfl+bX3j5au3/IsAAuICa+sbbzffy57BMHOYFBbfZQREQAuQv5qCBwgUUSDrFDbfjj3Po8ZIgPAUAQQQQAABBBBAAAEE+hKgxuiLj5URQAABBBBAAAEEEEAgIUCNkQDhKQIIIIAAAggggAACCPQlQI3RFx8rI4AAAggggAACCCCAQEKAGiMBwlMEEEAAAQQQQAABBBDoS4Aaoy8+VkYAAQQQQAABBBBAAIGEADVGAoSnCCCAAAIIIIAAAggg0JcANUZffKyMAAIIIIAAAggggAACCQFqjAQITxFAAAEEEEAAAQQQQKAvAWqMvvhYGQEEEEAAAQQQQAABBBIC1BgJEJ4igAACCCCAAAIIIIBAXwLUGH3xsTICCCCAAAIIIIAAAggkBKgxEiA8RQABBBBAAAEEEEAAgb4EqDH64mNlBBBAAAEEEEAAAQQQSAhQYyRAeIoAAggggAACCCCAAAJ9CVBj9MXHyggggAACCCCAAAIIIJAQoMZIgPAUAQQQQAABBBBAAAEE+hKgxuiLj5URQAABBBBAAAEEEEAgIUCNkQDhKQIIIIAAAggggAACCPQlQI3RFx8rI4AAAggggAACCCCAQEKAGiMBwlMEEEAAAQQQQAABBBDoS4Aaoy8+VkYAAQQQQAABBBBAAIGEADVGAoSnCCCAAAIIIIAAAggg0JcANUZffKyMAAIIIIAAAggggAACCQFqjAQITxFAAAEEEEAAAQQQQKAvAWoMi29re+ft5vu19Y2Xr97yLwIIiAusrW9sbL7f3t6xEk/uCSksvssIiIAWIH81BQ8QKKJA1imceDOnxohBft7afvVm86fG1s7OL/GrPEIAATmBnZ1fGj9vra1vbG1vy0VVkUhhcVICImAKkL+mBo8RKJxApincrEGNoUy2tnderW80A/EKAghkIfBqfVP2bAYpnMVuIiYCqQLkbyoLLyJQFAHxFE7tODWGYnm7+b7x81aqES8igIC4wE+NrY3N94JhSWFBTEIh0F6A/G3vw18RyLmAeAqn9pcaQ7GsrW9wiVTqEOFFBLIQ2Nn5ZU30zCEpnMVuIiYCqQLkbyoLLyJQFAHxFE7tODWGYnn56m0qEC8igEBGArJJJxstoy4TFoHSCMhmnGy00iDTEQSyE3CQdNQYavc5sM5uoBAZgSIKyCadbLQietJmBFwKyGacbDSXDmwLgYIKOEg6agw1NhxYF3QU0mwEMhKQTTrZaBl1mbAIlEZANuNko5UGmY4gkJ2Ag6SjxlC7z4F1dgOFyAgUUUA26WSjFdGTNiPgUkA242SjuXRgWwgUVMBB0lFjqLHhwLqgo5BmI5CRgGzSyUbLqMuERaA0ArIZJxutNMh0BIHsBBwkHTWG2n0OrLMbKERGoIgCskknG62InrQZAZcCshknG82lA9tCoKACDpKOGkONDQfWBR2FNBuBjARkk042WkZdJiwCpRGQzTjZaKVBpiMIZCfgIOmoMdTuc2Cd3UAhMgJFFJBNOtloRfSkzQi4FJDNONloLh3YFgIFFXCQdNQYamw4sC7oKKTZCGQkIJt0stEy6jJhESiNgGzGyUYrDTIdQSA7AQdJR42hdp8D6+wGCpERKKKAbNLJRiuiJ21GwKWAbMbJRnPpwLYQKKiAg6SjxlBjw4F1QUchzUYgIwHZpJONllGXCYtAaQRkM042WmmQ6QgC2Qk4SDpqDLX7HFhnN1CIjEARBWSTTjZaET1pMwIuBWQzTjaaSwe2hUBBBRwkHTWGGhsOrAs6Cmk2AhkJyCadbLSMukxYBEojIJtxstFKg0xHEMhOwEHSUWOo3efAOruBQmQEiiggm3Sy0YroSZsRcCkgm3Gy0Vw6sC0ECirgIOmoMdTYcGBd0FFIsxHISEA26WSjZdRlwiJQGgHZjJONVhpkOoJAdgIOko4aQ+0+B9bZDRQiI1BEAdmkk41WRE/ajIBLAdmMk43m0oFtIVBQAQdJR42hxoYD64KOQpqNQEYCskknGy2jLhMWgdIIyGacbLTSINMRBLITcJB01Bhq9zmwzm6gEBmBIgrIJp1stCJ60mYEXArIZpxsNJcObAuBggo4SDpqDDU2HFgXdBTSbAQyEpBNOtloGXWZsAiURkA242SjlQaZjiCQnYCDpKPGULvPgXV2A4XICBRRQDbpZKMV0ZM2I+BSQDbjZKO5dGBbCBRUwEHSUWOoseHAuqCjkGYjkJGAbNLJRsuoy4RFoDQCshknG600yHQEgewEHCQdNYbafQ6ssxsoREagiAKySScbrYietBkBlwKyGScbzaUD20KgoAIOko4aQ40NB9YFHYU0G4GMBGSTTjZaRl0mLAKlEZDNONlopUGmIwhkJ+Ag6agx1O5zYJ3dQCEyAkUUkE062WhF9KTNCLgUkM042WguHdgWAgUVcJB01BhqbDiwLugopNkIZCQgm3Sy0TLqMmERKI2AbMbJRisNMh1BIDsBB0lHjaF2nwPr7AYKkREoooBs0slGK6InbUbApYBsxslGc+nAthAoqICDpKPGUGPDgXVBRyHNRiAjAdmkk42WUZcLHXa1cnJkdMz6d7Ja6B7R+H4EZDNONlo//SrmuquVE2FunqysDqIHqzPHw4PDiZmBbH8QfS78Nh0kHTWGGiUOrAs/HukAAqICskknG020oyUJ1mONsTJ7/uDI6Nj42QdLjZII0A1TQDbjZKOZ7RyOx33VGI3l5w+nL506cG739Qk1RgHHmYOko8ZQ48KBdQFHIE1GIEMB2aSTjZZht0sQunpZnc1ocx7j2fU90UmPNkuVAGNouyCbcbLRhm+n9FNj9LNuJE2NEUkU6P8Oko4aQ40HB9YFGnk0FQEHArJJJxvNQfcLvIluagxvpXJ2P+cxCryXOzVdNuNko3Vqe/n+3k+d0M+6kSQ1RiRRoP87SDpqDDUeHFgXaOTRVAQcCMgmnWw0B90v8Ca6qjEK3D+a3o2AbMbJRuum/eVapp86oZ91I0VqjEiiQP93kHTUGGo8OLAu0MgbdFMbq9WZydMHx8NrLT7Yf+Ti7YVVfU13dTJ4fXzqhVd7euPssXCx8aOXKot13fKFyeAGuH3XF73a/MfnjuwLnx67UHkRL6SX5sEgBGSTTjbaIDyKs812NYZKT+PW8KabUKPpyJnZWn3x8eTp/cFVVXvHT1+fr8UIKoVHx4xLrezJUP3pZJjXo4enl+IVvcXrE+Gh4+ycEc9YgIcSArIZJxtNon85jxG+Sx4e/yB4a/tgv3q7HDXSrVFbmr194XS0zOjY+IFjZz6eW1ZvgTqbwpvFk/89btyc4UeavnTqwzBVx0ZG908cPXdjdiV+M42SemSyGrwvH05Nas/zGsvVytVzRw74Jzn9fz/Yf+j05cqzRKb6vbty9pjq3eje8dOXK9V4EhDtm/rio8unolB79h078/HT5oWihfl/UsBB0lFjKHQH1sndy/N0gZXK6b3GBCU68MXfVhFNYk6cVF9kER6q/P8evFJVpUg0QTl5XH3bRhRndGziarRQegN41ZGAbNLJRnNEUNDNCNUYh06cVMWATuF9lxeiDxOiFG5dY3hevXpZRfjwdlRlvJg6ECT7gcsL8QyooNC5brZsxslGyzWcQOPUFyqkvFEaNUbKlzSEiXbgWpBl3dcYLZeM30x1jXHio1Nh2aOT2miS50Vv3/Ff1VuzUdI0Fqb8r4to/tf4uMHzvBZThQPXSPwuh5iDpKPGUPvCgXWXe324F2ssXFUHl4nzM89qwXSjUV+uzkxOPo6+Ec88SB2bqvoL1eejqcbpx+HnIXqCMjI6dkQt9HQynHyMfvQw8aHJcKMPqveySScbbVAmxdhuuxpD90DPS4wPVsM/6unI6NjIgV8/9L92qr4wqRL/zKxKTp3CxsQiJebS9OFwLjIx9cLzvEU1O4k/btAN4oGsgGzGyUaT7WneosXFw4nb0bvk0vTRcFIep9vqo0tnPp5bWq2rsr2xMnsxmWVB11LSyu7y6sOL527MGpGW5y6oN9NzKl9Tkrqx/Fv1bdfjU8+jgNWpE5cr1ZWaalSj9uy2+qzQv+ggbI7+GtzoK+ka9dpytTJ5bMr4rmyd6RdmV8KJwlLlnLqoId5ctFn+nybgIOmoMRS8A+u0XcxrtkDt8anw04sTD5btvxjPdI1xcLKqP6iszZ61jrB6gjJhLXQunI4YH5kYgXnoVkA26WSjuZUo2tbEaoyTFZ3nUcwjv10JOXQKt68x/I8z1bnKg1PT6iqp4xUVpGiyRWqvbMbJRiuSY89tfT6lLhG89IV+A/Q61gnBZqIsO2RdXNjdunY7o/SMLlOMawwjqb0XUVOvLdirG8/01i99ERZDOtSJm8blz8Ya/hVXTy+EUwXj6OB5K/fDQkuXK/ZKPEsIOEg6agxl7sA6sXd52izQeHKpixpA1xiXzcPW4pS6vvNK8FFHdAQ0L7TwvMXr6qLVq8bnIc3t4BUnArJJJxvNCUBhNxLNVPxrr1v+o6cO8Qeratl4DmH8XFdTzLQUbhGz/kRNONQnFDO6cmnZOv7Qt4BsxslG67tzOQ6w/OCIml4/NVqZnhr1pbnpix8d2td0+bGVuenrGsE9z6snbu3QFzKpSKlJ7SU/+/NjNlYXKtfOHI3utwz74v9XHyiiyx39F/eOn750o/J0KbyoQbdJv5XHq5vXVllzA70SDxICDpKOGkOZO7BO7F2eNgvoU8DWATC5XHqNsfzbY+FRL1w3bYLiefHRuc3cKLk9nmckIJt0stEy6nJJwjbVA2n9aj1xSZ2ONMVMS+GWMfWhY2T04A11yUVao3hNTkA242SjyfUyf5GaMiVoYnNq1J9NqfdEXQ/ED6y32OZ17V7Xn0+pC7HMebx63LbG8ObDL1/R9cPy3Hl1kVVzKF1j+Dda3TgR3RQeVRF7jhrfCaERor/GXfNfocaw92CLZw6SjhpD2TuwbrGXeTkW0BOFttcypdcY0bFMnbpNm6B43rz67TD7THHcAB65FJBNOtloLh2Kty39Bm/NVBL9aD1xEa8xlqMLuMMJR7srLRON5OnuBWQzTjba7nuV/zX1R/hW9jWl29LtQ2E6HLg0uxzdkpGeuU3r2gjxLU8X53Sk5DtsalLri5dGw+ugGvMXVWlxfPp5dGai5dYb9dWl+ZkrZ8OvqApW1F/tEHVEX1ppN5lnXQk4SDpqDLUnHFh3tc+HfCF99NSHkhSQtBqjUY2+xVJ9gJE8AvpxGguT6qMR6+CcsgleciEgm3Sy0Vz0v7jbiN7gs71W6qr9QanneXEtYX3kqb7L4cSD5WfqfgzzLqziMue85bIZJxst53R9Na82dyYsHqIvOPGjNadGlKTmB3b12V+rz/vtt8DoEzojrYwmRm+m5l/rs+ft9EytMZIv6nLCOM/QeHHjwzCUGd/YvN+7B9F3SEbLJCPby/OsOwEHSUeNoXaFA+vudvqQL6WPQWNdfK/UpS+CT2cateeV8+rrMvQJiuiwOHbhiVroWeXXTV9zOeTaA+6+bNLJRhswTc43H01fMq0xarPqGxoOTT2ve1598bbxnZjRVCP+QqrwBGb8xXQXnsT3w+acs6DNk8042WgFJe2u2bWHp8NJ+cHJ+eBrFVNTo3pNlRMnHiw3PK9Ri98BR8cSmavvZjz+ccrvRy1E1f7x3/rf4GS+4Y7on6/Rk/6jt/0vivN/B+PplegKqygZ9fv7wcl5Pz3NZeL7MarXj1y8/fDZSnTypVHT3xsZXwSl7/QYm5h8HN2t0agvP3/48bnzxi97dEc6pEs5SDpqDDW2HFgP6Sjutdutrtds/n2M8LMc478T5+f0vZ66xrAv0/S/K3NWL9Rr21heVEA26WSjiXa0HMH0/EB9fmlllk5PXX4YiamXVB+e6umIXsvzPL2i/oQ1cSe3H/Dg8RPhN9WqGmO5or4cM/ziWh86/mE+8/ttyrEL8tUL2YyTjZYvKfHWxGctdDIePGWnhueZd05Hix04qD5o01kWtk1fWGWkbXwCRP+opfHXiQPqc71kUhvLhIl/JPiMINyO/uBAHxNGRvdOqB/Riz440IeCZKi9p8zvi6tXr7S4tSNuubh8uQI6SDpqDDVkHFiXa3Bm2Rv/eycuxz8puu/gqcmZ5t/5Hhndu0f91s/+idOXpuet3/fUNcaeD9RXaowf+OjCND8CmuWO6zG2bNLJRuuxK8OwuPMaw/8GmqdTxq+Azy7Xo1u2/OlIo3pNTZjUb4qpvVCPvp5uxH59GHaSyz7KZpxsNJcOA9lWffHxpEqN/UfO3pxfbUTT92im7tfb1emzx8KvUtyz79iF6epqo3olnLgnagz/POHjydPWdz2ZM/V69faZo+GVxnvHj14KIqnzJCpSY2W+cvPC6cMT6nt1x0b2HTxy9ubsUuJ0YmN59vIp9T1X+ydOX59dspI6wFQ/8q1D7dl3+NTF2/P+6Rj7n3CqEP3Od7DFa5Vq+HMZ9pI8SxNwkHTUGAregXXaLua1XQik3Y/RFEbXGE3H0qZFeWFAArJJJxttQCRsFoHCCMhmnGy0wiDSUAQGJ+Ag6agx1O51YD24gVSyLVNjlGSHyiadbLSSENMNBDITkM042WiZdZrACJRHwEHSUWOo4eLAujwDc8A9ocYY8A6Q2rxs0slGk+ojcRAoq4BsxslGK6s5/UJAUMBB0lFjqP3lwFpwZAx3KGqMkux/2aSTjVYSYrqBQGYCshknGy2zThMYgfIIOEg6agw1XBxYl2dgDrgn1BgD3gFSm5dNOtloUn0kDgJlFZDNONloZTWnXwgICjhIOmoMtb8cWAuODEIhUAIB2aSTjVYCXrqAQKYCshknGy3TjhMcgXIIOEg6agw1VBxYl2NQ0gsEpARkk042mlQfiYNAWQVkM042WlnN6RcCggIOko4aQ+0vB9aCI4NQCJRAQDbpZKOVgJcuIJCpgGzGyUbLtOMER6AcAg6SjhpDDRUH1uUYlPQCASkB2aSTjSbVR+IgUFYB2YyTjVZWc/qFgKCAg6SjxlD7y4G14MggFAIlEJBNOtloJeClCwhkKiCbcbLRMu04wREoh4CDpKPGUEPFgXU5BiW9QEBKQDbpZKNJ9ZE4CJRVQDbjZKOV1Zx+ISAo4CDpqDHU/nJgLTgyCIVACQRkk042Wgl46QICmQrIZpxstEw7TnAEyiHgIOmoMdRQcWBdjkFJLxCQEpBNOtloUn0kDgJlFZDNONloZTWnXwgICjhIOmoMtb8cWAuODEIhUAIB2aSTjVYCXrqAQKYCshknGy3TjhMcgXIIOEg6agw1VBxYl2NQ0gsEpARkk042mlQfiYNAWQVkM042WlnN6RcCggIOko4aQ+0vB9aCI4NQCJRAQDbpZKOVgJcuIJCpgGzGyUbLtOMER6AcAg6SjhpDDRUH1uUYlPQCASkB2aSTjSbVR+IgUFYB2YyTjVZWc/qFgKCAg6SjxlD7y4G14MggFAIlEJBNOtloJeClCwhkKiCbcbLRMu04wREoh4CDpKPGUEPFgXU5BiW9QEBKQDbpZKNJ9ZE4CJRVQDbjZKOV1Zx+ISAo4CDpqDHU/nJgLTgyCJUu8M3crTv3bn3y1Vr6n9NeffXV/Tv3/LV6XTEtGK/1JCCbdLLReuoIC0sJLH7mZ+L9+dc9BAyzPkzhz77tYUUW7U9ANuNko/XXM9betcDrLz/xU/jRNz1ECLM+fBfuacUetsGiaQIOko4aQ8E7sE7bxbzWk8C3j9rPP3ZRY0Tb9w9zPRUn0Yr8f9cCskknG23XnWLFdgJBSd9mGrGbGkNtL5jcUGO00xf+m2zGyUYT7irhtECHFN5NjaFid4isW8ADMQEHSUeNofaWA2uxcZGLQP50X3383+OHFn00v1ON0Udoaow+8Ha5qmzSyUbbZZeKtpr6BNHZ1DzDaQQ1huvBJ5txstFcWwxse2pO39upv35am10KZxe5n/6Wel0HSUeNoUaQA+sSjVV/rq8/jFybn+n13OhuKagxdiuXy/Vkk042Wi7BRBsVnPR79E3wYQE1hijtkASTzTjZaMOwC4J33pkvv/Ev96XGGIY9Lt5HB0lHjaH2mgNr8fGRm4A9TlPM66fvzC3G3Yg+iQw+zwhPkoSHzrCM0adN9IP4wGrGTJ8wBY1U517MjarNtzyP0Tay+hg4CBs3Ju4Rj9oJyCadbLR27S7B3/wUC7Ogx+QN+m4O+1tWuvnR/EQwsib8MMJaJe0UqLmA/vzCkjZi2hsNl4qOHtY6/hPz6NGUpOZhYebLV00r80JrAdmMk43WutVl+cs3c+ri3uDtsmlgd+immW5WNvlZ5ieCsYB6uzReiS9hMD5eVGdUgnfnFqnUPoVbn8dol8LGbOGWNZ3oIMCfPc9zkHTUGGqkObAu75juZZry6qv78aQkPCrpGb8+SEVHqOCQZEw4ohlMS8oW84zw0BZv99tH8WMVyz+ANt2PoT4oUjOPZDeDY65uvLf4WdTsls3jD5aAbNLJRrMaWuYnyVHdsa9r8zNxSoZv8HE2BdH8EkLlhZ1Bntd6GqG222KBcH4Tb/ebufixWjM9960kDYIbs7FE37991HQE6KgxzAvIZpxstCHaL8lR3bnr7VJYlwEqqYO0MvOiRYbGW/UjpLwVdk7hFpHbpXCi79bsIm4Rj1oJOEg6agyF78C61W4u/OuJPO+pP1YVEdYY8azd8/xJQGJOYDxt3lLqPCP1xeS6/oHMPJL6f09s3Qs+ndVHz67CJjfDc0NANulkoxnNLPfDxDy7585aM4AgZaw8SswbEk+bt5a6QOqLyXXT8rFpxaDmiY4wTX9NhuR5WwHZjJON1rbh5fpjMIzbvi126K+VwsE7shnNShmvi48JUmuMbnItdZmmF632pG6rQ3f5cyzgIOmoMRS3A+t4x5bqUfDWnva5RVe9tI4gQajkRN8M0zTpN//oP+5qnpFcKXieUmM0H7+s1kZnk+MPcVMD82JLAdmkk43WstFl+0O/NYb1lh/WGG0yws6gFMu0BexNpKwUvJSS+ykrWkkd9N24taxVaF5PFZDNONloqQ0u54tByphVQa/dtNLET5D4ZsuUUGkZai1mpZj6i7UJa2njSVrklBXN+MEqqadNjLg8bCngIOmoMZS+A+uW+7nAfwgLjLaHpKbeBZ+atL6gU7zGMA9JTY3RLzTXGMHRzWpneB+IeZGGuUw/R3ndjKF6IJt0stGGZkfsosZQU3N9W5S+Mio89Wdd3p1wTJtGWIukLdCcm9Yq6klKjdF8qGm6WFwdwZpeT9sCr9kCshknG81uaamfBSnT47tP6xTOpsboKoVb5b5x+1Z0zNFXE6jLDaLXo1OUpd7hgp1zkHTUGGp/ObAWHBk5CRW+hfd0dAtWMQ4Q1mEleL8XrzGsTbSUSzkIdlecBBHVTKUnipZNGZo/yCadbLSh2Qm91hjB8kaS2h80dorWMRnTFrA30WrPpNQY3a0YBAy2yweirXBTX5fNONloqQ0u54vB0O3lradtCmdTY3SVibvP/WDHBi03Pu8o596W7ZWDpKPGULvMgbXs4Bh4tF0UGCkfc1qHlY41Rso0wnZIXaDTvCcIkVJjWG2zt5PyLHXTKcvxkhaQTTrZaLqRZX/QVXbECE1TEHv20DGav0C7+VBq0jVtNG5P/CgtAf0VjU804oXTHqVuOm1BXgsFZDNONtoQ7aNg3LbLqYRFUzZZKdz018TaKbcpJpZITbrOYVvc6ZEaLbFF/bSnhfVaQ/zAQdJRY6jx5cC6TCN5VwVGdL9E9J0z+gsuo6uPglmC8RFps1iw3TaThrR5RvTllcZRuNvvlWq7OftbaHo90Df3bfhekU062WhDszc6VgW2RDDO9dVQ4XHA+OywY7QgQ/URwI7tP0uf6IdrGYnf7fdKtd3cN3PGMSH8iltjE81t4xVbQDaOIpI0AAAgAElEQVTjZKPZLS31s17fetqncOdioG1OeYlvRtHyXaRwu9xPvwjK+oIsL7xDMn1J3Q4emAIOko4aQ4E7sDZ3bbEfhweppqsko1KhfeeCWUi47idfrVmHleAw1LbGUHd1R5vWU4RormPdPmG1Jzh0Nl+1GXyEY611y/6cNbmA2TzbwdpcewP+GgjIJp1stLLvIiMNo2zqcK+nFjFS6f78a+tD0I73fPtBrE1HWWO92JynnppARKlq3FbeMfeTCxjr2tnN7ETv464eyGacbLSuOlDohex3nyhluiuS26Rw5xqjRQqntsd8u2yZwj3m/p17+jOO5GHB3lyhd6+bxjtIOmoMtSsdWLsZNGwFgaIIyCadbLSiGNJOBAYlIJtxstEGZcJ2ESiQgIOko8ZQ48GBdYFGHk1FwIGAbNLJRnPQfTaBQKEFZDNONlqhYWk8Am4EHCQdNYbalQ6s3QwatoJAUQRkk042WlEMaScCgxKQzTjZaIMyYbsIFEjAQdJRY6jx4MC6QCOPpiLgQEA26WSjOeg+m0Cg0AKyGScbrdCwNB4BNwIOko4aQ+1KB9ZuBg1bQaAoArJJJxutKIa0E4FBCchmnGy0QZmwXQQKJOAg6agx1HhwYF2gkUdTEXAgIJt0stEcdJ9NIFBoAdmMk41WaFgaj4AbAQdJR42hdqUDazeDhq0gUBQB2aSTjVYUQ9qJwKAEZDNONtqgTNguAgUScJB01BhqPDiwLtDIo6kIOBCQTTrZaA66zyYQKLSAbMbJRis0LI1HwI2Ag6SjxlC70oG1m0HDVhAoioBs0slGK4oh7URgUAKyGScbbVAmbBeBAgk4SDpqDDUeHFgXaOTRVAQcCMgmnWw0B91nEwgUWkA242SjFRqWxiPgRsBB0lFjqF3pwNrNoGErCBRFQDbpZKMVxZB2IjAoAdmMk402KBO2i0CBBBwkHTWGGg8OrAs08mgqAg4EZJNONpqD7rMJBAotIJtxstEKDUvjEXAj4CDpqDHUrnRg7WbQsBUEiiIgm3Sy0YpiSDsRGJSAbMbJRhuUCdtFoEACDpKOGkONBwfWBRp5NBUBBwKySScbzUH32QQChRaQzTjZaIWGpfEIuBFwkHTUGGpXOrB2M2jYCgJFEZBNOtloRTGknQgMSkA242SjDcqE7SJQIAEHSUeNocaDA+sCjTyaioADAdmkk43moPtsAoFCC8hmnGy0QsPSeATcCDhIOmoMtSsdWLsZNGwFgaIIyCadbLSiGNJOBAYlIJtxstEGZcJ2ESiQgIOko8ZQ48GBdYFGHk1FwIGAbNLJRnPQfTaBQKEFZDNONlqhYWk8Am4EHCQdNYbalQ6s3QwatoJAUQRkk042WlEMaScCgxKQzTjZaIMyYbsIFEjAQdJRY6jx4MC6QCOPpiLgQEA26WSjOeg+m0Cg0AKyGScbrdCwNB4BNwIOko4aQ+1KB9ZuBg1bQaAoArJJJxutKIa0E4FBCchmnGy0QZmwXQQKJOAg6agx1HhwYF2gkUdTEXAgIJt0stEcdJ9NIFBoAdmMk41WaFgaj4AbAQdJR42hdqUDazeDhq0gUBQB2aSTjVYUQ9qJwKAEZDNONtqgTNguAgUScJB01BhqPDiwLtDIo6kIOBCQTTrZaA66zyYQKLSAbMbJRis0LI1HwI2Ag6SjxlC70oG1m0HDVhAoioBs0slGK4oh7URgUAKyGScbbVAmbBeBAgk4SDpqDDUe1tY3dnZ+KdDgoKkIFFpgZ+eXtfUNwS6QwoKYhEKgvQD5296HvyKQcwHxFE7tLzWGYnm7+f6nxlaqES8igIC4wE+NrY3N94JhSWFBTEIh0F6A/G3vw18RyLmAeAqn9pcaQ7Fsb++8Wt9MNeJFBBAQF1hb39je2REMSwoLYhIKgfYC5G97H/6KQM4FxFM4tb/UGDHL1vb22vpGo7HFRVMxCo8QEBXY2fnlp8bWq/XNre1t0cB+MFJYnJSACJgC5K+pwWMECieQaQo3a1BjWCbb2zsbm+/X1jdevnrLvwggIC6wtr7xdvO97BkMM4dJYfFdRkAEtAD5qyl4gEARBbJOYfPt2PM8aowECE8RQAABBBBAAAEEEECgLwFqjL74WBkBBBBAAAEEEEAAAQQSAtQYCRCeIoAAAggggAACCCCAQF8C1Bh98bEyAggggAACCCCAAAIIJASoMRIgPEUAAQQQQAABBBBAAIG+BKgx+uJjZQQQQAABBBBAAAEEEEgIUGMkQHiKAAIIIIAAAggggAACfQlQY/TFx8oIIIAAAggggAACCCCQEKDGSIDwFAEEEEAAAQQQQAABBPoSoMboi4+VEUAAAQQQQAABBBBAICFAjZEA4SkCCCCAAAIIIIAAAgj0JUCN0RcfKyOAAAIIIIAAAggggEBCgBojAcJTBBBAAAEEEEAAAQQQ6EuAGqMvPlZGAAEEEEAAAQQQQACBhAA1RgKEpwgggAACCCCAAAIIINCXADVGX3ysjAACCCCAAAIIIIAAAgkBaowECE8RQAABBBBAAAEEEECgLwFqjL74WBkBBBBAAAEEEEAAAQQSAtQYCRCeIoAAAggggAACCCCAQF8C1Bh98bEyAggggAACCCCAAAIIJASoMRIgPEUAAQQQQAABBBBAAIG+BKgx+uJjZQQQQAABBBBAAAEEEEgIUGMkQHiKAAIIIIAAAggggAACfQlQY/TFx8oIIIAAAggggAACCCCQEKDGSIDwFAEEEEAAAQQQQAABBPoSoMaw+La2d95uvl9b33j56i3/IoCAuMDa+sbG5vvt7R0r8eSekMLiu4yACGiBrPNX7khAJAQQGLwANUa8D37e2n71ZvOnxtbOzi/xqzxCAAE5gZ2dXxo/b62tb2xtb8tFVZFIYXFSAiJgCmSav+aGeIwAAiUQoMZQO3Fre+fV+kYJ9ihdQKAQAq/WN2XPZpDChdjvNLIcAuL5Ww4WeoEAAqYANYbSeLv5vvHzlknDYwQQyE7gp8bWxuZ7wfiksCAmoRBoLyCev+03x18RQKCIAtQYaq+trW9wiVQRRzBtLqjAzs4va6JnDknhgo4Eml1EAfH8LSICbUYAgfYC1BjK5+Wrt+2l+CsCCMgKyCadbDTZnhINgfIJkHHl26f0CAFZAWoM5cnhUnZgEQ2BjgKySScbrWPjWQCBIRcg44Z8ANB9BDoKUGMoIg6XHccKCyAgKyCbdLLRZHtKNATKJ0DGlW+f0iMEZAWoMZQnh0vZgUU0BDoKyCadbLSOjWcBBIZcgIwb8gFA9xHoKECNoYg4XHYcKyyAgKyAbNLJRpPtKdEQKJ8AGVe+fUqPEJAVoMZQnhwuZQcW0RDoKCCbdLLROjaeBRAYcgEybsgHAN1HoKMANYYi4nDZcaywAAKyArJJJxtNtqdEQ6B8AmRc+fYpPUJAVoAaQ3lyuJQdWERDoKOAbNLJRuvYeBZAYMgFyLghHwB0H4GOAtQYiojDZcexwgIIyArIJp1sNNmeEg2B8gmQceXbp/QIAVkBagzlyeFSdmARDYGOArJJJxutY+NZAIEhFyDjhnwA0H0EOgpQYygiDpcdxwoLICArIJt0stFke0o0BMonQMaVb5/SIwRkBagxlCeHS9mBRTQEOgrIJp1stI6NZwEEhlyAjBvyAUD3EegoQI2hiDhcdhwrLICArIBs0slGk+0p0RAonwAZV759So8QkBWgxlCeHC5lBxbREOgoIJt0stE6Np4FEBhyATJuyAcA3UegowA1hiLicNlxrLAAArICskknG022p0RDoHwCZFz59ik9QkBWgBpDeXK4lB1YREOgo4Bs0slG69h4FkBgyAXIuCEfAHQfgY4C1BiKiMNlx7HCAgjICsgmnWw02Z4SDYHyCZBx5dun9AgBWQFqDOXJ4VJ2YBENgY4CskknG61j41kAgSEXIOOGfADQfQQ6ClBjKCIOlx3HCgsgICsgm3Sy0WR7SjQEyidAxpVvn9IjBGQFqDGUJ4dL2YFFNAQ6CsgmnWy0jo1nAQSGXICMG/IBQPcR6ChAjaGIOFx2HCssgICsgGzSyUaT7SnRECifABlXvn1KjxCQFaDGUJ4cLmUHFtEQ6Cggm3Sy0To2ngUQGHIBMm7IBwDdR6CjADWGIuJw2XGssAACsgKySScbTbanREOgfAJkXPn2KT1CQFaAGkN5criUHVhEQ6CjgGzSyUbr2HgWQGDIBci4IR8AdB+BjgLUGIqIw2XHscICCMgKyCadbDTZnhINgfIJkHHl26f0CAFZAWoM5cnhUnZgEQ2BjgKySScbrWPjWQCBIRcg44Z8ANB9BDoKUGMoolIdLldnjo+OjYyOjZyYWe04BFgAgQEJyCadbLQBkQxsswuTwREjPG4E/z1eKc3Bozqp+nV5YWDAJdwwGVfCnUqXEBAVoMZQnBkeLquX/en+6Mm0t+zGFxf9t/bxqRe97tb60tyNs8fGP1Azg/Gj527MLtXDKOI1RqO2ND9z5eyx8alqr+2Mltdv82OTOkbjyYVoThO/qFZYmT1/0Jc5+2CpEcXY3f/rz28c3TsyuvfQ5NPabiLELQ/249jI6P4JU3s3MVnHF5BNOtlow7aHcl1jdEzhDgconcLUGJLjmoyT1CQWAmUUoMZQezXDw+XygyMta4zVygm/SOjxI8PaF5P+/Lv5XzVTF68xVJk0NtJUCnSdFPpt3iioFq+PR71IBn52fU+rP3W9yXDB2qOPIqjUMq9juLjlUZxI/sC1BVXVdQzCAikCskknGy2lucPx0mrlZDjOezwoZajTOYU7HKB0ClNjSO4mMk5Sk1gIlFGAGkPt1QwPl2rGnzrB3UWN0Vi4GhUYR6/NL9eDT/kb9dWl2Y/PTYenCPJdY4x8eHspUF+aPqxn7ckaw1upnN0vdB6jOvWhxHmM6MKzRu15JTjH4jf+4tM+z7KU8ajSbZ9kk042Wrd9KN1yOawxvHqnFKbGGMQ4JOMGoc42ESiSADWG2lsZHi7VjP/wdDiztoaHqjHOzHZ9Fc/S7UPhB/z7Ls+3+hA9hzVGbe6M3+zDhz4cGxk9F3Q37Pv+8X27OJNjIWb8JPoQNKoxgs09nwqaPTJ66QuKjN3uANmkk4222z4Vfr081hgdUbutMa5xP0ZHy+4XIOO6t2JJBIZTgBpD7fcsD5dPwzsOmz6q9zxP1RjGn+qLjy6fOuB/hD8yOrZn37EzHz9dNWaxi1PqT4fSShbVGV1jTFYbq0+nTu8PrjvaO376+rxVyzSWq/5dFhNqujy2Z9/hU5Mzz/Qy+p07umxJn3YIHvRy4YFq0uXp4NzFhScNL6w6Lt6etq4Wiyb08Rabz/+oZfybWGpP/ZtSgoXHj16qLBpVl0aIQ/XS4Ph4EDXJqjG8eXWPrG6eWszfL/UXlYu6Veemq0arPM+rv3g4+ZE2Hz/w0eSjF/YS/kLmMLDYVTO63FyHXRxOKI9XXjz7+KTP+MHhC7Or3vLc+QP+8BO4GSZmTHkkm3Sy0VKaW9iXGsvVytVzR6KjysgH+w+dvlyJ89zqWIcawx695sg0r62qLz6ePH0wuhJy/8Tpyw/N3PQ8dfuHf0qzvli5dCQ8BO07dsbMlo4p3O0BKk7hZSs34yPGYBPB2gHFeULGFWdf0VIEBiNAjaHcszxcqnc4VUiENyFcfBIUDvafvJXK6b3m27Z6HF/3v3L/aHgzQOpZkWgM6ffmEyfVF0zpefa+ywu6Ymn5Dh3Nm1suELahlyl7VGMshN2/WvXm/VvhLzyphXe9RxOUaDagG5xyr3y0THPvzIU1QhyqlwZHlp6nN2d+SZe6Wd+4lT9a7PzlyWCCbuzHeGfVq9cm4vaEjMF/T8wsx1tcCe/SMSJYSwZf99PV5ryWe1Dt4nBqdejD+KK1kX3Hjhjtb1fKxg3e5SPZpJONtssu5XG1aKg0Dbwo6axGt6sxlqMvrGsKZdxUVo8v5rQXO15Z0VuKbjH/9WTTrWXxkOuYwi2Hd+IAFQl8ePK4MbaD/MpFImiWYj0g44q1v2gtAu4FqDGUeZaHS/UOF9YY0YmIcL4b/knNQRenwhstDl6YXQkKgcZS5Zz6kH7qedDQ6M3SnEw3jxrzvfnArx/6X8xUX4jey+PrsqrXj0/OLCzXwls6vEbt2bS63TP5PVf6vdw44dK82Xav6BojnLIfffDQPyHjXzQVzjbiiYWKos7wGJN4HV4jjI2MHpuq1hqetxzdqJpsub+SXl6uxqhH34i17/qiapfeiv8dYtPP0lqlLhgbGznwa3XKpbEye1HdXTMRfbdYY/5SWF0c/234lVqN5dlL4TC4MB8XiNHXcbbenN/1DrtYTygnJqv1eNhcmq3Xw9pvRBXDGl/ygWzSyUaT7OeAY1WnTlyuVFeMPL+tPnqIR2/cRD0kmiqQxnzwJXgjoyfvq4G5MnsxPK16SQ/M2uy5cPROnJ8JT100lucuqJn9wakoW6Iawy8Gjk8/D7IlKmBSWqWTq0UKdzhA6dVbHjF0rweSCLF+oR6RcYXaXTQWgQEIUGMo9CwPl+rkw+S853lL0/4NCf73nwZvt+GbX/BZWuOp+iJXax4fnbhQ77v6zbLFe23Ym3iyeLKiPx6P3oaP/Db+NDE54vSKiZlltO7uv1dKRbi84NVmz0Y3ZgSX/ajZhtXr+CqytjXGwUl9GZJu+eTTZKeka4xG7fl0dLrJmIfpXZPWqrNzNX/fq9MFF56Y10bpWzvUxeLRdOeyP17UPyp4T5uL1rX/r6GCXRxtK5wjqq2E9Z7aL/YVYnasfp/JJp1stH77luv1dQGfcjdRNCSav+wuWstMMZXX0ZnP+Ph26QtzjD+LvkHuqvrial1j+HN6ZRXFV/drmYI6uVoc9zocoPTqabkZdCfq9WASwexqgR6TcQXaWTQVgYEIUGMo9iwPl+q9058gBjO8C5OXx0fHgplc+OYXvEMbX+QafhBo/zd8c9VvlvpNPW3Y6HmkOUFMexturNoXautrG8wV/Y/Dw5/46OO7a8MIQdjo7TwUiK7M3k2NYUw4UrusbDSasXwaW4vX9OrGBUsB1MRVPT0yzpYk6OKgYXGlb3nXf0hedhV9Erz/TEV9XKxPZ8XnoHTh1HJzKn77Xaz2hQqiehruCmoMvYcK/6CxulC5duaovkFCj+SUw4hOT6OgDQGiAbzvXDwwgy9/i77FwVM3WY2OjQRFdez2/7d37z5yHHcCx/UnkWAgGBDhgASBOziQFdhwQF9gQYGgQFJCOOApoRJLAX2KFOhOAZmYgoBlckpMA4IYnRNKEMBonWjn/didJaUld5dz6K5HV3X3vHp+s13V/QUIaWa2u7rqU/Xrqd/0yz4JxwxXk2OUVCBbK3tlY3BBCK/YQZWt7u8x6g2ErKFRvdrll2ZUEFQWAQQWCJBjaJhd7i6zHCO90fsf7h2k33m/v3+gT55Jf020X5N2ou+9UF+u35vbGWWn+Jf0rP/1qRew5ZvZ/P7ee+XXBhQfEF5Yt2Sjyz9SJagZhr41ljqSE2GO8fqv33z7o9w1rNkZWWYWVfCwP9Pm50mF+da/vkivg/eTzCuXrn+UXUuzXo6xsovrnVrJBp1saYXui/YDcwV/fjglu5eSKf7iHGM+3/+f/PVdJtnW5/DZPY/ZyRg1M8s30VEY82bB8v+b1S/nY0cvvmIHVba6rWpapXoDobzRwX9KxAXfRVQQgZoFyDF0B+x0d6nuQfS7e98npwklt1JRP12/s/dEnYKcfnGar8ll5zLpFZOfIW8+sLd/Kowh/+tT/9mUr893sqdmmYsHksVKV5Q4jqF/m9czDPWVr6cL3/1n+quqmXyYxtgZeXEatHrGYApR/y9b3l9i6Tuzer6GuZVWLmZbpG7da1fPH8cwvXDj336rbghWcnuxNVKa+XyNLq53aiUbdLKl2e6J/IW9iMJc9pC0xw7FYnDNl+QY+k/Xf/PmVXVril+98dt3/vLIue+d3YFwHCPycbNO9Ym4dZRYBoE2C5Bj6N7f6e5S/Wj3uzsf37ysn3Kt5tw373yc/i6Yzrbt1/PSuay9IPjS9T8vfMh0aVG5HMMu4/ziePLkU/3wjVwd9KPKq58r5c9lvYhb8Kcl0yAzm3d/1LTNydU82VTZ8l4Vlr8xq5eU7K64ejFzuf8V59JtJxMwjybUP/G6Z72729GvV2/O5Cper+W62MfXZXKuVIl3rB/ZOHKOAJx8/xd9VdhGOYYZHs51QgUVe6A1uwp8Pp/bvZa9tYPwcYwVOygTLIv3GPUGQoExjg92+qUZBwG1RACBpQLkGJpnp7tL9YX6xtXkHix6Sm/nxJfVkY35XF8Mnfyof+3WV0+TO60k386z/X/+7ZN33r2X3rA0+cS5san7nO/9x/du/eHOkud8L8oxrqtn+Z3sP/roTXt2Vm4+bW+IdPXDPedXS223xv/8r3BvhQV/snOj4jRo9YzB20AwOcbcPj/x+nv30htPzU+e/s08Mtxca2Eafv3Dvf2huReQ36DknUHI9ZS7oB1ji7vYxzeTyHQU6VngkvLdbVV6LRt0sqVValCAK5nhdPnGrfSZnSf7/7it73+94blSZjhd++DhkoFpb2xw7d37Zox/pR63kl22YZ+PUXayVhmiGe1ukuAut2IHVba6ac6ldITXGwhuUyJ6TcRF1FlUFYFaBMgxNPtOd5f7//2WORna3sjF3mDqivqSS+oxe3w7f/t2fXWmd/3l4sXyCYw7QczlGE5KY+p25dLrN/Sz4dwV05rpO5naJCR54fwyumrw+l/h3tL6T+rGWbaS3oY0gjnisnrGkJ4Oou/Dm7UuK7OYt3hV8t+YzeVN/KXWmfQ799jN1cq9fHy49176zETdarNk7kFm69TKXKSbNTzfxX6/6DI5jpHr2qjfmlsIuMPpV9f08/hsIJjh5A4V+1oH3nDv3bKn91y9cfPWV84T9pwfQWwJyYsbt51bJKxzHEMPTq8Q2wpbc9U55lbL3sJ2B2VbZz/JnxdabyBEOsB2+qUZqQnVRgABV4AcQ2vsdHeZfVk6pynbM2eyHCM5bnHw3b3sOd+Xrt548+2P7j1Wj8twO272dO/T7EYx6sG9djH/Jzq9mp2+m6n6/ORfe7f+443X06/tqzdu3nn4dGZ+9SyZTw8fffKOOQ9bfdM7X9hu1cpe6ymF3bSzjMFJS7OV9OYKemJh1l49Ywg2x0if4P3V7bff0uyXk8zh3mP/2NDsH7fMk9dNgmGnVjduP1YHuAxCSU85uKu6uN6plWzQyZbmIMb+8mR/78839RUUv772x4/3kjhXGbidqZvhVBZ39o7Vs0fJDfEKYzL9xLshwezJg4/+ZK4mupQkIfe/88e4dI6RHAdevIOyrXN2Wf5Ost5AiHSEEXGRdhzVRuDCBMgxNDW7ywsbc2xoqcD3d9SxLO96m+wxfDt9KN7Sisn/UTboZEuTb23sJT75WN2GznmixTz5nUI/hu/K+9/YB0TG3lTqv5YAEbcWEwsh0GIBcgzd+ewuWxwFITXdPibFHLXRlbNXteYejxhS3Teti2zQyZa2aVsav7w97pofmOZEUHKMxo+BXAOJuBwIbxFAICdAjqFB2F3mRgZv6xHIrgv/cG9/pi/8H/7zXv7S8HpqJ7tV2aCTLU22pQ0oLbuY+4OH2cD8v/vF67kb0FiasI4AEbeOEssg0GYBcgzd++wu2xwGIbV9+L8f3Cg/5T254dg3i5+KElIj1quLbNDJlrZeC9q01PCb9xfckeLS5RvNGpht6tYt2krEbYHHqgi0QoAcQ3czu8tWjPc4Gjl7uvdf7//xN+a68Cvppf+f7pn7GcfRiDVqKRt0sqWtUf32LTJ7uvfXD2/+u3405KXLV964/tafPnnYuIHZvp6t1GIirhIbKyHQIgFyDN3Z7C5bNOppahgCskEnW1oYQtQCgXAFiLhw+4aaIRCGADmG7gd2l2EMSGrRIgHZoJMtrUXdQFMRqCRAxFViYyUEWiRAjqE7m91li0Y9TQ1DQDboZEsLQ4haIBCuABEXbt9QMwTCECDH0P3A7jKMAUktWiQgG3SypbWoG2gqApUEiLhKbKyEQIsEyDF0Z7O7bNGop6lhCMgGnWxpYQhRCwTCFSDiwu0baoZAGALkGLof2F2GMSCpRYsEZINOtrQWdQNNRaCSABFXiY2VEGiRADmG7mx2ly0a9TQ1DAHZoJMtLQwhaoFAuAJEXLh9Q80QCEOAHEP3A7vLMAYktWiRgGzQyZbWom6gqQhUEiDiKrGxEgItEiDH0J3N7rJFo56mhiEgG3SypYUhRC0QCFeAiAu3b6gZAmEIkGPofmB3GcaApBYtEpANOtnSWtQNNBWBSgJEXCU2VkKgRQLkGLqz2V22aNTT1DAEZINOtrQwhKgFAuEKEHHh9g01QyAMAXIM3Q/sLsMYkNSiRQKyQSdbWou6gaYiUEmAiKvExkoItEiAHEN3NrvLFo16mhqGgGzQyZYWhhC1QCBcASIu3L6hZgiEIUCOofuB3WUYA5JatEhANuhkS2tRN9BUBCoJEHGV2FgJgRYJkGPozmZ32YRR/8PDu599fvfLbzvrN6b77ReffZ6stemK62+CJRcIyAadbGkLqszHuxV48nUSiV886m2wGRX1KoS//nGDFVl0OwEibjs/1kag+QLkGLqP2V3GMNh/fLB8/lEhxzDNTiY3GyUnZkX+X1lANuhkS6vcKFZcJpCm9A9+WLhIlRxDF9b7+5ef3yXHWEgr/wciTt6UEhFolgA5hu5PdpcVBraaEFzg9/qqHKNCG8wq5BhG4uL+Lxt0sqVdnEJtW0qiSR/B++zzJfN+yQquyjG22BY5xhZ4lVYl4iqxsRICLRIgx9Cdze5ys1GfHjF48EM6Tbm43w7JMTbrpcCXlg062dICp9u6ekko2byi8+j+Xeft1oUvLoAcY7FNdH8h4qLrMiqMwAULkGNocHaXG4y8ZKLw8EmyQqUcw/ABXLMAABJ1SURBVD1/WpejNm5+iUwnIuoXVnVmtpoD2d9c7YvsvG23zPKcJ62q/uFWVd5r8cLjGEtL1kdy0mKzyngF82ahgGzQyZa2sNLN/MNmgewOe/8wZlJOEghO1KhMxlul7PiJu4BNfjxsp0x/o2ops/fw1kneuHuPQpC6u4X7f+8WVuaDxQJE3GIb/oIAAokAOYYeB+wuKwXEZlOTZBPdb7/IcoB0WpClGert53c/M1/26azCmXCYGczCui6YZ6jZSbbdHx9kr3VZyRSncD1GOjsxlSkkVOmsKEtXnnxtl1xYP/7gCsgGnWxpbj1b8HqDQO48up+FpPo5IIsmO2XXceFHUBr+yw+YLDjQoTKQbLs/PMxe6+4pj30vSNPCnTQj1+ofHxT2AC3o+upNJOKq27EmAu0QIMfQ/czustKAz31Jb16Gl0XkUg59nCQ3J3DeFjdXOs8o/TC/blmOkbTO21xSW5tIrFVsfjO8dwRkg062NKeaLXiZn3xv0GRvEq/ycHemnssZcm+L2yldoPTD/Lpl8VhYMc15zO8Chb/mi+T9UgEibikPf0QAAY5jmDHA7tJIbPT/rXMM72s+nSW4E5R8XQqT/vwCa80z8iul70tyDC+jSBfyajtPZ1fcyqaUc60PZYNOtrS1GtCQhdKoyZLnzVrlzdoLx/ryZfkRlP+rOs5ZONDhb6JkpfSjktgvWdEL6nT3Vdjcog3weU6AiMuB8BYBBHICHMfQIOwucyNjvbdVcgw9NS85J3s3OYY3q1jYrGKOkU5Qshvv2ItA3JM03GW8Ix4Lt8MfMgHZoJMtLatlw1+pBCO7/nuN5uqpuY2Iu9npjqt2CJVyjGJsllWyJMco7mrSOttDkfP5XDe/8HnZFvjMFyDifA/eIYBAXoAcQ4uwu8wPjbXer5pSFApJv/Wd73hvzrGbHMPbRKFC5oOSecx6yUlagJ6pkGYYzrX+Lxt0sqWt1YD4F1Kz8E3GbRryzsFG/1jBqh3CymAsW8DfxCL0khxjvRXTAtPtOmdCLtoKn2cCRFxmwSsEECgTIMfQKuwuy4bHys9WTSnyBRSW96YUK3OMkmmEv4XSBQob9ddR70pyDK9uZet4n5Vu2luCNzkB2aCTLS1X1Ua+3TzBmKsbRhUO5ZkrHFaeK5UusCylKQ26JNtfeaSlLAA3+JlgjevRGzkItmgUEbcFHqsi0AoBcgzdzewuK433tabvTsnpPMCeWZFOHZzZQ/pX5ydSZ0X9Mp0VOYdB8kuUzTPMzSudmc2695Vaujn/LjTp3MjZRL5mvC8KyAadbGnF2jbskyoJhrlewt46VhWywblS+twkm5MUUEtzDL2WE/jr3lfK3+HktvbDQzdg04MeziZyC/O2IEDEFUj4AAEEPAFyDM3B7tIbFyvepKmFc0GFOjPb/XVzcQHOul9+2/GmFKtzDP/86eymT2au410+4dXH5DNpVbMpTjqx8Na6699LKr+AmwKllVdtdzKlxU3nL76AbNDJlubXtHHv/KG72Rh2QumLRz3/fKR1fnRw9gDZ0QnvQ1OfLE7nc3OLBbXbye6W639udkpu7Od3Ds66fnR7m2tcl8s3iIiTN6VEBJolQI6h+5PdZbMGNq2JQEA26GRLi4CPKiJQqwARVys/G0cgAgFyDN1J7C4jGK1UsVkCskEnW1qzpGkNAvICRJy8KSUi0CwBcgzdn+wumzWwaU0EArJBJ1taBHxUEYFaBYi4WvnZOAIRCJBj6E5idxnBaKWKzRKQDTrZ0polTWsQkBcg4uRNKRGBZgmQY+j+ZHfZrIFNayIQkA062dIi4KOKCNQqQMTVys/GEYhAgBxDdxK7ywhGK1VsloBs0MmW1ixpWoOAvAARJ29KiQg0S4AcQ/cnu8tmDWxaE4GAbNDJlhYBH1VEoFYBIq5WfjaOQAQC5Bi6k9hdRjBaqWKzBGSDTra0ZknTGgTkBYg4eVNKRKBZAuQYuj/ZXTZrYNOaCARkg062tAj4qCICtQoQcbXys3EEIhAgx9CdxO4ygtFKFZslIBt0sqU1S5rWICAvQMTJm1IiAs0SIMfQ/cnuslkDm9ZEICAbdLKlRcBHFRGoVYCIq5WfjSMQgQA5hu4kdpcRjFaq2CwB2aCTLa1Z0rQGAXkBIk7elBIRaJYAOYbuT3aXzRrYtCYCAdmgky0tAj6qiECtAkRcrfxsHIEIBMgxdCexu4xgtFLFZgnIBp1sac2SpjUIyAsQcfKmlIhAswTIMXR/srts1sCmNREIyAadbGkR8FFFBGoVIOJq5WfjCEQgQI6hO4ndZQSjlSo2S0A26GRLa5Y0rUFAXoCIkzelRASaJUCOofuT3WWzBjatiUBANuhkS4uAjyoiUKsAEVcrPxtHIAIBcgzdSewuIxitVLFZArJBJ1tas6RpDQLyAkScvCklItAsAXIM3Z/sLps1sGlNBAKyQSdbWgR8VBGBWgWIuFr52TgCEQiQY+hOYncZwWilis0SkA062dKaJU1rEJAXIOLkTSkRgWYJkGPo/mR32ayBTWsiEJANOtnSIuCjigjUKkDE1crPxhGIQIAcQ3cSu8sIRitVbJaAbNDJltYsaVqDgLwAESdvSokINEuAHEP3J7vLZg1sWhOBgGzQyZYWAR9VRKBWASKuVn42jkAEAuQYupPYXUYwWqliswRkg062tGZJ0xoE5AWIOHlTSkSgWQLkGLo/2V02a2DTmggEZINOtrQI+KgiArUKEHG18rNxBCIQIMfQndTpT87OziPoMaqIQCMEzs7OO/2JYFMIYUFMikJguYB4/C7fHH9FAIEYBcgxdK+Np8e/nLyMsQupMwIxCvxy8nIyPRasOSEsiElRCCwXEI/f5ZvjrwggEKMAOYbutdPTs25/GmMXUmcEYhTo9CenZ2eCNSeEBTEpCoHlAuLxu3xz/BUBBGIUIMfIeu3l6WmnPzk5eclJUxkKrxAQFTg7O//l5GW3P315eipacFIYISxOSoEIuAI7jV93Q7xGAIEGCJBjeJ14eno2mR53+pOfumP+IYCAuECnPxlPj2WPYLgxTAiLdxkFImAFdh2/bizzGgEEYhcgx4i9B6k/AggggAACCCCAAAJhCZBjhNUf1AYBBBBAAAEEEEAAgdgFyDFi70HqjwACCCCAAAIIIIBAWALkGGH1B7VBAAEEEEAAAQQQQCB2AXKM2HuQ+iOAAAIIIIAAAgggEJYAOUZY/UFtEEAAAQQQQAABBBCIXYAcI/YepP4IIIAAAggggAACCIQlQI4RVn9QGwQQQAABBBBAAAEEYhcgx4i9B6k/AggggAACCCCAAAJhCZBjhNUf1AYBBBBAAAEEEEAAgdgFyDFi70HqjwACCCCAAAIIIIBAWAKB5hjjyeFwNBkMx/3BqNsbHHR6Px10w5KjNggggAACCCCAAAIIIFAmYHOM/mA0GI6Ho8l4cjiZHk0PZ9PD2eHR8dHs2dHs2ez4+Ub/XttoabWNw6NjtdXJ9Igco6yz+AwBBBBAAAEEEEAAgQgE4sgxOt0+xzEiGE1UEQEEEEAAAQQQQACB+fyng26n2+/2BkEfxyDHYKwigAACCCCAAAIIIBCLADlGLD1FPRFAAAEEEEAAAQQQiEMgrBxDXZKhrscYjaf2mm+OY8QxmqglAggggAACCCCAAAKFc6VG46m95vvw6Piir/nO5RjD0aQ/GPX6w063f9Dp0V8IIIAAAggggAACCCAQvsBBp9fp9nv9YX8wGo4m5Bjhdxk1RAABBBBAAAEEEEAgaIHQc4zBcNzrD9UjMoKGpHIIIIAAAggggAACCCCQChx0et3eoNcfqodjBHccw+YYnW6fLkMAAQQQQAABBBBAAIHwBdSNa4PIMY5mz9zH8I3GU/dR3+QY4Q8maogAAggggAACCCCAwHw+X+fhGDt/zvfs+Hnpo77traXUZd/n5+f0GQIIIIAAAggggAACCIQscH5+bi/4HgzH7olS08NZ5ZtKzY6fvzY7fr7RP5tjFG8tZU+XOjl5EbImdUMAAQQQQAABBBBAAIGTkxe7uBhDPsfoD0bd3uD42XP6DAEEEEAAAQQQQAABBEIWOH72vNsb9Acj2Qu+BXKM6eHMPonPPiVjengUsiZ1QwABBBBAAAEEEEAAgenhUemTMdSJUjWcK6Uu+y49Xao/GPUHo5enp3QbAggggAACCCCAAAIIhClwenqq5u3LD2JUuOC7ynEM97Jvm2O4hzLUVRnD0eTVq1dhglIrBBBAAAEEEEAAAQTaLPDq1avhaFK8Ze1kerT9QYytcozcHWzHk0P3Jra9/vBodtzmnqPtCCCAAAIIIIAAAgiEKXA0O1ZnSRUPYrh3lKp2EEMgx1h0KKM/GKk0g6MZYQ4saoUAAggggAACCCDQQoHz81eHR7PSBKN4EONCc4zi6VL2yu/i0YzBcPziBbeybeEApskIIIAAAggggAACYQm8ePFikB4JyN1Lajw5VAmGyIlSFY9j2BzDvfLbphmj8TR30lSvPxyOxodHs59//uXs7CwsaWqDAAIIIIAAAggggEBzBc7Ozn7++ZfDo9lwNO71h7kjGMXn7tnbSVU+iFE9x1g/zRgMx+q8qW5v0O0NOt2++nfQ6al/Px10+YcAAggggAACCCCAAAIiAnaabSfeah5uswt7DcaOEoyd5BjqHlP2pKnhaKLSDJVp9PpD1Ug337Dt73T7FoUXCCCAAAIIIIAAAgggsFLAnUvb13bKbY9d2POjhqOJyi7UKVKlZ0ltcxBjqxxj0aEMe9KUSjPUeVMq08glG6rBtv28QAABBBBAAAEEEEAAgS0F1Bw7l1qoYxcqu3ATjOnhTP07PDoWOUtqdvx82xxjeZrhHtCwmYZNNmy+oZ79kfuvS8NrBBBAAAEEEEAAAQQQKArkptDu28FwrP4NRxP1T101PZ4c5g5f5K7z3vIIhnCOYa//VnezVUczJtOjXKbhJhuqtbb9vEAAAQQQQAABBBBAAIEtBWxS4aYW7rELNUV3D1+4RzCCyDHcQxnFNKOYaajMSWVR7n9zFrxFAAEEEEAAAQQQQACBjQTc2bV71MI9dmGvvrCHL8QTDIFzpdTRkKPZM/efOp3LHtBQSZJKmNwjG6q1y/9blOITBBBAAAEEEEAAAQTaLLB8/uz+1Z2B20svFmUXIkcwZM6VUqUUMw2bZqgXbpPcgxtus3mNAAIIIIAAAggggAACggK5SXhuiu4eJHBn9du/fm37ItwS3Iqq17mW5NrJWwQQQAABBBBAAAEEENipQG5CXpyxu/N5kdfCOYaqU7He7qUauUaqtztlpXAEEEAAAQQQQAABBBovUDrNth+WTtFFMopiITvJMZZkGqUHN2zLeYEAAggggAACCCCAAAJSAqV5hfqwmBgIfrLDHMPWcknb+BMCCCCAAAIIIIAAAghcmICdou/0xUXkGG4DLoyPDSGAAAIIIIAAAggggIDg3aLcWf3y1xedYyyvDX9FAAEEEEAAAQQQQACB2AXIMZ7H3oXUHwEEEEAAAQQQQACBoATIMcgxEEAAAQQQQAABBBBAQFKAHENSM6j0kcoggAACCCCAAAIIIFCLADkGOQYCCCCAAAIIIIAAAghICpBjSGrWkiayUQQQQAABBBBAAAEEghIgxyDHQAABBBBAAAEEEEAAAUkBcgxJzaDSRyqDAAIIIIAAAggggEAtAuQY5BgIIIAAAggggAACCCAgKUCOIalZS5rIRhFAAAEEEEAAAQQQCEqAHIMcAwEEEEAAAQQQQAABBCQFyDEkNYNKH6kMAggggAACCCCAAAK1CJBjkGMggAACCCCAAAIIIICApAA5hqRmLWkiG0UAAQQQQAABBBBAICgBcgxyDAQQQAABBBBAAAEEEJAUIMeQ1AwqfaQyCCCAAAIIIIAAAgjUIkCOQY6BAAIIIIAAAggggAACkgLkGJKataSJbBQBBBBAAAEEEEAAgaAEyDHIMRBAAAEEEEAAAQQQQEBSgBxDUjOo9JHKIIAAAggggAACCCBQiwA5BjkGAggggAACCCCAAAIISAqQY0hq1pImslEEEEAAAQQQQAABBIISIMcgx0AAAQQQQAABBBBAAAFJAXIMSc2g0kcqgwACCCCAAAIIIIBALQLkGOQYCCCAAAIIIIAAAgggIClAjiGpWUuayEYRQAABBBBAAAEEEAhKgByDHAMBBBBAAAEEEEAAAQQkBcgxJDWDSh+pDAIIIIAAAggggAACtQiQY5BjIIAAAggggAACCCCAgKQAOYakZi1pIhtFAAEEEEAAAQQQQCAoAXIMcgwEEEAAAQQQQAABBBCQFPh/DQEdU8hHjb0AAAAASUVORK5CYII=;" vertex="1" parent="1">
          <mxGeometry x="490" y="170" width="478.21" height="290" as="geometry" />
        </mxCell>
      </root>
    </mxGraphModel>
  </diagram>
</mxfile>
